M48
; DRILL file {KiCad 8.0.4} date 2024-09-20T12:28:09-0500
; FORMAT={-:-/ absolute / metric / decimal}
; #@! TF.CreationDate,2024-09-20T12:28:09-05:00
; #@! TF.GenerationSoftware,Kicad,Pcbnew,8.0.4
; #@! TF.FileFunction,Plated,1,4,PTH
FMAT,2
METRIC
; #@! TA.AperFunction,Plated,PTH,ViaDrill
T1C0.400
; #@! TA.AperFunction,Plated,PTH,ComponentDrill
T2C0.600
; #@! TA.AperFunction,Plated,PTH,ComponentDrill
T3C0.800
; #@! TA.AperFunction,Plated,PTH,ComponentDrill
T4C0.864
; #@! TA.AperFunction,Plated,PTH,ComponentDrill
T5C0.991
; #@! TA.AperFunction,Plated,PTH,ComponentDrill
T6C1.000
; #@! TA.AperFunction,Plated,PTH,ComponentDrill
T7C1.100
; #@! TA.AperFunction,Plated,PTH,ComponentDrill
T8C1.118
; #@! TA.AperFunction,Plated,PTH,ComponentDrill
T9C1.200
; #@! TA.AperFunction,Plated,PTH,ComponentDrill
T10C1.321
; #@! TA.AperFunction,Plated,PTH,ComponentDrill
T11C1.500
; #@! TA.AperFunction,Plated,PTH,ComponentDrill
T12C1.750
; #@! TA.AperFunction,Plated,PTH,ComponentDrill
T13C1.800
; #@! TA.AperFunction,Plated,PTH,ComponentDrill
T14C2.500
%
G90
G05
T1
X34.036Y-73.66
X34.25Y-65.8
X36.9Y-61.2
X38.608Y-75.692
X60.198Y-117.221
X99.38Y-77.912
X108.6Y-74.05
X135.001Y-65.405
T2
X32.02Y-45.974
X48.895Y-43.307
X72.982Y-105.537
X73.48Y-129.5
X73.48Y-133.5
X73.48Y-137.541
X75.692Y-105.537
X102.21Y-100.75
X126.73Y-99.5
X149.96Y-112.25
T3
X52.658Y-119.774
X52.658Y-122.174
X55.158Y-119.774
X55.158Y-122.174
X57.658Y-119.774
X57.658Y-122.174
T4
X25.654Y-54.436
X25.654Y-59.436
X59.624Y-110.998
X62.164Y-110.998
X64.704Y-110.998
X126.75Y-115.583
X126.75Y-120.583
T5
X70.645Y-110.424
X70.645Y-112.964
X70.645Y-115.504
X70.645Y-118.044
X70.645Y-120.584
X70.645Y-123.124
X70.645Y-125.664
X78.265Y-110.424
X78.265Y-112.964
X78.265Y-115.504
X78.265Y-118.044
X78.265Y-120.584
X78.265Y-123.124
X78.265Y-125.664
T6
X32.25Y-136.0
X40.64Y-43.18
X41.402Y-136.25
X46.924Y-106.462
X49.464Y-106.462
X51.0Y-136.25
X52.004Y-106.462
X60.75Y-136.271
X60.96Y-43.18
X87.63Y-136.017
X100.33Y-50.038
X100.33Y-52.578
X100.33Y-55.118
X100.33Y-57.658
X100.33Y-60.198
X100.33Y-62.738
X100.33Y-65.278
X100.33Y-67.818
X100.33Y-70.358
X100.33Y-72.898
X102.87Y-50.038
X102.87Y-52.578
X102.87Y-55.118
X102.87Y-57.658
X102.87Y-60.198
X102.87Y-62.738
X102.87Y-65.278
X102.87Y-67.818
X102.87Y-70.358
X102.87Y-72.898
X143.51Y-50.038
X143.51Y-52.578
X143.51Y-55.118
X143.51Y-57.658
X143.51Y-60.198
X143.51Y-62.738
X143.51Y-65.278
X143.51Y-67.818
X143.51Y-70.358
X143.51Y-72.898
X146.05Y-50.038
X146.05Y-52.578
X146.05Y-55.118
X146.05Y-57.658
X146.05Y-60.198
X146.05Y-62.738
X146.05Y-65.278
X146.05Y-67.818
X146.05Y-70.358
X146.05Y-72.898
T7
X95.283Y-120.842
X95.346Y-114.746
X97.823Y-120.842
X97.886Y-114.746
X100.363Y-120.842
X100.426Y-114.746
T8
X118.75Y-113.738
X121.25Y-121.238
T9
X29.48Y-45.974
X51.435Y-43.307
X70.442Y-105.537
X76.02Y-129.5
X76.02Y-133.5
X76.02Y-137.541
X78.232Y-105.537
X104.75Y-100.75
X129.27Y-99.5
X152.5Y-112.25
T10
X126.75Y-108.75
X126.75Y-126.809
T11
X21.73Y-108.712
X21.73Y-127.762
X26.924Y-65.512
X26.924Y-101.112
X39.23Y-108.712
X39.23Y-127.762
X49.808Y-120.974
X60.508Y-120.974
X135.268Y-102.87
X135.268Y-121.92
X152.768Y-102.87
X152.768Y-121.92
T12
X45.974Y-54.864
X45.974Y-90.424
X48.514Y-57.404
X48.514Y-87.884
X51.054Y-54.864
X51.054Y-59.944
X51.054Y-85.344
X51.054Y-90.424
X53.594Y-57.404
X53.594Y-87.884
X56.134Y-54.864
X56.134Y-90.424
X58.674Y-57.404
X58.674Y-87.884
X61.214Y-54.864
X61.214Y-90.424
X63.754Y-57.404
X63.754Y-87.884
X66.294Y-54.864
X66.294Y-90.424
X68.834Y-57.404
X68.834Y-87.884
X71.374Y-54.864
X71.374Y-90.424
X73.914Y-57.404
X73.914Y-87.884
X76.454Y-54.864
X76.454Y-90.424
X78.994Y-57.404
X78.994Y-87.884
X81.534Y-54.864
X81.534Y-59.944
X81.534Y-85.344
X81.534Y-90.424
X84.074Y-57.404
X84.074Y-87.884
X86.614Y-54.864
X86.614Y-90.424
T13
X36.05Y-56.15
X98.1Y-104.4
T14
X85.123Y-125.414
X85.186Y-110.174
X110.459Y-125.41
X110.523Y-110.17
T12
X56.134Y-59.941G85X56.134Y-61.471
G05
X56.134Y-83.817G85X56.134Y-85.347
G05
X61.214Y-59.941G85X61.214Y-61.471
G05
X61.214Y-83.817G85X61.214Y-85.347
G05
X66.294Y-59.941G85X66.294Y-61.471
G05
X66.294Y-83.817G85X66.294Y-85.347
G05
X71.374Y-59.941G85X71.374Y-61.471
G05
X71.374Y-83.817G85X71.374Y-85.347
G05
X76.454Y-59.941G85X76.454Y-61.471
G05
X76.454Y-83.817G85X76.454Y-85.347
G05
M30
