%TF.GenerationSoftware,KiCad,Pcbnew,8.0.4*%
%TF.CreationDate,2024-09-20T12:27:39-05:00*%
%TF.ProjectId,Boost_9_8,426f6f73-745f-4395-9f38-2e6b69636164,rev?*%
%TF.SameCoordinates,Original*%
%TF.FileFunction,Soldermask,Top*%
%TF.FilePolarity,Negative*%
%FSLAX46Y46*%
G04 Gerber Fmt 4.6, Leading zero omitted, Abs format (unit mm)*
G04 Created by KiCad (PCBNEW 8.0.4) date 2024-09-20 12:27:39*
%MOMM*%
%LPD*%
G01*
G04 APERTURE LIST*
G04 Aperture macros list*
%AMRoundRect*
0 Rectangle with rounded corners*
0 $1 Rounding radius*
0 $2 $3 $4 $5 $6 $7 $8 $9 X,Y pos of 4 corners*
0 Add a 4 corners polygon primitive as box body*
4,1,4,$2,$3,$4,$5,$6,$7,$8,$9,$2,$3,0*
0 Add four circle primitives for the rounded corners*
1,1,$1+$1,$2,$3*
1,1,$1+$1,$4,$5*
1,1,$1+$1,$6,$7*
1,1,$1+$1,$8,$9*
0 Add four rect primitives between the rounded corners*
20,1,$1+$1,$2,$3,$4,$5,0*
20,1,$1+$1,$4,$5,$6,$7,0*
20,1,$1+$1,$6,$7,$8,$9,0*
20,1,$1+$1,$8,$9,$2,$3,0*%
%AMFreePoly0*
4,1,19,0.500000,-0.750000,0.000000,-0.750000,0.000000,-0.744911,-0.071157,-0.744911,-0.207708,-0.704816,-0.327430,-0.627875,-0.420627,-0.520320,-0.479746,-0.390866,-0.500000,-0.250000,-0.500000,0.250000,-0.479746,0.390866,-0.420627,0.520320,-0.327430,0.627875,-0.207708,0.704816,-0.071157,0.744911,0.000000,0.744911,0.000000,0.750000,0.500000,0.750000,0.500000,-0.750000,0.500000,-0.750000,
$1*%
%AMFreePoly1*
4,1,19,0.000000,0.744911,0.071157,0.744911,0.207708,0.704816,0.327430,0.627875,0.420627,0.520320,0.479746,0.390866,0.500000,0.250000,0.500000,-0.250000,0.479746,-0.390866,0.420627,-0.520320,0.327430,-0.627875,0.207708,-0.704816,0.071157,-0.744911,0.000000,-0.744911,0.000000,-0.750000,-0.500000,-0.750000,-0.500000,0.750000,0.000000,0.750000,0.000000,0.744911,0.000000,0.744911,
$1*%
G04 Aperture macros list end*
%ADD10C,0.000000*%
%ADD11FreePoly0,180.000000*%
%ADD12FreePoly1,180.000000*%
%ADD13C,2.300000*%
%ADD14C,1.200000*%
%ADD15C,2.000000*%
%ADD16R,2.250000X2.250000*%
%ADD17C,2.250000*%
%ADD18R,1.200000X1.200000*%
%ADD19C,3.200000*%
%ADD20C,1.371600*%
%ADD21R,1.371600X1.371600*%
%ADD22R,1.905000X2.000000*%
%ADD23O,1.905000X2.000000*%
%ADD24RoundRect,0.250000X-0.450000X0.262500X-0.450000X-0.262500X0.450000X-0.262500X0.450000X0.262500X0*%
%ADD25RoundRect,0.250000X0.475000X-0.250000X0.475000X0.250000X-0.475000X0.250000X-0.475000X-0.250000X0*%
%ADD26RoundRect,0.102000X0.750000X0.800000X-0.750000X0.800000X-0.750000X-0.800000X0.750000X-0.800000X0*%
%ADD27RoundRect,0.250000X-0.262500X-0.450000X0.262500X-0.450000X0.262500X0.450000X-0.262500X0.450000X0*%
%ADD28R,1.300000X1.300000*%
%ADD29C,1.300000*%
%ADD30RoundRect,0.250000X0.450000X-0.262500X0.450000X0.262500X-0.450000X0.262500X-0.450000X-0.262500X0*%
%ADD31RoundRect,0.250000X0.262500X0.450000X-0.262500X0.450000X-0.262500X-0.450000X0.262500X-0.450000X0*%
%ADD32R,1.700000X1.700000*%
%ADD33O,1.700000X1.700000*%
%ADD34C,2.800000*%
%ADD35C,2.600000*%
%ADD36O,2.600000X4.200000*%
%ADD37C,3.600000*%
%ADD38RoundRect,0.250000X-0.475000X0.250000X-0.475000X-0.250000X0.475000X-0.250000X0.475000X0.250000X0*%
%ADD39RoundRect,0.102000X0.754000X0.754000X-0.754000X0.754000X-0.754000X-0.754000X0.754000X-0.754000X0*%
%ADD40C,1.712000*%
%ADD41RoundRect,0.102000X-0.750000X-0.800000X0.750000X-0.800000X0.750000X0.800000X-0.750000X0.800000X0*%
%ADD42R,1.625600X1.625600*%
%ADD43C,1.625600*%
%ADD44C,1.507998*%
%ADD45R,1.828800X1.828800*%
%ADD46C,1.828800*%
G04 APERTURE END LIST*
D10*
%TO.C,G\u002A\u002A\u002A*%
G36*
X140278087Y-137042431D02*
G01*
X140418744Y-137045815D01*
X140418744Y-137484990D01*
X140418744Y-137924166D01*
X140385174Y-137992528D01*
X140344287Y-138059026D01*
X140292050Y-138111989D01*
X140224918Y-138153945D01*
X140139346Y-138187426D01*
X140093902Y-138200394D01*
X140034861Y-138211588D01*
X139959999Y-138219697D01*
X139877405Y-138224363D01*
X139795169Y-138225227D01*
X139721378Y-138221928D01*
X139688632Y-138218394D01*
X139578340Y-138194645D01*
X139482694Y-138156702D01*
X139403795Y-138105746D01*
X139343744Y-138042958D01*
X139325070Y-138014087D01*
X139287716Y-137948230D01*
X139284167Y-137494014D01*
X139280617Y-137039798D01*
X139425545Y-137039798D01*
X139570473Y-137039798D01*
X139570473Y-137436078D01*
X139570879Y-137556104D01*
X139572070Y-137658713D01*
X139574005Y-137742537D01*
X139576644Y-137806205D01*
X139579945Y-137848349D01*
X139583244Y-137866230D01*
X139617208Y-137923567D01*
X139669536Y-137967644D01*
X139737800Y-137997315D01*
X139819572Y-138011435D01*
X139890165Y-138010993D01*
X139974476Y-137997361D01*
X140039862Y-137970254D01*
X140087797Y-137928965D01*
X140101686Y-137909500D01*
X140109264Y-137896819D01*
X140115376Y-137883948D01*
X140120207Y-137868249D01*
X140123941Y-137847083D01*
X140126763Y-137817813D01*
X140128858Y-137777801D01*
X140130409Y-137724409D01*
X140131601Y-137654998D01*
X140132618Y-137566932D01*
X140133646Y-137457570D01*
X140133700Y-137451526D01*
X140137429Y-137039047D01*
X140278087Y-137042431D01*
G37*
G36*
X135199330Y-137020163D02*
G01*
X135308951Y-137046117D01*
X135400644Y-137085830D01*
X135475760Y-137139993D01*
X135535654Y-137209296D01*
X135565508Y-137259721D01*
X135592094Y-137321184D01*
X135611067Y-137388947D01*
X135623698Y-137468897D01*
X135631069Y-137563200D01*
X135630620Y-137697397D01*
X135615038Y-137817569D01*
X135584738Y-137922146D01*
X135540134Y-138009558D01*
X135499744Y-138060618D01*
X135449474Y-138101789D01*
X135382643Y-138139866D01*
X135306749Y-138171121D01*
X135240345Y-138189616D01*
X135172468Y-138199648D01*
X135090119Y-138205168D01*
X135000812Y-138206278D01*
X134912061Y-138203082D01*
X134831382Y-138195684D01*
X134766288Y-138184186D01*
X134761763Y-138183036D01*
X134676935Y-138156529D01*
X134609574Y-138124933D01*
X134553144Y-138084841D01*
X134527289Y-138060849D01*
X134469108Y-137985857D01*
X134425951Y-137892580D01*
X134398036Y-137781702D01*
X134385579Y-137653907D01*
X134385470Y-137647196D01*
X134687862Y-137647196D01*
X134698226Y-137753651D01*
X134720670Y-137840307D01*
X134756196Y-137908731D01*
X134805807Y-137960486D01*
X134870503Y-137997138D01*
X134922640Y-138013987D01*
X134982574Y-138021390D01*
X135052191Y-138018592D01*
X135120668Y-138006763D01*
X135177177Y-137987070D01*
X135178606Y-137986354D01*
X135237803Y-137943983D01*
X135282600Y-137883937D01*
X135313194Y-137805686D01*
X135329784Y-137708701D01*
X135332566Y-137592453D01*
X135331904Y-137575461D01*
X135324913Y-137484965D01*
X135312173Y-137413428D01*
X135292135Y-137356114D01*
X135263254Y-137308288D01*
X135233593Y-137274526D01*
X135182459Y-137233756D01*
X135124043Y-137208702D01*
X135053475Y-137197903D01*
X134981402Y-137198766D01*
X134895170Y-137212981D01*
X134824382Y-137243935D01*
X134768663Y-137292202D01*
X134727636Y-137358356D01*
X134700926Y-137442973D01*
X134688156Y-137546625D01*
X134687862Y-137647196D01*
X134385470Y-137647196D01*
X134384890Y-137611329D01*
X134393837Y-137477494D01*
X134420268Y-137360178D01*
X134464094Y-137259459D01*
X134525222Y-137175418D01*
X134603564Y-137108134D01*
X134699027Y-137057688D01*
X134811522Y-137024159D01*
X134940957Y-137007627D01*
X135070426Y-137007279D01*
X135199330Y-137020163D01*
G37*
G36*
X144232956Y-136994939D02*
G01*
X144363005Y-137005632D01*
X144473376Y-137028660D01*
X144565563Y-137064919D01*
X144641060Y-137115306D01*
X144701359Y-137180715D01*
X144747955Y-137262044D01*
X144769182Y-137316539D01*
X144783790Y-137375838D01*
X144794685Y-137451794D01*
X144801494Y-137537235D01*
X144803845Y-137624987D01*
X144801365Y-137707877D01*
X144793683Y-137778732D01*
X144793288Y-137781067D01*
X144764638Y-137890249D01*
X144719038Y-137982393D01*
X144656225Y-138057771D01*
X144575933Y-138116657D01*
X144477897Y-138159325D01*
X144409512Y-138177454D01*
X144342664Y-138187252D01*
X144260921Y-138192628D01*
X144172095Y-138193668D01*
X144083997Y-138190456D01*
X144004439Y-138183079D01*
X143944183Y-138172364D01*
X143840333Y-138138498D01*
X143754431Y-138091825D01*
X143685661Y-138031128D01*
X143633210Y-137955186D01*
X143596265Y-137862783D01*
X143574011Y-137752698D01*
X143567037Y-137645284D01*
X143857167Y-137645284D01*
X143870109Y-137743678D01*
X143896414Y-137828920D01*
X143935200Y-137898486D01*
X143985581Y-137949850D01*
X144008312Y-137964475D01*
X144071366Y-137989000D01*
X144145434Y-138001903D01*
X144222875Y-138003171D01*
X144296050Y-137992791D01*
X144357318Y-137970752D01*
X144367258Y-137965075D01*
X144420219Y-137921915D01*
X144460338Y-137864670D01*
X144488786Y-137790862D01*
X144506735Y-137698018D01*
X144510616Y-137662089D01*
X144512911Y-137562236D01*
X144502296Y-137467302D01*
X144479968Y-137381310D01*
X144447125Y-137308282D01*
X144404963Y-137252239D01*
X144382985Y-137233427D01*
X144336480Y-137205298D01*
X144286761Y-137188242D01*
X144226650Y-137180476D01*
X144166685Y-137179745D01*
X144079662Y-137190973D01*
X144007157Y-137220997D01*
X143948990Y-137270027D01*
X143904980Y-137338269D01*
X143874948Y-137425934D01*
X143858711Y-137533230D01*
X143858473Y-137536264D01*
X143857167Y-137645284D01*
X143567037Y-137645284D01*
X143565636Y-137623714D01*
X143565524Y-137605312D01*
X143573064Y-137468873D01*
X143595981Y-137350529D01*
X143634719Y-137249876D01*
X143689724Y-137166505D01*
X143761439Y-137100011D01*
X143850311Y-137049987D01*
X143956782Y-137016025D01*
X144081299Y-136997720D01*
X144224305Y-136994665D01*
X144232956Y-136994939D01*
G37*
G36*
X128329848Y-137133048D02*
G01*
X128326371Y-137238330D01*
X127946177Y-137244346D01*
X127836176Y-137246112D01*
X127747726Y-137247888D01*
X127678318Y-137250167D01*
X127625443Y-137253441D01*
X127586591Y-137258202D01*
X127559254Y-137264941D01*
X127540922Y-137274150D01*
X127529087Y-137286323D01*
X127521240Y-137301949D01*
X127514872Y-137321522D01*
X127512534Y-137329376D01*
X127506956Y-137384193D01*
X127523785Y-137432204D01*
X127560534Y-137469363D01*
X127573480Y-137476419D01*
X127591148Y-137481969D01*
X127616684Y-137486292D01*
X127653237Y-137489668D01*
X127703955Y-137492376D01*
X127771985Y-137494693D01*
X127860476Y-137496898D01*
X127875163Y-137497225D01*
X127965924Y-137499359D01*
X128036188Y-137501503D01*
X128089521Y-137504013D01*
X128129487Y-137507243D01*
X128159654Y-137511550D01*
X128183585Y-137517288D01*
X128204846Y-137524813D01*
X128220813Y-137531676D01*
X128280681Y-137567611D01*
X128334666Y-137616496D01*
X128376165Y-137671573D01*
X128393704Y-137708599D01*
X128402004Y-137745336D01*
X128407555Y-137794858D01*
X128409117Y-137842177D01*
X128397729Y-137935208D01*
X128366193Y-138015456D01*
X128315159Y-138081978D01*
X128245276Y-138133833D01*
X128190557Y-138159038D01*
X128172350Y-138165330D01*
X128153013Y-138170410D01*
X128129869Y-138174406D01*
X128100237Y-138177449D01*
X128061439Y-138179665D01*
X128010798Y-138181183D01*
X127945633Y-138182132D01*
X127863266Y-138182641D01*
X127761019Y-138182837D01*
X127693851Y-138182859D01*
X127576712Y-138182709D01*
X127481547Y-138182210D01*
X127406267Y-138181285D01*
X127348782Y-138179855D01*
X127307005Y-138177846D01*
X127278845Y-138175179D01*
X127262214Y-138171777D01*
X127255023Y-138167565D01*
X127254562Y-138166692D01*
X127251986Y-138147313D01*
X127250987Y-138111329D01*
X127251750Y-138066160D01*
X127251931Y-138061410D01*
X127255504Y-137972295D01*
X127635077Y-137966279D01*
X127742435Y-137964452D01*
X127828372Y-137962625D01*
X127895531Y-137960626D01*
X127946554Y-137958282D01*
X127984085Y-137955419D01*
X128010766Y-137951864D01*
X128029239Y-137947445D01*
X128042148Y-137941987D01*
X128046583Y-137939320D01*
X128078141Y-137905789D01*
X128094031Y-137861611D01*
X128094468Y-137813763D01*
X128079671Y-137769225D01*
X128049856Y-137734974D01*
X128040046Y-137728817D01*
X128023923Y-137721867D01*
X128002005Y-137716332D01*
X127971128Y-137711937D01*
X127928131Y-137708406D01*
X127869851Y-137705465D01*
X127793128Y-137702838D01*
X127718744Y-137700837D01*
X127604909Y-137697259D01*
X127514759Y-137692807D01*
X127448398Y-137687486D01*
X127405930Y-137681305D01*
X127393875Y-137677963D01*
X127314313Y-137636800D01*
X127253257Y-137580443D01*
X127211300Y-137509770D01*
X127189031Y-137425653D01*
X127185367Y-137369602D01*
X127196126Y-137280028D01*
X127227757Y-137201681D01*
X127279126Y-137136053D01*
X127349098Y-137084639D01*
X127426986Y-137051769D01*
X127449630Y-137045275D01*
X127472964Y-137040063D01*
X127499838Y-137035992D01*
X127533105Y-137032925D01*
X127575618Y-137030722D01*
X127630227Y-137029244D01*
X127699784Y-137028352D01*
X127787143Y-137027907D01*
X127895154Y-137027769D01*
X127919012Y-137027766D01*
X128333324Y-137027766D01*
X128329848Y-137133048D01*
G37*
G36*
X129836414Y-137135207D02*
G01*
X129836414Y-137244346D01*
X129559194Y-137244346D01*
X129468857Y-137244519D01*
X129399197Y-137245199D01*
X129346826Y-137246624D01*
X129308359Y-137249035D01*
X129280407Y-137252672D01*
X129259585Y-137257774D01*
X129242506Y-137264580D01*
X129237332Y-137267130D01*
X129179077Y-137308338D01*
X129137954Y-137364609D01*
X129112644Y-137437901D01*
X129108830Y-137457918D01*
X129100334Y-137509055D01*
X129474390Y-137509055D01*
X129848446Y-137509055D01*
X129848446Y-137611329D01*
X129848446Y-137713602D01*
X129474390Y-137713602D01*
X129100334Y-137713602D01*
X129108563Y-137764739D01*
X129130686Y-137838272D01*
X129170094Y-137897814D01*
X129224745Y-137940391D01*
X129231625Y-137943924D01*
X129251255Y-137952942D01*
X129270964Y-137959876D01*
X129294273Y-137965066D01*
X129324700Y-137968851D01*
X129365767Y-137971570D01*
X129420993Y-137973564D01*
X129493898Y-137975171D01*
X129568697Y-137976429D01*
X129848446Y-137980849D01*
X129848446Y-138081854D01*
X129848446Y-138182859D01*
X129538617Y-138181902D01*
X129414051Y-138180788D01*
X129312914Y-138178269D01*
X129234611Y-138174321D01*
X129178545Y-138168917D01*
X129155412Y-138164982D01*
X129056552Y-138132893D01*
X128970046Y-138083428D01*
X128898688Y-138018846D01*
X128845273Y-137941403D01*
X128826401Y-137899191D01*
X128802831Y-137815865D01*
X128787586Y-137718428D01*
X128781535Y-137615650D01*
X128785549Y-137516301D01*
X128787060Y-137502343D01*
X128808435Y-137384598D01*
X128842903Y-137285910D01*
X128891324Y-137204610D01*
X128954558Y-137139033D01*
X128986727Y-137115112D01*
X129020614Y-137093282D01*
X129052563Y-137075796D01*
X129085790Y-137062127D01*
X129123510Y-137051749D01*
X129168938Y-137044133D01*
X129225290Y-137038755D01*
X129295780Y-137035087D01*
X129383626Y-137032603D01*
X129492041Y-137030776D01*
X129502520Y-137030631D01*
X129836414Y-137026068D01*
X129836414Y-137135207D01*
G37*
G36*
X131689374Y-137605021D02*
G01*
X131689374Y-138182859D01*
X131563192Y-138182859D01*
X131437010Y-138182859D01*
X131433846Y-137768797D01*
X131430682Y-137354736D01*
X131298662Y-137769128D01*
X131166641Y-138183520D01*
X131011778Y-138180181D01*
X130856915Y-138176842D01*
X130722671Y-137755779D01*
X130588427Y-137334716D01*
X130585265Y-137758787D01*
X130582103Y-138182859D01*
X130461935Y-138182859D01*
X130341767Y-138182859D01*
X130341767Y-137605312D01*
X130341767Y-137027766D01*
X130532192Y-137027766D01*
X130722618Y-137027766D01*
X130865618Y-137474363D01*
X130897242Y-137572280D01*
X130926730Y-137661955D01*
X130953270Y-137741044D01*
X130976053Y-137807205D01*
X130994268Y-137858092D01*
X131007104Y-137891363D01*
X131013751Y-137904674D01*
X131014389Y-137904515D01*
X131019208Y-137889633D01*
X131030409Y-137854446D01*
X131047153Y-137801603D01*
X131068603Y-137733753D01*
X131093921Y-137653547D01*
X131122269Y-137563635D01*
X131152810Y-137466666D01*
X131154617Y-137460926D01*
X131289074Y-137033782D01*
X131489224Y-137030483D01*
X131689374Y-137027184D01*
X131689374Y-137605021D01*
G37*
G36*
X134009067Y-137132025D02*
G01*
X134005575Y-137238330D01*
X133740867Y-137244346D01*
X133635870Y-137247430D01*
X133553773Y-137251377D01*
X133494902Y-137256164D01*
X133459586Y-137261769D01*
X133450736Y-137264943D01*
X133395641Y-137310288D01*
X133353861Y-137375067D01*
X133325727Y-137458451D01*
X133311569Y-137559610D01*
X133309836Y-137617345D01*
X133312941Y-137703140D01*
X133322642Y-137770746D01*
X133340083Y-137825413D01*
X133364834Y-137870105D01*
X133388693Y-137902039D01*
X133413841Y-137927030D01*
X133443498Y-137945914D01*
X133480880Y-137959527D01*
X133529206Y-137968707D01*
X133591693Y-137974290D01*
X133671560Y-137977113D01*
X133772025Y-137978011D01*
X133779971Y-137978024D01*
X134011591Y-137978311D01*
X134011591Y-138080585D01*
X134011591Y-138182859D01*
X133695746Y-138182054D01*
X133581145Y-138181244D01*
X133489246Y-138179421D01*
X133418705Y-138176525D01*
X133368179Y-138172496D01*
X133336324Y-138167276D01*
X133331771Y-138165988D01*
X133235148Y-138124984D01*
X133155639Y-138068414D01*
X133092980Y-137995797D01*
X133046908Y-137906655D01*
X133017159Y-137800507D01*
X133003467Y-137676875D01*
X133003655Y-137570540D01*
X133016687Y-137441222D01*
X133044306Y-137330566D01*
X133087001Y-137237731D01*
X133145262Y-137161878D01*
X133219577Y-137102166D01*
X133299754Y-137061863D01*
X133321776Y-137053692D01*
X133343929Y-137047276D01*
X133369518Y-137042347D01*
X133401851Y-137038638D01*
X133444231Y-137035883D01*
X133499965Y-137033813D01*
X133572358Y-137032162D01*
X133664716Y-137030662D01*
X133690213Y-137030295D01*
X134012558Y-137025719D01*
X134009067Y-137132025D01*
G37*
G36*
X136245470Y-137030469D02*
G01*
X136433872Y-137033782D01*
X136696678Y-137454361D01*
X136959483Y-137874940D01*
X136959483Y-137451353D01*
X136959483Y-137027766D01*
X137103870Y-137027766D01*
X137248257Y-137027766D01*
X137248257Y-137605618D01*
X137248257Y-138183470D01*
X137059758Y-138180156D01*
X136871259Y-138176842D01*
X136605542Y-137767967D01*
X136339824Y-137359091D01*
X136336658Y-137770975D01*
X136333492Y-138182859D01*
X136195280Y-138182859D01*
X136057067Y-138182859D01*
X136057067Y-137605007D01*
X136057067Y-137027155D01*
X136245470Y-137030469D01*
G37*
G36*
X141820497Y-137136056D02*
G01*
X141820497Y-137244346D01*
X141567434Y-137244346D01*
X141472992Y-137244751D01*
X141399253Y-137246352D01*
X141342861Y-137249730D01*
X141300462Y-137255466D01*
X141268703Y-137264139D01*
X141244228Y-137276330D01*
X141223684Y-137292620D01*
X141210450Y-137306114D01*
X141171403Y-137362207D01*
X141144524Y-137433574D01*
X141128982Y-137522840D01*
X141125185Y-137575367D01*
X141124697Y-137676661D01*
X141133823Y-137759031D01*
X141153247Y-137825897D01*
X141183651Y-137880683D01*
X141187082Y-137885313D01*
X141210824Y-137913317D01*
X141236667Y-137935088D01*
X141267895Y-137951395D01*
X141307790Y-137963005D01*
X141359638Y-137970683D01*
X141426721Y-137975199D01*
X141512325Y-137977319D01*
X141582861Y-137977784D01*
X141820497Y-137978311D01*
X141820497Y-138080585D01*
X141820497Y-138182859D01*
X141510668Y-138181650D01*
X141424109Y-138180911D01*
X141343273Y-138179466D01*
X141271981Y-138177444D01*
X141214054Y-138174972D01*
X141173314Y-138172177D01*
X141155668Y-138169796D01*
X141072538Y-138139230D01*
X140994767Y-138090173D01*
X140928012Y-138027243D01*
X140877928Y-137955058D01*
X140868193Y-137935023D01*
X140835570Y-137837368D01*
X140816530Y-137727035D01*
X140810944Y-137610372D01*
X140818680Y-137493728D01*
X140839611Y-137383450D01*
X140873606Y-137285886D01*
X140881806Y-137268765D01*
X140910821Y-137221503D01*
X140947823Y-137174340D01*
X140969727Y-137151676D01*
X141008759Y-137118089D01*
X141047451Y-137091080D01*
X141088968Y-137069956D01*
X141136476Y-137054023D01*
X141193140Y-137042588D01*
X141262124Y-137034959D01*
X141346594Y-137030442D01*
X141449714Y-137028344D01*
X141534732Y-137027944D01*
X141820497Y-137027766D01*
X141820497Y-137136056D01*
G37*
G36*
X143300459Y-137130040D02*
G01*
X143300459Y-137232314D01*
X143089896Y-137232314D01*
X142879332Y-137232314D01*
X142879332Y-137707586D01*
X142879332Y-138182859D01*
X142747117Y-138182859D01*
X142614902Y-138182859D01*
X142611755Y-137710594D01*
X142608607Y-137238330D01*
X142401051Y-137235038D01*
X142193496Y-137231746D01*
X142193496Y-137129756D01*
X142193496Y-137027766D01*
X142746977Y-137027766D01*
X143300459Y-137027766D01*
X143300459Y-137130040D01*
G37*
G36*
X145745482Y-137027920D02*
G01*
X145848963Y-137028617D01*
X145933488Y-137030211D01*
X146001613Y-137033054D01*
X146055892Y-137037501D01*
X146098879Y-137043905D01*
X146133128Y-137052619D01*
X146161194Y-137063996D01*
X146185631Y-137078391D01*
X146208994Y-137096155D01*
X146227105Y-137111691D01*
X146283966Y-137177194D01*
X146322337Y-137255266D01*
X146341162Y-137341891D01*
X146339385Y-137433049D01*
X146327007Y-137491707D01*
X146294443Y-137563337D01*
X146243138Y-137625680D01*
X146178050Y-137673631D01*
X146129527Y-137695056D01*
X146090919Y-137710748D01*
X146075543Y-137724355D01*
X146076285Y-137729641D01*
X146085365Y-137743451D01*
X146105813Y-137774008D01*
X146135496Y-137818140D01*
X146172280Y-137872676D01*
X146214029Y-137934444D01*
X146226781Y-137953286D01*
X146269033Y-138016155D01*
X146306274Y-138072438D01*
X146336514Y-138119057D01*
X146357764Y-138152929D01*
X146368031Y-138170976D01*
X146368673Y-138172874D01*
X146357387Y-138176589D01*
X146326506Y-138179677D01*
X146280498Y-138181853D01*
X146223831Y-138182831D01*
X146212287Y-138182859D01*
X146055900Y-138182859D01*
X145908473Y-137960582D01*
X145761047Y-137738305D01*
X145613652Y-137737986D01*
X145466257Y-137737667D01*
X145466257Y-137960263D01*
X145466257Y-138182859D01*
X145327887Y-138182859D01*
X145189517Y-138182859D01*
X145189517Y-137605312D01*
X145189517Y-137545151D01*
X145466257Y-137545151D01*
X145665477Y-137545151D01*
X145736742Y-137544352D01*
X145803584Y-137542145D01*
X145860530Y-137538818D01*
X145902105Y-137534657D01*
X145917164Y-137531940D01*
X145969503Y-137512383D01*
X146003141Y-137482633D01*
X146020931Y-137438749D01*
X146025755Y-137382021D01*
X146024417Y-137337340D01*
X146018818Y-137308418D01*
X146006585Y-137287023D01*
X145994562Y-137273860D01*
X145973267Y-137256139D01*
X145947214Y-137242723D01*
X145912964Y-137233051D01*
X145867082Y-137226562D01*
X145806128Y-137222697D01*
X145726667Y-137220895D01*
X145667797Y-137220569D01*
X145466257Y-137220282D01*
X145466257Y-137382716D01*
X145466257Y-137545151D01*
X145189517Y-137545151D01*
X145189517Y-137382716D01*
X145189517Y-137027766D01*
X145620492Y-137027766D01*
X145745482Y-137027920D01*
G37*
G36*
X132531629Y-137599296D02*
G01*
X132531629Y-138170826D01*
X132381227Y-138170826D01*
X132230824Y-138170826D01*
X132230824Y-137599296D01*
X132230824Y-137027766D01*
X132381227Y-137027766D01*
X132531629Y-137027766D01*
X132531629Y-137599296D01*
G37*
G36*
X138123600Y-137018777D02*
G01*
X138235741Y-137020229D01*
X138326820Y-137021898D01*
X138399840Y-137024188D01*
X138457802Y-137027506D01*
X138503709Y-137032257D01*
X138540562Y-137038848D01*
X138571364Y-137047683D01*
X138599116Y-137059169D01*
X138626820Y-137073711D01*
X138655812Y-137090716D01*
X138728816Y-137148349D01*
X138786793Y-137224718D01*
X138829699Y-137319726D01*
X138857488Y-137433277D01*
X138869279Y-137546043D01*
X138869197Y-137676000D01*
X138854212Y-137792031D01*
X138823596Y-137899655D01*
X138822008Y-137903938D01*
X138785156Y-137973326D01*
X138730507Y-138038943D01*
X138664214Y-138094656D01*
X138592427Y-138134335D01*
X138589759Y-138135410D01*
X138569027Y-138143329D01*
X138549031Y-138149677D01*
X138526847Y-138154665D01*
X138499551Y-138158501D01*
X138464219Y-138161394D01*
X138417927Y-138163553D01*
X138357751Y-138165189D01*
X138280766Y-138166509D01*
X138184049Y-138167724D01*
X138129616Y-138168332D01*
X137741577Y-138172596D01*
X137741577Y-137969205D01*
X138006286Y-137969205D01*
X138189777Y-137963755D01*
X138277807Y-137960058D01*
X138343966Y-137954737D01*
X138390408Y-137947565D01*
X138415943Y-137939863D01*
X138471546Y-137902949D01*
X138514427Y-137846189D01*
X138544234Y-137770380D01*
X138560615Y-137676319D01*
X138563897Y-137605312D01*
X138558592Y-137501825D01*
X138541166Y-137415737D01*
X138510737Y-137343171D01*
X138500208Y-137325442D01*
X138476247Y-137291996D01*
X138450033Y-137266900D01*
X138417681Y-137248862D01*
X138375302Y-137236593D01*
X138319011Y-137228804D01*
X138244922Y-137224204D01*
X138189777Y-137222425D01*
X138006286Y-137217710D01*
X138006286Y-137593458D01*
X138006286Y-137969205D01*
X137741577Y-137969205D01*
X137741577Y-137593458D01*
X137741577Y-137593401D01*
X137741577Y-137014206D01*
X138123600Y-137018777D01*
G37*
G36*
X133880067Y-131964511D02*
G01*
X134003256Y-131966809D01*
X134122168Y-131970326D01*
X134232458Y-131974994D01*
X134329778Y-131980740D01*
X134409782Y-131987493D01*
X134444751Y-131991602D01*
X134663732Y-132027811D01*
X134861544Y-132074686D01*
X135038762Y-132132581D01*
X135195962Y-132201849D01*
X135333718Y-132282845D01*
X135452605Y-132375923D01*
X135553198Y-132481437D01*
X135636071Y-132599740D01*
X135701800Y-132731186D01*
X135719497Y-132776606D01*
X135733826Y-132816181D01*
X135746305Y-132852352D01*
X135757063Y-132887024D01*
X135766226Y-132922106D01*
X135773923Y-132959506D01*
X135780282Y-133001129D01*
X135785430Y-133048884D01*
X135789495Y-133104678D01*
X135792606Y-133170418D01*
X135794889Y-133248012D01*
X135796473Y-133339366D01*
X135797486Y-133446389D01*
X135798054Y-133570987D01*
X135798308Y-133715068D01*
X135798373Y-133880539D01*
X135798375Y-133953536D01*
X135798330Y-134121194D01*
X135798169Y-134266619D01*
X135797851Y-134391645D01*
X135797338Y-134498102D01*
X135796589Y-134587822D01*
X135795565Y-134662639D01*
X135794226Y-134724384D01*
X135792532Y-134774888D01*
X135790443Y-134815984D01*
X135787919Y-134849505D01*
X135784922Y-134877281D01*
X135781410Y-134901145D01*
X135777345Y-134922930D01*
X135777334Y-134922984D01*
X135736466Y-135080692D01*
X135680845Y-135223520D01*
X135609757Y-135351974D01*
X135522488Y-135466559D01*
X135418326Y-135567781D01*
X135296556Y-135656146D01*
X135156465Y-135732160D01*
X134997340Y-135796327D01*
X134818467Y-135849154D01*
X134619133Y-135891146D01*
X134398624Y-135922809D01*
X134360526Y-135927036D01*
X134273971Y-135934497D01*
X134169019Y-135940703D01*
X134051311Y-135945546D01*
X133926486Y-135948920D01*
X133800184Y-135950718D01*
X133678046Y-135950833D01*
X133565712Y-135949160D01*
X133468821Y-135945591D01*
X133446481Y-135944316D01*
X133203457Y-135922890D01*
X132981416Y-135890214D01*
X132780030Y-135846214D01*
X132598971Y-135790818D01*
X132437910Y-135723951D01*
X132419437Y-135714917D01*
X132278411Y-135633407D01*
X132156778Y-135538503D01*
X132053645Y-135429103D01*
X131968117Y-135304106D01*
X131899299Y-135162410D01*
X131848845Y-135012268D01*
X131815713Y-134892049D01*
X131815780Y-133971584D01*
X132910644Y-133971584D01*
X132910674Y-134139572D01*
X132910791Y-134285275D01*
X132911036Y-134410473D01*
X132911453Y-134516946D01*
X132912081Y-134606474D01*
X132912962Y-134680837D01*
X132914138Y-134741814D01*
X132915651Y-134791186D01*
X132917542Y-134830732D01*
X132919853Y-134862232D01*
X132922625Y-134887466D01*
X132925900Y-134908214D01*
X132929719Y-134926255D01*
X132933259Y-134940177D01*
X132973905Y-135055590D01*
X133029407Y-135152405D01*
X133100876Y-135231775D01*
X133189422Y-135294857D01*
X133296156Y-135342803D01*
X133331771Y-135354373D01*
X133384483Y-135369157D01*
X133434755Y-135380532D01*
X133486703Y-135388849D01*
X133544446Y-135394460D01*
X133612102Y-135397716D01*
X133693789Y-135398967D01*
X133793624Y-135398565D01*
X133843140Y-135397972D01*
X133938856Y-135396378D01*
X134014596Y-135394305D01*
X134074447Y-135391442D01*
X134122498Y-135387478D01*
X134162835Y-135382102D01*
X134199548Y-135375002D01*
X134225130Y-135368878D01*
X134349544Y-135327561D01*
X134455575Y-135271822D01*
X134542722Y-135202153D01*
X134610486Y-135119047D01*
X134658367Y-135022995D01*
X134685726Y-134915406D01*
X134688559Y-134883058D01*
X134690909Y-134826741D01*
X134692775Y-134746546D01*
X134694157Y-134642562D01*
X134695053Y-134514881D01*
X134695463Y-134363593D01*
X134695386Y-134188789D01*
X134694821Y-133990559D01*
X134694540Y-133922749D01*
X134693744Y-133751743D01*
X134692948Y-133603082D01*
X134692107Y-133475047D01*
X134691178Y-133365918D01*
X134690115Y-133273975D01*
X134688875Y-133197500D01*
X134687413Y-133134772D01*
X134685685Y-133084073D01*
X134683647Y-133043682D01*
X134681254Y-133011881D01*
X134678462Y-132986950D01*
X134675227Y-132967169D01*
X134671504Y-132950820D01*
X134669280Y-132942830D01*
X134632269Y-132846138D01*
X134581738Y-132764165D01*
X134516414Y-132696168D01*
X134435024Y-132641406D01*
X134336293Y-132599137D01*
X134218950Y-132568617D01*
X134081720Y-132549107D01*
X133981511Y-132541989D01*
X133794532Y-132537263D01*
X133628657Y-132542387D01*
X133482830Y-132557826D01*
X133355994Y-132584044D01*
X133247095Y-132621505D01*
X133155077Y-132670676D01*
X133078884Y-132732022D01*
X133017460Y-132806006D01*
X132969750Y-132893094D01*
X132934697Y-132993751D01*
X132931937Y-133004231D01*
X132927880Y-133021609D01*
X132924368Y-133041065D01*
X132921364Y-133064371D01*
X132918829Y-133093298D01*
X132916722Y-133129615D01*
X132915006Y-133175095D01*
X132913642Y-133231509D01*
X132912589Y-133300626D01*
X132911811Y-133384218D01*
X132911266Y-133484056D01*
X132910917Y-133601910D01*
X132910725Y-133739552D01*
X132910650Y-133898753D01*
X132910644Y-133971584D01*
X131815780Y-133971584D01*
X131815781Y-133953536D01*
X131815849Y-133015023D01*
X131848928Y-132894701D01*
X131899208Y-132746329D01*
X131964942Y-132612047D01*
X132046767Y-132491468D01*
X132145317Y-132384201D01*
X132261226Y-132289858D01*
X132395130Y-132208050D01*
X132547664Y-132138388D01*
X132719462Y-132080483D01*
X132911159Y-132033947D01*
X133123390Y-131998389D01*
X133352105Y-131973804D01*
X133431477Y-131968939D01*
X133528306Y-131965648D01*
X133638245Y-131963860D01*
X133756948Y-131963504D01*
X133880067Y-131964511D01*
G37*
G36*
X129122326Y-131968107D02*
G01*
X129260276Y-131968718D01*
X129392113Y-131969893D01*
X129514841Y-131971632D01*
X129625466Y-131973935D01*
X129720995Y-131976799D01*
X129798432Y-131980225D01*
X129854462Y-131984181D01*
X130043964Y-132005941D01*
X130211896Y-132033576D01*
X130360175Y-132067721D01*
X130490721Y-132109015D01*
X130605451Y-132158094D01*
X130706283Y-132215596D01*
X130795134Y-132282157D01*
X130821250Y-132305383D01*
X130903800Y-132394714D01*
X130971268Y-132496816D01*
X131025046Y-132614368D01*
X131066526Y-132750047D01*
X131077581Y-132798444D01*
X131090145Y-132875119D01*
X131099812Y-132969423D01*
X131106358Y-133075070D01*
X131109557Y-133185774D01*
X131109185Y-133295247D01*
X131105018Y-133397205D01*
X131100829Y-133449861D01*
X131080746Y-133603259D01*
X131051432Y-133736125D01*
X131011285Y-133850748D01*
X130958704Y-133949418D01*
X130892089Y-134034425D01*
X130809839Y-134108058D01*
X130710352Y-134172609D01*
X130592027Y-134230366D01*
X130540298Y-134251596D01*
X130493752Y-134268308D01*
X130434791Y-134287193D01*
X130368524Y-134306865D01*
X130300062Y-134325942D01*
X130234518Y-134343040D01*
X130177003Y-134356774D01*
X130132626Y-134365761D01*
X130107970Y-134368647D01*
X130092275Y-134373603D01*
X130091096Y-134379460D01*
X130099349Y-134390130D01*
X130122012Y-134417692D01*
X130157883Y-134460721D01*
X130205761Y-134517794D01*
X130264446Y-134587488D01*
X130332736Y-134668378D01*
X130409431Y-134759041D01*
X130493331Y-134858054D01*
X130583234Y-134963992D01*
X130677940Y-135075433D01*
X130696717Y-135097509D01*
X130792543Y-135210203D01*
X130884061Y-135317916D01*
X130970039Y-135419192D01*
X131049247Y-135512579D01*
X131120453Y-135596622D01*
X131182426Y-135669867D01*
X131233936Y-135730860D01*
X131273751Y-135778146D01*
X131300640Y-135810272D01*
X131313372Y-135825784D01*
X131314050Y-135826678D01*
X131316688Y-135831440D01*
X131315988Y-135835455D01*
X131310117Y-135838783D01*
X131297240Y-135841487D01*
X131275525Y-135843626D01*
X131243138Y-135845262D01*
X131198246Y-135846455D01*
X131139016Y-135847266D01*
X131063613Y-135847757D01*
X130970204Y-135847988D01*
X130856957Y-135848020D01*
X130722037Y-135847914D01*
X130676343Y-135847864D01*
X130022913Y-135847118D01*
X129482970Y-135199015D01*
X129391704Y-135089329D01*
X129303955Y-134983601D01*
X129221103Y-134883513D01*
X129144532Y-134790747D01*
X129075623Y-134706986D01*
X129015758Y-134633909D01*
X128966318Y-134573200D01*
X128928686Y-134526540D01*
X128904243Y-134495610D01*
X128896279Y-134485016D01*
X128868236Y-134443714D01*
X128846928Y-134406383D01*
X128831326Y-134368603D01*
X128820401Y-134325955D01*
X128813125Y-134274021D01*
X128808470Y-134208380D01*
X128805407Y-134124615D01*
X128804536Y-134090821D01*
X128799121Y-133867140D01*
X129087515Y-133858847D01*
X129218075Y-133854506D01*
X129327828Y-133849445D01*
X129420028Y-133843355D01*
X129497927Y-133835925D01*
X129564781Y-133826847D01*
X129623842Y-133815810D01*
X129677868Y-133802640D01*
X129774566Y-133770316D01*
X129854651Y-133729396D01*
X129919306Y-133677907D01*
X129969716Y-133613875D01*
X130007062Y-133535324D01*
X130032529Y-133440281D01*
X130047300Y-133326772D01*
X130052558Y-133192823D01*
X130052607Y-133177458D01*
X130050203Y-133064852D01*
X130042197Y-132972160D01*
X130027458Y-132895651D01*
X130004857Y-132831594D01*
X129973267Y-132776259D01*
X129931557Y-132725913D01*
X129909362Y-132704056D01*
X129844213Y-132652739D01*
X129767517Y-132610916D01*
X129676702Y-132577762D01*
X129569197Y-132552452D01*
X129442431Y-132534157D01*
X129355730Y-132526180D01*
X129271396Y-132521524D01*
X129175630Y-132519212D01*
X129072366Y-132519071D01*
X128965540Y-132520931D01*
X128859085Y-132524621D01*
X128756937Y-132529969D01*
X128663031Y-132536805D01*
X128581303Y-132544957D01*
X128515686Y-132554254D01*
X128470116Y-132564526D01*
X128469519Y-132564714D01*
X128434234Y-132582375D01*
X128403342Y-132607245D01*
X128374500Y-132637944D01*
X128368484Y-134240269D01*
X128362468Y-135842593D01*
X127805978Y-135845722D01*
X127249488Y-135848850D01*
X127249488Y-133948506D01*
X127249488Y-132048162D01*
X127312657Y-132041280D01*
X127347758Y-132038038D01*
X127404340Y-132033550D01*
X127479862Y-132027990D01*
X127571781Y-132021530D01*
X127677557Y-132014345D01*
X127794648Y-132006607D01*
X127920512Y-131998490D01*
X128052608Y-131990166D01*
X128157920Y-131983667D01*
X128236992Y-131979726D01*
X128333903Y-131976357D01*
X128445660Y-131973560D01*
X128569267Y-131971332D01*
X128701732Y-131969674D01*
X128840060Y-131968584D01*
X128981256Y-131968063D01*
X129122326Y-131968107D01*
G37*
G36*
X137682095Y-132735275D02*
G01*
X137682282Y-132888110D01*
X137682616Y-133018753D01*
X137683247Y-133129072D01*
X137684323Y-133220941D01*
X137685994Y-133296228D01*
X137688409Y-133356806D01*
X137691716Y-133404546D01*
X137696064Y-133441317D01*
X137701603Y-133468992D01*
X137708482Y-133489441D01*
X137716848Y-133504535D01*
X137726852Y-133516146D01*
X137738642Y-133526143D01*
X137745470Y-133531282D01*
X137752292Y-133536077D01*
X137760038Y-133540222D01*
X137770408Y-133543763D01*
X137785102Y-133546749D01*
X137805819Y-133549226D01*
X137834259Y-133551242D01*
X137872123Y-133552844D01*
X137921110Y-133554081D01*
X137982920Y-133554999D01*
X138059253Y-133555646D01*
X138151809Y-133556069D01*
X138262288Y-133556316D01*
X138392390Y-133556434D01*
X138543814Y-133556470D01*
X138647886Y-133556473D01*
X138813742Y-133556446D01*
X138957226Y-133556339D01*
X139080028Y-133556110D01*
X139183839Y-133555719D01*
X139270352Y-133555125D01*
X139341256Y-133554286D01*
X139398244Y-133553162D01*
X139443008Y-133551713D01*
X139477237Y-133549897D01*
X139502624Y-133547673D01*
X139520860Y-133545001D01*
X139533636Y-133541839D01*
X139542643Y-133538148D01*
X139548380Y-133534712D01*
X139562704Y-133524856D01*
X139574935Y-133514986D01*
X139585237Y-133503230D01*
X139593777Y-133487715D01*
X139600720Y-133466569D01*
X139606230Y-133437921D01*
X139610474Y-133399897D01*
X139613617Y-133350627D01*
X139615824Y-133288238D01*
X139617260Y-133210857D01*
X139618090Y-133116613D01*
X139618481Y-133003634D01*
X139618597Y-132870047D01*
X139618602Y-132739472D01*
X139618602Y-132046430D01*
X140184116Y-132046430D01*
X140749630Y-132046430D01*
X140749630Y-133947520D01*
X140749630Y-135848609D01*
X140184116Y-135848609D01*
X139618602Y-135848609D01*
X139618602Y-135101423D01*
X139618606Y-134943075D01*
X139618510Y-134807000D01*
X139618154Y-134691403D01*
X139617381Y-134594494D01*
X139616029Y-134514479D01*
X139613940Y-134449565D01*
X139610955Y-134397960D01*
X139606913Y-134357872D01*
X139601655Y-134327509D01*
X139595022Y-134305076D01*
X139586855Y-134288783D01*
X139576994Y-134276836D01*
X139565279Y-134267443D01*
X139551551Y-134258811D01*
X139543207Y-134253813D01*
X139535013Y-134249278D01*
X139525354Y-134245366D01*
X139512497Y-134242030D01*
X139494711Y-134239226D01*
X139470263Y-134236906D01*
X139437423Y-134235026D01*
X139394459Y-134233539D01*
X139339638Y-134232399D01*
X139271230Y-134231560D01*
X139187503Y-134230977D01*
X139086724Y-134230603D01*
X138967163Y-134230392D01*
X138827087Y-134230299D01*
X138664765Y-134230277D01*
X138656025Y-134230277D01*
X138488439Y-134230263D01*
X138343219Y-134230305D01*
X138218665Y-134230530D01*
X138113079Y-134231063D01*
X138024762Y-134232031D01*
X137952016Y-134233559D01*
X137893141Y-134235774D01*
X137846439Y-134238803D01*
X137810210Y-134242771D01*
X137782757Y-134247804D01*
X137762380Y-134254029D01*
X137747380Y-134261571D01*
X137736060Y-134270557D01*
X137726719Y-134281114D01*
X137717659Y-134293366D01*
X137712579Y-134300335D01*
X137707474Y-134307693D01*
X137703101Y-134316150D01*
X137699395Y-134327537D01*
X137696289Y-134343686D01*
X137693717Y-134366428D01*
X137691614Y-134397594D01*
X137689913Y-134439015D01*
X137688548Y-134492522D01*
X137687454Y-134559947D01*
X137686564Y-134643120D01*
X137685813Y-134743874D01*
X137685134Y-134864038D01*
X137684462Y-135005445D01*
X137684077Y-135091453D01*
X137680722Y-135848609D01*
X137121571Y-135848609D01*
X136562420Y-135848609D01*
X136562420Y-133947520D01*
X136562420Y-132046430D01*
X137121918Y-132046430D01*
X137681416Y-132046430D01*
X137682095Y-132735275D01*
G37*
G36*
X143962313Y-131963638D02*
G01*
X144117606Y-131964423D01*
X144270135Y-131965823D01*
X144417269Y-131967814D01*
X144556374Y-131970370D01*
X144684817Y-131973469D01*
X144799966Y-131977083D01*
X144899188Y-131981190D01*
X144979849Y-131985765D01*
X145039318Y-131990782D01*
X145043507Y-131991250D01*
X145224319Y-132015551D01*
X145384178Y-132044885D01*
X145525834Y-132080135D01*
X145652037Y-132122183D01*
X145765538Y-132171912D01*
X145869087Y-132230203D01*
X145940259Y-132278878D01*
X146043514Y-132369780D01*
X146132099Y-132478644D01*
X146204656Y-132603383D01*
X146259827Y-132741914D01*
X146274555Y-132792428D01*
X146301729Y-132894701D01*
X146305484Y-134371655D01*
X146309239Y-135848609D01*
X145779458Y-135848609D01*
X145249678Y-135848609D01*
X145249579Y-134449865D01*
X145249454Y-134224638D01*
X145249116Y-134014534D01*
X145248572Y-133820430D01*
X145247829Y-133643201D01*
X145246896Y-133483722D01*
X145245778Y-133342870D01*
X145244483Y-133221519D01*
X145243018Y-133120546D01*
X145241390Y-133040825D01*
X145239607Y-132983233D01*
X145237676Y-132948644D01*
X145237251Y-132944373D01*
X145222783Y-132854227D01*
X145200577Y-132780371D01*
X145168467Y-132721253D01*
X145124291Y-132675321D01*
X145065883Y-132641024D01*
X144991080Y-132616808D01*
X144897717Y-132601122D01*
X144783629Y-132592415D01*
X144744325Y-132590909D01*
X144673190Y-132588850D01*
X144621913Y-132588108D01*
X144586304Y-132589073D01*
X144562174Y-132592136D01*
X144545333Y-132597687D01*
X144531593Y-132606117D01*
X144524781Y-132611372D01*
X144491736Y-132637686D01*
X144488684Y-134240140D01*
X144485632Y-135842593D01*
X143953463Y-135845726D01*
X143421294Y-135848859D01*
X143418030Y-134247406D01*
X143414765Y-132645953D01*
X143381006Y-132616917D01*
X143367275Y-132605955D01*
X143352927Y-132598200D01*
X143333797Y-132593130D01*
X143305723Y-132590225D01*
X143264542Y-132588965D01*
X143206090Y-132588828D01*
X143158410Y-132589086D01*
X143081169Y-132590070D01*
X143000898Y-132591929D01*
X142925882Y-132594419D01*
X142864405Y-132597297D01*
X142851188Y-132598110D01*
X142795448Y-132602377D01*
X142758405Y-132607261D01*
X142734702Y-132614134D01*
X142718984Y-132624368D01*
X142709810Y-132634334D01*
X142706517Y-132638943D01*
X142703555Y-132645033D01*
X142700905Y-132653833D01*
X142698550Y-132666570D01*
X142696474Y-132684473D01*
X142694657Y-132708771D01*
X142693084Y-132740692D01*
X142691736Y-132781465D01*
X142690597Y-132832318D01*
X142689648Y-132894480D01*
X142688873Y-132969179D01*
X142688253Y-133057644D01*
X142687772Y-133161104D01*
X142687412Y-133280786D01*
X142687155Y-133417920D01*
X142686985Y-133573733D01*
X142686884Y-133749455D01*
X142686834Y-133946314D01*
X142686817Y-134165538D01*
X142686816Y-134255674D01*
X142686816Y-135848609D01*
X142151383Y-135848609D01*
X141615950Y-135848609D01*
X141615950Y-133948546D01*
X141615950Y-132048484D01*
X141703183Y-132041109D01*
X141747765Y-132037854D01*
X141813458Y-132033769D01*
X141897331Y-132028995D01*
X141996450Y-132023673D01*
X142107884Y-132017943D01*
X142228698Y-132011945D01*
X142355961Y-132005820D01*
X142486739Y-131999709D01*
X142618100Y-131993752D01*
X142747111Y-131988089D01*
X142870839Y-131982862D01*
X142986352Y-131978210D01*
X143090717Y-131974274D01*
X143119976Y-131973234D01*
X143236556Y-131969809D01*
X143366171Y-131967147D01*
X143506187Y-131965223D01*
X143653971Y-131964014D01*
X143806891Y-131963494D01*
X143962313Y-131963638D01*
G37*
%TD*%
D11*
%TO.C,JP1*%
X137937000Y-65405000D03*
D12*
X136637000Y-65405000D03*
%TD*%
D13*
%TO.C,J10*%
X104750000Y-100750000D03*
D14*
X102210000Y-100750000D03*
%TD*%
D15*
%TO.C,TP13*%
X87630000Y-136017000D03*
%TD*%
D16*
%TO.C,J1*%
X21730000Y-108712000D03*
D17*
X39230000Y-108712000D03*
%TD*%
D13*
%TO.C,J14*%
X29480000Y-45974000D03*
D14*
X32020000Y-45974000D03*
%TD*%
D18*
%TO.C,D2*%
X73914000Y-123066000D03*
X73914000Y-120266000D03*
%TD*%
D15*
%TO.C,TP7*%
X40640000Y-43180000D03*
%TD*%
D19*
%TO.C,H4*%
X152400000Y-137668000D03*
%TD*%
D20*
%TO.C,C6*%
X25654000Y-59436000D03*
X25654000Y-54436000D03*
%TD*%
D13*
%TO.C,J11*%
X78232000Y-105537000D03*
D14*
X75692000Y-105537000D03*
%TD*%
D15*
%TO.C,TP5*%
X51000000Y-136250000D03*
%TD*%
D13*
%TO.C,J12*%
X76020000Y-137541000D03*
D14*
X73480000Y-137541000D03*
%TD*%
D21*
%TO.C,PS2*%
X59624000Y-110998000D03*
D20*
X62164000Y-110998000D03*
X64704000Y-110998000D03*
%TD*%
D22*
%TO.C,Q2*%
X100363000Y-120841566D03*
D23*
X97823000Y-120841566D03*
X95283000Y-120841566D03*
%TD*%
D24*
%TO.C,R9*%
X108585000Y-70461500D03*
X108585000Y-72286500D03*
%TD*%
D17*
%TO.C,F1*%
X26924000Y-101112000D03*
X26924000Y-65512000D03*
%TD*%
D25*
%TO.C,C3*%
X76200000Y-122804000D03*
X76200000Y-120904000D03*
%TD*%
D26*
%TO.C,D4*%
X61186000Y-127508000D03*
X57686000Y-127508000D03*
%TD*%
D13*
%TO.C,J8*%
X76020000Y-129500000D03*
D14*
X73480000Y-129500000D03*
%TD*%
D19*
%TO.C,H1*%
X22352000Y-43434000D03*
%TD*%
D16*
%TO.C,J2*%
X21730000Y-127762000D03*
D17*
X39230000Y-127762000D03*
%TD*%
D27*
%TO.C,R11*%
X63095500Y-127508000D03*
X64920500Y-127508000D03*
%TD*%
D19*
%TO.C,H3*%
X22352000Y-137414000D03*
%TD*%
D25*
%TO.C,C4*%
X76233000Y-115570000D03*
X76233000Y-113670000D03*
%TD*%
D17*
%TO.C,SW1*%
X60508000Y-120974000D03*
X49808000Y-120974000D03*
D28*
X57658000Y-119774000D03*
D29*
X55158000Y-119774000D03*
X52658000Y-119774000D03*
X52658000Y-122174000D03*
X55158000Y-122174000D03*
X57658000Y-122174000D03*
%TD*%
D15*
%TO.C,TP1*%
X32250000Y-136000000D03*
%TD*%
D30*
%TO.C,R7*%
X92964000Y-67968500D03*
X92964000Y-66143500D03*
%TD*%
D25*
%TO.C,C8*%
X95350000Y-68000000D03*
X95350000Y-66100000D03*
%TD*%
D31*
%TO.C,R10*%
X47470000Y-127508000D03*
X45645000Y-127508000D03*
%TD*%
D13*
%TO.C,J16*%
X51435000Y-43307000D03*
D14*
X48895000Y-43307000D03*
%TD*%
D13*
%TO.C,J13*%
X152500000Y-112250000D03*
D14*
X149960000Y-112250000D03*
%TD*%
D32*
%TO.C,U3*%
X100330000Y-50038000D03*
D33*
X100330000Y-52578000D03*
X100330000Y-55118000D03*
X100330000Y-57658000D03*
X100330000Y-60198000D03*
X100330000Y-62738000D03*
X100330000Y-65278000D03*
X100330000Y-67818000D03*
X100330000Y-70358000D03*
X100330000Y-72898000D03*
X146050000Y-72898000D03*
X146050000Y-70358000D03*
X146050000Y-67818000D03*
X146050000Y-65278000D03*
X146050000Y-62738000D03*
X146050000Y-60198000D03*
X146050000Y-57658000D03*
X146050000Y-55118000D03*
X146050000Y-52578000D03*
X146050000Y-50038000D03*
X102870000Y-50038000D03*
X102870000Y-52578000D03*
X102870000Y-55118000D03*
X102870000Y-57658000D03*
X102870000Y-60198000D03*
X102870000Y-62738000D03*
X102870000Y-65278000D03*
X102870000Y-67818000D03*
X102870000Y-70358000D03*
X102870000Y-72898000D03*
X143510000Y-72898000D03*
X143510000Y-70358000D03*
X143510000Y-67818000D03*
X143510000Y-65278000D03*
X143510000Y-62738000D03*
X143510000Y-60198000D03*
X143510000Y-57658000D03*
X143510000Y-55118000D03*
X143510000Y-52578000D03*
D32*
X143510000Y-50038000D03*
%TD*%
D34*
%TO.C,L1*%
X45974000Y-54864000D03*
X48514000Y-57404000D03*
X51054000Y-54864000D03*
D35*
X51054000Y-59944000D03*
D34*
X53594000Y-57404000D03*
X56134000Y-54864000D03*
D36*
X56134000Y-60706000D03*
D34*
X58674000Y-57404000D03*
X61214000Y-54864000D03*
D36*
X61214000Y-60706000D03*
D34*
X63754000Y-57404000D03*
X66294000Y-54864000D03*
D36*
X66294000Y-60706000D03*
D34*
X68834000Y-57404000D03*
X71374000Y-54864000D03*
D36*
X71374000Y-60706000D03*
D34*
X73914000Y-57404000D03*
X76454000Y-54864000D03*
D36*
X76454000Y-60706000D03*
D34*
X78994000Y-57404000D03*
X81534000Y-54864000D03*
D35*
X81534000Y-59944000D03*
D34*
X84074000Y-57404000D03*
X86614000Y-54864000D03*
X45974000Y-90424000D03*
X48514000Y-87884000D03*
D35*
X51054000Y-85344000D03*
D34*
X51054000Y-90424000D03*
X53594000Y-87884000D03*
D36*
X56134000Y-84582000D03*
D34*
X56134000Y-90424000D03*
X58674000Y-87884000D03*
D36*
X61214000Y-84582000D03*
D34*
X61214000Y-90424000D03*
X63754000Y-87884000D03*
D36*
X66294000Y-84582000D03*
D34*
X66294000Y-90424000D03*
X68834000Y-87884000D03*
D36*
X71374000Y-84582000D03*
D34*
X71374000Y-90424000D03*
X73914000Y-87884000D03*
D36*
X76454000Y-84582000D03*
D34*
X76454000Y-90424000D03*
X78994000Y-87884000D03*
D35*
X81534000Y-85344000D03*
D34*
X81534000Y-90424000D03*
X84074000Y-87884000D03*
X86614000Y-90424000D03*
%TD*%
D15*
%TO.C,TP11*%
X60960000Y-43180000D03*
%TD*%
D37*
%TO.C,J5*%
X98100000Y-104400000D03*
%TD*%
D15*
%TO.C,TP2*%
X41402000Y-136250000D03*
%TD*%
%TO.C,TP3*%
X60750000Y-136271000D03*
%TD*%
D38*
%TO.C,C14*%
X111050000Y-70450000D03*
X111050000Y-72350000D03*
%TD*%
D39*
%TO.C,PS1*%
X52004000Y-106462000D03*
D40*
X49464000Y-106462000D03*
X46924000Y-106462000D03*
%TD*%
D16*
%TO.C,J4*%
X152768000Y-102870000D03*
D17*
X135268000Y-102870000D03*
%TD*%
D16*
%TO.C,J3*%
X152768000Y-121920000D03*
D17*
X135268000Y-121920000D03*
%TD*%
D13*
%TO.C,J15*%
X129270000Y-99500000D03*
D14*
X126730000Y-99500000D03*
%TD*%
D41*
%TO.C,D3*%
X49276000Y-127508000D03*
X52776000Y-127508000D03*
%TD*%
D37*
%TO.C,J6*%
X36050000Y-56150000D03*
%TD*%
%TO.C,HS2*%
X85123000Y-125413566D03*
X110459500Y-125410000D03*
%TD*%
D20*
%TO.C,C16*%
X126750000Y-120583250D03*
X126750000Y-115583250D03*
%TD*%
D19*
%TO.C,H2*%
X152400000Y-43434000D03*
%TD*%
D22*
%TO.C,Q1*%
X95346500Y-114745566D03*
D23*
X97886500Y-114745566D03*
X100426500Y-114745566D03*
%TD*%
D13*
%TO.C,J9*%
X76020000Y-133500000D03*
D14*
X73480000Y-133500000D03*
%TD*%
D37*
%TO.C,HS1*%
X85186500Y-110173566D03*
X110523000Y-110170000D03*
%TD*%
D13*
%TO.C,J7*%
X70442000Y-105537000D03*
D14*
X72982000Y-105537000D03*
%TD*%
D42*
%TO.C,RV1*%
X121250000Y-121238000D03*
D43*
X118750000Y-113738000D03*
%TD*%
D44*
%TO.C,U1*%
X78265000Y-110424000D03*
X78265000Y-112964000D03*
X78265000Y-115504000D03*
X78265000Y-118044000D03*
X78265000Y-120584000D03*
X78265000Y-123124000D03*
X78265000Y-125664000D03*
X70645000Y-110424000D03*
X70645000Y-112964000D03*
X70645000Y-115504000D03*
X70645000Y-118044000D03*
X70645000Y-120584000D03*
X70645000Y-123124000D03*
X70645000Y-125664000D03*
%TD*%
D45*
%TO.C,D1*%
X126750000Y-126809400D03*
D46*
X126750000Y-108750000D03*
%TD*%
M02*
