%TF.GenerationSoftware,KiCad,Pcbnew,8.0.4*%
%TF.CreationDate,2024-09-20T12:27:38-05:00*%
%TF.ProjectId,Boost_9_8,426f6f73-745f-4395-9f38-2e6b69636164,rev?*%
%TF.SameCoordinates,Original*%
%TF.FileFunction,Copper,L1,Top*%
%TF.FilePolarity,Positive*%
%FSLAX46Y46*%
G04 Gerber Fmt 4.6, Leading zero omitted, Abs format (unit mm)*
G04 Created by KiCad (PCBNEW 8.0.4) date 2024-09-20 12:27:38*
%MOMM*%
%LPD*%
G01*
G04 APERTURE LIST*
G04 Aperture macros list*
%AMRoundRect*
0 Rectangle with rounded corners*
0 $1 Rounding radius*
0 $2 $3 $4 $5 $6 $7 $8 $9 X,Y pos of 4 corners*
0 Add a 4 corners polygon primitive as box body*
4,1,4,$2,$3,$4,$5,$6,$7,$8,$9,$2,$3,0*
0 Add four circle primitives for the rounded corners*
1,1,$1+$1,$2,$3*
1,1,$1+$1,$4,$5*
1,1,$1+$1,$6,$7*
1,1,$1+$1,$8,$9*
0 Add four rect primitives between the rounded corners*
20,1,$1+$1,$2,$3,$4,$5,0*
20,1,$1+$1,$4,$5,$6,$7,0*
20,1,$1+$1,$6,$7,$8,$9,0*
20,1,$1+$1,$8,$9,$2,$3,0*%
%AMFreePoly0*
4,1,19,0.500000,-0.750000,0.000000,-0.750000,0.000000,-0.744911,-0.071157,-0.744911,-0.207708,-0.704816,-0.327430,-0.627875,-0.420627,-0.520320,-0.479746,-0.390866,-0.500000,-0.250000,-0.500000,0.250000,-0.479746,0.390866,-0.420627,0.520320,-0.327430,0.627875,-0.207708,0.704816,-0.071157,0.744911,0.000000,0.744911,0.000000,0.750000,0.500000,0.750000,0.500000,-0.750000,0.500000,-0.750000,
$1*%
%AMFreePoly1*
4,1,19,0.000000,0.744911,0.071157,0.744911,0.207708,0.704816,0.327430,0.627875,0.420627,0.520320,0.479746,0.390866,0.500000,0.250000,0.500000,-0.250000,0.479746,-0.390866,0.420627,-0.520320,0.327430,-0.627875,0.207708,-0.704816,0.071157,-0.744911,0.000000,-0.744911,0.000000,-0.750000,-0.500000,-0.750000,-0.500000,0.750000,0.000000,0.750000,0.000000,0.744911,0.000000,0.744911,
$1*%
G04 Aperture macros list end*
%TA.AperFunction,SMDPad,CuDef*%
%ADD10FreePoly0,180.000000*%
%TD*%
%TA.AperFunction,SMDPad,CuDef*%
%ADD11FreePoly1,180.000000*%
%TD*%
%TA.AperFunction,ComponentPad*%
%ADD12C,2.300000*%
%TD*%
%TA.AperFunction,ComponentPad*%
%ADD13C,1.200000*%
%TD*%
%TA.AperFunction,ComponentPad*%
%ADD14C,2.000000*%
%TD*%
%TA.AperFunction,ComponentPad*%
%ADD15R,2.250000X2.250000*%
%TD*%
%TA.AperFunction,ComponentPad*%
%ADD16C,2.250000*%
%TD*%
%TA.AperFunction,SMDPad,CuDef*%
%ADD17R,1.200000X1.200000*%
%TD*%
%TA.AperFunction,ComponentPad*%
%ADD18C,1.371600*%
%TD*%
%TA.AperFunction,ComponentPad*%
%ADD19R,1.371600X1.371600*%
%TD*%
%TA.AperFunction,ComponentPad*%
%ADD20R,1.905000X2.000000*%
%TD*%
%TA.AperFunction,ComponentPad*%
%ADD21O,1.905000X2.000000*%
%TD*%
%TA.AperFunction,SMDPad,CuDef*%
%ADD22RoundRect,0.250000X-0.450000X0.262500X-0.450000X-0.262500X0.450000X-0.262500X0.450000X0.262500X0*%
%TD*%
%TA.AperFunction,SMDPad,CuDef*%
%ADD23RoundRect,0.250000X0.475000X-0.250000X0.475000X0.250000X-0.475000X0.250000X-0.475000X-0.250000X0*%
%TD*%
%TA.AperFunction,SMDPad,CuDef*%
%ADD24R,1.500000X1.600000*%
%TD*%
%TA.AperFunction,SMDPad,CuDef*%
%ADD25RoundRect,0.250000X-0.262500X-0.450000X0.262500X-0.450000X0.262500X0.450000X-0.262500X0.450000X0*%
%TD*%
%TA.AperFunction,ComponentPad*%
%ADD26R,1.300000X1.300000*%
%TD*%
%TA.AperFunction,ComponentPad*%
%ADD27C,1.300000*%
%TD*%
%TA.AperFunction,SMDPad,CuDef*%
%ADD28RoundRect,0.250000X0.450000X-0.262500X0.450000X0.262500X-0.450000X0.262500X-0.450000X-0.262500X0*%
%TD*%
%TA.AperFunction,SMDPad,CuDef*%
%ADD29RoundRect,0.250000X0.262500X0.450000X-0.262500X0.450000X-0.262500X-0.450000X0.262500X-0.450000X0*%
%TD*%
%TA.AperFunction,ComponentPad*%
%ADD30R,1.700000X1.700000*%
%TD*%
%TA.AperFunction,ComponentPad*%
%ADD31O,1.700000X1.700000*%
%TD*%
%TA.AperFunction,ComponentPad*%
%ADD32C,2.800000*%
%TD*%
%TA.AperFunction,ComponentPad*%
%ADD33C,2.600000*%
%TD*%
%TA.AperFunction,ComponentPad*%
%ADD34O,2.600000X4.200000*%
%TD*%
%TA.AperFunction,ComponentPad*%
%ADD35C,3.600000*%
%TD*%
%TA.AperFunction,SMDPad,CuDef*%
%ADD36RoundRect,0.250000X-0.475000X0.250000X-0.475000X-0.250000X0.475000X-0.250000X0.475000X0.250000X0*%
%TD*%
%TA.AperFunction,ComponentPad*%
%ADD37R,1.508000X1.508000*%
%TD*%
%TA.AperFunction,ComponentPad*%
%ADD38C,1.508000*%
%TD*%
%TA.AperFunction,ComponentPad*%
%ADD39R,1.625600X1.625600*%
%TD*%
%TA.AperFunction,ComponentPad*%
%ADD40C,1.625600*%
%TD*%
%TA.AperFunction,ComponentPad*%
%ADD41C,1.507998*%
%TD*%
%TA.AperFunction,ComponentPad*%
%ADD42R,1.828800X1.828800*%
%TD*%
%TA.AperFunction,ComponentPad*%
%ADD43C,1.828800*%
%TD*%
%TA.AperFunction,ViaPad*%
%ADD44C,0.800000*%
%TD*%
%TA.AperFunction,Conductor*%
%ADD45C,0.250000*%
%TD*%
%TA.AperFunction,Conductor*%
%ADD46C,0.500000*%
%TD*%
%TA.AperFunction,Conductor*%
%ADD47C,0.750000*%
%TD*%
G04 APERTURE END LIST*
D10*
%TO.P,JP1,1,A*%
%TO.N,Net-(JP1-A)*%
X137937000Y-65405000D03*
D11*
%TO.P,JP1,2,B*%
%TO.N,SD*%
X136637000Y-65405000D03*
%TD*%
D12*
%TO.P,J10,1,Pin_1*%
%TO.N,GND*%
X104750000Y-100750000D03*
D13*
%TO.P,J10,2,Pin_2*%
%TO.N,Vsw*%
X102210000Y-100750000D03*
%TD*%
D14*
%TO.P,TP13,1,1*%
%TO.N,GND*%
X87630000Y-136017000D03*
%TD*%
D15*
%TO.P,J1,1,Pin_1*%
%TO.N,+24V*%
X21730000Y-108712000D03*
D16*
X39230000Y-108712000D03*
%TD*%
D12*
%TO.P,J14,1,Pin_1*%
%TO.N,GND*%
X29480000Y-45974000D03*
D13*
%TO.P,J14,2,Pin_2*%
%TO.N,Vin_sens*%
X32020000Y-45974000D03*
%TD*%
D17*
%TO.P,D2,1,K*%
%TO.N,Vboot*%
X73914000Y-123066000D03*
%TO.P,D2,2,A*%
%TO.N,+12V*%
X73914000Y-120266000D03*
%TD*%
D14*
%TO.P,TP7,1,1*%
%TO.N,GND*%
X40640000Y-43180000D03*
%TD*%
D18*
%TO.P,C6,1*%
%TO.N,Vin*%
X25654000Y-59436000D03*
%TO.P,C6,2*%
%TO.N,GND*%
X25654000Y-54436000D03*
%TD*%
D12*
%TO.P,J11,1,Pin_1*%
%TO.N,GND*%
X78232000Y-105537000D03*
D13*
%TO.P,J11,2,Pin_2*%
%TO.N,C2000 D'*%
X75692000Y-105537000D03*
%TD*%
D14*
%TO.P,TP5,1,1*%
%TO.N,+3.3V*%
X51000000Y-136250000D03*
%TD*%
D12*
%TO.P,J12,1,Pin_1*%
%TO.N,GND*%
X76020000Y-137541000D03*
D13*
%TO.P,J12,2,Pin_2*%
%TO.N,Vboot*%
X73480000Y-137541000D03*
%TD*%
D19*
%TO.P,PS2,1,VIN*%
%TO.N,+24V*%
X59624000Y-110998000D03*
D18*
%TO.P,PS2,2,GND*%
%TO.N,GND*%
X62164000Y-110998000D03*
%TO.P,PS2,3,VOUT*%
%TO.N,+12V*%
X64704000Y-110998000D03*
%TD*%
D20*
%TO.P,Q2,1,G*%
%TO.N,D'*%
X100363000Y-120841566D03*
D21*
%TO.P,Q2,2,D*%
%TO.N,Vout*%
X97823000Y-120841566D03*
%TO.P,Q2,3,S*%
%TO.N,Vsw*%
X95283000Y-120841566D03*
%TD*%
D22*
%TO.P,R9,1*%
%TO.N,Net-(C14-Pad1)*%
X108585000Y-70461500D03*
%TO.P,R9,2*%
%TO.N,Vin_sens*%
X108585000Y-72286500D03*
%TD*%
D16*
%TO.P,F1,1*%
%TO.N,+24V*%
X26924000Y-101112000D03*
%TO.P,F1,2*%
%TO.N,Vin*%
X26924000Y-65512000D03*
%TD*%
D23*
%TO.P,C3,1*%
%TO.N,Vboot*%
X76200000Y-122804000D03*
%TO.P,C3,2*%
%TO.N,Vsw*%
X76200000Y-120904000D03*
%TD*%
D24*
%TO.P,D4,1,K*%
%TO.N,Net-(D4-K)*%
X61186000Y-127508000D03*
%TO.P,D4,2,A*%
%TO.N,Net-(D4-A)*%
X57686000Y-127508000D03*
%TD*%
D12*
%TO.P,J8,1,Pin_1*%
%TO.N,GND*%
X76020000Y-129500000D03*
D13*
%TO.P,J8,2,Pin_2*%
%TO.N,D'*%
X73480000Y-129500000D03*
%TD*%
D15*
%TO.P,J2,1,Pin_1*%
%TO.N,GND*%
X21730000Y-127762000D03*
D16*
X39230000Y-127762000D03*
%TD*%
D25*
%TO.P,R11,1*%
%TO.N,Net-(D4-K)*%
X63095500Y-127508000D03*
%TO.P,R11,2*%
%TO.N,GND*%
X64920500Y-127508000D03*
%TD*%
D23*
%TO.P,C4,1*%
%TO.N,+12V*%
X76233000Y-115570000D03*
%TO.P,C4,2*%
%TO.N,GND*%
X76233000Y-113670000D03*
%TD*%
D16*
%TO.P,SW1,*%
%TO.N,*%
X60508000Y-120974000D03*
X49808000Y-120974000D03*
D26*
%TO.P,SW1,1,A*%
%TO.N,+3.3V*%
X57658000Y-119774000D03*
D27*
%TO.P,SW1,2,B*%
%TO.N,SD*%
X55158000Y-119774000D03*
%TO.P,SW1,3,C*%
%TO.N,GND*%
X52658000Y-119774000D03*
%TO.P,SW1,4,A*%
%TO.N,Net-(D3-A)*%
X52658000Y-122174000D03*
%TO.P,SW1,5,B*%
%TO.N,+3.3V*%
X55158000Y-122174000D03*
%TO.P,SW1,6,C*%
%TO.N,Net-(D4-A)*%
X57658000Y-122174000D03*
%TD*%
D14*
%TO.P,TP1,1,1*%
%TO.N,+24V*%
X32250000Y-136000000D03*
%TD*%
D28*
%TO.P,R7,1*%
%TO.N,Net-(C8-Pad1)*%
X92964000Y-67968500D03*
%TO.P,R7,2*%
%TO.N,I_L*%
X92964000Y-66143500D03*
%TD*%
D23*
%TO.P,C8,1*%
%TO.N,Net-(C8-Pad1)*%
X95350000Y-68000000D03*
%TO.P,C8,2*%
%TO.N,GND*%
X95350000Y-66100000D03*
%TD*%
D29*
%TO.P,R10,1*%
%TO.N,Net-(D3-K)*%
X47470000Y-127508000D03*
%TO.P,R10,2*%
%TO.N,GND*%
X45645000Y-127508000D03*
%TD*%
D12*
%TO.P,J16,1,Pin_1*%
%TO.N,GND*%
X51435000Y-43307000D03*
D13*
%TO.P,J16,2,Pin_2*%
%TO.N,I_L*%
X48895000Y-43307000D03*
%TD*%
D12*
%TO.P,J13,1,Pin_1*%
%TO.N,GND*%
X152500000Y-112250000D03*
D13*
%TO.P,J13,2,Pin_2*%
%TO.N,Vout*%
X149960000Y-112250000D03*
%TD*%
D30*
%TO.P,U3,41*%
%TO.N,+3.3V*%
X100330000Y-50038000D03*
D31*
%TO.P,U3,42*%
%TO.N,unconnected-(U3-Pad42)*%
X100330000Y-52578000D03*
%TO.P,U3,43*%
%TO.N,unconnected-(U3-Pad43)*%
X100330000Y-55118000D03*
%TO.P,U3,44*%
%TO.N,unconnected-(U3-Pad44)*%
X100330000Y-57658000D03*
%TO.P,U3,45*%
%TO.N,unconnected-(U3-Pad45)*%
X100330000Y-60198000D03*
%TO.P,U3,46*%
%TO.N,unconnected-(U3-Pad46)*%
X100330000Y-62738000D03*
%TO.P,U3,47*%
%TO.N,unconnected-(U3-Pad47)*%
X100330000Y-65278000D03*
%TO.P,U3,48*%
%TO.N,Net-(C8-Pad1)*%
X100330000Y-67818000D03*
%TO.P,U3,49*%
%TO.N,unconnected-(U3-Pad49)*%
X100330000Y-70358000D03*
%TO.P,U3,50*%
%TO.N,unconnected-(U3-Pad50)*%
X100330000Y-72898000D03*
%TO.P,U3,51*%
%TO.N,unconnected-(U3-Pad51)*%
X146050000Y-72898000D03*
%TO.P,U3,52*%
%TO.N,unconnected-(U3-Pad52)*%
X146050000Y-70358000D03*
%TO.P,U3,53*%
%TO.N,unconnected-(U3-Pad53)*%
X146050000Y-67818000D03*
%TO.P,U3,54*%
%TO.N,unconnected-(U3-Pad54)*%
X146050000Y-65278000D03*
%TO.P,U3,55*%
%TO.N,unconnected-(U3-Pad55)*%
X146050000Y-62738000D03*
%TO.P,U3,56*%
%TO.N,unconnected-(U3-Pad56)*%
X146050000Y-60198000D03*
%TO.P,U3,57*%
%TO.N,unconnected-(U3-Pad57)*%
X146050000Y-57658000D03*
%TO.P,U3,58*%
%TO.N,unconnected-(U3-Pad58)*%
X146050000Y-55118000D03*
%TO.P,U3,59*%
%TO.N,unconnected-(U3-Pad59)*%
X146050000Y-52578000D03*
%TO.P,U3,60*%
%TO.N,GND*%
X146050000Y-50038000D03*
%TO.P,U3,61*%
%TO.N,unconnected-(U3-Pad61)*%
X102870000Y-50038000D03*
%TO.P,U3,62*%
%TO.N,GND*%
X102870000Y-52578000D03*
%TO.P,U3,63*%
%TO.N,unconnected-(U3-Pad63)*%
X102870000Y-55118000D03*
%TO.P,U3,64*%
%TO.N,unconnected-(U3-Pad64)*%
X102870000Y-57658000D03*
%TO.P,U3,65*%
%TO.N,unconnected-(U3-Pad65)*%
X102870000Y-60198000D03*
%TO.P,U3,66*%
%TO.N,unconnected-(U3-Pad66)*%
X102870000Y-62738000D03*
%TO.P,U3,67*%
%TO.N,unconnected-(U3-Pad67)*%
X102870000Y-65278000D03*
%TO.P,U3,68*%
%TO.N,unconnected-(U3-Pad68)*%
X102870000Y-67818000D03*
%TO.P,U3,69*%
%TO.N,Net-(C14-Pad1)*%
X102870000Y-70358000D03*
%TO.P,U3,70*%
%TO.N,Net-(C11-Pad1)*%
X102870000Y-72898000D03*
%TO.P,U3,71*%
%TO.N,unconnected-(U3-Pad71)*%
X143510000Y-72898000D03*
%TO.P,U3,72*%
%TO.N,unconnected-(U3-Pad72)*%
X143510000Y-70358000D03*
%TO.P,U3,73*%
%TO.N,unconnected-(U3-Pad73)*%
X143510000Y-67818000D03*
%TO.P,U3,74*%
%TO.N,Net-(JP1-A)*%
X143510000Y-65278000D03*
%TO.P,U3,75*%
%TO.N,unconnected-(U3-Pad75)*%
X143510000Y-62738000D03*
%TO.P,U3,76*%
%TO.N,unconnected-(U3-Pad76)*%
X143510000Y-60198000D03*
%TO.P,U3,77*%
%TO.N,unconnected-(U3-Pad77)*%
X143510000Y-57658000D03*
%TO.P,U3,78*%
%TO.N,unconnected-(U3-Pad78)*%
X143510000Y-55118000D03*
%TO.P,U3,79*%
%TO.N,C2000 D'*%
X143510000Y-52578000D03*
D30*
%TO.P,U3,80*%
%TO.N,C2000 D *%
X143510000Y-50038000D03*
%TD*%
D32*
%TO.P,L1,1,1*%
%TO.N,unconnected-(L1-Pad1)_23*%
X45974000Y-54864000D03*
%TO.N,unconnected-(L1-Pad1)_21*%
X48514000Y-57404000D03*
%TO.N,unconnected-(L1-Pad1)_15*%
X51054000Y-54864000D03*
D33*
%TO.N,unconnected-(L1-Pad1)_3*%
X51054000Y-59944000D03*
D32*
%TO.N,unconnected-(L1-Pad1)_4*%
X53594000Y-57404000D03*
%TO.N,unconnected-(L1-Pad1)_2*%
X56134000Y-54864000D03*
D34*
%TO.N,unconnected-(L1-Pad1)_22*%
X56134000Y-60706000D03*
D32*
%TO.N,unconnected-(L1-Pad1)_14*%
X58674000Y-57404000D03*
%TO.N,unconnected-(L1-Pad1)_9*%
X61214000Y-54864000D03*
D34*
%TO.N,unconnected-(L1-Pad1)_11*%
X61214000Y-60706000D03*
D32*
%TO.N,unconnected-(L1-Pad1)_20*%
X63754000Y-57404000D03*
%TO.N,unconnected-(L1-Pad1)_7*%
X66294000Y-54864000D03*
D34*
%TO.N,unconnected-(L1-Pad1)_6*%
X66294000Y-60706000D03*
D32*
%TO.N,unconnected-(L1-Pad1)_18*%
X68834000Y-57404000D03*
%TO.N,unconnected-(L1-Pad1)_17*%
X71374000Y-54864000D03*
D34*
%TO.N,unconnected-(L1-Pad1)_10*%
X71374000Y-60706000D03*
D32*
%TO.N,unconnected-(L1-Pad1)_19*%
X73914000Y-57404000D03*
%TO.N,unconnected-(L1-Pad1)*%
X76454000Y-54864000D03*
D34*
%TO.N,unconnected-(L1-Pad1)_13*%
X76454000Y-60706000D03*
D32*
%TO.N,unconnected-(L1-Pad1)_16*%
X78994000Y-57404000D03*
%TO.N,unconnected-(L1-Pad1)_1*%
X81534000Y-54864000D03*
D33*
%TO.N,unconnected-(L1-Pad1)_8*%
X81534000Y-59944000D03*
D32*
%TO.N,unconnected-(L1-Pad1)_12*%
X84074000Y-57404000D03*
%TO.N,unconnected-(L1-Pad1)_5*%
X86614000Y-54864000D03*
%TO.P,L1,2,2*%
%TO.N,unconnected-(L1-Pad2)_20*%
X45974000Y-90424000D03*
%TO.N,unconnected-(L1-Pad2)_12*%
X48514000Y-87884000D03*
D33*
%TO.N,unconnected-(L1-Pad2)_18*%
X51054000Y-85344000D03*
D32*
%TO.N,unconnected-(L1-Pad2)_7*%
X51054000Y-90424000D03*
%TO.N,unconnected-(L1-Pad2)_14*%
X53594000Y-87884000D03*
D34*
%TO.N,unconnected-(L1-Pad2)_2*%
X56134000Y-84582000D03*
D32*
%TO.N,unconnected-(L1-Pad2)_23*%
X56134000Y-90424000D03*
%TO.N,unconnected-(L1-Pad2)_5*%
X58674000Y-87884000D03*
D34*
%TO.N,unconnected-(L1-Pad2)_17*%
X61214000Y-84582000D03*
D32*
%TO.N,unconnected-(L1-Pad2)_21*%
X61214000Y-90424000D03*
%TO.N,unconnected-(L1-Pad2)_13*%
X63754000Y-87884000D03*
D34*
%TO.N,unconnected-(L1-Pad2)_11*%
X66294000Y-84582000D03*
D32*
%TO.N,unconnected-(L1-Pad2)*%
X66294000Y-90424000D03*
%TO.N,unconnected-(L1-Pad2)_6*%
X68834000Y-87884000D03*
D34*
%TO.N,unconnected-(L1-Pad2)_8*%
X71374000Y-84582000D03*
D32*
%TO.N,unconnected-(L1-Pad2)_4*%
X71374000Y-90424000D03*
%TO.N,unconnected-(L1-Pad2)_10*%
X73914000Y-87884000D03*
D34*
%TO.N,unconnected-(L1-Pad2)_3*%
X76454000Y-84582000D03*
D32*
%TO.N,unconnected-(L1-Pad2)_9*%
X76454000Y-90424000D03*
%TO.N,unconnected-(L1-Pad2)_1*%
X78994000Y-87884000D03*
D33*
%TO.N,unconnected-(L1-Pad2)_15*%
X81534000Y-85344000D03*
D32*
%TO.N,unconnected-(L1-Pad2)_19*%
X81534000Y-90424000D03*
%TO.N,unconnected-(L1-Pad2)_22*%
X84074000Y-87884000D03*
%TO.N,unconnected-(L1-Pad2)_16*%
X86614000Y-90424000D03*
%TD*%
D14*
%TO.P,TP11,1,1*%
%TO.N,GND*%
X60960000Y-43180000D03*
%TD*%
D35*
%TO.P,J5,1,Pin_1*%
%TO.N,Vsw*%
X98100000Y-104400000D03*
%TD*%
D14*
%TO.P,TP2,1,1*%
%TO.N,GND*%
X41402000Y-136250000D03*
%TD*%
%TO.P,TP3,1,1*%
%TO.N,+12V*%
X60750000Y-136271000D03*
%TD*%
D36*
%TO.P,C14,1*%
%TO.N,Net-(C14-Pad1)*%
X111050000Y-70450000D03*
%TO.P,C14,2*%
%TO.N,GND*%
X111050000Y-72350000D03*
%TD*%
D37*
%TO.P,PS1,1,VIN*%
%TO.N,+24V*%
X52004000Y-106462000D03*
D38*
%TO.P,PS1,2,GND*%
%TO.N,GND*%
X49464000Y-106462000D03*
%TO.P,PS1,3,VOUT*%
%TO.N,+3.3V*%
X46924000Y-106462000D03*
%TD*%
D15*
%TO.P,J4,1,Pin_1*%
%TO.N,GND*%
X152768000Y-102870000D03*
D16*
X135268000Y-102870000D03*
%TD*%
D15*
%TO.P,J3,1,Pin_1*%
%TO.N,Vout*%
X152768000Y-121920000D03*
D16*
X135268000Y-121920000D03*
%TD*%
D12*
%TO.P,J15,1,Pin_1*%
%TO.N,GND*%
X129270000Y-99500000D03*
D13*
%TO.P,J15,2,Pin_2*%
%TO.N,Vout_sens*%
X126730000Y-99500000D03*
%TD*%
D24*
%TO.P,D3,1,K*%
%TO.N,Net-(D3-K)*%
X49276000Y-127508000D03*
%TO.P,D3,2,A*%
%TO.N,Net-(D3-A)*%
X52776000Y-127508000D03*
%TD*%
D35*
%TO.P,J6,1,Pin_1*%
%TO.N,/L_in*%
X36050000Y-56150000D03*
%TD*%
%TO.P,HS2,*%
%TO.N,*%
X85123000Y-125413566D03*
X110459500Y-125410000D03*
%TD*%
D18*
%TO.P,C16,1*%
%TO.N,Vout*%
X126750000Y-120583250D03*
%TO.P,C16,2*%
%TO.N,GND*%
X126750000Y-115583250D03*
%TD*%
D20*
%TO.P,Q1,1,G*%
%TO.N,D*%
X95346500Y-114745566D03*
D21*
%TO.P,Q1,2,D*%
%TO.N,Vsw*%
X97886500Y-114745566D03*
%TO.P,Q1,3,S*%
%TO.N,GND*%
X100426500Y-114745566D03*
%TD*%
D12*
%TO.P,J9,1,Pin_1*%
%TO.N,GND*%
X76020000Y-133500000D03*
D13*
%TO.P,J9,2,Pin_2*%
%TO.N,D*%
X73480000Y-133500000D03*
%TD*%
D35*
%TO.P,HS1,*%
%TO.N,*%
X85186500Y-110173566D03*
X110523000Y-110170000D03*
%TD*%
D12*
%TO.P,J7,1,Pin_1*%
%TO.N,GND*%
X70442000Y-105537000D03*
D13*
%TO.P,J7,2,Pin_2*%
%TO.N,C2000 D *%
X72982000Y-105537000D03*
%TD*%
D39*
%TO.P,RV1,1*%
%TO.N,Vout*%
X121250000Y-121238000D03*
D40*
%TO.P,RV1,2*%
%TO.N,GND*%
X118750000Y-113738000D03*
%TD*%
D41*
%TO.P,U1,1,LO*%
%TO.N,Net-(U1-LO)*%
X78265000Y-110424000D03*
%TO.P,U1,2,COM*%
%TO.N,GND*%
X78265000Y-112964000D03*
%TO.P,U1,3,VCC*%
%TO.N,+12V*%
X78265000Y-115504000D03*
%TO.P,U1,4,NC*%
%TO.N,unconnected-(U1-NC-Pad4)*%
X78265000Y-118044000D03*
%TO.P,U1,5,VS*%
%TO.N,Vsw*%
X78265000Y-120584000D03*
%TO.P,U1,6,VB*%
%TO.N,Vboot*%
X78265000Y-123124000D03*
%TO.P,U1,7,HO*%
%TO.N,Net-(U1-HO)*%
X78265000Y-125664000D03*
%TO.P,U1,8,NC*%
%TO.N,unconnected-(U1-NC-Pad8)*%
X70645000Y-110424000D03*
%TO.P,U1,9,VDD*%
%TO.N,+3.3V*%
X70645000Y-112964000D03*
%TO.P,U1,10,HIN*%
%TO.N,C2000 D'*%
X70645000Y-115504000D03*
%TO.P,U1,11,SD*%
%TO.N,SD*%
X70645000Y-118044000D03*
%TO.P,U1,12,LIN*%
%TO.N,C2000 D *%
X70645000Y-120584000D03*
%TO.P,U1,13,VSS*%
%TO.N,GND*%
X70645000Y-123124000D03*
%TO.P,U1,14,NC*%
%TO.N,unconnected-(U1-NC-Pad14)*%
X70645000Y-125664000D03*
%TD*%
D42*
%TO.P,D1,1,K*%
%TO.N,Vout*%
X126750000Y-126809400D03*
D43*
%TO.P,D1,2,A*%
%TO.N,GND*%
X126750000Y-108750000D03*
%TD*%
D44*
%TO.N,SD*%
X60198000Y-117221000D03*
X135001000Y-65405000D03*
%TO.N,GND*%
X34036000Y-73660000D03*
X34250000Y-65800000D03*
X99380000Y-77912000D03*
X36900000Y-61200000D03*
%TO.N,Vin_sens*%
X108600000Y-74050000D03*
X38608000Y-75692000D03*
%TD*%
D45*
%TO.N,SD*%
X60198000Y-117221000D02*
X60198000Y-118044000D01*
D46*
X56888000Y-118044000D02*
X60198000Y-118044000D01*
X60198000Y-118044000D02*
X70645000Y-118044000D01*
D45*
%TO.N,Net-(JP1-A)*%
X143383000Y-65405000D02*
X143510000Y-65278000D01*
X137937000Y-65405000D02*
X143383000Y-65405000D01*
%TO.N,SD*%
X135001000Y-65405000D02*
X136637000Y-65405000D01*
%TO.N,Vsw*%
X102210000Y-100750000D02*
X98566000Y-104394000D01*
D47*
X97886500Y-114745566D02*
X97886500Y-115863500D01*
D45*
X77945000Y-120904000D02*
X78265000Y-120584000D01*
D47*
X95283000Y-118467000D02*
X95283000Y-120841566D01*
X97886500Y-115863500D02*
X95283000Y-118467000D01*
D45*
X98566000Y-104394000D02*
X98044000Y-104394000D01*
X76200000Y-120904000D02*
X77945000Y-120904000D01*
D46*
%TO.N,+3.3V*%
X55158000Y-132294000D02*
X51054000Y-136398000D01*
X55158000Y-122174000D02*
X57558000Y-119774000D01*
D45*
X57558000Y-119774000D02*
X57658000Y-119774000D01*
D46*
X55158000Y-122174000D02*
X55158000Y-132294000D01*
%TO.N,+12V*%
X75095001Y-116707999D02*
X76233000Y-115570000D01*
X78199000Y-115570000D02*
X78265000Y-115504000D01*
X71882000Y-122298000D02*
X73914000Y-120266000D01*
X73914000Y-116707999D02*
X75095001Y-116707999D01*
X64704000Y-111967867D02*
X69444132Y-116707999D01*
X69444132Y-116707999D02*
X73914000Y-116707999D01*
X64704000Y-110998000D02*
X64704000Y-111967867D01*
X73914000Y-120266000D02*
X73914000Y-116707999D01*
X60706000Y-136398000D02*
X60706000Y-136315000D01*
X71882000Y-126492000D02*
X71882000Y-122298000D01*
X60706000Y-136315000D02*
X60750000Y-136271000D01*
X62103000Y-136271000D02*
X71882000Y-126492000D01*
X76233000Y-115570000D02*
X78199000Y-115570000D01*
X60750000Y-136271000D02*
X62103000Y-136271000D01*
D45*
%TO.N,Vboot*%
X73480000Y-137541000D02*
X74405000Y-136616000D01*
X74405000Y-136616000D02*
X74405000Y-124599000D01*
X74405000Y-124599000D02*
X76200000Y-122804000D01*
%TO.N,Net-(D3-K)*%
X49276000Y-127508000D02*
X47470000Y-127508000D01*
D46*
%TO.N,Net-(D3-A)*%
X52658000Y-122174000D02*
X52658000Y-127390000D01*
D45*
X52658000Y-127390000D02*
X52776000Y-127508000D01*
%TO.N,Net-(D4-K)*%
X61186000Y-127508000D02*
X63095500Y-127508000D01*
D46*
%TO.N,Net-(D4-A)*%
X57658000Y-127282000D02*
X57658000Y-122174000D01*
D45*
X57432000Y-127508000D02*
X57658000Y-127282000D01*
D46*
%TO.N,SD*%
X55158000Y-119774000D02*
X56888000Y-118044000D01*
%TO.N,Net-(C14-Pad1)*%
X110744000Y-70424000D02*
X102936000Y-70424000D01*
D45*
X102936000Y-70424000D02*
X102870000Y-70358000D01*
D46*
%TO.N,Net-(C8-Pad1)*%
X94996000Y-68006000D02*
X93001500Y-68006000D01*
X94996000Y-68006000D02*
X100142000Y-68006000D01*
D45*
X93001500Y-68006000D02*
X92964000Y-67968500D01*
X100142000Y-68006000D02*
X100330000Y-67818000D01*
D46*
%TO.N,C2000 D'*%
X75692000Y-110457000D02*
X75692000Y-105537000D01*
X70645000Y-115504000D02*
X75692000Y-110457000D01*
D45*
%TO.N,Vin_sens*%
X108600000Y-74050000D02*
X108600000Y-72301500D01*
X108600000Y-72301500D02*
X108585000Y-72286500D01*
%TO.N,I_L*%
X92964000Y-66143500D02*
X92964000Y-48514000D01*
X92964000Y-48514000D02*
X91186000Y-46736000D01*
X91186000Y-46736000D02*
X52324000Y-46736000D01*
X52324000Y-46736000D02*
X48895000Y-43307000D01*
%TD*%
%TA.AperFunction,Conductor*%
%TO.N,Vboot*%
G36*
X79191039Y-122193685D02*
G01*
X79236794Y-122246489D01*
X79248000Y-122298000D01*
X79248000Y-124082000D01*
X79228315Y-124149039D01*
X79175511Y-124194794D01*
X79124000Y-124206000D01*
X73022000Y-124206000D01*
X72954961Y-124186315D01*
X72909206Y-124133511D01*
X72898000Y-124082000D01*
X72898000Y-122394730D01*
X72917685Y-122327691D01*
X72934319Y-122307049D01*
X73031049Y-122210319D01*
X73092372Y-122176834D01*
X73118730Y-122174000D01*
X79124000Y-122174000D01*
X79191039Y-122193685D01*
G37*
%TD.AperFunction*%
%TD*%
%TA.AperFunction,Conductor*%
%TO.N,+24V*%
G36*
X40329039Y-81299685D02*
G01*
X40374794Y-81352489D01*
X40386000Y-81404000D01*
X40386000Y-99314000D01*
X68964000Y-99314000D01*
X69031039Y-99333685D01*
X69076794Y-99386489D01*
X69088000Y-99438000D01*
X69088000Y-104552693D01*
X69069728Y-104617482D01*
X68966845Y-104785373D01*
X68867427Y-105025389D01*
X68806778Y-105278009D01*
X68786396Y-105537000D01*
X68806778Y-105795990D01*
X68867427Y-106048610D01*
X68966845Y-106288628D01*
X69069727Y-106456515D01*
X69088000Y-106521305D01*
X69088000Y-114991137D01*
X69068315Y-115058176D01*
X69015511Y-115103931D01*
X68946353Y-115113875D01*
X68882797Y-115084850D01*
X68876319Y-115078818D01*
X65666630Y-111869129D01*
X65633145Y-111807806D01*
X65638129Y-111738114D01*
X65655355Y-111706723D01*
X65716933Y-111625182D01*
X65814931Y-111428377D01*
X65875096Y-111216916D01*
X65895382Y-110998000D01*
X65875096Y-110779084D01*
X65814931Y-110567623D01*
X65814930Y-110567620D01*
X65716936Y-110370823D01*
X65716931Y-110370815D01*
X65682468Y-110325179D01*
X65584442Y-110195371D01*
X65421968Y-110047257D01*
X65396901Y-110031736D01*
X65235046Y-109931519D01*
X65235044Y-109931518D01*
X65164282Y-109904105D01*
X65030037Y-109852098D01*
X64813927Y-109811700D01*
X64594073Y-109811700D01*
X64377963Y-109852098D01*
X64320719Y-109874274D01*
X64172955Y-109931518D01*
X64172953Y-109931519D01*
X63986036Y-110047254D01*
X63986034Y-110047255D01*
X63986032Y-110047257D01*
X63823558Y-110195371D01*
X63823557Y-110195372D01*
X63691068Y-110370815D01*
X63691063Y-110370823D01*
X63593070Y-110567619D01*
X63553267Y-110707516D01*
X63515988Y-110766609D01*
X63452678Y-110796167D01*
X63383438Y-110786805D01*
X63330252Y-110741496D01*
X63314733Y-110707516D01*
X63274931Y-110567623D01*
X63273375Y-110564498D01*
X63176936Y-110370823D01*
X63176931Y-110370815D01*
X63142468Y-110325179D01*
X63044442Y-110195371D01*
X62881968Y-110047257D01*
X62856901Y-110031736D01*
X62695046Y-109931519D01*
X62695044Y-109931518D01*
X62624282Y-109904105D01*
X62490037Y-109852098D01*
X62273927Y-109811700D01*
X62054073Y-109811700D01*
X61837963Y-109852098D01*
X61780719Y-109874274D01*
X61632955Y-109931518D01*
X61632953Y-109931519D01*
X61446036Y-110047254D01*
X61446034Y-110047255D01*
X61446032Y-110047257D01*
X61283558Y-110195371D01*
X61283557Y-110195372D01*
X61151068Y-110370815D01*
X61151063Y-110370823D01*
X61053069Y-110567620D01*
X60992903Y-110779086D01*
X60972618Y-110998000D01*
X60992903Y-111216913D01*
X61053069Y-111428379D01*
X61151063Y-111625176D01*
X61151068Y-111625184D01*
X61212642Y-111706721D01*
X61283558Y-111800629D01*
X61446032Y-111948743D01*
X61632955Y-112064481D01*
X61837963Y-112143902D01*
X62054073Y-112184300D01*
X62054075Y-112184300D01*
X62273925Y-112184300D01*
X62273927Y-112184300D01*
X62490037Y-112143902D01*
X62695045Y-112064481D01*
X62881968Y-111948743D01*
X63044442Y-111800629D01*
X63176933Y-111625182D01*
X63274931Y-111428377D01*
X63314733Y-111288482D01*
X63352012Y-111229390D01*
X63415322Y-111199832D01*
X63484561Y-111209194D01*
X63537748Y-111254503D01*
X63553267Y-111288484D01*
X63593069Y-111428379D01*
X63691063Y-111625176D01*
X63691068Y-111625184D01*
X63752642Y-111706721D01*
X63823558Y-111800629D01*
X63913039Y-111882201D01*
X63949319Y-111941910D01*
X63953500Y-111973837D01*
X63953500Y-112041785D01*
X63953500Y-112041787D01*
X63953499Y-112041787D01*
X63982340Y-112186774D01*
X63982343Y-112186784D01*
X64038914Y-112323359D01*
X64071812Y-112372594D01*
X64071813Y-112372597D01*
X64121046Y-112446281D01*
X64121052Y-112446288D01*
X68049084Y-116374319D01*
X68082569Y-116435642D01*
X68077585Y-116505334D01*
X68035713Y-116561267D01*
X67970249Y-116585684D01*
X67961403Y-116586000D01*
X60893194Y-116586000D01*
X60826155Y-116566315D01*
X60809194Y-116551901D01*
X60808695Y-116552456D01*
X60803864Y-116548106D01*
X60650734Y-116436851D01*
X60650729Y-116436848D01*
X60477807Y-116359857D01*
X60477802Y-116359855D01*
X60332001Y-116328865D01*
X60292646Y-116320500D01*
X60103354Y-116320500D01*
X60070897Y-116327398D01*
X59918197Y-116359855D01*
X59918192Y-116359857D01*
X59745270Y-116436848D01*
X59745265Y-116436851D01*
X59592135Y-116548106D01*
X59587305Y-116552456D01*
X59585702Y-116550676D01*
X59535457Y-116581624D01*
X59502806Y-116586000D01*
X47752000Y-116586000D01*
X47752000Y-123642775D01*
X47732315Y-123709814D01*
X47710952Y-123734943D01*
X45247369Y-125952168D01*
X45184370Y-125982384D01*
X45164417Y-125984000D01*
X37338000Y-125984000D01*
X37338000Y-140338000D01*
X37318315Y-140405039D01*
X37265511Y-140450794D01*
X37214000Y-140462000D01*
X20769244Y-140462000D01*
X20707244Y-140445387D01*
X20637359Y-140405039D01*
X20573611Y-140368234D01*
X20477332Y-140312647D01*
X20466447Y-140305578D01*
X20184614Y-140100814D01*
X20174527Y-140092646D01*
X19915637Y-139859540D01*
X19906459Y-139850362D01*
X19673353Y-139591472D01*
X19665185Y-139581385D01*
X19460421Y-139299552D01*
X19453352Y-139288667D01*
X19314277Y-139047783D01*
X19297665Y-138986317D01*
X19290396Y-137292711D01*
X20501500Y-137292711D01*
X20501500Y-137535288D01*
X20533161Y-137775785D01*
X20595947Y-138010104D01*
X20688773Y-138234205D01*
X20688776Y-138234212D01*
X20810064Y-138444289D01*
X20810066Y-138444292D01*
X20810067Y-138444293D01*
X20957733Y-138636736D01*
X20957739Y-138636743D01*
X21129256Y-138808260D01*
X21129262Y-138808265D01*
X21321711Y-138955936D01*
X21531788Y-139077224D01*
X21755900Y-139170054D01*
X21990211Y-139232838D01*
X22170586Y-139256584D01*
X22230711Y-139264500D01*
X22230712Y-139264500D01*
X22473289Y-139264500D01*
X22521388Y-139258167D01*
X22713789Y-139232838D01*
X22948100Y-139170054D01*
X23172212Y-139077224D01*
X23382289Y-138955936D01*
X23574738Y-138808265D01*
X23746265Y-138636738D01*
X23893936Y-138444289D01*
X24015224Y-138234212D01*
X24108054Y-138010100D01*
X24170838Y-137775789D01*
X24202500Y-137535288D01*
X24202500Y-137292712D01*
X24170838Y-137052211D01*
X24108054Y-136817900D01*
X24015224Y-136593788D01*
X23893936Y-136383711D01*
X23746265Y-136191262D01*
X23746260Y-136191256D01*
X23574743Y-136019739D01*
X23574736Y-136019733D01*
X23382293Y-135872067D01*
X23382292Y-135872066D01*
X23382289Y-135872064D01*
X23172212Y-135750776D01*
X23172205Y-135750773D01*
X22948104Y-135657947D01*
X22713785Y-135595161D01*
X22473289Y-135563500D01*
X22473288Y-135563500D01*
X22230712Y-135563500D01*
X22230711Y-135563500D01*
X21990214Y-135595161D01*
X21755895Y-135657947D01*
X21531794Y-135750773D01*
X21531785Y-135750777D01*
X21321706Y-135872067D01*
X21129263Y-136019733D01*
X21129256Y-136019739D01*
X20957739Y-136191256D01*
X20957733Y-136191263D01*
X20810067Y-136383706D01*
X20688777Y-136593785D01*
X20688773Y-136593794D01*
X20595947Y-136817895D01*
X20533161Y-137052214D01*
X20501500Y-137292711D01*
X19290396Y-137292711D01*
X19244458Y-126589135D01*
X20104500Y-126589135D01*
X20104500Y-128934870D01*
X20104501Y-128934876D01*
X20110908Y-128994483D01*
X20161202Y-129129328D01*
X20161206Y-129129335D01*
X20247452Y-129244544D01*
X20247455Y-129244547D01*
X20362664Y-129330793D01*
X20362671Y-129330797D01*
X20497517Y-129381091D01*
X20497516Y-129381091D01*
X20504444Y-129381835D01*
X20557127Y-129387500D01*
X22902872Y-129387499D01*
X22962483Y-129381091D01*
X23097331Y-129330796D01*
X23212546Y-129244546D01*
X23298796Y-129129331D01*
X23349091Y-128994483D01*
X23355500Y-128934873D01*
X23355499Y-126589128D01*
X23349091Y-126529517D01*
X23325277Y-126465669D01*
X23298797Y-126394671D01*
X23298793Y-126394664D01*
X23212547Y-126279455D01*
X23212544Y-126279452D01*
X23097335Y-126193206D01*
X23097328Y-126193202D01*
X22962482Y-126142908D01*
X22962483Y-126142908D01*
X22902883Y-126136501D01*
X22902881Y-126136500D01*
X22902873Y-126136500D01*
X22902864Y-126136500D01*
X20557129Y-126136500D01*
X20557123Y-126136501D01*
X20497516Y-126142908D01*
X20362671Y-126193202D01*
X20362664Y-126193206D01*
X20247455Y-126279452D01*
X20247452Y-126279455D01*
X20161206Y-126394664D01*
X20161202Y-126394671D01*
X20110908Y-126529517D01*
X20106995Y-126565918D01*
X20104501Y-126589123D01*
X20104500Y-126589135D01*
X19244458Y-126589135D01*
X19158076Y-106461997D01*
X45664708Y-106461997D01*
X45664708Y-106462002D01*
X45668919Y-106510140D01*
X45683839Y-106680674D01*
X45740653Y-106892703D01*
X45740654Y-106892706D01*
X45740655Y-106892708D01*
X45833419Y-107091642D01*
X45833423Y-107091650D01*
X45959322Y-107271452D01*
X45959327Y-107271458D01*
X46114541Y-107426672D01*
X46114547Y-107426677D01*
X46294349Y-107552576D01*
X46294351Y-107552577D01*
X46294354Y-107552579D01*
X46493297Y-107645347D01*
X46705326Y-107702161D01*
X46861521Y-107715826D01*
X46923998Y-107721292D01*
X46924000Y-107721292D01*
X46924002Y-107721292D01*
X46978668Y-107716509D01*
X47142674Y-107702161D01*
X47354703Y-107645347D01*
X47553646Y-107552579D01*
X47733457Y-107426674D01*
X47888674Y-107271457D01*
X48014579Y-107091646D01*
X48081618Y-106947878D01*
X48127790Y-106895439D01*
X48194983Y-106876287D01*
X48261864Y-106896502D01*
X48306382Y-106947879D01*
X48373419Y-107091642D01*
X48373423Y-107091650D01*
X48499322Y-107271452D01*
X48499327Y-107271458D01*
X48654541Y-107426672D01*
X48654547Y-107426677D01*
X48834349Y-107552576D01*
X48834351Y-107552577D01*
X48834354Y-107552579D01*
X49033297Y-107645347D01*
X49245326Y-107702161D01*
X49401521Y-107715826D01*
X49463998Y-107721292D01*
X49464000Y-107721292D01*
X49464002Y-107721292D01*
X49518668Y-107716509D01*
X49682674Y-107702161D01*
X49894703Y-107645347D01*
X50093646Y-107552579D01*
X50273457Y-107426674D01*
X50428674Y-107271457D01*
X50554579Y-107091646D01*
X50647347Y-106892703D01*
X50704161Y-106680674D01*
X50723292Y-106462000D01*
X50704161Y-106243326D01*
X50647347Y-106031297D01*
X50554579Y-105832354D01*
X50554577Y-105832351D01*
X50554576Y-105832349D01*
X50428677Y-105652547D01*
X50428672Y-105652541D01*
X50273458Y-105497327D01*
X50273452Y-105497322D01*
X50093650Y-105371423D01*
X50093642Y-105371419D01*
X49894708Y-105278655D01*
X49894706Y-105278654D01*
X49894703Y-105278653D01*
X49743885Y-105238240D01*
X49682675Y-105221839D01*
X49682668Y-105221838D01*
X49464002Y-105202708D01*
X49463998Y-105202708D01*
X49245331Y-105221838D01*
X49245324Y-105221839D01*
X49122902Y-105254642D01*
X49033297Y-105278653D01*
X49033295Y-105278653D01*
X49033291Y-105278655D01*
X48834357Y-105371419D01*
X48834349Y-105371423D01*
X48654547Y-105497322D01*
X48654541Y-105497327D01*
X48499327Y-105652541D01*
X48499322Y-105652547D01*
X48373423Y-105832349D01*
X48373419Y-105832357D01*
X48306382Y-105976120D01*
X48260210Y-106028560D01*
X48193017Y-106047712D01*
X48126135Y-106027496D01*
X48081618Y-105976120D01*
X48014580Y-105832357D01*
X48014579Y-105832354D01*
X48014577Y-105832351D01*
X48014576Y-105832349D01*
X47888677Y-105652547D01*
X47888672Y-105652541D01*
X47733458Y-105497327D01*
X47733452Y-105497322D01*
X47553650Y-105371423D01*
X47553642Y-105371419D01*
X47354708Y-105278655D01*
X47354706Y-105278654D01*
X47354703Y-105278653D01*
X47203885Y-105238240D01*
X47142675Y-105221839D01*
X47142668Y-105221838D01*
X46924002Y-105202708D01*
X46923998Y-105202708D01*
X46705331Y-105221838D01*
X46705324Y-105221839D01*
X46582902Y-105254642D01*
X46493297Y-105278653D01*
X46493295Y-105278653D01*
X46493291Y-105278655D01*
X46294357Y-105371419D01*
X46294349Y-105371423D01*
X46114547Y-105497322D01*
X46114541Y-105497327D01*
X45959327Y-105652541D01*
X45959322Y-105652547D01*
X45833423Y-105832349D01*
X45833419Y-105832357D01*
X45740655Y-106031291D01*
X45683839Y-106243324D01*
X45683838Y-106243331D01*
X45664708Y-106461997D01*
X19158076Y-106461997D01*
X19050534Y-81404530D01*
X19069931Y-81337409D01*
X19122538Y-81291428D01*
X19174533Y-81280000D01*
X40262000Y-81280000D01*
X40329039Y-81299685D01*
G37*
%TD.AperFunction*%
%TD*%
%TA.AperFunction,Conductor*%
%TO.N,Vsw*%
G36*
X100551039Y-102381685D02*
G01*
X100596794Y-102434489D01*
X100608000Y-102486000D01*
X100608000Y-112906000D01*
X100588315Y-112973039D01*
X100535511Y-113018794D01*
X100484000Y-113030000D01*
X99317652Y-113030000D01*
X99310342Y-113029784D01*
X98785074Y-112998764D01*
X98771055Y-113005891D01*
X98748281Y-113008000D01*
X96857798Y-113008000D01*
X96825646Y-112998559D01*
X96269471Y-113029805D01*
X96262516Y-113030000D01*
X95604000Y-113030000D01*
X95536961Y-113010315D01*
X95491206Y-112957511D01*
X95480000Y-112906000D01*
X95480000Y-102486000D01*
X95499685Y-102418961D01*
X95552489Y-102373206D01*
X95604000Y-102362000D01*
X100484000Y-102362000D01*
X100551039Y-102381685D01*
G37*
%TD.AperFunction*%
%TD*%
%TA.AperFunction,Conductor*%
%TO.N,Vsw*%
G36*
X98678000Y-113008000D02*
G01*
X98678000Y-115176000D01*
X98658315Y-115243039D01*
X98605511Y-115288794D01*
X98554000Y-115300000D01*
X97124000Y-115300000D01*
X97056961Y-115280315D01*
X97011206Y-115227511D01*
X97000000Y-115176000D01*
X97000000Y-113008000D01*
X97000000Y-111650000D01*
X98678000Y-111632000D01*
X98678000Y-113008000D01*
G37*
%TD.AperFunction*%
%TD*%
%TA.AperFunction,Conductor*%
%TO.N,GND*%
G36*
X154044756Y-40402613D02*
G01*
X154274667Y-40535352D01*
X154285549Y-40542419D01*
X154567389Y-40747188D01*
X154577472Y-40755353D01*
X154836362Y-40988459D01*
X154845540Y-40997637D01*
X155078642Y-41256523D01*
X155086810Y-41266609D01*
X155170318Y-41381547D01*
X155193798Y-41447352D01*
X155194000Y-41454432D01*
X155194000Y-117988500D01*
X155174315Y-118055539D01*
X155121511Y-118101294D01*
X155070000Y-118112500D01*
X97175005Y-118112500D01*
X97107966Y-118092815D01*
X97062211Y-118040011D01*
X97052267Y-117970853D01*
X97081292Y-117907297D01*
X97087324Y-117900819D01*
X97753600Y-117234544D01*
X98566545Y-116421599D01*
X98662358Y-116278205D01*
X98728355Y-116118874D01*
X98751775Y-116001129D01*
X98784158Y-115939224D01*
X98800502Y-115925010D01*
X98833066Y-115901352D01*
X98994786Y-115739632D01*
X99129217Y-115554604D01*
X99233048Y-115350824D01*
X99303722Y-115133311D01*
X99339500Y-114907420D01*
X99339500Y-114583712D01*
X99303722Y-114357821D01*
X99303721Y-114357817D01*
X99303721Y-114357816D01*
X99233049Y-114140310D01*
X99233045Y-114140302D01*
X99197015Y-114069587D01*
X99183500Y-114013293D01*
X99183500Y-113659363D01*
X99203185Y-113592324D01*
X99255989Y-113546569D01*
X99309340Y-113535377D01*
X99317630Y-113535500D01*
X99317652Y-113535500D01*
X100483990Y-113535500D01*
X100484000Y-113535500D01*
X100591456Y-113523947D01*
X100642967Y-113512741D01*
X100677197Y-113501347D01*
X100745497Y-113478616D01*
X100745501Y-113478613D01*
X100745504Y-113478613D01*
X100866543Y-113400825D01*
X100919347Y-113355070D01*
X101013567Y-113246336D01*
X101073338Y-113115459D01*
X101093023Y-113048420D01*
X101093024Y-113048416D01*
X101113500Y-112906000D01*
X101113500Y-110170000D01*
X108217564Y-110170000D01*
X108231446Y-110381809D01*
X108237287Y-110470918D01*
X108237288Y-110470930D01*
X108296118Y-110766683D01*
X108296122Y-110766698D01*
X108393053Y-111052247D01*
X108393062Y-111052268D01*
X108526431Y-111322713D01*
X108526435Y-111322720D01*
X108693973Y-111573459D01*
X108892810Y-111800189D01*
X109119540Y-111999026D01*
X109370279Y-112166564D01*
X109370286Y-112166568D01*
X109640731Y-112299937D01*
X109640736Y-112299939D01*
X109640748Y-112299945D01*
X109926309Y-112396880D01*
X110126251Y-112436651D01*
X110222069Y-112455711D01*
X110222070Y-112455711D01*
X110222080Y-112455713D01*
X110523000Y-112475436D01*
X110823920Y-112455713D01*
X111119691Y-112396880D01*
X111405252Y-112299945D01*
X111506533Y-112249999D01*
X148854785Y-112249999D01*
X148854785Y-112250000D01*
X148873602Y-112453082D01*
X148929417Y-112649247D01*
X148929422Y-112649260D01*
X149020327Y-112831821D01*
X149143237Y-112994581D01*
X149293958Y-113131980D01*
X149293960Y-113131982D01*
X149375831Y-113182674D01*
X149467363Y-113239348D01*
X149657544Y-113313024D01*
X149858024Y-113350500D01*
X149858026Y-113350500D01*
X150061974Y-113350500D01*
X150061976Y-113350500D01*
X150262456Y-113313024D01*
X150452637Y-113239348D01*
X150626041Y-113131981D01*
X150776764Y-112994579D01*
X150899673Y-112831821D01*
X150990582Y-112649250D01*
X151046397Y-112453083D01*
X151065215Y-112250000D01*
X151057814Y-112170134D01*
X151046397Y-112046917D01*
X151033785Y-112002591D01*
X150990582Y-111850750D01*
X150968489Y-111806382D01*
X150927389Y-111723840D01*
X150899673Y-111668179D01*
X150776764Y-111505421D01*
X150776762Y-111505418D01*
X150626041Y-111368019D01*
X150626039Y-111368017D01*
X150452642Y-111260655D01*
X150452635Y-111260651D01*
X150357546Y-111223814D01*
X150262456Y-111186976D01*
X150061976Y-111149500D01*
X149858024Y-111149500D01*
X149657544Y-111186976D01*
X149657541Y-111186976D01*
X149657541Y-111186977D01*
X149467364Y-111260651D01*
X149467357Y-111260655D01*
X149293960Y-111368017D01*
X149293958Y-111368019D01*
X149143237Y-111505418D01*
X149020327Y-111668178D01*
X148929422Y-111850739D01*
X148929417Y-111850752D01*
X148873602Y-112046917D01*
X148854785Y-112249999D01*
X111506533Y-112249999D01*
X111675718Y-112166566D01*
X111926461Y-111999025D01*
X112153189Y-111800189D01*
X112352025Y-111573461D01*
X112519566Y-111322718D01*
X112652945Y-111052252D01*
X112749880Y-110766691D01*
X112808713Y-110470920D01*
X112828436Y-110170000D01*
X112808713Y-109869080D01*
X112749880Y-109573309D01*
X112652945Y-109287748D01*
X112629721Y-109240655D01*
X112519568Y-109017286D01*
X112519564Y-109017279D01*
X112352026Y-108766540D01*
X112153189Y-108539810D01*
X111926459Y-108340973D01*
X111675720Y-108173435D01*
X111675713Y-108173431D01*
X111405268Y-108040062D01*
X111405247Y-108040053D01*
X111119698Y-107943122D01*
X111119692Y-107943120D01*
X111119691Y-107943120D01*
X111119689Y-107943119D01*
X111119683Y-107943118D01*
X110823930Y-107884288D01*
X110823921Y-107884287D01*
X110823920Y-107884287D01*
X110523000Y-107864564D01*
X110222080Y-107884287D01*
X110222079Y-107884287D01*
X110222069Y-107884288D01*
X109926316Y-107943118D01*
X109926301Y-107943122D01*
X109640752Y-108040053D01*
X109640731Y-108040062D01*
X109370286Y-108173431D01*
X109370279Y-108173435D01*
X109119540Y-108340973D01*
X108892810Y-108539810D01*
X108693973Y-108766540D01*
X108526435Y-109017279D01*
X108526431Y-109017286D01*
X108393062Y-109287731D01*
X108393053Y-109287752D01*
X108296122Y-109573301D01*
X108296118Y-109573316D01*
X108237288Y-109869069D01*
X108237287Y-109869079D01*
X108237287Y-109869080D01*
X108217564Y-110170000D01*
X101113500Y-110170000D01*
X101113500Y-102782451D01*
X101133185Y-102715412D01*
X101149815Y-102694774D01*
X101965817Y-101878771D01*
X102027138Y-101845288D01*
X102076280Y-101844566D01*
X102108024Y-101850500D01*
X102108025Y-101850500D01*
X102311974Y-101850500D01*
X102311976Y-101850500D01*
X102512456Y-101813024D01*
X102702637Y-101739348D01*
X102876041Y-101631981D01*
X103026764Y-101494579D01*
X103149673Y-101331821D01*
X103240582Y-101149250D01*
X103296397Y-100953083D01*
X103315215Y-100750000D01*
X103296397Y-100546917D01*
X103240582Y-100350750D01*
X103149673Y-100168179D01*
X103026764Y-100005421D01*
X103026762Y-100005418D01*
X102876041Y-99868019D01*
X102876039Y-99868017D01*
X102702642Y-99760655D01*
X102702635Y-99760651D01*
X102554033Y-99703083D01*
X102512456Y-99686976D01*
X102311976Y-99649500D01*
X102108024Y-99649500D01*
X101907544Y-99686976D01*
X101907541Y-99686976D01*
X101907541Y-99686977D01*
X101717364Y-99760651D01*
X101717357Y-99760655D01*
X101543960Y-99868017D01*
X101543958Y-99868019D01*
X101393237Y-100005418D01*
X101270327Y-100168178D01*
X101179422Y-100350739D01*
X101179417Y-100350752D01*
X101123602Y-100546917D01*
X101104785Y-100749999D01*
X101104785Y-100750001D01*
X101118123Y-100893954D01*
X101104708Y-100962523D01*
X101082333Y-100993075D01*
X100255229Y-101820181D01*
X100193906Y-101853666D01*
X100167548Y-101856500D01*
X95604000Y-101856500D01*
X95603991Y-101856500D01*
X95603990Y-101856501D01*
X95496549Y-101868052D01*
X95496537Y-101868054D01*
X95445027Y-101879260D01*
X95342502Y-101913383D01*
X95342496Y-101913386D01*
X95221462Y-101991171D01*
X95221451Y-101991179D01*
X95168659Y-102036923D01*
X95074433Y-102145664D01*
X95074430Y-102145668D01*
X95014664Y-102276534D01*
X95014662Y-102276541D01*
X94994977Y-102343580D01*
X94994976Y-102343584D01*
X94974500Y-102486000D01*
X94974500Y-112906000D01*
X94974501Y-112906009D01*
X94986052Y-113013450D01*
X94986054Y-113013462D01*
X94997260Y-113064973D01*
X95002897Y-113081910D01*
X95005389Y-113151735D01*
X94969735Y-113211823D01*
X94907255Y-113243096D01*
X94885242Y-113245066D01*
X94346129Y-113245066D01*
X94346123Y-113245067D01*
X94286516Y-113251474D01*
X94151671Y-113301768D01*
X94151664Y-113301772D01*
X94036455Y-113388018D01*
X94036452Y-113388021D01*
X93950206Y-113503230D01*
X93950202Y-113503237D01*
X93899908Y-113638083D01*
X93893501Y-113697682D01*
X93893500Y-113697701D01*
X93893500Y-115793436D01*
X93893501Y-115793442D01*
X93899908Y-115853049D01*
X93950202Y-115987894D01*
X93950206Y-115987901D01*
X94036452Y-116103110D01*
X94036455Y-116103113D01*
X94151664Y-116189359D01*
X94151671Y-116189363D01*
X94286517Y-116239657D01*
X94286516Y-116239657D01*
X94293444Y-116240401D01*
X94346127Y-116246066D01*
X95966427Y-116246065D01*
X96033466Y-116265750D01*
X96079221Y-116318553D01*
X96089165Y-116387712D01*
X96060140Y-116451268D01*
X96054108Y-116457746D01*
X95053357Y-117458499D01*
X94724901Y-117786955D01*
X94686532Y-117825324D01*
X94602953Y-117908902D01*
X94507145Y-118052288D01*
X94507138Y-118052301D01*
X94441146Y-118211621D01*
X94441143Y-118211633D01*
X94407500Y-118380766D01*
X94407500Y-119570966D01*
X94387815Y-119638005D01*
X94356387Y-119671283D01*
X94336434Y-119685779D01*
X94174716Y-119847497D01*
X94174716Y-119847498D01*
X94174714Y-119847500D01*
X94134028Y-119903500D01*
X94040283Y-120032527D01*
X93936450Y-120236310D01*
X93865778Y-120453816D01*
X93865778Y-120453819D01*
X93850163Y-120552407D01*
X93830000Y-120679712D01*
X93830000Y-121003420D01*
X93834672Y-121032916D01*
X93865778Y-121229312D01*
X93865778Y-121229315D01*
X93936450Y-121446821D01*
X94021356Y-121613458D01*
X94040283Y-121650604D01*
X94174714Y-121835632D01*
X94336434Y-121997352D01*
X94521462Y-122131783D01*
X94636797Y-122190549D01*
X94725244Y-122235615D01*
X94942751Y-122306287D01*
X94942752Y-122306287D01*
X94942755Y-122306288D01*
X95168646Y-122342066D01*
X95168647Y-122342066D01*
X95397353Y-122342066D01*
X95397354Y-122342066D01*
X95623245Y-122306288D01*
X95623248Y-122306287D01*
X95623249Y-122306287D01*
X95840755Y-122235615D01*
X95840755Y-122235614D01*
X95840758Y-122235614D01*
X96044538Y-122131783D01*
X96071613Y-122112111D01*
X96137418Y-122088630D01*
X96205472Y-122104454D01*
X96254168Y-122154559D01*
X96268500Y-122212428D01*
X96268500Y-140338000D01*
X96248815Y-140405039D01*
X96196011Y-140450794D01*
X96144500Y-140462000D01*
X37967500Y-140462000D01*
X37900461Y-140442315D01*
X37854706Y-140389511D01*
X37843500Y-140338000D01*
X37843500Y-127007983D01*
X46457000Y-127007983D01*
X46457000Y-128008001D01*
X46457001Y-128008019D01*
X46467500Y-128110796D01*
X46467501Y-128110799D01*
X46522685Y-128277331D01*
X46522687Y-128277336D01*
X46557569Y-128333888D01*
X46614788Y-128426656D01*
X46738844Y-128550712D01*
X46888166Y-128642814D01*
X47054703Y-128697999D01*
X47157491Y-128708500D01*
X47782508Y-128708499D01*
X47782516Y-128708498D01*
X47782519Y-128708498D01*
X47838802Y-128702748D01*
X47885297Y-128697999D01*
X48050153Y-128643370D01*
X48119978Y-128640969D01*
X48163466Y-128661811D01*
X48168452Y-128665543D01*
X48168454Y-128665546D01*
X48283665Y-128751793D01*
X48283668Y-128751795D01*
X48283671Y-128751797D01*
X48418517Y-128802091D01*
X48418516Y-128802091D01*
X48425444Y-128802835D01*
X48478127Y-128808500D01*
X50073872Y-128808499D01*
X50133483Y-128802091D01*
X50268331Y-128751796D01*
X50383546Y-128665546D01*
X50469796Y-128550331D01*
X50520091Y-128415483D01*
X50526500Y-128355873D01*
X50526499Y-126660128D01*
X50520091Y-126600517D01*
X50516655Y-126591305D01*
X50469797Y-126465671D01*
X50469793Y-126465664D01*
X50383547Y-126350455D01*
X50383544Y-126350452D01*
X50268335Y-126264206D01*
X50268328Y-126264202D01*
X50133482Y-126213908D01*
X50133483Y-126213908D01*
X50073883Y-126207501D01*
X50073881Y-126207500D01*
X50073873Y-126207500D01*
X50073864Y-126207500D01*
X48478129Y-126207500D01*
X48478123Y-126207501D01*
X48418516Y-126213908D01*
X48283671Y-126264202D01*
X48283668Y-126264204D01*
X48163464Y-126354189D01*
X48097999Y-126378606D01*
X48050150Y-126372628D01*
X47885297Y-126318001D01*
X47885295Y-126318000D01*
X47782510Y-126307500D01*
X47157498Y-126307500D01*
X47157480Y-126307501D01*
X47054703Y-126318000D01*
X47054700Y-126318001D01*
X46888168Y-126373185D01*
X46888163Y-126373187D01*
X46738842Y-126465289D01*
X46614789Y-126589342D01*
X46522687Y-126738663D01*
X46522686Y-126738666D01*
X46467501Y-126905203D01*
X46467501Y-126905204D01*
X46467500Y-126905204D01*
X46457000Y-127007983D01*
X37843500Y-127007983D01*
X37843500Y-126613500D01*
X37863185Y-126546461D01*
X37915989Y-126500706D01*
X37967500Y-126489500D01*
X45164412Y-126489500D01*
X45164417Y-126489500D01*
X45205224Y-126487850D01*
X45225177Y-126486234D01*
X45265712Y-126481296D01*
X45402977Y-126438170D01*
X45465976Y-126407954D01*
X45585531Y-126327903D01*
X48049114Y-124110678D01*
X48096087Y-124062359D01*
X48117450Y-124037230D01*
X48157567Y-123983111D01*
X48217338Y-123852234D01*
X48237023Y-123785195D01*
X48237024Y-123785191D01*
X48257500Y-123642775D01*
X48257500Y-121994497D01*
X48277185Y-121927458D01*
X48329989Y-121881703D01*
X48399147Y-121871759D01*
X48462703Y-121900784D01*
X48487229Y-121929710D01*
X48488876Y-121932399D01*
X48488878Y-121932401D01*
X48564200Y-122020591D01*
X48655044Y-122126956D01*
X48729502Y-122190549D01*
X48849598Y-122293121D01*
X48849600Y-122293122D01*
X48849601Y-122293123D01*
X48929469Y-122342066D01*
X49067757Y-122426809D01*
X49067760Y-122426811D01*
X49304135Y-122524720D01*
X49304140Y-122524722D01*
X49552930Y-122584452D01*
X49808000Y-122604526D01*
X50063070Y-122584452D01*
X50311860Y-122524722D01*
X50430051Y-122475765D01*
X50548239Y-122426811D01*
X50548240Y-122426810D01*
X50548243Y-122426809D01*
X50766399Y-122293123D01*
X50960956Y-122126956D01*
X51127123Y-121932399D01*
X51260809Y-121714243D01*
X51277239Y-121674579D01*
X51358720Y-121477864D01*
X51358722Y-121477860D01*
X51418452Y-121229070D01*
X51438526Y-120974000D01*
X51418452Y-120718930D01*
X51358722Y-120470140D01*
X51358500Y-120469604D01*
X51260811Y-120233760D01*
X51260809Y-120233757D01*
X51234846Y-120191389D01*
X51127123Y-120015601D01*
X51127122Y-120015600D01*
X51127121Y-120015598D01*
X51067319Y-119945579D01*
X50960956Y-119821044D01*
X50802581Y-119685779D01*
X50766401Y-119654878D01*
X50766396Y-119654875D01*
X50548242Y-119521190D01*
X50548239Y-119521188D01*
X50311864Y-119423279D01*
X50311860Y-119423278D01*
X50063070Y-119363548D01*
X50063067Y-119363547D01*
X50063064Y-119363547D01*
X49808000Y-119343474D01*
X49552935Y-119363547D01*
X49552931Y-119363547D01*
X49552930Y-119363548D01*
X49428535Y-119393413D01*
X49304135Y-119423279D01*
X49067760Y-119521188D01*
X49067757Y-119521190D01*
X48849603Y-119654875D01*
X48849598Y-119654878D01*
X48655044Y-119821044D01*
X48488878Y-120015598D01*
X48488876Y-120015601D01*
X48487225Y-120018296D01*
X48486331Y-120019104D01*
X48486015Y-120019540D01*
X48485923Y-120019473D01*
X48435411Y-120065169D01*
X48366481Y-120076589D01*
X48302319Y-120048929D01*
X48263297Y-119990972D01*
X48257500Y-119953502D01*
X48257500Y-117215500D01*
X48277185Y-117148461D01*
X48329989Y-117102706D01*
X48381500Y-117091500D01*
X56602999Y-117091500D01*
X56670038Y-117111185D01*
X56715793Y-117163989D01*
X56725737Y-117233147D01*
X56696712Y-117296703D01*
X56650451Y-117330061D01*
X56532511Y-117378912D01*
X56532498Y-117378919D01*
X56409584Y-117461048D01*
X56409580Y-117461051D01*
X55283451Y-118587181D01*
X55222128Y-118620666D01*
X55195770Y-118623500D01*
X55051390Y-118623500D01*
X54841802Y-118662679D01*
X54841799Y-118662679D01*
X54841799Y-118662680D01*
X54642982Y-118739701D01*
X54642980Y-118739702D01*
X54461699Y-118851947D01*
X54304127Y-118995593D01*
X54175632Y-119165746D01*
X54080596Y-119356605D01*
X54080596Y-119356607D01*
X54022244Y-119561689D01*
X54015173Y-119638005D01*
X54002571Y-119774000D01*
X54022244Y-119986310D01*
X54061687Y-120124937D01*
X54080596Y-120191392D01*
X54080596Y-120191394D01*
X54175632Y-120382253D01*
X54242002Y-120470140D01*
X54304128Y-120552407D01*
X54461698Y-120696052D01*
X54642981Y-120808298D01*
X54706998Y-120833098D01*
X54772240Y-120858373D01*
X54827642Y-120900946D01*
X54851232Y-120966713D01*
X54835521Y-121034793D01*
X54785497Y-121083572D01*
X54772240Y-121089627D01*
X54642982Y-121139701D01*
X54642980Y-121139702D01*
X54461699Y-121251947D01*
X54304127Y-121395593D01*
X54175632Y-121565746D01*
X54080596Y-121756605D01*
X54080596Y-121756607D01*
X54027266Y-121944039D01*
X53989986Y-122003132D01*
X53926676Y-122032689D01*
X53857437Y-122023327D01*
X53804251Y-121978017D01*
X53788734Y-121944039D01*
X53770997Y-121881703D01*
X53735405Y-121756611D01*
X53735403Y-121756606D01*
X53735403Y-121756605D01*
X53640367Y-121565746D01*
X53511872Y-121395593D01*
X53483066Y-121369333D01*
X53354302Y-121251948D01*
X53173019Y-121139702D01*
X53173017Y-121139701D01*
X53043759Y-121089627D01*
X52974198Y-121062679D01*
X52764610Y-121023500D01*
X52551390Y-121023500D01*
X52341802Y-121062679D01*
X52341799Y-121062679D01*
X52341799Y-121062680D01*
X52142982Y-121139701D01*
X52142980Y-121139702D01*
X51961699Y-121251947D01*
X51804127Y-121395593D01*
X51675632Y-121565746D01*
X51580596Y-121756605D01*
X51580596Y-121756607D01*
X51522244Y-121961689D01*
X51502571Y-122173999D01*
X51502571Y-122174000D01*
X51522244Y-122386310D01*
X51580596Y-122591392D01*
X51580596Y-122591394D01*
X51675632Y-122782253D01*
X51804129Y-122952408D01*
X51867038Y-123009757D01*
X51903319Y-123069468D01*
X51907500Y-123101394D01*
X51907500Y-126131922D01*
X51887815Y-126198961D01*
X51835011Y-126244716D01*
X51826834Y-126248104D01*
X51783670Y-126264203D01*
X51783664Y-126264206D01*
X51668455Y-126350452D01*
X51668452Y-126350455D01*
X51582206Y-126465664D01*
X51582202Y-126465671D01*
X51531908Y-126600517D01*
X51528881Y-126628676D01*
X51525501Y-126660123D01*
X51525500Y-126660135D01*
X51525500Y-128355870D01*
X51525501Y-128355876D01*
X51531908Y-128415483D01*
X51582202Y-128550328D01*
X51582206Y-128550335D01*
X51668452Y-128665544D01*
X51668455Y-128665547D01*
X51783664Y-128751793D01*
X51783671Y-128751797D01*
X51918517Y-128802091D01*
X51918516Y-128802091D01*
X51925444Y-128802835D01*
X51978127Y-128808500D01*
X53573872Y-128808499D01*
X53633483Y-128802091D01*
X53768331Y-128751796D01*
X53883546Y-128665546D01*
X53969796Y-128550331D01*
X54020091Y-128415483D01*
X54026500Y-128355873D01*
X54026499Y-126660128D01*
X54020091Y-126600517D01*
X54016655Y-126591305D01*
X53969797Y-126465671D01*
X53969793Y-126465664D01*
X53883547Y-126350455D01*
X53883544Y-126350452D01*
X53768335Y-126264206D01*
X53768328Y-126264202D01*
X53633482Y-126213908D01*
X53633483Y-126213908D01*
X53573883Y-126207501D01*
X53573881Y-126207500D01*
X53573873Y-126207500D01*
X53573865Y-126207500D01*
X53532500Y-126207500D01*
X53465461Y-126187815D01*
X53419706Y-126135011D01*
X53408500Y-126083500D01*
X53408500Y-123101394D01*
X53428185Y-123034355D01*
X53448962Y-123009757D01*
X53511872Y-122952407D01*
X53640366Y-122782255D01*
X53728864Y-122604526D01*
X53735403Y-122591394D01*
X53735403Y-122591393D01*
X53735405Y-122591389D01*
X53788734Y-122403959D01*
X53826014Y-122344867D01*
X53889323Y-122315310D01*
X53958563Y-122324672D01*
X54011749Y-122369982D01*
X54027266Y-122403960D01*
X54080596Y-122591392D01*
X54080596Y-122591394D01*
X54175632Y-122782253D01*
X54304129Y-122952408D01*
X54367038Y-123009757D01*
X54403319Y-123069468D01*
X54407500Y-123101394D01*
X54407500Y-131931769D01*
X54387815Y-131998808D01*
X54371181Y-132019450D01*
X51596005Y-134794625D01*
X51534682Y-134828110D01*
X51468062Y-134824225D01*
X51369618Y-134790429D01*
X51124335Y-134749500D01*
X50875665Y-134749500D01*
X50630383Y-134790429D01*
X50395197Y-134871169D01*
X50395188Y-134871172D01*
X50176493Y-134989524D01*
X49980257Y-135142261D01*
X49811833Y-135325217D01*
X49675826Y-135533393D01*
X49575936Y-135761118D01*
X49514892Y-136002175D01*
X49514890Y-136002187D01*
X49494357Y-136249994D01*
X49494357Y-136250005D01*
X49514890Y-136497812D01*
X49514892Y-136497824D01*
X49575936Y-136738881D01*
X49675826Y-136966606D01*
X49811833Y-137174782D01*
X49811836Y-137174785D01*
X49980256Y-137357738D01*
X50176491Y-137510474D01*
X50232896Y-137540999D01*
X50304675Y-137579844D01*
X50395190Y-137628828D01*
X50630386Y-137709571D01*
X50875665Y-137750500D01*
X51124335Y-137750500D01*
X51369614Y-137709571D01*
X51604810Y-137628828D01*
X51823509Y-137510474D01*
X52019744Y-137357738D01*
X52188164Y-137174785D01*
X52324173Y-136966607D01*
X52424063Y-136738881D01*
X52485108Y-136497821D01*
X52485109Y-136497812D01*
X52505643Y-136250005D01*
X52505643Y-136249995D01*
X52499635Y-136177500D01*
X52491849Y-136083542D01*
X52505929Y-136015108D01*
X52527741Y-135985625D01*
X55740951Y-132772416D01*
X55823084Y-132649495D01*
X55879658Y-132512913D01*
X55894763Y-132436976D01*
X55908500Y-132367918D01*
X55908500Y-123101394D01*
X55928185Y-123034355D01*
X55948962Y-123009757D01*
X56011872Y-122952407D01*
X56140366Y-122782255D01*
X56228864Y-122604526D01*
X56235403Y-122591394D01*
X56235403Y-122591393D01*
X56235405Y-122591389D01*
X56288734Y-122403959D01*
X56326014Y-122344867D01*
X56389323Y-122315310D01*
X56458563Y-122324672D01*
X56511749Y-122369982D01*
X56527266Y-122403960D01*
X56580596Y-122591392D01*
X56580596Y-122591394D01*
X56675632Y-122782253D01*
X56804129Y-122952408D01*
X56867038Y-123009757D01*
X56903319Y-123069468D01*
X56907500Y-123101394D01*
X56907500Y-126098354D01*
X56887815Y-126165393D01*
X56835011Y-126211148D01*
X56826834Y-126214536D01*
X56693669Y-126264203D01*
X56693664Y-126264206D01*
X56578455Y-126350452D01*
X56578452Y-126350455D01*
X56492206Y-126465664D01*
X56492202Y-126465671D01*
X56441908Y-126600517D01*
X56438881Y-126628676D01*
X56435501Y-126660123D01*
X56435500Y-126660135D01*
X56435500Y-128355870D01*
X56435501Y-128355876D01*
X56441908Y-128415483D01*
X56492202Y-128550328D01*
X56492206Y-128550335D01*
X56578452Y-128665544D01*
X56578455Y-128665547D01*
X56693664Y-128751793D01*
X56693671Y-128751797D01*
X56828517Y-128802091D01*
X56828516Y-128802091D01*
X56835444Y-128802835D01*
X56888127Y-128808500D01*
X58483872Y-128808499D01*
X58543483Y-128802091D01*
X58678331Y-128751796D01*
X58793546Y-128665546D01*
X58879796Y-128550331D01*
X58930091Y-128415483D01*
X58936500Y-128355873D01*
X58936499Y-126660135D01*
X59935500Y-126660135D01*
X59935500Y-128355870D01*
X59935501Y-128355876D01*
X59941908Y-128415483D01*
X59992202Y-128550328D01*
X59992206Y-128550335D01*
X60078452Y-128665544D01*
X60078455Y-128665547D01*
X60193664Y-128751793D01*
X60193671Y-128751797D01*
X60328517Y-128802091D01*
X60328516Y-128802091D01*
X60335444Y-128802835D01*
X60388127Y-128808500D01*
X61983872Y-128808499D01*
X62043483Y-128802091D01*
X62178331Y-128751796D01*
X62293546Y-128665546D01*
X62306806Y-128647832D01*
X62362737Y-128605961D01*
X62432428Y-128600974D01*
X62471171Y-128616603D01*
X62513657Y-128642809D01*
X62513660Y-128642810D01*
X62513666Y-128642814D01*
X62680203Y-128697999D01*
X62782991Y-128708500D01*
X63408008Y-128708499D01*
X63408016Y-128708498D01*
X63408019Y-128708498D01*
X63464302Y-128702748D01*
X63510797Y-128697999D01*
X63677334Y-128642814D01*
X63826656Y-128550712D01*
X63950712Y-128426656D01*
X64042814Y-128277334D01*
X64097999Y-128110797D01*
X64108500Y-128008009D01*
X64108499Y-127007992D01*
X64104660Y-126970415D01*
X64097999Y-126905203D01*
X64097998Y-126905200D01*
X64092689Y-126889178D01*
X64042814Y-126738666D01*
X63950712Y-126589344D01*
X63826656Y-126465288D01*
X63715802Y-126396913D01*
X63677336Y-126373187D01*
X63677331Y-126373185D01*
X63662188Y-126368167D01*
X63510797Y-126318001D01*
X63510795Y-126318000D01*
X63408010Y-126307500D01*
X62782998Y-126307500D01*
X62782980Y-126307501D01*
X62680203Y-126318000D01*
X62680200Y-126318001D01*
X62513668Y-126373185D01*
X62513666Y-126373185D01*
X62513666Y-126373186D01*
X62513662Y-126373187D01*
X62513661Y-126373189D01*
X62471168Y-126399398D01*
X62403775Y-126417837D01*
X62337112Y-126396913D01*
X62306807Y-126368169D01*
X62293546Y-126350454D01*
X62178331Y-126264204D01*
X62178329Y-126264203D01*
X62178328Y-126264202D01*
X62043482Y-126213908D01*
X62043483Y-126213908D01*
X61983883Y-126207501D01*
X61983881Y-126207500D01*
X61983873Y-126207500D01*
X61983864Y-126207500D01*
X60388129Y-126207500D01*
X60388123Y-126207501D01*
X60328516Y-126213908D01*
X60193671Y-126264202D01*
X60193664Y-126264206D01*
X60078455Y-126350452D01*
X60078452Y-126350455D01*
X59992206Y-126465664D01*
X59992202Y-126465671D01*
X59941908Y-126600517D01*
X59938881Y-126628676D01*
X59935501Y-126660123D01*
X59935500Y-126660135D01*
X58936499Y-126660135D01*
X58936499Y-126660128D01*
X58930091Y-126600517D01*
X58926655Y-126591305D01*
X58879797Y-126465671D01*
X58879793Y-126465664D01*
X58793547Y-126350455D01*
X58793544Y-126350452D01*
X58678335Y-126264206D01*
X58678328Y-126264202D01*
X58543483Y-126213908D01*
X58519242Y-126211302D01*
X58454691Y-126184562D01*
X58414844Y-126127169D01*
X58408500Y-126088013D01*
X58408500Y-123101394D01*
X58428185Y-123034355D01*
X58448962Y-123009757D01*
X58511872Y-122952407D01*
X58640366Y-122782255D01*
X58728864Y-122604526D01*
X58735403Y-122591394D01*
X58735403Y-122591393D01*
X58735405Y-122591389D01*
X58793756Y-122386310D01*
X58813429Y-122174000D01*
X58793756Y-121961690D01*
X58735405Y-121756611D01*
X58735403Y-121756606D01*
X58735403Y-121756605D01*
X58640367Y-121565746D01*
X58511872Y-121395593D01*
X58483066Y-121369333D01*
X58354302Y-121251948D01*
X58195990Y-121153925D01*
X58149356Y-121101898D01*
X58138252Y-121032916D01*
X58166205Y-120968882D01*
X58224340Y-120930126D01*
X58261269Y-120924499D01*
X58355871Y-120924499D01*
X58355872Y-120924499D01*
X58415483Y-120918091D01*
X58550331Y-120867796D01*
X58665546Y-120781546D01*
X58665548Y-120781542D01*
X58671817Y-120775275D01*
X58673630Y-120777088D01*
X58718751Y-120743300D01*
X58788442Y-120738305D01*
X58849771Y-120771780D01*
X58883265Y-120833098D01*
X58885721Y-120869203D01*
X58877474Y-120973999D01*
X58897547Y-121229064D01*
X58897547Y-121229067D01*
X58897548Y-121229070D01*
X58953782Y-121463297D01*
X58957279Y-121477864D01*
X59055188Y-121714239D01*
X59055190Y-121714242D01*
X59188875Y-121932396D01*
X59188878Y-121932401D01*
X59264200Y-122020591D01*
X59355044Y-122126956D01*
X59429502Y-122190549D01*
X59549598Y-122293121D01*
X59549600Y-122293122D01*
X59549601Y-122293123D01*
X59629469Y-122342066D01*
X59767757Y-122426809D01*
X59767760Y-122426811D01*
X60004135Y-122524720D01*
X60004140Y-122524722D01*
X60252930Y-122584452D01*
X60508000Y-122604526D01*
X60763070Y-122584452D01*
X61011860Y-122524722D01*
X61130051Y-122475765D01*
X61248239Y-122426811D01*
X61248240Y-122426810D01*
X61248243Y-122426809D01*
X61466399Y-122293123D01*
X61660956Y-122126956D01*
X61827123Y-121932399D01*
X61960809Y-121714243D01*
X61977239Y-121674579D01*
X62058720Y-121477864D01*
X62058722Y-121477860D01*
X62118452Y-121229070D01*
X62138526Y-120974000D01*
X62118452Y-120718930D01*
X62058722Y-120470140D01*
X62058500Y-120469604D01*
X61960811Y-120233760D01*
X61960809Y-120233757D01*
X61934846Y-120191389D01*
X61827123Y-120015601D01*
X61827122Y-120015600D01*
X61827121Y-120015598D01*
X61767319Y-119945579D01*
X61660956Y-119821044D01*
X61502581Y-119685779D01*
X61466401Y-119654878D01*
X61466396Y-119654875D01*
X61248242Y-119521190D01*
X61248239Y-119521188D01*
X61011864Y-119423279D01*
X61011860Y-119423278D01*
X60763070Y-119363548D01*
X60763067Y-119363547D01*
X60763064Y-119363547D01*
X60508000Y-119343474D01*
X60252935Y-119363547D01*
X60252931Y-119363547D01*
X60252930Y-119363548D01*
X60128535Y-119393413D01*
X60004135Y-119423279D01*
X59767760Y-119521188D01*
X59767757Y-119521190D01*
X59549603Y-119654875D01*
X59549598Y-119654878D01*
X59355044Y-119821044D01*
X59188878Y-120015598D01*
X59188875Y-120015603D01*
X59055190Y-120233756D01*
X59047059Y-120253387D01*
X59003216Y-120307789D01*
X58936921Y-120329852D01*
X58869222Y-120312571D01*
X58821613Y-120261432D01*
X58808499Y-120205934D01*
X58808499Y-119076128D01*
X58802091Y-119016517D01*
X58794287Y-118995593D01*
X58781696Y-118961832D01*
X58776712Y-118892140D01*
X58810198Y-118830818D01*
X58871521Y-118797333D01*
X58897878Y-118794500D01*
X60124082Y-118794500D01*
X69574494Y-118794500D01*
X69641533Y-118814185D01*
X69676067Y-118847374D01*
X69680325Y-118853455D01*
X69680326Y-118853456D01*
X69680327Y-118853457D01*
X69835543Y-119008673D01*
X69835546Y-119008675D01*
X69835547Y-119008676D01*
X70015349Y-119134575D01*
X70015351Y-119134576D01*
X70015354Y-119134578D01*
X70088952Y-119168897D01*
X70159122Y-119201618D01*
X70211562Y-119247790D01*
X70230714Y-119314984D01*
X70210498Y-119381865D01*
X70159123Y-119426382D01*
X70015356Y-119493421D01*
X70015354Y-119493422D01*
X69835540Y-119619328D01*
X69680328Y-119774540D01*
X69554422Y-119954354D01*
X69554421Y-119954356D01*
X69461655Y-120153293D01*
X69404840Y-120365324D01*
X69404839Y-120365331D01*
X69385709Y-120583997D01*
X69385709Y-120584002D01*
X69404839Y-120802668D01*
X69404840Y-120802675D01*
X69406347Y-120808298D01*
X69461654Y-121014703D01*
X69461655Y-121014706D01*
X69461656Y-121014708D01*
X69554420Y-121213642D01*
X69554424Y-121213650D01*
X69680323Y-121393452D01*
X69680328Y-121393458D01*
X69835541Y-121548671D01*
X69835547Y-121548676D01*
X70015349Y-121674575D01*
X70015351Y-121674576D01*
X70015354Y-121674578D01*
X70214297Y-121767346D01*
X70426326Y-121824160D01*
X70582521Y-121837825D01*
X70644998Y-121843291D01*
X70645000Y-121843291D01*
X70645002Y-121843291D01*
X70699668Y-121838508D01*
X70863674Y-121824160D01*
X71073511Y-121767933D01*
X71143358Y-121769595D01*
X71201221Y-121808756D01*
X71228726Y-121872984D01*
X71218064Y-121936386D01*
X71219247Y-121936876D01*
X71160343Y-122079082D01*
X71160340Y-122079092D01*
X71131500Y-122224079D01*
X71131500Y-124334004D01*
X71111815Y-124401043D01*
X71059011Y-124446798D01*
X70989853Y-124456742D01*
X70975406Y-124453779D01*
X70863675Y-124423840D01*
X70863668Y-124423839D01*
X70645002Y-124404709D01*
X70644998Y-124404709D01*
X70426331Y-124423839D01*
X70426324Y-124423840D01*
X70214293Y-124480655D01*
X70015356Y-124573421D01*
X70015354Y-124573422D01*
X69835540Y-124699328D01*
X69680328Y-124854540D01*
X69554422Y-125034354D01*
X69554421Y-125034356D01*
X69461655Y-125233293D01*
X69404840Y-125445324D01*
X69404839Y-125445331D01*
X69385709Y-125663997D01*
X69385709Y-125664002D01*
X69390126Y-125714496D01*
X69404840Y-125882674D01*
X69461654Y-126094703D01*
X69461655Y-126094706D01*
X69461656Y-126094708D01*
X69554420Y-126293642D01*
X69554424Y-126293650D01*
X69680323Y-126473452D01*
X69680328Y-126473458D01*
X69835541Y-126628671D01*
X69835547Y-126628676D01*
X70015349Y-126754575D01*
X70015351Y-126754576D01*
X70015354Y-126754578D01*
X70039849Y-126766000D01*
X70214296Y-126847346D01*
X70215409Y-126847751D01*
X70215830Y-126848061D01*
X70219203Y-126849634D01*
X70218886Y-126850311D01*
X70271673Y-126889178D01*
X70296607Y-126954447D01*
X70282296Y-127022835D01*
X70260678Y-127051953D01*
X62043088Y-135269542D01*
X61981765Y-135303027D01*
X61912073Y-135298043D01*
X61864177Y-135265844D01*
X61769744Y-135163262D01*
X61573509Y-135010526D01*
X61573507Y-135010525D01*
X61573506Y-135010524D01*
X61354811Y-134892172D01*
X61354802Y-134892169D01*
X61119616Y-134811429D01*
X60874335Y-134770500D01*
X60625665Y-134770500D01*
X60380383Y-134811429D01*
X60145197Y-134892169D01*
X60145188Y-134892172D01*
X59926493Y-135010524D01*
X59730257Y-135163261D01*
X59561833Y-135346217D01*
X59425826Y-135554393D01*
X59325936Y-135782118D01*
X59264892Y-136023175D01*
X59264890Y-136023187D01*
X59244357Y-136270994D01*
X59244357Y-136271005D01*
X59264890Y-136518812D01*
X59264892Y-136518824D01*
X59325936Y-136759881D01*
X59425826Y-136987606D01*
X59561833Y-137195782D01*
X59561835Y-137195784D01*
X59561836Y-137195785D01*
X59730256Y-137378738D01*
X59926491Y-137531474D01*
X59926493Y-137531475D01*
X60106383Y-137628827D01*
X60145190Y-137649828D01*
X60380386Y-137730571D01*
X60625665Y-137771500D01*
X60874335Y-137771500D01*
X61119614Y-137730571D01*
X61354810Y-137649828D01*
X61573509Y-137531474D01*
X61769744Y-137378738D01*
X61938164Y-137195785D01*
X62015327Y-137077677D01*
X62068474Y-137032322D01*
X62119136Y-137021500D01*
X62176920Y-137021500D01*
X62274462Y-137002096D01*
X62321913Y-136992658D01*
X62458495Y-136936084D01*
X62515564Y-136897952D01*
X62515564Y-136897951D01*
X62515566Y-136897951D01*
X62548490Y-136875952D01*
X62581416Y-136853952D01*
X72464951Y-126970416D01*
X72547084Y-126847495D01*
X72603658Y-126710913D01*
X72627450Y-126591305D01*
X72632500Y-126565920D01*
X72632500Y-124782064D01*
X72652185Y-124715025D01*
X72704989Y-124669270D01*
X72774147Y-124659326D01*
X72808012Y-124669269D01*
X72812541Y-124671338D01*
X72879580Y-124691023D01*
X72879584Y-124691024D01*
X73022000Y-124711500D01*
X73655500Y-124711500D01*
X73722539Y-124731185D01*
X73768294Y-124783989D01*
X73779500Y-124835500D01*
X73779500Y-128287095D01*
X73759815Y-128354134D01*
X73707011Y-128399889D01*
X73637853Y-128409833D01*
X73632718Y-128408984D01*
X73581979Y-128399500D01*
X73581976Y-128399500D01*
X73378024Y-128399500D01*
X73177544Y-128436976D01*
X73177541Y-128436976D01*
X73177541Y-128436977D01*
X72987364Y-128510651D01*
X72987357Y-128510655D01*
X72813960Y-128618017D01*
X72813958Y-128618019D01*
X72663237Y-128755418D01*
X72540327Y-128918178D01*
X72449422Y-129100739D01*
X72449417Y-129100752D01*
X72393602Y-129296917D01*
X72374785Y-129499999D01*
X72374785Y-129500000D01*
X72393602Y-129703082D01*
X72449417Y-129899247D01*
X72449422Y-129899260D01*
X72540327Y-130081821D01*
X72663237Y-130244581D01*
X72813958Y-130381980D01*
X72813960Y-130381982D01*
X72913141Y-130443392D01*
X72987363Y-130489348D01*
X73177544Y-130563024D01*
X73378024Y-130600500D01*
X73378026Y-130600500D01*
X73581975Y-130600500D01*
X73581976Y-130600500D01*
X73632714Y-130591015D01*
X73702228Y-130598045D01*
X73756908Y-130641541D01*
X73779391Y-130707695D01*
X73779500Y-130712903D01*
X73779500Y-132287095D01*
X73759815Y-132354134D01*
X73707011Y-132399889D01*
X73637853Y-132409833D01*
X73632718Y-132408984D01*
X73581979Y-132399500D01*
X73581976Y-132399500D01*
X73378024Y-132399500D01*
X73177544Y-132436976D01*
X73177541Y-132436976D01*
X73177541Y-132436977D01*
X72987364Y-132510651D01*
X72987357Y-132510655D01*
X72813960Y-132618017D01*
X72813958Y-132618019D01*
X72663237Y-132755418D01*
X72540327Y-132918178D01*
X72449422Y-133100739D01*
X72449417Y-133100752D01*
X72393602Y-133296917D01*
X72374785Y-133499999D01*
X72374785Y-133500000D01*
X72393602Y-133703082D01*
X72449417Y-133899247D01*
X72449422Y-133899260D01*
X72540327Y-134081821D01*
X72663237Y-134244581D01*
X72813958Y-134381980D01*
X72813960Y-134381982D01*
X72913141Y-134443392D01*
X72987363Y-134489348D01*
X73177544Y-134563024D01*
X73378024Y-134600500D01*
X73378026Y-134600500D01*
X73581975Y-134600500D01*
X73581976Y-134600500D01*
X73632714Y-134591015D01*
X73702228Y-134598045D01*
X73756908Y-134641541D01*
X73779391Y-134707695D01*
X73779500Y-134712903D01*
X73779500Y-136305545D01*
X73759815Y-136372584D01*
X73743179Y-136393229D01*
X73724179Y-136412228D01*
X73662855Y-136445711D01*
X73613717Y-136446433D01*
X73581977Y-136440500D01*
X73581976Y-136440500D01*
X73378024Y-136440500D01*
X73177544Y-136477976D01*
X73177541Y-136477976D01*
X73177541Y-136477977D01*
X72987364Y-136551651D01*
X72987357Y-136551655D01*
X72813960Y-136659017D01*
X72813958Y-136659019D01*
X72663237Y-136796418D01*
X72540327Y-136959178D01*
X72449422Y-137141739D01*
X72449417Y-137141752D01*
X72393602Y-137337917D01*
X72374785Y-137540999D01*
X72374785Y-137541000D01*
X72393602Y-137744082D01*
X72449417Y-137940247D01*
X72449422Y-137940260D01*
X72540327Y-138122821D01*
X72663237Y-138285581D01*
X72813958Y-138422980D01*
X72813960Y-138422982D01*
X72913141Y-138484392D01*
X72987363Y-138530348D01*
X73177544Y-138604024D01*
X73378024Y-138641500D01*
X73378026Y-138641500D01*
X73581974Y-138641500D01*
X73581976Y-138641500D01*
X73782456Y-138604024D01*
X73972637Y-138530348D01*
X74146041Y-138422981D01*
X74296764Y-138285579D01*
X74419673Y-138122821D01*
X74510582Y-137940250D01*
X74566397Y-137744083D01*
X74585215Y-137541000D01*
X74571875Y-137397043D01*
X74585290Y-137328477D01*
X74607659Y-137297930D01*
X74890858Y-137014733D01*
X74959312Y-136912285D01*
X74998429Y-136817847D01*
X75006463Y-136798452D01*
X75014135Y-136759881D01*
X75015405Y-136753498D01*
X75015405Y-136753495D01*
X75030501Y-136677606D01*
X75030501Y-136554393D01*
X75030501Y-136549283D01*
X75030500Y-136549257D01*
X75030500Y-124909452D01*
X75050185Y-124842413D01*
X75066819Y-124821771D01*
X75140771Y-124747819D01*
X75202094Y-124714334D01*
X75228452Y-124711500D01*
X77162285Y-124711500D01*
X77229324Y-124731185D01*
X77275079Y-124783989D01*
X77285023Y-124853147D01*
X77263860Y-124906623D01*
X77174422Y-125034354D01*
X77174421Y-125034356D01*
X77081655Y-125233293D01*
X77024840Y-125445324D01*
X77024839Y-125445331D01*
X77005709Y-125663997D01*
X77005709Y-125664002D01*
X77010126Y-125714496D01*
X77024840Y-125882674D01*
X77081654Y-126094703D01*
X77081655Y-126094706D01*
X77081656Y-126094708D01*
X77174420Y-126293642D01*
X77174424Y-126293650D01*
X77300323Y-126473452D01*
X77300328Y-126473458D01*
X77455541Y-126628671D01*
X77455547Y-126628676D01*
X77635349Y-126754575D01*
X77635351Y-126754576D01*
X77635354Y-126754578D01*
X77834297Y-126847346D01*
X78046326Y-126904160D01*
X78202521Y-126917825D01*
X78264998Y-126923291D01*
X78265000Y-126923291D01*
X78265002Y-126923291D01*
X78319668Y-126918508D01*
X78483674Y-126904160D01*
X78695703Y-126847346D01*
X78894646Y-126754578D01*
X79074457Y-126628673D01*
X79229673Y-126473457D01*
X79355578Y-126293646D01*
X79448346Y-126094703D01*
X79505160Y-125882674D01*
X79524291Y-125664000D01*
X79505160Y-125445326D01*
X79496650Y-125413566D01*
X82817564Y-125413566D01*
X82819645Y-125445324D01*
X82837287Y-125714484D01*
X82837288Y-125714496D01*
X82896118Y-126010249D01*
X82896122Y-126010264D01*
X82993053Y-126295813D01*
X82993062Y-126295834D01*
X83126431Y-126566279D01*
X83126435Y-126566286D01*
X83293973Y-126817025D01*
X83492810Y-127043755D01*
X83719540Y-127242592D01*
X83970279Y-127410130D01*
X83970286Y-127410134D01*
X84240731Y-127543503D01*
X84240736Y-127543505D01*
X84240748Y-127543511D01*
X84526309Y-127640446D01*
X84726251Y-127680217D01*
X84822069Y-127699277D01*
X84822070Y-127699277D01*
X84822080Y-127699279D01*
X85123000Y-127719002D01*
X85423920Y-127699279D01*
X85719691Y-127640446D01*
X86005252Y-127543511D01*
X86275718Y-127410132D01*
X86526461Y-127242591D01*
X86753189Y-127043755D01*
X86952025Y-126817027D01*
X87119566Y-126566284D01*
X87252945Y-126295818D01*
X87349880Y-126010257D01*
X87408713Y-125714486D01*
X87428436Y-125413566D01*
X87408713Y-125112646D01*
X87349880Y-124816875D01*
X87252945Y-124531314D01*
X87227962Y-124480654D01*
X87119568Y-124260852D01*
X87119564Y-124260845D01*
X86952026Y-124010106D01*
X86753189Y-123783376D01*
X86526459Y-123584539D01*
X86275720Y-123417001D01*
X86275713Y-123416997D01*
X86005268Y-123283628D01*
X86005247Y-123283619D01*
X85719698Y-123186688D01*
X85719692Y-123186686D01*
X85719691Y-123186686D01*
X85719689Y-123186685D01*
X85719683Y-123186684D01*
X85423930Y-123127854D01*
X85423921Y-123127853D01*
X85423920Y-123127853D01*
X85123000Y-123108130D01*
X84822080Y-123127853D01*
X84822079Y-123127853D01*
X84822069Y-123127854D01*
X84526316Y-123186684D01*
X84526301Y-123186688D01*
X84240752Y-123283619D01*
X84240731Y-123283628D01*
X83970286Y-123416997D01*
X83970279Y-123417001D01*
X83719540Y-123584539D01*
X83492810Y-123783376D01*
X83293973Y-124010106D01*
X83126435Y-124260845D01*
X83126431Y-124260852D01*
X82993062Y-124531297D01*
X82993053Y-124531318D01*
X82896122Y-124816867D01*
X82896118Y-124816882D01*
X82837288Y-125112635D01*
X82837287Y-125112645D01*
X82837287Y-125112646D01*
X82817564Y-125413566D01*
X79496650Y-125413566D01*
X79448346Y-125233297D01*
X79355578Y-125034355D01*
X79321514Y-124985706D01*
X79240996Y-124870713D01*
X79218669Y-124804506D01*
X79235680Y-124736739D01*
X79286628Y-124688927D01*
X79303403Y-124681939D01*
X79385504Y-124654613D01*
X79506543Y-124576825D01*
X79559347Y-124531070D01*
X79653567Y-124422336D01*
X79713338Y-124291459D01*
X79733023Y-124224420D01*
X79733024Y-124224416D01*
X79753500Y-124082000D01*
X79753500Y-122298000D01*
X79741947Y-122190544D01*
X79730741Y-122139033D01*
X79719232Y-122104454D01*
X79696616Y-122036502D01*
X79696613Y-122036496D01*
X79671454Y-121997349D01*
X79618825Y-121915457D01*
X79606111Y-121900784D01*
X79573076Y-121862659D01*
X79573072Y-121862656D01*
X79573070Y-121862653D01*
X79464336Y-121768433D01*
X79464333Y-121768431D01*
X79464331Y-121768430D01*
X79333465Y-121708664D01*
X79333460Y-121708662D01*
X79333459Y-121708662D01*
X79308930Y-121701459D01*
X79266418Y-121688976D01*
X79221118Y-121682463D01*
X79157563Y-121653437D01*
X79119789Y-121594659D01*
X79119789Y-121524789D01*
X79151082Y-121472047D01*
X79229673Y-121393457D01*
X79355578Y-121213646D01*
X79448346Y-121014703D01*
X79505160Y-120802674D01*
X79524291Y-120584000D01*
X79519696Y-120531483D01*
X79506641Y-120382255D01*
X79505160Y-120365326D01*
X79448346Y-120153297D01*
X79355578Y-119954355D01*
X79229673Y-119774543D01*
X79074457Y-119619327D01*
X79074453Y-119619324D01*
X79074452Y-119619323D01*
X78894650Y-119493424D01*
X78894642Y-119493420D01*
X78750877Y-119426382D01*
X78698437Y-119380210D01*
X78679285Y-119313017D01*
X78699500Y-119246136D01*
X78750877Y-119201618D01*
X78780182Y-119187953D01*
X78894646Y-119134578D01*
X79074457Y-119008673D01*
X79229673Y-118853457D01*
X79355578Y-118673646D01*
X79448346Y-118474703D01*
X79505160Y-118262674D01*
X79520020Y-118092815D01*
X79524291Y-118044002D01*
X79524291Y-118043997D01*
X79512331Y-117907297D01*
X79505160Y-117825326D01*
X79448346Y-117613297D01*
X79355578Y-117414355D01*
X79270734Y-117293184D01*
X79229674Y-117234544D01*
X79159119Y-117163989D01*
X79074457Y-117079327D01*
X79074453Y-117079324D01*
X79074452Y-117079323D01*
X78894650Y-116953424D01*
X78894642Y-116953420D01*
X78750877Y-116886382D01*
X78698437Y-116840210D01*
X78679285Y-116773017D01*
X78699500Y-116706136D01*
X78750877Y-116661618D01*
X78894646Y-116594578D01*
X79074457Y-116468673D01*
X79229673Y-116313457D01*
X79355578Y-116133646D01*
X79448346Y-115934703D01*
X79505160Y-115722674D01*
X79524291Y-115504000D01*
X79505160Y-115285326D01*
X79448346Y-115073297D01*
X79355578Y-114874355D01*
X79229673Y-114694543D01*
X79074457Y-114539327D01*
X79074453Y-114539324D01*
X79074452Y-114539323D01*
X78894650Y-114413424D01*
X78894642Y-114413420D01*
X78695708Y-114320656D01*
X78695706Y-114320655D01*
X78695703Y-114320654D01*
X78544885Y-114280241D01*
X78483675Y-114263840D01*
X78483668Y-114263839D01*
X78265002Y-114244709D01*
X78264998Y-114244709D01*
X78046331Y-114263839D01*
X78046324Y-114263840D01*
X77834293Y-114320655D01*
X77635356Y-114413421D01*
X77635354Y-114413422D01*
X77455540Y-114539328D01*
X77302223Y-114692646D01*
X77240900Y-114726131D01*
X77171208Y-114721147D01*
X77149446Y-114710504D01*
X77027340Y-114635189D01*
X77027335Y-114635187D01*
X77027334Y-114635186D01*
X76860797Y-114580001D01*
X76860795Y-114580000D01*
X76758010Y-114569500D01*
X75707998Y-114569500D01*
X75707980Y-114569501D01*
X75605203Y-114580000D01*
X75605200Y-114580001D01*
X75438668Y-114635185D01*
X75438663Y-114635187D01*
X75289342Y-114727289D01*
X75165289Y-114851342D01*
X75073187Y-115000663D01*
X75073186Y-115000666D01*
X75018001Y-115167203D01*
X75018001Y-115167204D01*
X75018000Y-115167204D01*
X75007500Y-115269983D01*
X75007500Y-115682769D01*
X74987815Y-115749808D01*
X74971185Y-115770445D01*
X74820450Y-115921181D01*
X74759129Y-115954665D01*
X74732771Y-115957499D01*
X71983838Y-115957499D01*
X71916799Y-115937814D01*
X71871044Y-115885010D01*
X71861100Y-115815852D01*
X71864059Y-115801419D01*
X71885160Y-115722674D01*
X71904291Y-115504000D01*
X71893407Y-115379599D01*
X71907173Y-115311101D01*
X71929251Y-115281115D01*
X76274952Y-110935416D01*
X76324186Y-110861729D01*
X76357084Y-110812495D01*
X76413658Y-110675913D01*
X76442500Y-110530918D01*
X76442500Y-110423997D01*
X77005709Y-110423997D01*
X77005709Y-110424002D01*
X77024839Y-110642668D01*
X77024840Y-110642675D01*
X77041241Y-110703885D01*
X77081654Y-110854703D01*
X77081655Y-110854706D01*
X77081656Y-110854708D01*
X77174420Y-111053642D01*
X77174424Y-111053650D01*
X77300323Y-111233452D01*
X77300328Y-111233458D01*
X77455541Y-111388671D01*
X77455547Y-111388676D01*
X77635349Y-111514575D01*
X77635351Y-111514576D01*
X77635354Y-111514578D01*
X77834297Y-111607346D01*
X78046326Y-111664160D01*
X78189537Y-111676689D01*
X78264998Y-111683291D01*
X78265000Y-111683291D01*
X78265002Y-111683291D01*
X78319668Y-111678508D01*
X78483674Y-111664160D01*
X78695703Y-111607346D01*
X78894646Y-111514578D01*
X79074457Y-111388673D01*
X79229673Y-111233457D01*
X79355578Y-111053646D01*
X79448346Y-110854703D01*
X79505160Y-110642674D01*
X79524291Y-110424000D01*
X79519952Y-110374409D01*
X79505160Y-110205331D01*
X79505160Y-110205326D01*
X79496650Y-110173566D01*
X82881064Y-110173566D01*
X82899845Y-110460121D01*
X82900787Y-110474484D01*
X82900788Y-110474496D01*
X82959618Y-110770249D01*
X82959622Y-110770264D01*
X83056553Y-111055813D01*
X83056562Y-111055834D01*
X83189931Y-111326279D01*
X83189935Y-111326286D01*
X83357473Y-111577025D01*
X83556310Y-111803755D01*
X83783040Y-112002592D01*
X84033779Y-112170130D01*
X84033786Y-112170134D01*
X84304231Y-112303503D01*
X84304236Y-112303505D01*
X84304248Y-112303511D01*
X84589809Y-112400446D01*
X84789751Y-112440217D01*
X84885569Y-112459277D01*
X84885570Y-112459277D01*
X84885580Y-112459279D01*
X85186500Y-112479002D01*
X85487420Y-112459279D01*
X85783191Y-112400446D01*
X86068752Y-112303511D01*
X86339218Y-112170132D01*
X86589961Y-112002591D01*
X86816689Y-111803755D01*
X87015525Y-111577027D01*
X87183066Y-111326284D01*
X87316445Y-111055818D01*
X87413380Y-110770257D01*
X87472213Y-110474486D01*
X87491936Y-110173566D01*
X87472213Y-109872646D01*
X87471501Y-109869069D01*
X87420873Y-109614544D01*
X87413380Y-109576875D01*
X87316445Y-109291314D01*
X87314688Y-109287752D01*
X87183068Y-109020852D01*
X87183064Y-109020845D01*
X87015526Y-108770106D01*
X86816689Y-108543376D01*
X86589959Y-108344539D01*
X86339220Y-108177001D01*
X86339213Y-108176997D01*
X86068768Y-108043628D01*
X86068747Y-108043619D01*
X85783198Y-107946688D01*
X85783192Y-107946686D01*
X85783191Y-107946686D01*
X85783189Y-107946685D01*
X85783183Y-107946684D01*
X85487430Y-107887854D01*
X85487421Y-107887853D01*
X85487420Y-107887853D01*
X85186500Y-107868130D01*
X84885580Y-107887853D01*
X84885579Y-107887853D01*
X84885569Y-107887854D01*
X84589816Y-107946684D01*
X84589801Y-107946688D01*
X84304252Y-108043619D01*
X84304231Y-108043628D01*
X84033786Y-108176997D01*
X84033779Y-108177001D01*
X83783040Y-108344539D01*
X83556310Y-108543376D01*
X83357473Y-108770106D01*
X83189935Y-109020845D01*
X83189931Y-109020852D01*
X83056562Y-109291297D01*
X83056553Y-109291318D01*
X82959622Y-109576867D01*
X82959618Y-109576882D01*
X82900788Y-109872635D01*
X82900787Y-109872645D01*
X82900787Y-109872646D01*
X82881064Y-110173566D01*
X79496650Y-110173566D01*
X79448346Y-109993297D01*
X79355578Y-109794355D01*
X79229673Y-109614543D01*
X79074457Y-109459327D01*
X79074453Y-109459324D01*
X79074452Y-109459323D01*
X78894650Y-109333424D01*
X78894642Y-109333420D01*
X78695708Y-109240656D01*
X78695706Y-109240655D01*
X78695703Y-109240654D01*
X78544885Y-109200241D01*
X78483675Y-109183840D01*
X78483668Y-109183839D01*
X78265002Y-109164709D01*
X78264998Y-109164709D01*
X78046331Y-109183839D01*
X78046324Y-109183840D01*
X77834293Y-109240655D01*
X77635356Y-109333421D01*
X77635354Y-109333422D01*
X77455540Y-109459328D01*
X77300328Y-109614540D01*
X77174422Y-109794354D01*
X77174421Y-109794356D01*
X77081655Y-109993293D01*
X77024840Y-110205324D01*
X77024839Y-110205331D01*
X77005709Y-110423997D01*
X76442500Y-110423997D01*
X76442500Y-106396738D01*
X76462185Y-106329699D01*
X76482962Y-106305101D01*
X76493938Y-106295093D01*
X76508764Y-106281579D01*
X76631673Y-106118821D01*
X76722582Y-105936250D01*
X76778397Y-105740083D01*
X76797215Y-105537000D01*
X76796313Y-105527271D01*
X76778397Y-105333917D01*
X76735195Y-105182080D01*
X76722582Y-105137750D01*
X76631673Y-104955179D01*
X76508764Y-104792421D01*
X76508762Y-104792418D01*
X76358041Y-104655019D01*
X76358039Y-104655017D01*
X76184642Y-104547655D01*
X76184635Y-104547651D01*
X76089546Y-104510814D01*
X75994456Y-104473976D01*
X75793976Y-104436500D01*
X75590024Y-104436500D01*
X75389544Y-104473976D01*
X75389541Y-104473976D01*
X75389541Y-104473977D01*
X75199364Y-104547651D01*
X75199357Y-104547655D01*
X75025960Y-104655017D01*
X75025958Y-104655019D01*
X74875237Y-104792418D01*
X74752327Y-104955178D01*
X74661422Y-105137739D01*
X74661417Y-105137752D01*
X74605602Y-105333917D01*
X74586785Y-105536999D01*
X74586785Y-105537000D01*
X74605602Y-105740082D01*
X74661417Y-105936247D01*
X74661422Y-105936260D01*
X74740909Y-106095891D01*
X74752327Y-106118821D01*
X74807884Y-106192391D01*
X74875237Y-106281580D01*
X74901038Y-106305101D01*
X74937320Y-106364812D01*
X74941500Y-106396738D01*
X74941500Y-110094769D01*
X74921815Y-110161808D01*
X74905181Y-110182450D01*
X72109969Y-112977661D01*
X72048646Y-113011146D01*
X71978954Y-113006162D01*
X71923021Y-112964290D01*
X71898760Y-112900789D01*
X71885160Y-112745326D01*
X71828346Y-112533297D01*
X71735578Y-112334355D01*
X71620590Y-112170134D01*
X71609674Y-112154544D01*
X71609673Y-112154543D01*
X71454457Y-111999327D01*
X71454453Y-111999324D01*
X71454452Y-111999323D01*
X71274650Y-111873424D01*
X71274642Y-111873420D01*
X71130877Y-111806382D01*
X71078437Y-111760210D01*
X71059285Y-111693017D01*
X71079500Y-111626136D01*
X71130877Y-111581618D01*
X71274646Y-111514578D01*
X71454457Y-111388673D01*
X71609673Y-111233457D01*
X71735578Y-111053646D01*
X71828346Y-110854703D01*
X71885160Y-110642674D01*
X71904291Y-110424000D01*
X71899952Y-110374409D01*
X71885160Y-110205331D01*
X71885160Y-110205326D01*
X71828346Y-109993297D01*
X71735578Y-109794355D01*
X71609673Y-109614543D01*
X71454457Y-109459327D01*
X71454453Y-109459324D01*
X71454452Y-109459323D01*
X71274650Y-109333424D01*
X71274642Y-109333420D01*
X71075708Y-109240656D01*
X71075706Y-109240655D01*
X71075703Y-109240654D01*
X70924885Y-109200241D01*
X70863675Y-109183840D01*
X70863668Y-109183839D01*
X70645002Y-109164709D01*
X70644998Y-109164709D01*
X70426331Y-109183839D01*
X70426324Y-109183840D01*
X70214293Y-109240655D01*
X70015356Y-109333421D01*
X70015354Y-109333422D01*
X69835540Y-109459328D01*
X69805181Y-109489688D01*
X69743858Y-109523173D01*
X69674166Y-109518189D01*
X69618233Y-109476317D01*
X69593816Y-109410853D01*
X69593500Y-109402007D01*
X69593500Y-106521305D01*
X69593499Y-106521292D01*
X69577323Y-106404355D01*
X69574520Y-106384090D01*
X69556247Y-106319300D01*
X69500736Y-106192391D01*
X69452033Y-106112916D01*
X69423742Y-106066749D01*
X69414908Y-106049412D01*
X69389303Y-105987597D01*
X69353404Y-105900928D01*
X69347395Y-105882435D01*
X69309875Y-105726153D01*
X69306832Y-105706939D01*
X69294224Y-105546720D01*
X69294224Y-105536999D01*
X71876785Y-105536999D01*
X71876785Y-105537000D01*
X71895602Y-105740082D01*
X71951417Y-105936247D01*
X71951422Y-105936260D01*
X72042327Y-106118821D01*
X72165237Y-106281581D01*
X72315958Y-106418980D01*
X72315960Y-106418982D01*
X72403892Y-106473427D01*
X72489363Y-106526348D01*
X72679544Y-106600024D01*
X72880024Y-106637500D01*
X72880026Y-106637500D01*
X73083974Y-106637500D01*
X73083976Y-106637500D01*
X73284456Y-106600024D01*
X73474637Y-106526348D01*
X73648041Y-106418981D01*
X73798764Y-106281579D01*
X73921673Y-106118821D01*
X74012582Y-105936250D01*
X74068397Y-105740083D01*
X74087215Y-105537000D01*
X74086313Y-105527271D01*
X74068397Y-105333917D01*
X74025195Y-105182080D01*
X74012582Y-105137750D01*
X73921673Y-104955179D01*
X73798764Y-104792421D01*
X73798762Y-104792418D01*
X73648041Y-104655019D01*
X73648039Y-104655017D01*
X73474642Y-104547655D01*
X73474635Y-104547651D01*
X73379546Y-104510814D01*
X73284456Y-104473976D01*
X73083976Y-104436500D01*
X72880024Y-104436500D01*
X72679544Y-104473976D01*
X72679541Y-104473976D01*
X72679541Y-104473977D01*
X72489364Y-104547651D01*
X72489357Y-104547655D01*
X72315960Y-104655017D01*
X72315958Y-104655019D01*
X72165237Y-104792418D01*
X72042327Y-104955178D01*
X71951422Y-105137739D01*
X71951417Y-105137752D01*
X71895602Y-105333917D01*
X71876785Y-105536999D01*
X69294224Y-105536999D01*
X69294224Y-105527277D01*
X69306832Y-105367052D01*
X69309874Y-105347846D01*
X69347396Y-105191558D01*
X69353402Y-105173073D01*
X69414909Y-105024583D01*
X69423742Y-105007249D01*
X69500738Y-104881604D01*
X69556250Y-104754692D01*
X69574522Y-104689903D01*
X69593500Y-104552693D01*
X69593500Y-99499999D01*
X125624785Y-99499999D01*
X125624785Y-99500000D01*
X125643602Y-99703082D01*
X125699417Y-99899247D01*
X125699422Y-99899260D01*
X125790327Y-100081821D01*
X125913237Y-100244581D01*
X126063958Y-100381980D01*
X126063960Y-100381982D01*
X126163141Y-100443392D01*
X126237363Y-100489348D01*
X126427544Y-100563024D01*
X126628024Y-100600500D01*
X126628026Y-100600500D01*
X126831974Y-100600500D01*
X126831976Y-100600500D01*
X127032456Y-100563024D01*
X127222637Y-100489348D01*
X127396041Y-100381981D01*
X127546764Y-100244579D01*
X127669673Y-100081821D01*
X127760582Y-99899250D01*
X127816397Y-99703083D01*
X127835215Y-99500000D01*
X127816397Y-99296917D01*
X127760582Y-99100750D01*
X127738031Y-99055462D01*
X127711736Y-99002653D01*
X127669673Y-98918179D01*
X127546764Y-98755421D01*
X127546762Y-98755418D01*
X127396041Y-98618019D01*
X127396039Y-98618017D01*
X127222642Y-98510655D01*
X127222635Y-98510651D01*
X127127546Y-98473814D01*
X127032456Y-98436976D01*
X126831976Y-98399500D01*
X126628024Y-98399500D01*
X126427544Y-98436976D01*
X126427541Y-98436976D01*
X126427541Y-98436977D01*
X126237364Y-98510651D01*
X126237357Y-98510655D01*
X126063960Y-98618017D01*
X126063958Y-98618019D01*
X125913237Y-98755418D01*
X125790327Y-98918178D01*
X125699422Y-99100739D01*
X125699417Y-99100752D01*
X125643602Y-99296917D01*
X125624785Y-99499999D01*
X69593500Y-99499999D01*
X69593500Y-99438000D01*
X69581947Y-99330544D01*
X69570741Y-99279033D01*
X69570637Y-99278722D01*
X69536616Y-99176502D01*
X69536613Y-99176496D01*
X69458828Y-99055462D01*
X69458825Y-99055457D01*
X69458820Y-99055451D01*
X69413076Y-99002659D01*
X69413072Y-99002656D01*
X69413070Y-99002653D01*
X69304336Y-98908433D01*
X69304333Y-98908431D01*
X69304331Y-98908430D01*
X69173465Y-98848664D01*
X69173460Y-98848662D01*
X69173459Y-98848662D01*
X69106420Y-98828977D01*
X69106422Y-98828977D01*
X69106417Y-98828976D01*
X69058944Y-98822150D01*
X68964000Y-98808500D01*
X68963998Y-98808500D01*
X41015500Y-98808500D01*
X40948461Y-98788815D01*
X40902706Y-98736011D01*
X40891500Y-98684500D01*
X40891500Y-81404010D01*
X40891500Y-81404000D01*
X40879947Y-81296544D01*
X40868741Y-81245033D01*
X40852777Y-81197069D01*
X40834616Y-81142502D01*
X40834613Y-81142496D01*
X40756828Y-81021462D01*
X40756825Y-81021457D01*
X40756820Y-81021451D01*
X40711076Y-80968659D01*
X40711072Y-80968656D01*
X40711070Y-80968653D01*
X40602336Y-80874433D01*
X40602333Y-80874431D01*
X40602331Y-80874430D01*
X40471465Y-80814664D01*
X40471460Y-80814662D01*
X40471459Y-80814662D01*
X40404420Y-80794977D01*
X40404422Y-80794977D01*
X40404417Y-80794976D01*
X40343968Y-80786285D01*
X40262000Y-80774500D01*
X19428000Y-80774500D01*
X19360961Y-80754815D01*
X19315206Y-80702011D01*
X19304000Y-80650500D01*
X19304000Y-75692000D01*
X37702540Y-75692000D01*
X37722326Y-75880256D01*
X37722327Y-75880259D01*
X37780818Y-76060277D01*
X37780821Y-76060284D01*
X37875467Y-76224216D01*
X38002129Y-76364888D01*
X38155265Y-76476148D01*
X38155270Y-76476151D01*
X38328192Y-76553142D01*
X38328197Y-76553144D01*
X38513354Y-76592500D01*
X38513355Y-76592500D01*
X38702644Y-76592500D01*
X38702646Y-76592500D01*
X38887803Y-76553144D01*
X39060730Y-76476151D01*
X39213871Y-76364888D01*
X39340533Y-76224216D01*
X39435179Y-76060284D01*
X39493674Y-75880256D01*
X39513460Y-75692000D01*
X39493674Y-75503744D01*
X39435179Y-75323716D01*
X39340533Y-75159784D01*
X39213871Y-75019112D01*
X39213870Y-75019111D01*
X39060734Y-74907851D01*
X39060729Y-74907848D01*
X38887807Y-74830857D01*
X38887802Y-74830855D01*
X38742001Y-74799865D01*
X38702646Y-74791500D01*
X38513354Y-74791500D01*
X38480897Y-74798398D01*
X38328197Y-74830855D01*
X38328192Y-74830857D01*
X38155270Y-74907848D01*
X38155265Y-74907851D01*
X38002129Y-75019111D01*
X37875466Y-75159785D01*
X37780821Y-75323715D01*
X37780818Y-75323722D01*
X37722327Y-75503740D01*
X37722326Y-75503744D01*
X37702540Y-75692000D01*
X19304000Y-75692000D01*
X19304000Y-65512000D01*
X25293474Y-65512000D01*
X25313547Y-65767064D01*
X25313547Y-65767067D01*
X25313548Y-65767070D01*
X25373278Y-66015860D01*
X25373279Y-66015864D01*
X25471188Y-66252239D01*
X25471190Y-66252242D01*
X25604875Y-66470396D01*
X25604878Y-66470401D01*
X25664103Y-66539744D01*
X25771044Y-66664956D01*
X25895579Y-66771319D01*
X25965598Y-66831121D01*
X25965600Y-66831122D01*
X25965601Y-66831123D01*
X26036642Y-66874657D01*
X26183757Y-66964809D01*
X26183760Y-66964811D01*
X26420135Y-67062720D01*
X26420140Y-67062722D01*
X26668930Y-67122452D01*
X26924000Y-67142526D01*
X27179070Y-67122452D01*
X27427860Y-67062722D01*
X27580489Y-66999501D01*
X27664239Y-66964811D01*
X27664240Y-66964810D01*
X27664243Y-66964809D01*
X27882399Y-66831123D01*
X28076956Y-66664956D01*
X28243123Y-66470399D01*
X28376809Y-66252243D01*
X28474722Y-66015860D01*
X28534452Y-65767070D01*
X28554526Y-65512000D01*
X28534452Y-65256930D01*
X28474722Y-65008140D01*
X28474720Y-65008135D01*
X28376811Y-64771760D01*
X28376809Y-64771757D01*
X28315620Y-64671905D01*
X28243123Y-64553601D01*
X28243122Y-64553600D01*
X28243121Y-64553598D01*
X28147985Y-64442209D01*
X28076956Y-64359044D01*
X27936995Y-64239506D01*
X27882401Y-64192878D01*
X27882396Y-64192875D01*
X27664242Y-64059190D01*
X27664239Y-64059188D01*
X27427864Y-63961279D01*
X27426710Y-63961002D01*
X27179070Y-63901548D01*
X27179067Y-63901547D01*
X27179064Y-63901547D01*
X26924000Y-63881474D01*
X26668935Y-63901547D01*
X26668931Y-63901547D01*
X26668930Y-63901548D01*
X26578973Y-63923145D01*
X26420135Y-63961279D01*
X26183760Y-64059188D01*
X26183757Y-64059190D01*
X25965603Y-64192875D01*
X25965598Y-64192878D01*
X25771044Y-64359044D01*
X25604878Y-64553598D01*
X25604875Y-64553603D01*
X25471190Y-64771757D01*
X25471188Y-64771760D01*
X25373279Y-65008135D01*
X25313547Y-65256935D01*
X25293474Y-65512000D01*
X19304000Y-65512000D01*
X19304000Y-59436000D01*
X24462618Y-59436000D01*
X24482903Y-59654913D01*
X24543069Y-59866379D01*
X24641063Y-60063176D01*
X24641068Y-60063184D01*
X24707312Y-60150905D01*
X24773558Y-60238629D01*
X24936032Y-60386743D01*
X25122955Y-60502481D01*
X25327963Y-60581902D01*
X25544073Y-60622300D01*
X25544075Y-60622300D01*
X25763925Y-60622300D01*
X25763927Y-60622300D01*
X25980037Y-60581902D01*
X26185045Y-60502481D01*
X26371968Y-60386743D01*
X26534442Y-60238629D01*
X26666933Y-60063182D01*
X26764931Y-59866377D01*
X26825096Y-59654916D01*
X26845382Y-59436000D01*
X26825096Y-59217084D01*
X26764931Y-59005623D01*
X26764930Y-59005620D01*
X26666936Y-58808823D01*
X26666931Y-58808815D01*
X26582113Y-58696498D01*
X26534442Y-58633371D01*
X26371968Y-58485257D01*
X26291952Y-58435713D01*
X26185046Y-58369519D01*
X26185044Y-58369518D01*
X26114282Y-58342105D01*
X25980037Y-58290098D01*
X25763927Y-58249700D01*
X25544073Y-58249700D01*
X25327963Y-58290098D01*
X25270719Y-58312274D01*
X25122955Y-58369518D01*
X25122953Y-58369519D01*
X24936036Y-58485254D01*
X24936034Y-58485255D01*
X24936032Y-58485257D01*
X24773558Y-58633371D01*
X24773557Y-58633372D01*
X24641068Y-58808815D01*
X24641063Y-58808823D01*
X24543069Y-59005620D01*
X24482903Y-59217086D01*
X24462618Y-59436000D01*
X19304000Y-59436000D01*
X19304000Y-56150000D01*
X33744564Y-56150000D01*
X33763243Y-56434998D01*
X33764287Y-56450918D01*
X33764288Y-56450930D01*
X33823118Y-56746683D01*
X33823122Y-56746698D01*
X33920053Y-57032247D01*
X33920062Y-57032268D01*
X34053431Y-57302713D01*
X34053435Y-57302720D01*
X34220973Y-57553459D01*
X34419810Y-57780189D01*
X34646540Y-57979026D01*
X34897279Y-58146564D01*
X34897286Y-58146568D01*
X35167731Y-58279937D01*
X35167736Y-58279939D01*
X35167748Y-58279945D01*
X35453309Y-58376880D01*
X35653251Y-58416651D01*
X35749069Y-58435711D01*
X35749070Y-58435711D01*
X35749080Y-58435713D01*
X36050000Y-58455436D01*
X36350920Y-58435713D01*
X36646691Y-58376880D01*
X36932252Y-58279945D01*
X37202718Y-58146566D01*
X37453461Y-57979025D01*
X37680189Y-57780189D01*
X37879025Y-57553461D01*
X38046566Y-57302718D01*
X38179945Y-57032252D01*
X38276880Y-56746691D01*
X38335713Y-56450920D01*
X38355436Y-56150000D01*
X38335713Y-55849080D01*
X38276880Y-55553309D01*
X38179945Y-55267748D01*
X38106097Y-55118000D01*
X38046568Y-54997286D01*
X38046564Y-54997279D01*
X37879026Y-54746540D01*
X37680189Y-54519810D01*
X37453459Y-54320973D01*
X37202720Y-54153435D01*
X37202713Y-54153431D01*
X36932268Y-54020062D01*
X36932247Y-54020053D01*
X36646698Y-53923122D01*
X36646692Y-53923120D01*
X36646691Y-53923120D01*
X36646689Y-53923119D01*
X36646683Y-53923118D01*
X36350930Y-53864288D01*
X36350921Y-53864287D01*
X36350920Y-53864287D01*
X36050000Y-53844564D01*
X35749080Y-53864287D01*
X35749079Y-53864287D01*
X35749069Y-53864288D01*
X35453316Y-53923118D01*
X35453301Y-53923122D01*
X35167752Y-54020053D01*
X35167731Y-54020062D01*
X34897286Y-54153431D01*
X34897279Y-54153435D01*
X34646540Y-54320973D01*
X34419810Y-54519810D01*
X34220973Y-54746540D01*
X34053435Y-54997279D01*
X34053431Y-54997286D01*
X33920062Y-55267731D01*
X33920053Y-55267752D01*
X33823122Y-55553301D01*
X33823118Y-55553316D01*
X33764288Y-55849069D01*
X33764287Y-55849079D01*
X33764287Y-55849080D01*
X33744564Y-56150000D01*
X19304000Y-56150000D01*
X19304000Y-47498001D01*
X41782999Y-47498001D01*
X42163999Y-97789999D01*
X42164000Y-97790000D01*
X90677999Y-97790000D01*
X90678000Y-97790000D01*
X90804897Y-47538533D01*
X90824751Y-47471546D01*
X90877671Y-47425925D01*
X90946854Y-47416156D01*
X91010336Y-47445341D01*
X91016578Y-47451168D01*
X92302181Y-48736771D01*
X92335666Y-48798094D01*
X92338500Y-48824452D01*
X92338500Y-65058983D01*
X92318815Y-65126022D01*
X92266011Y-65171777D01*
X92253510Y-65176686D01*
X92194666Y-65196186D01*
X92194663Y-65196187D01*
X92045342Y-65288289D01*
X91921289Y-65412342D01*
X91829187Y-65561663D01*
X91829186Y-65561666D01*
X91774001Y-65728203D01*
X91774001Y-65728204D01*
X91774000Y-65728204D01*
X91763500Y-65830983D01*
X91763500Y-66456001D01*
X91763501Y-66456019D01*
X91774000Y-66558796D01*
X91774001Y-66558799D01*
X91829185Y-66725331D01*
X91829186Y-66725334D01*
X91894437Y-66831124D01*
X91921289Y-66874657D01*
X92014951Y-66968319D01*
X92048436Y-67029642D01*
X92043452Y-67099334D01*
X92014951Y-67143681D01*
X91921289Y-67237342D01*
X91829187Y-67386663D01*
X91829186Y-67386666D01*
X91774001Y-67553203D01*
X91774001Y-67553204D01*
X91774000Y-67553204D01*
X91763500Y-67655983D01*
X91763500Y-68281001D01*
X91763501Y-68281019D01*
X91774000Y-68383796D01*
X91774001Y-68383799D01*
X91796940Y-68453023D01*
X91829186Y-68550334D01*
X91921288Y-68699656D01*
X92045344Y-68823712D01*
X92194666Y-68915814D01*
X92361203Y-68970999D01*
X92463991Y-68981500D01*
X93464008Y-68981499D01*
X93464016Y-68981498D01*
X93464019Y-68981498D01*
X93520302Y-68975748D01*
X93566797Y-68970999D01*
X93733334Y-68915814D01*
X93882656Y-68823712D01*
X93913549Y-68792819D01*
X93974872Y-68759334D01*
X94001230Y-68756500D01*
X94268770Y-68756500D01*
X94335809Y-68776185D01*
X94356451Y-68792819D01*
X94406344Y-68842712D01*
X94555666Y-68934814D01*
X94722203Y-68989999D01*
X94824991Y-69000500D01*
X95875008Y-69000499D01*
X95875016Y-69000498D01*
X95875019Y-69000498D01*
X95931302Y-68994748D01*
X95977797Y-68989999D01*
X96144334Y-68934814D01*
X96293656Y-68842712D01*
X96343549Y-68792819D01*
X96404872Y-68759334D01*
X96431230Y-68756500D01*
X99307242Y-68756500D01*
X99374281Y-68776185D01*
X99394923Y-68792819D01*
X99458597Y-68856493D01*
X99458603Y-68856498D01*
X99644158Y-68986425D01*
X99687783Y-69041002D01*
X99694977Y-69110500D01*
X99663454Y-69172855D01*
X99644158Y-69189575D01*
X99458597Y-69319505D01*
X99291505Y-69486597D01*
X99155965Y-69680169D01*
X99155964Y-69680171D01*
X99056098Y-69894335D01*
X99056094Y-69894344D01*
X98994938Y-70122586D01*
X98994936Y-70122596D01*
X98974341Y-70357999D01*
X98974341Y-70358000D01*
X98994936Y-70593403D01*
X98994938Y-70593413D01*
X99056094Y-70821655D01*
X99056096Y-70821659D01*
X99056097Y-70821663D01*
X99136004Y-70993023D01*
X99155965Y-71035830D01*
X99155967Y-71035834D01*
X99253063Y-71174500D01*
X99291501Y-71229396D01*
X99291506Y-71229402D01*
X99458597Y-71396493D01*
X99458603Y-71396498D01*
X99644158Y-71526425D01*
X99687783Y-71581002D01*
X99694977Y-71650500D01*
X99663454Y-71712855D01*
X99644158Y-71729575D01*
X99458597Y-71859505D01*
X99291505Y-72026597D01*
X99155965Y-72220169D01*
X99155964Y-72220171D01*
X99056098Y-72434335D01*
X99056094Y-72434344D01*
X98994938Y-72662586D01*
X98994936Y-72662596D01*
X98974341Y-72897999D01*
X98974341Y-72898000D01*
X98994936Y-73133403D01*
X98994938Y-73133413D01*
X99056094Y-73361655D01*
X99056096Y-73361659D01*
X99056097Y-73361663D01*
X99095253Y-73445632D01*
X99155965Y-73575830D01*
X99155967Y-73575834D01*
X99230107Y-73681716D01*
X99291505Y-73769401D01*
X99458599Y-73936495D01*
X99555384Y-74004265D01*
X99652165Y-74072032D01*
X99652167Y-74072033D01*
X99652170Y-74072035D01*
X99866337Y-74171903D01*
X100094592Y-74233063D01*
X100282918Y-74249539D01*
X100329999Y-74253659D01*
X100330000Y-74253659D01*
X100330001Y-74253659D01*
X100369234Y-74250226D01*
X100565408Y-74233063D01*
X100793663Y-74171903D01*
X101007830Y-74072035D01*
X101201401Y-73936495D01*
X101368495Y-73769401D01*
X101498425Y-73583842D01*
X101553002Y-73540217D01*
X101622500Y-73533023D01*
X101684855Y-73564546D01*
X101701575Y-73583842D01*
X101831500Y-73769395D01*
X101831505Y-73769401D01*
X101998599Y-73936495D01*
X102095384Y-74004265D01*
X102192165Y-74072032D01*
X102192167Y-74072033D01*
X102192170Y-74072035D01*
X102406337Y-74171903D01*
X102634592Y-74233063D01*
X102822918Y-74249539D01*
X102869999Y-74253659D01*
X102870000Y-74253659D01*
X102870001Y-74253659D01*
X102909234Y-74250226D01*
X103105408Y-74233063D01*
X103333663Y-74171903D01*
X103547830Y-74072035D01*
X103741401Y-73936495D01*
X103908495Y-73769401D01*
X104044035Y-73575830D01*
X104143903Y-73361663D01*
X104205063Y-73133408D01*
X104225659Y-72898000D01*
X104205063Y-72662592D01*
X104143903Y-72434337D01*
X104044035Y-72220171D01*
X104038425Y-72212158D01*
X103908494Y-72026597D01*
X103741402Y-71859506D01*
X103741396Y-71859501D01*
X103555842Y-71729575D01*
X103512217Y-71674998D01*
X103505023Y-71605500D01*
X103536546Y-71543145D01*
X103555842Y-71526425D01*
X103664275Y-71450499D01*
X103741401Y-71396495D01*
X103908495Y-71229401D01*
X103908499Y-71229395D01*
X103909916Y-71227373D01*
X103910771Y-71226689D01*
X103911974Y-71225256D01*
X103912262Y-71225497D01*
X103964494Y-71183750D01*
X104011488Y-71174500D01*
X107472769Y-71174500D01*
X107539808Y-71194185D01*
X107560450Y-71210819D01*
X107635950Y-71286319D01*
X107669435Y-71347642D01*
X107664451Y-71417334D01*
X107635951Y-71461681D01*
X107542287Y-71555345D01*
X107450187Y-71704663D01*
X107450186Y-71704666D01*
X107395001Y-71871203D01*
X107395001Y-71871204D01*
X107395000Y-71871204D01*
X107384500Y-71973983D01*
X107384500Y-72599001D01*
X107384501Y-72599019D01*
X107395000Y-72701796D01*
X107395001Y-72701799D01*
X107450185Y-72868331D01*
X107450186Y-72868334D01*
X107542288Y-73017656D01*
X107666344Y-73141712D01*
X107815666Y-73233814D01*
X107872392Y-73252611D01*
X107929836Y-73292382D01*
X107956660Y-73356897D01*
X107944346Y-73425673D01*
X107925539Y-73453287D01*
X107867466Y-73517785D01*
X107772821Y-73681715D01*
X107772818Y-73681722D01*
X107714327Y-73861740D01*
X107714326Y-73861744D01*
X107694540Y-74050000D01*
X107714326Y-74238256D01*
X107714327Y-74238259D01*
X107772818Y-74418277D01*
X107772821Y-74418284D01*
X107867467Y-74582216D01*
X107994129Y-74722888D01*
X108147265Y-74834148D01*
X108147270Y-74834151D01*
X108320192Y-74911142D01*
X108320197Y-74911144D01*
X108505354Y-74950500D01*
X108505355Y-74950500D01*
X108694644Y-74950500D01*
X108694646Y-74950500D01*
X108879803Y-74911144D01*
X109052730Y-74834151D01*
X109205871Y-74722888D01*
X109332533Y-74582216D01*
X109427179Y-74418284D01*
X109485674Y-74238256D01*
X109505460Y-74050000D01*
X109485674Y-73861744D01*
X109427179Y-73681716D01*
X109332533Y-73517784D01*
X109267567Y-73445632D01*
X109237337Y-73382641D01*
X109245962Y-73313305D01*
X109290704Y-73259640D01*
X109320711Y-73244955D01*
X109354334Y-73233814D01*
X109503656Y-73141712D01*
X109627712Y-73017656D01*
X109719814Y-72868334D01*
X109774999Y-72701797D01*
X109785500Y-72599009D01*
X109785499Y-71973992D01*
X109774999Y-71871203D01*
X109719814Y-71704666D01*
X109627712Y-71555344D01*
X109534049Y-71461681D01*
X109500564Y-71400358D01*
X109505548Y-71330666D01*
X109534047Y-71286320D01*
X109609550Y-71210818D01*
X109670874Y-71177334D01*
X109697231Y-71174500D01*
X109936770Y-71174500D01*
X110003809Y-71194185D01*
X110024450Y-71210818D01*
X110106344Y-71292712D01*
X110255666Y-71384814D01*
X110422203Y-71439999D01*
X110524991Y-71450500D01*
X111575008Y-71450499D01*
X111575016Y-71450498D01*
X111575019Y-71450498D01*
X111631302Y-71444748D01*
X111677797Y-71439999D01*
X111844334Y-71384814D01*
X111993656Y-71292712D01*
X112117712Y-71168656D01*
X112209814Y-71019334D01*
X112264999Y-70852797D01*
X112275500Y-70750009D01*
X112275499Y-70149992D01*
X112272700Y-70122596D01*
X112264999Y-70047203D01*
X112264998Y-70047200D01*
X112214343Y-69894335D01*
X112209814Y-69880666D01*
X112117712Y-69731344D01*
X111993656Y-69607288D01*
X111844334Y-69515186D01*
X111677797Y-69460001D01*
X111677795Y-69460000D01*
X111575010Y-69449500D01*
X110524998Y-69449500D01*
X110524980Y-69449501D01*
X110422203Y-69460000D01*
X110422200Y-69460001D01*
X110255668Y-69515185D01*
X110255663Y-69515187D01*
X110106342Y-69607289D01*
X110076451Y-69637181D01*
X110015128Y-69670666D01*
X109988770Y-69673500D01*
X109622230Y-69673500D01*
X109555191Y-69653815D01*
X109534549Y-69637181D01*
X109503657Y-69606289D01*
X109503656Y-69606288D01*
X109355957Y-69515187D01*
X109354336Y-69514187D01*
X109354331Y-69514185D01*
X109352862Y-69513698D01*
X109187797Y-69459001D01*
X109187795Y-69459000D01*
X109085010Y-69448500D01*
X108084998Y-69448500D01*
X108084980Y-69448501D01*
X107982203Y-69459000D01*
X107982200Y-69459001D01*
X107815668Y-69514185D01*
X107815663Y-69514187D01*
X107666342Y-69606289D01*
X107635451Y-69637181D01*
X107574128Y-69670666D01*
X107547770Y-69673500D01*
X104103914Y-69673500D01*
X104036875Y-69653815D01*
X104002339Y-69620623D01*
X103992302Y-69606289D01*
X103965018Y-69567322D01*
X103908494Y-69486597D01*
X103741402Y-69319506D01*
X103741396Y-69319501D01*
X103555842Y-69189575D01*
X103512217Y-69134998D01*
X103505023Y-69065500D01*
X103536546Y-69003145D01*
X103555842Y-68986425D01*
X103629553Y-68934812D01*
X103741401Y-68856495D01*
X103908495Y-68689401D01*
X104044035Y-68495830D01*
X104143903Y-68281663D01*
X104205063Y-68053408D01*
X104225659Y-67818000D01*
X104205063Y-67582592D01*
X104143903Y-67354337D01*
X104044035Y-67140171D01*
X104044032Y-67140166D01*
X103908494Y-66946597D01*
X103741402Y-66779506D01*
X103741396Y-66779501D01*
X103555842Y-66649575D01*
X103512217Y-66594998D01*
X103505023Y-66525500D01*
X103536546Y-66463145D01*
X103555842Y-66446425D01*
X103578026Y-66430891D01*
X103741401Y-66316495D01*
X103908495Y-66149401D01*
X104044035Y-65955830D01*
X104143903Y-65741663D01*
X104205063Y-65513408D01*
X104214548Y-65405000D01*
X134095540Y-65405000D01*
X134115326Y-65593256D01*
X134115327Y-65593259D01*
X134173818Y-65773277D01*
X134173821Y-65773284D01*
X134268467Y-65937216D01*
X134352461Y-66030500D01*
X134395129Y-66077888D01*
X134548265Y-66189148D01*
X134548270Y-66189151D01*
X134721192Y-66266142D01*
X134721197Y-66266144D01*
X134906354Y-66305500D01*
X134906355Y-66305500D01*
X135095644Y-66305500D01*
X135095646Y-66305500D01*
X135280803Y-66266144D01*
X135453730Y-66189151D01*
X135573370Y-66102227D01*
X135639172Y-66078749D01*
X135707226Y-66094574D01*
X135750568Y-66135508D01*
X135830015Y-66259132D01*
X135830018Y-66259136D01*
X135924152Y-66367773D01*
X135924168Y-66367791D01*
X135924171Y-66367794D01*
X136032909Y-66462015D01*
X136093386Y-66500881D01*
X136153857Y-66539744D01*
X136153863Y-66539747D01*
X136284741Y-66599517D01*
X136422696Y-66640024D01*
X136565111Y-66660500D01*
X136565114Y-66660500D01*
X137137000Y-66660500D01*
X137208940Y-66655355D01*
X137246259Y-66644396D01*
X137298841Y-66640636D01*
X137437000Y-66660500D01*
X137437003Y-66660500D01*
X138008886Y-66660500D01*
X138008889Y-66660500D01*
X138151304Y-66640024D01*
X138289259Y-66599517D01*
X138420137Y-66539747D01*
X138535477Y-66465622D01*
X138536915Y-66464804D01*
X138541098Y-66462011D01*
X138590017Y-66419620D01*
X138649832Y-66367791D01*
X138743986Y-66259130D01*
X138821770Y-66138094D01*
X138837803Y-66102988D01*
X138883558Y-66050184D01*
X138950597Y-66030500D01*
X142323700Y-66030500D01*
X142390739Y-66050185D01*
X142425274Y-66083376D01*
X142444826Y-66111300D01*
X142471506Y-66149403D01*
X142638597Y-66316493D01*
X142638603Y-66316498D01*
X142824158Y-66446425D01*
X142867783Y-66501002D01*
X142874977Y-66570500D01*
X142843454Y-66632855D01*
X142824158Y-66649575D01*
X142638597Y-66779505D01*
X142471505Y-66946597D01*
X142335965Y-67140169D01*
X142335964Y-67140171D01*
X142236098Y-67354335D01*
X142236094Y-67354344D01*
X142174938Y-67582586D01*
X142174936Y-67582596D01*
X142154341Y-67817999D01*
X142154341Y-67818000D01*
X142174936Y-68053403D01*
X142174938Y-68053413D01*
X142236094Y-68281655D01*
X142236096Y-68281659D01*
X142236097Y-68281663D01*
X142240000Y-68290032D01*
X142335965Y-68495830D01*
X142335967Y-68495834D01*
X142444281Y-68650521D01*
X142471501Y-68689396D01*
X142471506Y-68689402D01*
X142638597Y-68856493D01*
X142638603Y-68856498D01*
X142824158Y-68986425D01*
X142867783Y-69041002D01*
X142874977Y-69110500D01*
X142843454Y-69172855D01*
X142824158Y-69189575D01*
X142638597Y-69319505D01*
X142471505Y-69486597D01*
X142335965Y-69680169D01*
X142335964Y-69680171D01*
X142236098Y-69894335D01*
X142236094Y-69894344D01*
X142174938Y-70122586D01*
X142174936Y-70122596D01*
X142154341Y-70357999D01*
X142154341Y-70358000D01*
X142174936Y-70593403D01*
X142174938Y-70593413D01*
X142236094Y-70821655D01*
X142236096Y-70821659D01*
X142236097Y-70821663D01*
X142316004Y-70993023D01*
X142335965Y-71035830D01*
X142335967Y-71035834D01*
X142433063Y-71174500D01*
X142471501Y-71229396D01*
X142471506Y-71229402D01*
X142638597Y-71396493D01*
X142638603Y-71396498D01*
X142824158Y-71526425D01*
X142867783Y-71581002D01*
X142874977Y-71650500D01*
X142843454Y-71712855D01*
X142824158Y-71729575D01*
X142638597Y-71859505D01*
X142471505Y-72026597D01*
X142335965Y-72220169D01*
X142335964Y-72220171D01*
X142236098Y-72434335D01*
X142236094Y-72434344D01*
X142174938Y-72662586D01*
X142174936Y-72662596D01*
X142154341Y-72897999D01*
X142154341Y-72898000D01*
X142174936Y-73133403D01*
X142174938Y-73133413D01*
X142236094Y-73361655D01*
X142236096Y-73361659D01*
X142236097Y-73361663D01*
X142275253Y-73445632D01*
X142335965Y-73575830D01*
X142335967Y-73575834D01*
X142410107Y-73681716D01*
X142471505Y-73769401D01*
X142638599Y-73936495D01*
X142735384Y-74004265D01*
X142832165Y-74072032D01*
X142832167Y-74072033D01*
X142832170Y-74072035D01*
X143046337Y-74171903D01*
X143274592Y-74233063D01*
X143462918Y-74249539D01*
X143509999Y-74253659D01*
X143510000Y-74253659D01*
X143510001Y-74253659D01*
X143549234Y-74250226D01*
X143745408Y-74233063D01*
X143973663Y-74171903D01*
X144187830Y-74072035D01*
X144381401Y-73936495D01*
X144548495Y-73769401D01*
X144678425Y-73583842D01*
X144733002Y-73540217D01*
X144802500Y-73533023D01*
X144864855Y-73564546D01*
X144881575Y-73583842D01*
X145011500Y-73769395D01*
X145011505Y-73769401D01*
X145178599Y-73936495D01*
X145275384Y-74004265D01*
X145372165Y-74072032D01*
X145372167Y-74072033D01*
X145372170Y-74072035D01*
X145586337Y-74171903D01*
X145814592Y-74233063D01*
X146002918Y-74249539D01*
X146049999Y-74253659D01*
X146050000Y-74253659D01*
X146050001Y-74253659D01*
X146089234Y-74250226D01*
X146285408Y-74233063D01*
X146513663Y-74171903D01*
X146727830Y-74072035D01*
X146921401Y-73936495D01*
X147088495Y-73769401D01*
X147224035Y-73575830D01*
X147323903Y-73361663D01*
X147385063Y-73133408D01*
X147405659Y-72898000D01*
X147385063Y-72662592D01*
X147323903Y-72434337D01*
X147224035Y-72220171D01*
X147218425Y-72212158D01*
X147088494Y-72026597D01*
X146921402Y-71859506D01*
X146921396Y-71859501D01*
X146735842Y-71729575D01*
X146692217Y-71674998D01*
X146685023Y-71605500D01*
X146716546Y-71543145D01*
X146735842Y-71526425D01*
X146844275Y-71450499D01*
X146921401Y-71396495D01*
X147088495Y-71229401D01*
X147224035Y-71035830D01*
X147323903Y-70821663D01*
X147385063Y-70593408D01*
X147405659Y-70358000D01*
X147385063Y-70122592D01*
X147323903Y-69894337D01*
X147224035Y-69680171D01*
X147218425Y-69672158D01*
X147088494Y-69486597D01*
X146921402Y-69319506D01*
X146921396Y-69319501D01*
X146735842Y-69189575D01*
X146692217Y-69134998D01*
X146685023Y-69065500D01*
X146716546Y-69003145D01*
X146735842Y-68986425D01*
X146809553Y-68934812D01*
X146921401Y-68856495D01*
X147088495Y-68689401D01*
X147224035Y-68495830D01*
X147323903Y-68281663D01*
X147385063Y-68053408D01*
X147405659Y-67818000D01*
X147385063Y-67582592D01*
X147323903Y-67354337D01*
X147224035Y-67140171D01*
X147224032Y-67140166D01*
X147088494Y-66946597D01*
X146921402Y-66779506D01*
X146921396Y-66779501D01*
X146735842Y-66649575D01*
X146692217Y-66594998D01*
X146685023Y-66525500D01*
X146716546Y-66463145D01*
X146735842Y-66446425D01*
X146758026Y-66430891D01*
X146921401Y-66316495D01*
X147088495Y-66149401D01*
X147224035Y-65955830D01*
X147323903Y-65741663D01*
X147385063Y-65513408D01*
X147405659Y-65278000D01*
X147385063Y-65042592D01*
X147323903Y-64814337D01*
X147224035Y-64600171D01*
X147218425Y-64592158D01*
X147088494Y-64406597D01*
X146921402Y-64239506D01*
X146921396Y-64239501D01*
X146735842Y-64109575D01*
X146692217Y-64054998D01*
X146685023Y-63985500D01*
X146716546Y-63923145D01*
X146735842Y-63906425D01*
X146771476Y-63881474D01*
X146921401Y-63776495D01*
X147088495Y-63609401D01*
X147224035Y-63415830D01*
X147323903Y-63201663D01*
X147385063Y-62973408D01*
X147405659Y-62738000D01*
X147385063Y-62502592D01*
X147323903Y-62274337D01*
X147224035Y-62060171D01*
X147218425Y-62052158D01*
X147088494Y-61866597D01*
X146921402Y-61699506D01*
X146921396Y-61699501D01*
X146735842Y-61569575D01*
X146692217Y-61514998D01*
X146685023Y-61445500D01*
X146716546Y-61383145D01*
X146735842Y-61366425D01*
X146758026Y-61350891D01*
X146921401Y-61236495D01*
X147088495Y-61069401D01*
X147224035Y-60875830D01*
X147323903Y-60661663D01*
X147385063Y-60433408D01*
X147405659Y-60198000D01*
X147385063Y-59962592D01*
X147323903Y-59734337D01*
X147224035Y-59520171D01*
X147218425Y-59512158D01*
X147088494Y-59326597D01*
X146921402Y-59159506D01*
X146921396Y-59159501D01*
X146735842Y-59029575D01*
X146692217Y-58974998D01*
X146685023Y-58905500D01*
X146716546Y-58843145D01*
X146735842Y-58826425D01*
X146760992Y-58808815D01*
X146921401Y-58696495D01*
X147088495Y-58529401D01*
X147224035Y-58335830D01*
X147323903Y-58121663D01*
X147385063Y-57893408D01*
X147405659Y-57658000D01*
X147385063Y-57422592D01*
X147323903Y-57194337D01*
X147224035Y-56980171D01*
X147218425Y-56972158D01*
X147088494Y-56786597D01*
X146921402Y-56619506D01*
X146921396Y-56619501D01*
X146735842Y-56489575D01*
X146692217Y-56434998D01*
X146685023Y-56365500D01*
X146716546Y-56303145D01*
X146735842Y-56286425D01*
X146758026Y-56270891D01*
X146921401Y-56156495D01*
X147088495Y-55989401D01*
X147224035Y-55795830D01*
X147323903Y-55581663D01*
X147385063Y-55353408D01*
X147405659Y-55118000D01*
X147385063Y-54882592D01*
X147323903Y-54654337D01*
X147224035Y-54440171D01*
X147218425Y-54432158D01*
X147088494Y-54246597D01*
X146921402Y-54079506D01*
X146921396Y-54079501D01*
X146735842Y-53949575D01*
X146692217Y-53894998D01*
X146685023Y-53825500D01*
X146716546Y-53763145D01*
X146735842Y-53746425D01*
X146758026Y-53730891D01*
X146921401Y-53616495D01*
X147088495Y-53449401D01*
X147224035Y-53255830D01*
X147323903Y-53041663D01*
X147385063Y-52813408D01*
X147405659Y-52578000D01*
X147385063Y-52342592D01*
X147323903Y-52114337D01*
X147224035Y-51900171D01*
X147218425Y-51892158D01*
X147088494Y-51706597D01*
X146921402Y-51539506D01*
X146921395Y-51539501D01*
X146727834Y-51403967D01*
X146727830Y-51403965D01*
X146678174Y-51380810D01*
X146513663Y-51304097D01*
X146513659Y-51304096D01*
X146513655Y-51304094D01*
X146285413Y-51242938D01*
X146285403Y-51242936D01*
X146050001Y-51222341D01*
X146049999Y-51222341D01*
X145814596Y-51242936D01*
X145814586Y-51242938D01*
X145586344Y-51304094D01*
X145586335Y-51304098D01*
X145372171Y-51403964D01*
X145372169Y-51403965D01*
X145178597Y-51539505D01*
X145011505Y-51706597D01*
X144881575Y-51892158D01*
X144826998Y-51935783D01*
X144757500Y-51942977D01*
X144695145Y-51911454D01*
X144678425Y-51892158D01*
X144548496Y-51706600D01*
X144548493Y-51706597D01*
X144426567Y-51584671D01*
X144393084Y-51523351D01*
X144398068Y-51453659D01*
X144439939Y-51397725D01*
X144470915Y-51380810D01*
X144602331Y-51331796D01*
X144717546Y-51245546D01*
X144803796Y-51130331D01*
X144854091Y-50995483D01*
X144860500Y-50935873D01*
X144860499Y-49140128D01*
X144854091Y-49080517D01*
X144852809Y-49077081D01*
X144803797Y-48945671D01*
X144803793Y-48945664D01*
X144717547Y-48830455D01*
X144717544Y-48830452D01*
X144602335Y-48744206D01*
X144602328Y-48744202D01*
X144467482Y-48693908D01*
X144467483Y-48693908D01*
X144407883Y-48687501D01*
X144407881Y-48687500D01*
X144407873Y-48687500D01*
X144407864Y-48687500D01*
X142612129Y-48687500D01*
X142612123Y-48687501D01*
X142552516Y-48693908D01*
X142417671Y-48744202D01*
X142417664Y-48744206D01*
X142302455Y-48830452D01*
X142302452Y-48830455D01*
X142216206Y-48945664D01*
X142216202Y-48945671D01*
X142165908Y-49080517D01*
X142161510Y-49121430D01*
X142159501Y-49140123D01*
X142159500Y-49140135D01*
X142159500Y-50935870D01*
X142159501Y-50935876D01*
X142165908Y-50995483D01*
X142216202Y-51130328D01*
X142216206Y-51130335D01*
X142302452Y-51245544D01*
X142302455Y-51245547D01*
X142417664Y-51331793D01*
X142417671Y-51331797D01*
X142549081Y-51380810D01*
X142605015Y-51422681D01*
X142629432Y-51488145D01*
X142614580Y-51556418D01*
X142593430Y-51584673D01*
X142471503Y-51706600D01*
X142335965Y-51900169D01*
X142335964Y-51900171D01*
X142236098Y-52114335D01*
X142236094Y-52114344D01*
X142174938Y-52342586D01*
X142174936Y-52342596D01*
X142154341Y-52577999D01*
X142154341Y-52578000D01*
X142174936Y-52813403D01*
X142174938Y-52813413D01*
X142236094Y-53041655D01*
X142236096Y-53041659D01*
X142236097Y-53041663D01*
X142240000Y-53050032D01*
X142335965Y-53255830D01*
X142335967Y-53255834D01*
X142444281Y-53410521D01*
X142471501Y-53449396D01*
X142471506Y-53449402D01*
X142638597Y-53616493D01*
X142638603Y-53616498D01*
X142824158Y-53746425D01*
X142867783Y-53801002D01*
X142874977Y-53870500D01*
X142843454Y-53932855D01*
X142824158Y-53949575D01*
X142638597Y-54079505D01*
X142471505Y-54246597D01*
X142335965Y-54440169D01*
X142335964Y-54440171D01*
X142236098Y-54654335D01*
X142236094Y-54654344D01*
X142174938Y-54882586D01*
X142174936Y-54882596D01*
X142154341Y-55117999D01*
X142154341Y-55118000D01*
X142174936Y-55353403D01*
X142174938Y-55353413D01*
X142236094Y-55581655D01*
X142236096Y-55581659D01*
X142236097Y-55581663D01*
X142240000Y-55590032D01*
X142335965Y-55795830D01*
X142335967Y-55795834D01*
X142444281Y-55950521D01*
X142471501Y-55989396D01*
X142471506Y-55989402D01*
X142638597Y-56156493D01*
X142638603Y-56156498D01*
X142824158Y-56286425D01*
X142867783Y-56341002D01*
X142874977Y-56410500D01*
X142843454Y-56472855D01*
X142824158Y-56489575D01*
X142638597Y-56619505D01*
X142471505Y-56786597D01*
X142335965Y-56980169D01*
X142335964Y-56980171D01*
X142236098Y-57194335D01*
X142236094Y-57194344D01*
X142174938Y-57422586D01*
X142174936Y-57422596D01*
X142154341Y-57657999D01*
X142154341Y-57658000D01*
X142174936Y-57893403D01*
X142174938Y-57893413D01*
X142236094Y-58121655D01*
X142236096Y-58121659D01*
X142236097Y-58121663D01*
X142295802Y-58249700D01*
X142335965Y-58335830D01*
X142335967Y-58335834D01*
X142364709Y-58376881D01*
X142471501Y-58529396D01*
X142471506Y-58529402D01*
X142638597Y-58696493D01*
X142638603Y-58696498D01*
X142824158Y-58826425D01*
X142867783Y-58881002D01*
X142874977Y-58950500D01*
X142843454Y-59012855D01*
X142824158Y-59029575D01*
X142638597Y-59159505D01*
X142471505Y-59326597D01*
X142335965Y-59520169D01*
X142335964Y-59520171D01*
X142236098Y-59734335D01*
X142236094Y-59734344D01*
X142174938Y-59962586D01*
X142174936Y-59962596D01*
X142154341Y-60197999D01*
X142154341Y-60198000D01*
X142174936Y-60433403D01*
X142174938Y-60433413D01*
X142236094Y-60661655D01*
X142236096Y-60661659D01*
X142236097Y-60661663D01*
X142240000Y-60670032D01*
X142335965Y-60875830D01*
X142335967Y-60875834D01*
X142444281Y-61030521D01*
X142471501Y-61069396D01*
X142471506Y-61069402D01*
X142638597Y-61236493D01*
X142638603Y-61236498D01*
X142824158Y-61366425D01*
X142867783Y-61421002D01*
X142874977Y-61490500D01*
X142843454Y-61552855D01*
X142824158Y-61569575D01*
X142638597Y-61699505D01*
X142471505Y-61866597D01*
X142335965Y-62060169D01*
X142335964Y-62060171D01*
X142236098Y-62274335D01*
X142236094Y-62274344D01*
X142174938Y-62502586D01*
X142174936Y-62502596D01*
X142154341Y-62737999D01*
X142154341Y-62738000D01*
X142174936Y-62973403D01*
X142174938Y-62973413D01*
X142236094Y-63201655D01*
X142236096Y-63201659D01*
X142236097Y-63201663D01*
X142240000Y-63210032D01*
X142335965Y-63415830D01*
X142335967Y-63415834D01*
X142444281Y-63570521D01*
X142471501Y-63609396D01*
X142471506Y-63609402D01*
X142638597Y-63776493D01*
X142638603Y-63776498D01*
X142824158Y-63906425D01*
X142867783Y-63961002D01*
X142874977Y-64030500D01*
X142843454Y-64092855D01*
X142824158Y-64109575D01*
X142638597Y-64239505D01*
X142471505Y-64406597D01*
X142335965Y-64600169D01*
X142335964Y-64600171D01*
X142285727Y-64707905D01*
X142239554Y-64760344D01*
X142173345Y-64779500D01*
X138950597Y-64779500D01*
X138883558Y-64759815D01*
X138837803Y-64707012D01*
X138821776Y-64671918D01*
X138821773Y-64671914D01*
X138821770Y-64671906D01*
X138743986Y-64550870D01*
X138743985Y-64550869D01*
X138743984Y-64550867D01*
X138743981Y-64550863D01*
X138649847Y-64442226D01*
X138649830Y-64442207D01*
X138649829Y-64442206D01*
X138541091Y-64347985D01*
X138505858Y-64325342D01*
X138420142Y-64270255D01*
X138420136Y-64270252D01*
X138349028Y-64237778D01*
X138289259Y-64210483D01*
X138171650Y-64175950D01*
X138151308Y-64169977D01*
X138151296Y-64169974D01*
X138008889Y-64149500D01*
X137437000Y-64149500D01*
X137436997Y-64149500D01*
X137365061Y-64154644D01*
X137365056Y-64154645D01*
X137327735Y-64165603D01*
X137275158Y-64169363D01*
X137137001Y-64149500D01*
X137137000Y-64149500D01*
X136565111Y-64149500D01*
X136565110Y-64149500D01*
X136422703Y-64169974D01*
X136422691Y-64169977D01*
X136284741Y-64210483D01*
X136153863Y-64270252D01*
X136153861Y-64270254D01*
X136038523Y-64344376D01*
X136037083Y-64345196D01*
X136032901Y-64347988D01*
X135924169Y-64442207D01*
X135924166Y-64442210D01*
X135830018Y-64550864D01*
X135830015Y-64550867D01*
X135750568Y-64674491D01*
X135697764Y-64720246D01*
X135628605Y-64730190D01*
X135573367Y-64707770D01*
X135453734Y-64620851D01*
X135453729Y-64620848D01*
X135280807Y-64543857D01*
X135280802Y-64543855D01*
X135135001Y-64512865D01*
X135095646Y-64504500D01*
X134906354Y-64504500D01*
X134873897Y-64511398D01*
X134721197Y-64543855D01*
X134721192Y-64543857D01*
X134548270Y-64620848D01*
X134548265Y-64620851D01*
X134395129Y-64732111D01*
X134268466Y-64872785D01*
X134173821Y-65036715D01*
X134173818Y-65036722D01*
X134122005Y-65196187D01*
X134115326Y-65216744D01*
X134095540Y-65405000D01*
X104214548Y-65405000D01*
X104225659Y-65278000D01*
X104205063Y-65042592D01*
X104143903Y-64814337D01*
X104044035Y-64600171D01*
X104038425Y-64592158D01*
X103908494Y-64406597D01*
X103741402Y-64239506D01*
X103741396Y-64239501D01*
X103555842Y-64109575D01*
X103512217Y-64054998D01*
X103505023Y-63985500D01*
X103536546Y-63923145D01*
X103555842Y-63906425D01*
X103591476Y-63881474D01*
X103741401Y-63776495D01*
X103908495Y-63609401D01*
X104044035Y-63415830D01*
X104143903Y-63201663D01*
X104205063Y-62973408D01*
X104225659Y-62738000D01*
X104205063Y-62502592D01*
X104143903Y-62274337D01*
X104044035Y-62060171D01*
X104038425Y-62052158D01*
X103908494Y-61866597D01*
X103741402Y-61699506D01*
X103741396Y-61699501D01*
X103555842Y-61569575D01*
X103512217Y-61514998D01*
X103505023Y-61445500D01*
X103536546Y-61383145D01*
X103555842Y-61366425D01*
X103578026Y-61350891D01*
X103741401Y-61236495D01*
X103908495Y-61069401D01*
X104044035Y-60875830D01*
X104143903Y-60661663D01*
X104205063Y-60433408D01*
X104225659Y-60198000D01*
X104205063Y-59962592D01*
X104143903Y-59734337D01*
X104044035Y-59520171D01*
X104038425Y-59512158D01*
X103908494Y-59326597D01*
X103741402Y-59159506D01*
X103741396Y-59159501D01*
X103555842Y-59029575D01*
X103512217Y-58974998D01*
X103505023Y-58905500D01*
X103536546Y-58843145D01*
X103555842Y-58826425D01*
X103580992Y-58808815D01*
X103741401Y-58696495D01*
X103908495Y-58529401D01*
X104044035Y-58335830D01*
X104143903Y-58121663D01*
X104205063Y-57893408D01*
X104225659Y-57658000D01*
X104205063Y-57422592D01*
X104143903Y-57194337D01*
X104044035Y-56980171D01*
X104038425Y-56972158D01*
X103908494Y-56786597D01*
X103741402Y-56619506D01*
X103741396Y-56619501D01*
X103555842Y-56489575D01*
X103512217Y-56434998D01*
X103505023Y-56365500D01*
X103536546Y-56303145D01*
X103555842Y-56286425D01*
X103578026Y-56270891D01*
X103741401Y-56156495D01*
X103908495Y-55989401D01*
X104044035Y-55795830D01*
X104143903Y-55581663D01*
X104205063Y-55353408D01*
X104225659Y-55118000D01*
X104205063Y-54882592D01*
X104143903Y-54654337D01*
X104044035Y-54440171D01*
X104038425Y-54432158D01*
X103908494Y-54246597D01*
X103741402Y-54079506D01*
X103741395Y-54079501D01*
X103547834Y-53943967D01*
X103547830Y-53943965D01*
X103547828Y-53943964D01*
X103333663Y-53844097D01*
X103333659Y-53844096D01*
X103333655Y-53844094D01*
X103105413Y-53782938D01*
X103105403Y-53782936D01*
X102870001Y-53762341D01*
X102869999Y-53762341D01*
X102634596Y-53782936D01*
X102634586Y-53782938D01*
X102406344Y-53844094D01*
X102406335Y-53844098D01*
X102192171Y-53943964D01*
X102192169Y-53943965D01*
X101998597Y-54079505D01*
X101831505Y-54246597D01*
X101701575Y-54432158D01*
X101646998Y-54475783D01*
X101577500Y-54482977D01*
X101515145Y-54451454D01*
X101498425Y-54432158D01*
X101368494Y-54246597D01*
X101201402Y-54079506D01*
X101201396Y-54079501D01*
X101015842Y-53949575D01*
X100972217Y-53894998D01*
X100965023Y-53825500D01*
X100996546Y-53763145D01*
X101015842Y-53746425D01*
X101038026Y-53730891D01*
X101201401Y-53616495D01*
X101368495Y-53449401D01*
X101504035Y-53255830D01*
X101603903Y-53041663D01*
X101665063Y-52813408D01*
X101685659Y-52578000D01*
X101665063Y-52342592D01*
X101603903Y-52114337D01*
X101504035Y-51900171D01*
X101498424Y-51892158D01*
X101368496Y-51706600D01*
X101368493Y-51706597D01*
X101246567Y-51584671D01*
X101213084Y-51523351D01*
X101218068Y-51453659D01*
X101259939Y-51397725D01*
X101290915Y-51380810D01*
X101422331Y-51331796D01*
X101537546Y-51245546D01*
X101623796Y-51130331D01*
X101672810Y-50998916D01*
X101714681Y-50942984D01*
X101780145Y-50918566D01*
X101848418Y-50933417D01*
X101876673Y-50954569D01*
X101998599Y-51076495D01*
X102095384Y-51144265D01*
X102192165Y-51212032D01*
X102192167Y-51212033D01*
X102192170Y-51212035D01*
X102406337Y-51311903D01*
X102634592Y-51373063D01*
X102811034Y-51388500D01*
X102869999Y-51393659D01*
X102870000Y-51393659D01*
X102870001Y-51393659D01*
X102928966Y-51388500D01*
X103105408Y-51373063D01*
X103333663Y-51311903D01*
X103547830Y-51212035D01*
X103741401Y-51076495D01*
X103908495Y-50909401D01*
X104044035Y-50715830D01*
X104143903Y-50501663D01*
X104205063Y-50273408D01*
X104225659Y-50038000D01*
X104205063Y-49802592D01*
X104143903Y-49574337D01*
X104044035Y-49360171D01*
X103908495Y-49166599D01*
X103908494Y-49166597D01*
X103741402Y-48999506D01*
X103741395Y-48999501D01*
X103547834Y-48863967D01*
X103547830Y-48863965D01*
X103547828Y-48863964D01*
X103333663Y-48764097D01*
X103333659Y-48764096D01*
X103333655Y-48764094D01*
X103105413Y-48702938D01*
X103105403Y-48702936D01*
X102870001Y-48682341D01*
X102869999Y-48682341D01*
X102634596Y-48702936D01*
X102634586Y-48702938D01*
X102406344Y-48764094D01*
X102406335Y-48764098D01*
X102192171Y-48863964D01*
X102192169Y-48863965D01*
X101998600Y-48999503D01*
X101876673Y-49121430D01*
X101815350Y-49154914D01*
X101745658Y-49149930D01*
X101689725Y-49108058D01*
X101672810Y-49077081D01*
X101623797Y-48945671D01*
X101623793Y-48945664D01*
X101537547Y-48830455D01*
X101537544Y-48830452D01*
X101422335Y-48744206D01*
X101422328Y-48744202D01*
X101287482Y-48693908D01*
X101287483Y-48693908D01*
X101227883Y-48687501D01*
X101227881Y-48687500D01*
X101227873Y-48687500D01*
X101227864Y-48687500D01*
X99432129Y-48687500D01*
X99432123Y-48687501D01*
X99372516Y-48693908D01*
X99237671Y-48744202D01*
X99237664Y-48744206D01*
X99122455Y-48830452D01*
X99122452Y-48830455D01*
X99036206Y-48945664D01*
X99036202Y-48945671D01*
X98985908Y-49080517D01*
X98981510Y-49121430D01*
X98979501Y-49140123D01*
X98979500Y-49140135D01*
X98979500Y-50935870D01*
X98979501Y-50935876D01*
X98985908Y-50995483D01*
X99036202Y-51130328D01*
X99036206Y-51130335D01*
X99122452Y-51245544D01*
X99122455Y-51245547D01*
X99237664Y-51331793D01*
X99237671Y-51331797D01*
X99369081Y-51380810D01*
X99425015Y-51422681D01*
X99449432Y-51488145D01*
X99434580Y-51556418D01*
X99413430Y-51584673D01*
X99291503Y-51706600D01*
X99155965Y-51900169D01*
X99155964Y-51900171D01*
X99056098Y-52114335D01*
X99056094Y-52114344D01*
X98994938Y-52342586D01*
X98994936Y-52342596D01*
X98974341Y-52577999D01*
X98974341Y-52578000D01*
X98994936Y-52813403D01*
X98994938Y-52813413D01*
X99056094Y-53041655D01*
X99056096Y-53041659D01*
X99056097Y-53041663D01*
X99060000Y-53050032D01*
X99155965Y-53255830D01*
X99155967Y-53255834D01*
X99264281Y-53410521D01*
X99291501Y-53449396D01*
X99291506Y-53449402D01*
X99458597Y-53616493D01*
X99458603Y-53616498D01*
X99644158Y-53746425D01*
X99687783Y-53801002D01*
X99694977Y-53870500D01*
X99663454Y-53932855D01*
X99644158Y-53949575D01*
X99458597Y-54079505D01*
X99291505Y-54246597D01*
X99155965Y-54440169D01*
X99155964Y-54440171D01*
X99056098Y-54654335D01*
X99056094Y-54654344D01*
X98994938Y-54882586D01*
X98994936Y-54882596D01*
X98974341Y-55117999D01*
X98974341Y-55118000D01*
X98994936Y-55353403D01*
X98994938Y-55353413D01*
X99056094Y-55581655D01*
X99056096Y-55581659D01*
X99056097Y-55581663D01*
X99060000Y-55590032D01*
X99155965Y-55795830D01*
X99155967Y-55795834D01*
X99264281Y-55950521D01*
X99291501Y-55989396D01*
X99291506Y-55989402D01*
X99458597Y-56156493D01*
X99458603Y-56156498D01*
X99644158Y-56286425D01*
X99687783Y-56341002D01*
X99694977Y-56410500D01*
X99663454Y-56472855D01*
X99644158Y-56489575D01*
X99458597Y-56619505D01*
X99291505Y-56786597D01*
X99155965Y-56980169D01*
X99155964Y-56980171D01*
X99056098Y-57194335D01*
X99056094Y-57194344D01*
X98994938Y-57422586D01*
X98994936Y-57422596D01*
X98974341Y-57657999D01*
X98974341Y-57658000D01*
X98994936Y-57893403D01*
X98994938Y-57893413D01*
X99056094Y-58121655D01*
X99056096Y-58121659D01*
X99056097Y-58121663D01*
X99115802Y-58249700D01*
X99155965Y-58335830D01*
X99155967Y-58335834D01*
X99184709Y-58376881D01*
X99291501Y-58529396D01*
X99291506Y-58529402D01*
X99458597Y-58696493D01*
X99458603Y-58696498D01*
X99644158Y-58826425D01*
X99687783Y-58881002D01*
X99694977Y-58950500D01*
X99663454Y-59012855D01*
X99644158Y-59029575D01*
X99458597Y-59159505D01*
X99291505Y-59326597D01*
X99155965Y-59520169D01*
X99155964Y-59520171D01*
X99056098Y-59734335D01*
X99056094Y-59734344D01*
X98994938Y-59962586D01*
X98994936Y-59962596D01*
X98974341Y-60197999D01*
X98974341Y-60198000D01*
X98994936Y-60433403D01*
X98994938Y-60433413D01*
X99056094Y-60661655D01*
X99056096Y-60661659D01*
X99056097Y-60661663D01*
X99060000Y-60670032D01*
X99155965Y-60875830D01*
X99155967Y-60875834D01*
X99264281Y-61030521D01*
X99291501Y-61069396D01*
X99291506Y-61069402D01*
X99458597Y-61236493D01*
X99458603Y-61236498D01*
X99644158Y-61366425D01*
X99687783Y-61421002D01*
X99694977Y-61490500D01*
X99663454Y-61552855D01*
X99644158Y-61569575D01*
X99458597Y-61699505D01*
X99291505Y-61866597D01*
X99155965Y-62060169D01*
X99155964Y-62060171D01*
X99056098Y-62274335D01*
X99056094Y-62274344D01*
X98994938Y-62502586D01*
X98994936Y-62502596D01*
X98974341Y-62737999D01*
X98974341Y-62738000D01*
X98994936Y-62973403D01*
X98994938Y-62973413D01*
X99056094Y-63201655D01*
X99056096Y-63201659D01*
X99056097Y-63201663D01*
X99060000Y-63210032D01*
X99155965Y-63415830D01*
X99155967Y-63415834D01*
X99264281Y-63570521D01*
X99291501Y-63609396D01*
X99291506Y-63609402D01*
X99458597Y-63776493D01*
X99458603Y-63776498D01*
X99644158Y-63906425D01*
X99687783Y-63961002D01*
X99694977Y-64030500D01*
X99663454Y-64092855D01*
X99644158Y-64109575D01*
X99458597Y-64239505D01*
X99291505Y-64406597D01*
X99155965Y-64600169D01*
X99155964Y-64600171D01*
X99056098Y-64814335D01*
X99056094Y-64814344D01*
X98994938Y-65042586D01*
X98994936Y-65042596D01*
X98974341Y-65277999D01*
X98974341Y-65278000D01*
X98994936Y-65513403D01*
X98994938Y-65513413D01*
X99056094Y-65741655D01*
X99056096Y-65741659D01*
X99056097Y-65741663D01*
X99097752Y-65830992D01*
X99155965Y-65955830D01*
X99155967Y-65955834D01*
X99222032Y-66050184D01*
X99291501Y-66149396D01*
X99291506Y-66149402D01*
X99458597Y-66316493D01*
X99458603Y-66316498D01*
X99644158Y-66446425D01*
X99687783Y-66501002D01*
X99694977Y-66570500D01*
X99663454Y-66632855D01*
X99644158Y-66649575D01*
X99458597Y-66779505D01*
X99291505Y-66946597D01*
X99155967Y-67140166D01*
X99155963Y-67140174D01*
X99135572Y-67183904D01*
X99089400Y-67236344D01*
X99023190Y-67255500D01*
X96443230Y-67255500D01*
X96376191Y-67235815D01*
X96355549Y-67219181D01*
X96293657Y-67157289D01*
X96293656Y-67157288D01*
X96144334Y-67065186D01*
X95977797Y-67010001D01*
X95977795Y-67010000D01*
X95875010Y-66999500D01*
X94824998Y-66999500D01*
X94824980Y-66999501D01*
X94722203Y-67010000D01*
X94722200Y-67010001D01*
X94555668Y-67065185D01*
X94555663Y-67065187D01*
X94406342Y-67157289D01*
X94344451Y-67219181D01*
X94283128Y-67252666D01*
X94256770Y-67255500D01*
X94076231Y-67255500D01*
X94009192Y-67235815D01*
X93988550Y-67219181D01*
X93913049Y-67143680D01*
X93879564Y-67082357D01*
X93884548Y-67012665D01*
X93913045Y-66968322D01*
X94006712Y-66874656D01*
X94098814Y-66725334D01*
X94153999Y-66558797D01*
X94164500Y-66456009D01*
X94164499Y-65830992D01*
X94153999Y-65728203D01*
X94098814Y-65561666D01*
X94006712Y-65412344D01*
X93882656Y-65288288D01*
X93733334Y-65196186D01*
X93674493Y-65176688D01*
X93617051Y-65136916D01*
X93590228Y-65072400D01*
X93589500Y-65058983D01*
X93589500Y-48452396D01*
X93589500Y-48452394D01*
X93565463Y-48331548D01*
X93565461Y-48331543D01*
X93545962Y-48284468D01*
X93545947Y-48284435D01*
X93545932Y-48284397D01*
X93518312Y-48217715D01*
X93449858Y-48115267D01*
X93449855Y-48115263D01*
X91678928Y-46344338D01*
X91678925Y-46344334D01*
X91678925Y-46344335D01*
X91671858Y-46337268D01*
X91671858Y-46337267D01*
X91584733Y-46250142D01*
X91584732Y-46250141D01*
X91584731Y-46250140D01*
X91533509Y-46215915D01*
X91482287Y-46181689D01*
X91482286Y-46181688D01*
X91482283Y-46181686D01*
X91482280Y-46181685D01*
X91401792Y-46148347D01*
X91368453Y-46134537D01*
X91358427Y-46132543D01*
X91308029Y-46122518D01*
X91247610Y-46110500D01*
X91247607Y-46110500D01*
X91247606Y-46110500D01*
X52634452Y-46110500D01*
X52567413Y-46090815D01*
X52546771Y-46074181D01*
X50022665Y-43550075D01*
X49989180Y-43488752D01*
X49986875Y-43450958D01*
X49999686Y-43312708D01*
X150549500Y-43312708D01*
X150549500Y-43555288D01*
X150581161Y-43795785D01*
X150643947Y-44030104D01*
X150709757Y-44188982D01*
X150736776Y-44254212D01*
X150858064Y-44464289D01*
X150858066Y-44464292D01*
X150858067Y-44464293D01*
X151005733Y-44656736D01*
X151005739Y-44656743D01*
X151177256Y-44828260D01*
X151177263Y-44828266D01*
X151285053Y-44910976D01*
X151369711Y-44975936D01*
X151579788Y-45097224D01*
X151803900Y-45190054D01*
X152038211Y-45252838D01*
X152218586Y-45276584D01*
X152278711Y-45284500D01*
X152278712Y-45284500D01*
X152521289Y-45284500D01*
X152569388Y-45278167D01*
X152761789Y-45252838D01*
X152996100Y-45190054D01*
X153220212Y-45097224D01*
X153430289Y-44975936D01*
X153622738Y-44828265D01*
X153794265Y-44656738D01*
X153941936Y-44464289D01*
X154063224Y-44254212D01*
X154156054Y-44030100D01*
X154218838Y-43795789D01*
X154250500Y-43555288D01*
X154250500Y-43312712D01*
X154250500Y-43312708D01*
X154218838Y-43072214D01*
X154218838Y-43072211D01*
X154156054Y-42837900D01*
X154063224Y-42613788D01*
X153941936Y-42403711D01*
X153794265Y-42211262D01*
X153794260Y-42211256D01*
X153622743Y-42039739D01*
X153622736Y-42039733D01*
X153430293Y-41892067D01*
X153430292Y-41892066D01*
X153430289Y-41892064D01*
X153220212Y-41770776D01*
X153220205Y-41770773D01*
X152996104Y-41677947D01*
X152761785Y-41615161D01*
X152521289Y-41583500D01*
X152521288Y-41583500D01*
X152278712Y-41583500D01*
X152278711Y-41583500D01*
X152038214Y-41615161D01*
X151803895Y-41677947D01*
X151579794Y-41770773D01*
X151579785Y-41770777D01*
X151369706Y-41892067D01*
X151177263Y-42039733D01*
X151177256Y-42039739D01*
X151005739Y-42211256D01*
X151005733Y-42211263D01*
X150858067Y-42403706D01*
X150736777Y-42613785D01*
X150736773Y-42613794D01*
X150643947Y-42837895D01*
X150581161Y-43072214D01*
X150549500Y-43312708D01*
X49999686Y-43312708D01*
X50000215Y-43307000D01*
X49981397Y-43103917D01*
X49925582Y-42907750D01*
X49834673Y-42725179D01*
X49711764Y-42562421D01*
X49711762Y-42562418D01*
X49561041Y-42425019D01*
X49561039Y-42425017D01*
X49387642Y-42317655D01*
X49387635Y-42317651D01*
X49292546Y-42280814D01*
X49197456Y-42243976D01*
X48996976Y-42206500D01*
X48793024Y-42206500D01*
X48592544Y-42243976D01*
X48592541Y-42243976D01*
X48592541Y-42243977D01*
X48402364Y-42317651D01*
X48402357Y-42317655D01*
X48228960Y-42425017D01*
X48228958Y-42425019D01*
X48078237Y-42562418D01*
X47955327Y-42725178D01*
X47864422Y-42907739D01*
X47864417Y-42907752D01*
X47808602Y-43103917D01*
X47789785Y-43306999D01*
X47789785Y-43307000D01*
X47808602Y-43510082D01*
X47864417Y-43706247D01*
X47864422Y-43706260D01*
X47955327Y-43888821D01*
X48078237Y-44051581D01*
X48228958Y-44188980D01*
X48228960Y-44188982D01*
X48328141Y-44250392D01*
X48402363Y-44296348D01*
X48592544Y-44370024D01*
X48793024Y-44407500D01*
X48793026Y-44407500D01*
X48996974Y-44407500D01*
X48996976Y-44407500D01*
X49028718Y-44401566D01*
X49098233Y-44408597D01*
X49139184Y-44435774D01*
X51835016Y-47131606D01*
X51835045Y-47131637D01*
X51925263Y-47221855D01*
X51925267Y-47221858D01*
X51998660Y-47270898D01*
X52043465Y-47324510D01*
X52052172Y-47393835D01*
X52022018Y-47456863D01*
X51962575Y-47493582D01*
X51929769Y-47498000D01*
X41783000Y-47498000D01*
X41782999Y-47498001D01*
X19304000Y-47498001D01*
X19304000Y-45973999D01*
X30914785Y-45973999D01*
X30914785Y-45974000D01*
X30933602Y-46177082D01*
X30989417Y-46373247D01*
X30989422Y-46373260D01*
X31080327Y-46555821D01*
X31203237Y-46718581D01*
X31353958Y-46855980D01*
X31353960Y-46855982D01*
X31453141Y-46917392D01*
X31527363Y-46963348D01*
X31717544Y-47037024D01*
X31918024Y-47074500D01*
X31918026Y-47074500D01*
X32121974Y-47074500D01*
X32121976Y-47074500D01*
X32322456Y-47037024D01*
X32512637Y-46963348D01*
X32686041Y-46855981D01*
X32836764Y-46718579D01*
X32959673Y-46555821D01*
X33050582Y-46373250D01*
X33106397Y-46177083D01*
X33125215Y-45974000D01*
X33106397Y-45770917D01*
X33050582Y-45574750D01*
X32959673Y-45392179D01*
X32836764Y-45229421D01*
X32836762Y-45229418D01*
X32686041Y-45092019D01*
X32686039Y-45092017D01*
X32512642Y-44984655D01*
X32512635Y-44984651D01*
X32417546Y-44947814D01*
X32322456Y-44910976D01*
X32121976Y-44873500D01*
X31918024Y-44873500D01*
X31717544Y-44910976D01*
X31717541Y-44910976D01*
X31717541Y-44910977D01*
X31527364Y-44984651D01*
X31527357Y-44984655D01*
X31353960Y-45092017D01*
X31353958Y-45092019D01*
X31203237Y-45229418D01*
X31080327Y-45392178D01*
X30989422Y-45574739D01*
X30989417Y-45574752D01*
X30933602Y-45770917D01*
X30914785Y-45973999D01*
X19304000Y-45973999D01*
X19304000Y-43312708D01*
X20501500Y-43312708D01*
X20501500Y-43555288D01*
X20533161Y-43795785D01*
X20595947Y-44030104D01*
X20661757Y-44188982D01*
X20688776Y-44254212D01*
X20810064Y-44464289D01*
X20810066Y-44464292D01*
X20810067Y-44464293D01*
X20957733Y-44656736D01*
X20957739Y-44656743D01*
X21129256Y-44828260D01*
X21129263Y-44828266D01*
X21237053Y-44910976D01*
X21321711Y-44975936D01*
X21531788Y-45097224D01*
X21755900Y-45190054D01*
X21990211Y-45252838D01*
X22170586Y-45276584D01*
X22230711Y-45284500D01*
X22230712Y-45284500D01*
X22473289Y-45284500D01*
X22521388Y-45278167D01*
X22713789Y-45252838D01*
X22948100Y-45190054D01*
X23172212Y-45097224D01*
X23382289Y-44975936D01*
X23574738Y-44828265D01*
X23746265Y-44656738D01*
X23893936Y-44464289D01*
X24015224Y-44254212D01*
X24108054Y-44030100D01*
X24170838Y-43795789D01*
X24202500Y-43555288D01*
X24202500Y-43312712D01*
X24202500Y-43312708D01*
X24170838Y-43072214D01*
X24170838Y-43072211D01*
X24108054Y-42837900D01*
X24015224Y-42613788D01*
X23893936Y-42403711D01*
X23746265Y-42211262D01*
X23746260Y-42211256D01*
X23574743Y-42039739D01*
X23574736Y-42039733D01*
X23382293Y-41892067D01*
X23382292Y-41892066D01*
X23382289Y-41892064D01*
X23172212Y-41770776D01*
X23172205Y-41770773D01*
X22948104Y-41677947D01*
X22713785Y-41615161D01*
X22473289Y-41583500D01*
X22473288Y-41583500D01*
X22230712Y-41583500D01*
X22230711Y-41583500D01*
X21990214Y-41615161D01*
X21755895Y-41677947D01*
X21531794Y-41770773D01*
X21531785Y-41770777D01*
X21321706Y-41892067D01*
X21129263Y-42039733D01*
X21129256Y-42039739D01*
X20957739Y-42211256D01*
X20957733Y-42211263D01*
X20810067Y-42403706D01*
X20688777Y-42613785D01*
X20688773Y-42613794D01*
X20595947Y-42837895D01*
X20533161Y-43072214D01*
X20501500Y-43312708D01*
X19304000Y-43312708D01*
X19304000Y-41851243D01*
X19320613Y-41789243D01*
X19453359Y-41559320D01*
X19460413Y-41548458D01*
X19665195Y-41266600D01*
X19673342Y-41256539D01*
X19906468Y-40997627D01*
X19915627Y-40988468D01*
X20174539Y-40755342D01*
X20184600Y-40747195D01*
X20466458Y-40542413D01*
X20477320Y-40535359D01*
X20707244Y-40402612D01*
X20769244Y-40386000D01*
X153982756Y-40386000D01*
X154044756Y-40402613D01*
G37*
%TD.AperFunction*%
%TA.AperFunction,Conductor*%
G36*
X22793038Y-126661685D02*
G01*
X22838793Y-126714489D01*
X22849999Y-126766000D01*
X22849999Y-128757999D01*
X22830314Y-128825038D01*
X22777510Y-128870793D01*
X22725999Y-128881999D01*
X20734000Y-128881999D01*
X20666961Y-128862314D01*
X20621206Y-128809510D01*
X20610000Y-128757999D01*
X20610000Y-126766000D01*
X20629685Y-126698961D01*
X20682489Y-126653206D01*
X20734000Y-126642000D01*
X22725999Y-126642000D01*
X22793038Y-126661685D01*
G37*
%TD.AperFunction*%
%TA.AperFunction,Conductor*%
G36*
X62238377Y-110319311D02*
G01*
X62289097Y-110328792D01*
X62339819Y-110338273D01*
X62361823Y-110344534D01*
X62438957Y-110374416D01*
X62438973Y-110374423D01*
X62441676Y-110375470D01*
X62458040Y-110381809D01*
X62478519Y-110392006D01*
X62566265Y-110446336D01*
X62584521Y-110460123D01*
X62660784Y-110529646D01*
X62676201Y-110546557D01*
X62738382Y-110628900D01*
X62750426Y-110648353D01*
X62796422Y-110740722D01*
X62804689Y-110762061D01*
X62828525Y-110845838D01*
X62828532Y-110845859D01*
X62854911Y-110917502D01*
X62854918Y-110917518D01*
X62870837Y-110952376D01*
X62880780Y-111021534D01*
X62871266Y-111054446D01*
X62828526Y-111150155D01*
X62804689Y-111233936D01*
X62796423Y-111255272D01*
X62750427Y-111347645D01*
X62738382Y-111367098D01*
X62722088Y-111388676D01*
X62676200Y-111449442D01*
X62660785Y-111466352D01*
X62584524Y-111535874D01*
X62566262Y-111549664D01*
X62478519Y-111603992D01*
X62458039Y-111614190D01*
X62361824Y-111651464D01*
X62339818Y-111657725D01*
X62238379Y-111676688D01*
X62215593Y-111678800D01*
X62112407Y-111678800D01*
X62089622Y-111676689D01*
X61988181Y-111657726D01*
X61966177Y-111651465D01*
X61869954Y-111614188D01*
X61849478Y-111603992D01*
X61800169Y-111573461D01*
X61761731Y-111549661D01*
X61743471Y-111535871D01*
X61667220Y-111466358D01*
X61651805Y-111449448D01*
X61598472Y-111378824D01*
X61598465Y-111378817D01*
X61589616Y-111367100D01*
X61577569Y-111347645D01*
X61531574Y-111255276D01*
X61523311Y-111233946D01*
X61495066Y-111134674D01*
X61490865Y-111112194D01*
X61481343Y-111009437D01*
X61481343Y-110986558D01*
X61490865Y-110883801D01*
X61495066Y-110861325D01*
X61523312Y-110762047D01*
X61531574Y-110740722D01*
X61577569Y-110648352D01*
X61589612Y-110628904D01*
X61651800Y-110546554D01*
X61667216Y-110529644D01*
X61708652Y-110491869D01*
X61743481Y-110460118D01*
X61761729Y-110446337D01*
X61849478Y-110392005D01*
X61869946Y-110381813D01*
X61963326Y-110345639D01*
X61963325Y-110345638D01*
X61966179Y-110344532D01*
X61988178Y-110338273D01*
X62070870Y-110322816D01*
X62089623Y-110319311D01*
X62112406Y-110317200D01*
X62215593Y-110317200D01*
X62238377Y-110319311D01*
G37*
%TD.AperFunction*%
%TA.AperFunction,Conductor*%
G36*
X49583760Y-105720616D02*
G01*
X49605038Y-105724368D01*
X49613053Y-105726516D01*
X49613053Y-105726515D01*
X49621366Y-105728743D01*
X49621367Y-105728743D01*
X49650225Y-105736475D01*
X49710678Y-105752674D01*
X49730974Y-105760062D01*
X49830106Y-105806287D01*
X49848817Y-105817090D01*
X49938404Y-105879820D01*
X49954961Y-105893714D01*
X50032286Y-105971039D01*
X50046180Y-105987597D01*
X50101602Y-106066749D01*
X50108906Y-106077179D01*
X50119713Y-106095898D01*
X50165931Y-106195014D01*
X50173324Y-106215324D01*
X50201630Y-106320961D01*
X50205383Y-106342248D01*
X50214914Y-106451192D01*
X50214914Y-106472806D01*
X50205383Y-106581750D01*
X50201630Y-106603037D01*
X50173323Y-106708677D01*
X50165930Y-106728987D01*
X50119715Y-106828097D01*
X50108908Y-106846816D01*
X50046180Y-106936401D01*
X50032286Y-106952959D01*
X49954959Y-107030286D01*
X49938401Y-107044180D01*
X49848816Y-107106908D01*
X49830097Y-107117715D01*
X49730987Y-107163930D01*
X49710677Y-107171323D01*
X49605037Y-107199630D01*
X49583750Y-107203383D01*
X49474800Y-107212915D01*
X49453184Y-107212915D01*
X49445577Y-107212249D01*
X49404997Y-107208698D01*
X49344246Y-107203383D01*
X49322961Y-107199630D01*
X49217324Y-107171324D01*
X49197014Y-107163931D01*
X49097898Y-107117713D01*
X49079182Y-107106907D01*
X48989597Y-107044180D01*
X48973039Y-107030286D01*
X48895711Y-106952958D01*
X48881822Y-106936407D01*
X48819088Y-106846813D01*
X48808289Y-106828109D01*
X48764522Y-106734248D01*
X48688415Y-106616849D01*
X48676447Y-106603037D01*
X48643898Y-106565472D01*
X48632469Y-106555490D01*
X48594927Y-106496563D01*
X48595203Y-106426694D01*
X48633209Y-106368065D01*
X48633271Y-106368011D01*
X48639607Y-106362609D01*
X48685779Y-106310169D01*
X48764522Y-106189751D01*
X48808291Y-106095884D01*
X48819092Y-106077178D01*
X48881822Y-105987590D01*
X48895705Y-105971045D01*
X48973042Y-105893708D01*
X48989587Y-105879824D01*
X49079187Y-105817085D01*
X49097891Y-105806288D01*
X49197015Y-105760065D01*
X49217315Y-105752676D01*
X49253742Y-105742916D01*
X49253741Y-105742915D01*
X49322677Y-105724444D01*
X49322683Y-105724442D01*
X49322746Y-105724425D01*
X49322753Y-105724423D01*
X49322894Y-105724386D01*
X49322897Y-105724398D01*
X49344239Y-105720615D01*
X49453198Y-105711083D01*
X49474800Y-105711083D01*
X49583760Y-105720616D01*
G37*
%TD.AperFunction*%
%TD*%
%TA.AperFunction,Conductor*%
%TO.N,Vout*%
G36*
X155391039Y-118637685D02*
G01*
X155436794Y-118690489D01*
X155448000Y-118742000D01*
X155448000Y-139250755D01*
X155431387Y-139312755D01*
X155298647Y-139542667D01*
X155291578Y-139553552D01*
X155086814Y-139835385D01*
X155078646Y-139845472D01*
X154845540Y-140104362D01*
X154836362Y-140113540D01*
X154577472Y-140346646D01*
X154567385Y-140354814D01*
X154285552Y-140559578D01*
X154274667Y-140566647D01*
X154099686Y-140667672D01*
X154050077Y-140696315D01*
X154044756Y-140699387D01*
X153982756Y-140716000D01*
X96898000Y-140716000D01*
X96830961Y-140696315D01*
X96785206Y-140643511D01*
X96774000Y-140592000D01*
X96774000Y-137546711D01*
X150549500Y-137546711D01*
X150549500Y-137789288D01*
X150581161Y-138029785D01*
X150643947Y-138264104D01*
X150736773Y-138488205D01*
X150736776Y-138488212D01*
X150858064Y-138698289D01*
X150858066Y-138698292D01*
X150858067Y-138698293D01*
X151005733Y-138890736D01*
X151005739Y-138890743D01*
X151177256Y-139062260D01*
X151177262Y-139062265D01*
X151369711Y-139209936D01*
X151579788Y-139331224D01*
X151803900Y-139424054D01*
X152038211Y-139486838D01*
X152218586Y-139510584D01*
X152278711Y-139518500D01*
X152278712Y-139518500D01*
X152521289Y-139518500D01*
X152569388Y-139512167D01*
X152761789Y-139486838D01*
X152996100Y-139424054D01*
X153220212Y-139331224D01*
X153430289Y-139209936D01*
X153622738Y-139062265D01*
X153794265Y-138890738D01*
X153941936Y-138698289D01*
X154063224Y-138488212D01*
X154156054Y-138264100D01*
X154218838Y-138029789D01*
X154250500Y-137789288D01*
X154250500Y-137546712D01*
X154218838Y-137306211D01*
X154156054Y-137071900D01*
X154063224Y-136847788D01*
X153941936Y-136637711D01*
X153794265Y-136445262D01*
X153794260Y-136445256D01*
X153622743Y-136273739D01*
X153622736Y-136273733D01*
X153430293Y-136126067D01*
X153430292Y-136126066D01*
X153430289Y-136126064D01*
X153220212Y-136004776D01*
X153220205Y-136004773D01*
X152996104Y-135911947D01*
X152761785Y-135849161D01*
X152521289Y-135817500D01*
X152521288Y-135817500D01*
X152278712Y-135817500D01*
X152278711Y-135817500D01*
X152038214Y-135849161D01*
X151803895Y-135911947D01*
X151579794Y-136004773D01*
X151579785Y-136004777D01*
X151369706Y-136126067D01*
X151177263Y-136273733D01*
X151177256Y-136273739D01*
X151005739Y-136445256D01*
X151005733Y-136445263D01*
X150858067Y-136637706D01*
X150736777Y-136847785D01*
X150736773Y-136847794D01*
X150643947Y-137071895D01*
X150581161Y-137306214D01*
X150549500Y-137546711D01*
X96774000Y-137546711D01*
X96774000Y-125410000D01*
X108154064Y-125410000D01*
X108173787Y-125710918D01*
X108173788Y-125710930D01*
X108232618Y-126006683D01*
X108232622Y-126006698D01*
X108329553Y-126292247D01*
X108329562Y-126292268D01*
X108462931Y-126562713D01*
X108462935Y-126562720D01*
X108630473Y-126813459D01*
X108829310Y-127040189D01*
X109056040Y-127239026D01*
X109306779Y-127406564D01*
X109306786Y-127406568D01*
X109577231Y-127539937D01*
X109577236Y-127539939D01*
X109577248Y-127539945D01*
X109862809Y-127636880D01*
X110062751Y-127676651D01*
X110158569Y-127695711D01*
X110158570Y-127695711D01*
X110158580Y-127695713D01*
X110459500Y-127715436D01*
X110760420Y-127695713D01*
X111056191Y-127636880D01*
X111341752Y-127539945D01*
X111612218Y-127406566D01*
X111862961Y-127239025D01*
X112089689Y-127040189D01*
X112288525Y-126813461D01*
X112456066Y-126562718D01*
X112589445Y-126292252D01*
X112686380Y-126006691D01*
X112745213Y-125710920D01*
X112764936Y-125410000D01*
X112745213Y-125109080D01*
X112686380Y-124813309D01*
X112589445Y-124527748D01*
X112456066Y-124257282D01*
X112288525Y-124006539D01*
X112089689Y-123779810D01*
X111862959Y-123580973D01*
X111612220Y-123413435D01*
X111612213Y-123413431D01*
X111341768Y-123280062D01*
X111341747Y-123280053D01*
X111056198Y-123183122D01*
X111056192Y-123183120D01*
X111056191Y-123183120D01*
X111056189Y-123183119D01*
X111056183Y-123183118D01*
X110760430Y-123124288D01*
X110760421Y-123124287D01*
X110760420Y-123124287D01*
X110459500Y-123104564D01*
X110158580Y-123124287D01*
X110158579Y-123124287D01*
X110158569Y-123124288D01*
X109862816Y-123183118D01*
X109862801Y-123183122D01*
X109577252Y-123280053D01*
X109577231Y-123280062D01*
X109306786Y-123413431D01*
X109306779Y-123413435D01*
X109056040Y-123580973D01*
X108829310Y-123779810D01*
X108630473Y-124006540D01*
X108462935Y-124257279D01*
X108462931Y-124257286D01*
X108329562Y-124527731D01*
X108329553Y-124527752D01*
X108232622Y-124813301D01*
X108232618Y-124813316D01*
X108173788Y-125109069D01*
X108173787Y-125109081D01*
X108154064Y-125410000D01*
X96774000Y-125410000D01*
X96774000Y-119793701D01*
X98910000Y-119793701D01*
X98910000Y-121889436D01*
X98910001Y-121889442D01*
X98916408Y-121949049D01*
X98966702Y-122083894D01*
X98966706Y-122083901D01*
X99052952Y-122199110D01*
X99052955Y-122199113D01*
X99168164Y-122285359D01*
X99168171Y-122285363D01*
X99303017Y-122335657D01*
X99303016Y-122335657D01*
X99309944Y-122336401D01*
X99362627Y-122342066D01*
X101363372Y-122342065D01*
X101422983Y-122335657D01*
X101557831Y-122285362D01*
X101673046Y-122199112D01*
X101759296Y-122083897D01*
X101809591Y-121949049D01*
X101816000Y-121889439D01*
X101815999Y-119793694D01*
X101809591Y-119734083D01*
X101759296Y-119599235D01*
X101759295Y-119599234D01*
X101759293Y-119599230D01*
X101673047Y-119484021D01*
X101673044Y-119484018D01*
X101557835Y-119397772D01*
X101557828Y-119397768D01*
X101422982Y-119347474D01*
X101422983Y-119347474D01*
X101363383Y-119341067D01*
X101363381Y-119341066D01*
X101363373Y-119341066D01*
X101363364Y-119341066D01*
X99362629Y-119341066D01*
X99362623Y-119341067D01*
X99303016Y-119347474D01*
X99168171Y-119397768D01*
X99168164Y-119397772D01*
X99052955Y-119484018D01*
X99052952Y-119484021D01*
X98966706Y-119599230D01*
X98966702Y-119599237D01*
X98916408Y-119734083D01*
X98910001Y-119793682D01*
X98910001Y-119793689D01*
X98910000Y-119793701D01*
X96774000Y-119793701D01*
X96774000Y-118742000D01*
X96793685Y-118674961D01*
X96846489Y-118629206D01*
X96898000Y-118618000D01*
X155324000Y-118618000D01*
X155391039Y-118637685D01*
G37*
%TD.AperFunction*%
%TD*%
M02*
