%TF.GenerationSoftware,KiCad,Pcbnew,8.0.4*%
%TF.CreationDate,2024-09-20T12:27:38-05:00*%
%TF.ProjectId,Boost_9_8,426f6f73-745f-4395-9f38-2e6b69636164,rev?*%
%TF.SameCoordinates,Original*%
%TF.FileFunction,Copper,L2,Inr*%
%TF.FilePolarity,Positive*%
%FSLAX46Y46*%
G04 Gerber Fmt 4.6, Leading zero omitted, Abs format (unit mm)*
G04 Created by KiCad (PCBNEW 8.0.4) date 2024-09-20 12:27:38*
%MOMM*%
%LPD*%
G01*
G04 APERTURE LIST*
%TA.AperFunction,ComponentPad*%
%ADD10C,2.300000*%
%TD*%
%TA.AperFunction,ComponentPad*%
%ADD11C,1.200000*%
%TD*%
%TA.AperFunction,ComponentPad*%
%ADD12C,2.000000*%
%TD*%
%TA.AperFunction,ComponentPad*%
%ADD13R,2.250000X2.250000*%
%TD*%
%TA.AperFunction,ComponentPad*%
%ADD14C,2.250000*%
%TD*%
%TA.AperFunction,ComponentPad*%
%ADD15C,1.371600*%
%TD*%
%TA.AperFunction,ComponentPad*%
%ADD16R,1.371600X1.371600*%
%TD*%
%TA.AperFunction,ComponentPad*%
%ADD17R,1.905000X2.000000*%
%TD*%
%TA.AperFunction,ComponentPad*%
%ADD18O,1.905000X2.000000*%
%TD*%
%TA.AperFunction,ComponentPad*%
%ADD19R,1.300000X1.300000*%
%TD*%
%TA.AperFunction,ComponentPad*%
%ADD20C,1.300000*%
%TD*%
%TA.AperFunction,ComponentPad*%
%ADD21R,1.700000X1.700000*%
%TD*%
%TA.AperFunction,ComponentPad*%
%ADD22O,1.700000X1.700000*%
%TD*%
%TA.AperFunction,ComponentPad*%
%ADD23C,2.800000*%
%TD*%
%TA.AperFunction,ComponentPad*%
%ADD24C,2.600000*%
%TD*%
%TA.AperFunction,ComponentPad*%
%ADD25O,2.600000X4.200000*%
%TD*%
%TA.AperFunction,ComponentPad*%
%ADD26C,3.600000*%
%TD*%
%TA.AperFunction,ComponentPad*%
%ADD27R,1.508000X1.508000*%
%TD*%
%TA.AperFunction,ComponentPad*%
%ADD28C,1.508000*%
%TD*%
%TA.AperFunction,ComponentPad*%
%ADD29R,1.625600X1.625600*%
%TD*%
%TA.AperFunction,ComponentPad*%
%ADD30C,1.625600*%
%TD*%
%TA.AperFunction,ComponentPad*%
%ADD31C,1.507998*%
%TD*%
%TA.AperFunction,ComponentPad*%
%ADD32R,1.828800X1.828800*%
%TD*%
%TA.AperFunction,ComponentPad*%
%ADD33C,1.828800*%
%TD*%
%TA.AperFunction,ViaPad*%
%ADD34C,0.800000*%
%TD*%
%TA.AperFunction,Conductor*%
%ADD35C,0.250000*%
%TD*%
%TA.AperFunction,Conductor*%
%ADD36C,0.500000*%
%TD*%
G04 APERTURE END LIST*
D10*
%TO.N,GND*%
%TO.C,J10*%
X104750000Y-100750000D03*
D11*
%TO.N,Vsw*%
X102210000Y-100750000D03*
%TD*%
D12*
%TO.N,GND*%
%TO.C,TP13*%
X87630000Y-136017000D03*
%TD*%
D13*
%TO.N,+24V*%
%TO.C,J1*%
X21730000Y-108712000D03*
D14*
X39230000Y-108712000D03*
%TD*%
D10*
%TO.N,GND*%
%TO.C,J14*%
X29480000Y-45974000D03*
D11*
%TO.N,Vin_sens*%
X32020000Y-45974000D03*
%TD*%
D12*
%TO.N,GND*%
%TO.C,TP7*%
X40640000Y-43180000D03*
%TD*%
D15*
%TO.N,Vin*%
%TO.C,C6*%
X25654000Y-59436000D03*
%TO.N,GND*%
X25654000Y-54436000D03*
%TD*%
D10*
%TO.N,GND*%
%TO.C,J11*%
X78232000Y-105537000D03*
D11*
%TO.N,C2000 D'*%
X75692000Y-105537000D03*
%TD*%
D12*
%TO.N,+3.3V*%
%TO.C,TP5*%
X51000000Y-136250000D03*
%TD*%
D10*
%TO.N,GND*%
%TO.C,J12*%
X76020000Y-137541000D03*
D11*
%TO.N,Vboot*%
X73480000Y-137541000D03*
%TD*%
D16*
%TO.N,+24V*%
%TO.C,PS2*%
X59624000Y-110998000D03*
D15*
%TO.N,GND*%
X62164000Y-110998000D03*
%TO.N,+12V*%
X64704000Y-110998000D03*
%TD*%
D17*
%TO.N,D'*%
%TO.C,Q2*%
X100363000Y-120841566D03*
D18*
%TO.N,Vout*%
X97823000Y-120841566D03*
%TO.N,Vsw*%
X95283000Y-120841566D03*
%TD*%
D14*
%TO.N,+24V*%
%TO.C,F1*%
X26924000Y-101112000D03*
%TO.N,Vin*%
X26924000Y-65512000D03*
%TD*%
D10*
%TO.N,GND*%
%TO.C,J8*%
X76020000Y-129500000D03*
D11*
%TO.N,D'*%
X73480000Y-129500000D03*
%TD*%
D13*
%TO.N,GND*%
%TO.C,J2*%
X21730000Y-127762000D03*
D14*
X39230000Y-127762000D03*
%TD*%
%TO.N,*%
%TO.C,SW1*%
X60508000Y-120974000D03*
X49808000Y-120974000D03*
D19*
%TO.N,+3.3V*%
X57658000Y-119774000D03*
D20*
%TO.N,SD*%
X55158000Y-119774000D03*
%TO.N,GND*%
X52658000Y-119774000D03*
%TO.N,Net-(D3-A)*%
X52658000Y-122174000D03*
%TO.N,+3.3V*%
X55158000Y-122174000D03*
%TO.N,Net-(D4-A)*%
X57658000Y-122174000D03*
%TD*%
D12*
%TO.N,+24V*%
%TO.C,TP1*%
X32250000Y-136000000D03*
%TD*%
D10*
%TO.N,GND*%
%TO.C,J16*%
X51435000Y-43307000D03*
D11*
%TO.N,I_L*%
X48895000Y-43307000D03*
%TD*%
D10*
%TO.N,GND*%
%TO.C,J13*%
X152500000Y-112250000D03*
D11*
%TO.N,Vout*%
X149960000Y-112250000D03*
%TD*%
D21*
%TO.N,+3.3V*%
%TO.C,U3*%
X100330000Y-50038000D03*
D22*
%TO.N,unconnected-(U3-Pad42)*%
X100330000Y-52578000D03*
%TO.N,unconnected-(U3-Pad43)*%
X100330000Y-55118000D03*
%TO.N,unconnected-(U3-Pad44)*%
X100330000Y-57658000D03*
%TO.N,unconnected-(U3-Pad45)*%
X100330000Y-60198000D03*
%TO.N,unconnected-(U3-Pad46)*%
X100330000Y-62738000D03*
%TO.N,unconnected-(U3-Pad47)*%
X100330000Y-65278000D03*
%TO.N,Net-(C8-Pad1)*%
X100330000Y-67818000D03*
%TO.N,unconnected-(U3-Pad49)*%
X100330000Y-70358000D03*
%TO.N,unconnected-(U3-Pad50)*%
X100330000Y-72898000D03*
%TO.N,unconnected-(U3-Pad51)*%
X146050000Y-72898000D03*
%TO.N,unconnected-(U3-Pad52)*%
X146050000Y-70358000D03*
%TO.N,unconnected-(U3-Pad53)*%
X146050000Y-67818000D03*
%TO.N,unconnected-(U3-Pad54)*%
X146050000Y-65278000D03*
%TO.N,unconnected-(U3-Pad55)*%
X146050000Y-62738000D03*
%TO.N,unconnected-(U3-Pad56)*%
X146050000Y-60198000D03*
%TO.N,unconnected-(U3-Pad57)*%
X146050000Y-57658000D03*
%TO.N,unconnected-(U3-Pad58)*%
X146050000Y-55118000D03*
%TO.N,unconnected-(U3-Pad59)*%
X146050000Y-52578000D03*
%TO.N,GND*%
X146050000Y-50038000D03*
%TO.N,unconnected-(U3-Pad61)*%
X102870000Y-50038000D03*
%TO.N,GND*%
X102870000Y-52578000D03*
%TO.N,unconnected-(U3-Pad63)*%
X102870000Y-55118000D03*
%TO.N,unconnected-(U3-Pad64)*%
X102870000Y-57658000D03*
%TO.N,unconnected-(U3-Pad65)*%
X102870000Y-60198000D03*
%TO.N,unconnected-(U3-Pad66)*%
X102870000Y-62738000D03*
%TO.N,unconnected-(U3-Pad67)*%
X102870000Y-65278000D03*
%TO.N,unconnected-(U3-Pad68)*%
X102870000Y-67818000D03*
%TO.N,Net-(C14-Pad1)*%
X102870000Y-70358000D03*
%TO.N,Net-(C11-Pad1)*%
X102870000Y-72898000D03*
%TO.N,unconnected-(U3-Pad71)*%
X143510000Y-72898000D03*
%TO.N,unconnected-(U3-Pad72)*%
X143510000Y-70358000D03*
%TO.N,unconnected-(U3-Pad73)*%
X143510000Y-67818000D03*
%TO.N,Net-(JP1-A)*%
X143510000Y-65278000D03*
%TO.N,unconnected-(U3-Pad75)*%
X143510000Y-62738000D03*
%TO.N,unconnected-(U3-Pad76)*%
X143510000Y-60198000D03*
%TO.N,unconnected-(U3-Pad77)*%
X143510000Y-57658000D03*
%TO.N,unconnected-(U3-Pad78)*%
X143510000Y-55118000D03*
%TO.N,C2000 D'*%
X143510000Y-52578000D03*
D21*
%TO.N,C2000 D *%
X143510000Y-50038000D03*
%TD*%
D23*
%TO.N,unconnected-(L1-Pad1)_23*%
%TO.C,L1*%
X45974000Y-54864000D03*
%TO.N,unconnected-(L1-Pad1)_21*%
X48514000Y-57404000D03*
%TO.N,unconnected-(L1-Pad1)_15*%
X51054000Y-54864000D03*
D24*
%TO.N,unconnected-(L1-Pad1)_3*%
X51054000Y-59944000D03*
D23*
%TO.N,unconnected-(L1-Pad1)_4*%
X53594000Y-57404000D03*
%TO.N,unconnected-(L1-Pad1)_2*%
X56134000Y-54864000D03*
D25*
%TO.N,unconnected-(L1-Pad1)_22*%
X56134000Y-60706000D03*
D23*
%TO.N,unconnected-(L1-Pad1)_14*%
X58674000Y-57404000D03*
%TO.N,unconnected-(L1-Pad1)_9*%
X61214000Y-54864000D03*
D25*
%TO.N,unconnected-(L1-Pad1)_11*%
X61214000Y-60706000D03*
D23*
%TO.N,unconnected-(L1-Pad1)_20*%
X63754000Y-57404000D03*
%TO.N,unconnected-(L1-Pad1)_7*%
X66294000Y-54864000D03*
D25*
%TO.N,unconnected-(L1-Pad1)_6*%
X66294000Y-60706000D03*
D23*
%TO.N,unconnected-(L1-Pad1)_18*%
X68834000Y-57404000D03*
%TO.N,unconnected-(L1-Pad1)_17*%
X71374000Y-54864000D03*
D25*
%TO.N,unconnected-(L1-Pad1)_10*%
X71374000Y-60706000D03*
D23*
%TO.N,unconnected-(L1-Pad1)_19*%
X73914000Y-57404000D03*
%TO.N,unconnected-(L1-Pad1)*%
X76454000Y-54864000D03*
D25*
%TO.N,unconnected-(L1-Pad1)_13*%
X76454000Y-60706000D03*
D23*
%TO.N,unconnected-(L1-Pad1)_16*%
X78994000Y-57404000D03*
%TO.N,unconnected-(L1-Pad1)_1*%
X81534000Y-54864000D03*
D24*
%TO.N,unconnected-(L1-Pad1)_8*%
X81534000Y-59944000D03*
D23*
%TO.N,unconnected-(L1-Pad1)_12*%
X84074000Y-57404000D03*
%TO.N,unconnected-(L1-Pad1)_5*%
X86614000Y-54864000D03*
%TO.N,unconnected-(L1-Pad2)_20*%
X45974000Y-90424000D03*
%TO.N,unconnected-(L1-Pad2)_12*%
X48514000Y-87884000D03*
D24*
%TO.N,unconnected-(L1-Pad2)_18*%
X51054000Y-85344000D03*
D23*
%TO.N,unconnected-(L1-Pad2)_7*%
X51054000Y-90424000D03*
%TO.N,unconnected-(L1-Pad2)_14*%
X53594000Y-87884000D03*
D25*
%TO.N,unconnected-(L1-Pad2)_2*%
X56134000Y-84582000D03*
D23*
%TO.N,unconnected-(L1-Pad2)_23*%
X56134000Y-90424000D03*
%TO.N,unconnected-(L1-Pad2)_5*%
X58674000Y-87884000D03*
D25*
%TO.N,unconnected-(L1-Pad2)_17*%
X61214000Y-84582000D03*
D23*
%TO.N,unconnected-(L1-Pad2)_21*%
X61214000Y-90424000D03*
%TO.N,unconnected-(L1-Pad2)_13*%
X63754000Y-87884000D03*
D25*
%TO.N,unconnected-(L1-Pad2)_11*%
X66294000Y-84582000D03*
D23*
%TO.N,unconnected-(L1-Pad2)*%
X66294000Y-90424000D03*
%TO.N,unconnected-(L1-Pad2)_6*%
X68834000Y-87884000D03*
D25*
%TO.N,unconnected-(L1-Pad2)_8*%
X71374000Y-84582000D03*
D23*
%TO.N,unconnected-(L1-Pad2)_4*%
X71374000Y-90424000D03*
%TO.N,unconnected-(L1-Pad2)_10*%
X73914000Y-87884000D03*
D25*
%TO.N,unconnected-(L1-Pad2)_3*%
X76454000Y-84582000D03*
D23*
%TO.N,unconnected-(L1-Pad2)_9*%
X76454000Y-90424000D03*
%TO.N,unconnected-(L1-Pad2)_1*%
X78994000Y-87884000D03*
D24*
%TO.N,unconnected-(L1-Pad2)_15*%
X81534000Y-85344000D03*
D23*
%TO.N,unconnected-(L1-Pad2)_19*%
X81534000Y-90424000D03*
%TO.N,unconnected-(L1-Pad2)_22*%
X84074000Y-87884000D03*
%TO.N,unconnected-(L1-Pad2)_16*%
X86614000Y-90424000D03*
%TD*%
D12*
%TO.N,GND*%
%TO.C,TP11*%
X60960000Y-43180000D03*
%TD*%
D26*
%TO.N,Vsw*%
%TO.C,J5*%
X98100000Y-104400000D03*
%TD*%
D12*
%TO.N,GND*%
%TO.C,TP2*%
X41402000Y-136250000D03*
%TD*%
%TO.N,+12V*%
%TO.C,TP3*%
X60750000Y-136271000D03*
%TD*%
D27*
%TO.N,+24V*%
%TO.C,PS1*%
X52004000Y-106462000D03*
D28*
%TO.N,GND*%
X49464000Y-106462000D03*
%TO.N,+3.3V*%
X46924000Y-106462000D03*
%TD*%
D13*
%TO.N,GND*%
%TO.C,J4*%
X152768000Y-102870000D03*
D14*
X135268000Y-102870000D03*
%TD*%
D13*
%TO.N,Vout*%
%TO.C,J3*%
X152768000Y-121920000D03*
D14*
X135268000Y-121920000D03*
%TD*%
D10*
%TO.N,GND*%
%TO.C,J15*%
X129270000Y-99500000D03*
D11*
%TO.N,Vout_sens*%
X126730000Y-99500000D03*
%TD*%
D26*
%TO.N,/L_in*%
%TO.C,J6*%
X36050000Y-56150000D03*
%TD*%
%TO.N,*%
%TO.C,HS2*%
X85123000Y-125413566D03*
X110459500Y-125410000D03*
%TD*%
D15*
%TO.N,Vout*%
%TO.C,C16*%
X126750000Y-120583250D03*
%TO.N,GND*%
X126750000Y-115583250D03*
%TD*%
D17*
%TO.N,D*%
%TO.C,Q1*%
X95346500Y-114745566D03*
D18*
%TO.N,Vsw*%
X97886500Y-114745566D03*
%TO.N,GND*%
X100426500Y-114745566D03*
%TD*%
D10*
%TO.N,GND*%
%TO.C,J9*%
X76020000Y-133500000D03*
D11*
%TO.N,D*%
X73480000Y-133500000D03*
%TD*%
D26*
%TO.N,*%
%TO.C,HS1*%
X85186500Y-110173566D03*
X110523000Y-110170000D03*
%TD*%
D10*
%TO.N,GND*%
%TO.C,J7*%
X70442000Y-105537000D03*
D11*
%TO.N,C2000 D *%
X72982000Y-105537000D03*
%TD*%
D29*
%TO.N,Vout*%
%TO.C,RV1*%
X121250000Y-121238000D03*
D30*
%TO.N,GND*%
X118750000Y-113738000D03*
%TD*%
D31*
%TO.N,Net-(U1-LO)*%
%TO.C,U1*%
X78265000Y-110424000D03*
%TO.N,GND*%
X78265000Y-112964000D03*
%TO.N,+12V*%
X78265000Y-115504000D03*
%TO.N,unconnected-(U1-NC-Pad4)*%
X78265000Y-118044000D03*
%TO.N,Vsw*%
X78265000Y-120584000D03*
%TO.N,Vboot*%
X78265000Y-123124000D03*
%TO.N,Net-(U1-HO)*%
X78265000Y-125664000D03*
%TO.N,unconnected-(U1-NC-Pad8)*%
X70645000Y-110424000D03*
%TO.N,+3.3V*%
X70645000Y-112964000D03*
%TO.N,C2000 D'*%
X70645000Y-115504000D03*
%TO.N,SD*%
X70645000Y-118044000D03*
%TO.N,C2000 D *%
X70645000Y-120584000D03*
%TO.N,GND*%
X70645000Y-123124000D03*
%TO.N,unconnected-(U1-NC-Pad14)*%
X70645000Y-125664000D03*
%TD*%
D32*
%TO.N,Vout*%
%TO.C,D1*%
X126750000Y-126809400D03*
D33*
%TO.N,GND*%
X126750000Y-108750000D03*
%TD*%
D34*
%TO.N,SD*%
X60198000Y-117221000D03*
X135001000Y-65405000D03*
%TO.N,GND*%
X34036000Y-73660000D03*
X34250000Y-65800000D03*
X99380000Y-77912000D03*
X36900000Y-61200000D03*
%TO.N,Vin_sens*%
X108600000Y-74050000D03*
X38608000Y-75692000D03*
%TD*%
D35*
%TO.N,SD*%
X71755000Y-116934000D02*
X70645000Y-118044000D01*
X87328607Y-108048566D02*
X78387434Y-108048566D01*
X128702173Y-66675000D02*
X87328607Y-108048566D01*
X129946122Y-65405000D02*
X128702173Y-66648949D01*
X71755000Y-114681000D02*
X71755000Y-116934000D01*
X135001000Y-65405000D02*
X129946122Y-65405000D01*
X78387434Y-108048566D02*
X71755000Y-114681000D01*
X128702173Y-66648949D02*
X128702173Y-66675000D01*
D36*
%TO.N,GND*%
X93663634Y-113295566D02*
X98976500Y-113295566D01*
X92252800Y-114706400D02*
X93663634Y-113295566D01*
X83464400Y-114706400D02*
X92252800Y-114706400D01*
X98976500Y-113295566D02*
X100426500Y-114745566D01*
X78265000Y-112964000D02*
X81722000Y-112964000D01*
X81722000Y-112964000D02*
X83464400Y-114706400D01*
%TO.N,Vsw*%
X80363000Y-122682000D02*
X78265000Y-120584000D01*
X93442566Y-122682000D02*
X80363000Y-122682000D01*
X95283000Y-120841566D02*
X93442566Y-122682000D01*
%TO.N,C2000 D *%
X72982000Y-105537000D02*
X75769000Y-102750000D01*
X75769000Y-102750000D02*
X90824050Y-102750000D01*
X90824050Y-102750000D02*
X96458000Y-97116050D01*
X96458000Y-97090000D02*
X143510000Y-50038000D01*
%TO.N,C2000 D'*%
X90814000Y-103750000D02*
X117602000Y-76962000D01*
X117602000Y-76935950D02*
X141959950Y-52578000D01*
X75692000Y-105537000D02*
X77479000Y-103750000D01*
X77479000Y-103750000D02*
X90814000Y-103750000D01*
X141959950Y-52578000D02*
X143510000Y-52578000D01*
%TD*%
%TA.AperFunction,Conductor*%
%TO.N,GND*%
G36*
X154044756Y-40402613D02*
G01*
X154274667Y-40535352D01*
X154285549Y-40542419D01*
X154567389Y-40747188D01*
X154577472Y-40755353D01*
X154836362Y-40988459D01*
X154845540Y-40997637D01*
X155078642Y-41256523D01*
X155086810Y-41266609D01*
X155170318Y-41381547D01*
X155193798Y-41447352D01*
X155194000Y-41454432D01*
X155194000Y-117988500D01*
X155174315Y-118055539D01*
X155121511Y-118101294D01*
X155070000Y-118112500D01*
X96898000Y-118112500D01*
X96897991Y-118112500D01*
X96897990Y-118112501D01*
X96790549Y-118124052D01*
X96790537Y-118124054D01*
X96739027Y-118135260D01*
X96636502Y-118169383D01*
X96636496Y-118169386D01*
X96515462Y-118247171D01*
X96515451Y-118247179D01*
X96462659Y-118292923D01*
X96368433Y-118401664D01*
X96368430Y-118401668D01*
X96308664Y-118532534D01*
X96288976Y-118599582D01*
X96279904Y-118662679D01*
X96268831Y-118739702D01*
X96268500Y-118742001D01*
X96268500Y-119470703D01*
X96248815Y-119537742D01*
X96196011Y-119583497D01*
X96126853Y-119593441D01*
X96071614Y-119571021D01*
X96044538Y-119551349D01*
X95840755Y-119447516D01*
X95623248Y-119376844D01*
X95453826Y-119350010D01*
X95397354Y-119341066D01*
X95168646Y-119341066D01*
X95093349Y-119352992D01*
X94942753Y-119376844D01*
X94942750Y-119376844D01*
X94725244Y-119447516D01*
X94521461Y-119551349D01*
X94427897Y-119619328D01*
X94336434Y-119685780D01*
X94336432Y-119685782D01*
X94336431Y-119685782D01*
X94174716Y-119847497D01*
X94174716Y-119847498D01*
X94174714Y-119847500D01*
X94116980Y-119926962D01*
X94040283Y-120032527D01*
X93936450Y-120236310D01*
X93865778Y-120453816D01*
X93865778Y-120453819D01*
X93830000Y-120679712D01*
X93830000Y-121003425D01*
X93851533Y-121139376D01*
X93842579Y-121208669D01*
X93816741Y-121246455D01*
X93168017Y-121895181D01*
X93106694Y-121928666D01*
X93080336Y-121931500D01*
X80725230Y-121931500D01*
X80658191Y-121911815D01*
X80637549Y-121895181D01*
X79549254Y-120806886D01*
X79515769Y-120745563D01*
X79513407Y-120708401D01*
X79524291Y-120584000D01*
X79519696Y-120531483D01*
X79506641Y-120382255D01*
X79505160Y-120365326D01*
X79448346Y-120153297D01*
X79355578Y-119954355D01*
X79229673Y-119774543D01*
X79074457Y-119619327D01*
X79074453Y-119619324D01*
X79074452Y-119619323D01*
X78894650Y-119493424D01*
X78894642Y-119493420D01*
X78796204Y-119447518D01*
X78750876Y-119426381D01*
X78698437Y-119380210D01*
X78679285Y-119313017D01*
X78699500Y-119246136D01*
X78750877Y-119201618D01*
X78894646Y-119134578D01*
X79074457Y-119008673D01*
X79229673Y-118853457D01*
X79355578Y-118673646D01*
X79448346Y-118474703D01*
X79505160Y-118262674D01*
X79520954Y-118082142D01*
X79524291Y-118044002D01*
X79524291Y-118043997D01*
X79505160Y-117825331D01*
X79505160Y-117825326D01*
X79448346Y-117613297D01*
X79355578Y-117414355D01*
X79292625Y-117324449D01*
X79229674Y-117234544D01*
X79216130Y-117221000D01*
X79074457Y-117079327D01*
X79074453Y-117079324D01*
X79074452Y-117079323D01*
X78894650Y-116953424D01*
X78894642Y-116953420D01*
X78750877Y-116886382D01*
X78698437Y-116840210D01*
X78679285Y-116773017D01*
X78699500Y-116706136D01*
X78750877Y-116661618D01*
X78894646Y-116594578D01*
X79074457Y-116468673D01*
X79229673Y-116313457D01*
X79355578Y-116133646D01*
X79448346Y-115934703D01*
X79505160Y-115722674D01*
X79524291Y-115504000D01*
X79505160Y-115285326D01*
X79448346Y-115073297D01*
X79355578Y-114874355D01*
X79229673Y-114694543D01*
X79074457Y-114539327D01*
X79074453Y-114539324D01*
X79074452Y-114539323D01*
X78894650Y-114413424D01*
X78894642Y-114413420D01*
X78695708Y-114320656D01*
X78695706Y-114320655D01*
X78695703Y-114320654D01*
X78544885Y-114280241D01*
X78483675Y-114263840D01*
X78483668Y-114263839D01*
X78265002Y-114244709D01*
X78264998Y-114244709D01*
X78046331Y-114263839D01*
X78046324Y-114263840D01*
X77834293Y-114320655D01*
X77635356Y-114413421D01*
X77635354Y-114413422D01*
X77455540Y-114539328D01*
X77300328Y-114694540D01*
X77174422Y-114874354D01*
X77174421Y-114874356D01*
X77081655Y-115073293D01*
X77024840Y-115285324D01*
X77024839Y-115285331D01*
X77005709Y-115503997D01*
X77005709Y-115504000D01*
X77024840Y-115722674D01*
X77081654Y-115934703D01*
X77081655Y-115934706D01*
X77081656Y-115934708D01*
X77174420Y-116133642D01*
X77174424Y-116133650D01*
X77300323Y-116313452D01*
X77300328Y-116313458D01*
X77455541Y-116468671D01*
X77455547Y-116468676D01*
X77635349Y-116594575D01*
X77635351Y-116594576D01*
X77635354Y-116594578D01*
X77712313Y-116630464D01*
X77779122Y-116661618D01*
X77831562Y-116707790D01*
X77850714Y-116774984D01*
X77830498Y-116841865D01*
X77779123Y-116886382D01*
X77635356Y-116953421D01*
X77635354Y-116953422D01*
X77455540Y-117079328D01*
X77300328Y-117234540D01*
X77174422Y-117414354D01*
X77174421Y-117414356D01*
X77081655Y-117613293D01*
X77024840Y-117825324D01*
X77024839Y-117825331D01*
X77005709Y-118043997D01*
X77005709Y-118044002D01*
X77023483Y-118247171D01*
X77024840Y-118262674D01*
X77081654Y-118474703D01*
X77081655Y-118474706D01*
X77081656Y-118474708D01*
X77174420Y-118673642D01*
X77174424Y-118673650D01*
X77300323Y-118853452D01*
X77300328Y-118853458D01*
X77455541Y-119008671D01*
X77455547Y-119008676D01*
X77635349Y-119134575D01*
X77635351Y-119134576D01*
X77635354Y-119134578D01*
X77712313Y-119170464D01*
X77779122Y-119201618D01*
X77831562Y-119247790D01*
X77850714Y-119314984D01*
X77830498Y-119381865D01*
X77779123Y-119426382D01*
X77635356Y-119493421D01*
X77635354Y-119493422D01*
X77455540Y-119619328D01*
X77300328Y-119774540D01*
X77174422Y-119954354D01*
X77174421Y-119954356D01*
X77081655Y-120153293D01*
X77024840Y-120365324D01*
X77024839Y-120365331D01*
X77005709Y-120583997D01*
X77005709Y-120584002D01*
X77024839Y-120802668D01*
X77024840Y-120802675D01*
X77026347Y-120808298D01*
X77081654Y-121014703D01*
X77081655Y-121014706D01*
X77081656Y-121014708D01*
X77174420Y-121213642D01*
X77174424Y-121213650D01*
X77300323Y-121393452D01*
X77300328Y-121393458D01*
X77455541Y-121548671D01*
X77455547Y-121548676D01*
X77635349Y-121674575D01*
X77635351Y-121674576D01*
X77635354Y-121674578D01*
X77712313Y-121710464D01*
X77779122Y-121741618D01*
X77831562Y-121787790D01*
X77850714Y-121854984D01*
X77830498Y-121921865D01*
X77779123Y-121966382D01*
X77635356Y-122033421D01*
X77635354Y-122033422D01*
X77455540Y-122159328D01*
X77300328Y-122314540D01*
X77174422Y-122494354D01*
X77174421Y-122494356D01*
X77081655Y-122693293D01*
X77024840Y-122905324D01*
X77024839Y-122905331D01*
X77005709Y-123123997D01*
X77005709Y-123124002D01*
X77024839Y-123342668D01*
X77024840Y-123342675D01*
X77026022Y-123347085D01*
X77081654Y-123554703D01*
X77081655Y-123554706D01*
X77081656Y-123554708D01*
X77174420Y-123753642D01*
X77174424Y-123753650D01*
X77300323Y-123933452D01*
X77300328Y-123933458D01*
X77455541Y-124088671D01*
X77455547Y-124088676D01*
X77635349Y-124214575D01*
X77635351Y-124214576D01*
X77635354Y-124214578D01*
X77712313Y-124250464D01*
X77779122Y-124281618D01*
X77831562Y-124327790D01*
X77850714Y-124394984D01*
X77830498Y-124461865D01*
X77779123Y-124506382D01*
X77635356Y-124573421D01*
X77635354Y-124573422D01*
X77455540Y-124699328D01*
X77300328Y-124854540D01*
X77174422Y-125034354D01*
X77174421Y-125034356D01*
X77081655Y-125233293D01*
X77024840Y-125445324D01*
X77024839Y-125445331D01*
X77005709Y-125663997D01*
X77005709Y-125664002D01*
X77010126Y-125714496D01*
X77024840Y-125882674D01*
X77081654Y-126094703D01*
X77081655Y-126094706D01*
X77081656Y-126094708D01*
X77174420Y-126293642D01*
X77174424Y-126293650D01*
X77300323Y-126473452D01*
X77300328Y-126473458D01*
X77455541Y-126628671D01*
X77455547Y-126628676D01*
X77635349Y-126754575D01*
X77635351Y-126754576D01*
X77635354Y-126754578D01*
X77834297Y-126847346D01*
X78046326Y-126904160D01*
X78202521Y-126917825D01*
X78264998Y-126923291D01*
X78265000Y-126923291D01*
X78265002Y-126923291D01*
X78319668Y-126918508D01*
X78483674Y-126904160D01*
X78695703Y-126847346D01*
X78894646Y-126754578D01*
X79074457Y-126628673D01*
X79229673Y-126473457D01*
X79355578Y-126293646D01*
X79448346Y-126094703D01*
X79505160Y-125882674D01*
X79524291Y-125664000D01*
X79505160Y-125445326D01*
X79448346Y-125233297D01*
X79355578Y-125034355D01*
X79229673Y-124854543D01*
X79074457Y-124699327D01*
X79074453Y-124699324D01*
X79074452Y-124699323D01*
X78894650Y-124573424D01*
X78894642Y-124573420D01*
X78750877Y-124506382D01*
X78698437Y-124460210D01*
X78679285Y-124393017D01*
X78699500Y-124326136D01*
X78750877Y-124281618D01*
X78795410Y-124260852D01*
X78894646Y-124214578D01*
X79074457Y-124088673D01*
X79229673Y-123933457D01*
X79355578Y-123753646D01*
X79448346Y-123554703D01*
X79505160Y-123342674D01*
X79518761Y-123187209D01*
X79544212Y-123122143D01*
X79600802Y-123081164D01*
X79670564Y-123077285D01*
X79729969Y-123110337D01*
X79884586Y-123264954D01*
X79914058Y-123284645D01*
X79958270Y-123314186D01*
X80007505Y-123347084D01*
X80007506Y-123347084D01*
X80007507Y-123347085D01*
X80007509Y-123347086D01*
X80144082Y-123403656D01*
X80144087Y-123403658D01*
X80144091Y-123403658D01*
X80144092Y-123403659D01*
X80289079Y-123432500D01*
X80289082Y-123432500D01*
X80289083Y-123432500D01*
X80436917Y-123432500D01*
X83563448Y-123432500D01*
X83630487Y-123452185D01*
X83676242Y-123504989D01*
X83686186Y-123574147D01*
X83657161Y-123637703D01*
X83645207Y-123649728D01*
X83492810Y-123783376D01*
X83293973Y-124010106D01*
X83126435Y-124260845D01*
X83126431Y-124260852D01*
X82993062Y-124531297D01*
X82993053Y-124531318D01*
X82896122Y-124816867D01*
X82896118Y-124816882D01*
X82837288Y-125112635D01*
X82837287Y-125112645D01*
X82837287Y-125112646D01*
X82817564Y-125413566D01*
X82819645Y-125445324D01*
X82837287Y-125714484D01*
X82837288Y-125714496D01*
X82896118Y-126010249D01*
X82896122Y-126010264D01*
X82993053Y-126295813D01*
X82993062Y-126295834D01*
X83126431Y-126566279D01*
X83126435Y-126566286D01*
X83293973Y-126817025D01*
X83492810Y-127043755D01*
X83719540Y-127242592D01*
X83970279Y-127410130D01*
X83970286Y-127410134D01*
X84240731Y-127543503D01*
X84240736Y-127543505D01*
X84240748Y-127543511D01*
X84526309Y-127640446D01*
X84726251Y-127680217D01*
X84822069Y-127699277D01*
X84822070Y-127699277D01*
X84822080Y-127699279D01*
X85123000Y-127719002D01*
X85423920Y-127699279D01*
X85719691Y-127640446D01*
X86005252Y-127543511D01*
X86275718Y-127410132D01*
X86526461Y-127242591D01*
X86753189Y-127043755D01*
X86952025Y-126817027D01*
X87119566Y-126566284D01*
X87252945Y-126295818D01*
X87349880Y-126010257D01*
X87408713Y-125714486D01*
X87428436Y-125413566D01*
X87408713Y-125112646D01*
X87349880Y-124816875D01*
X87252945Y-124531314D01*
X87227963Y-124480656D01*
X87119568Y-124260852D01*
X87119564Y-124260845D01*
X86952026Y-124010106D01*
X86753189Y-123783376D01*
X86600793Y-123649728D01*
X86563369Y-123590726D01*
X86563785Y-123520858D01*
X86601909Y-123462305D01*
X86665636Y-123433659D01*
X86682552Y-123432500D01*
X93516486Y-123432500D01*
X93614028Y-123413096D01*
X93661479Y-123403658D01*
X93798061Y-123347084D01*
X93847295Y-123314186D01*
X93847300Y-123314183D01*
X93890499Y-123285319D01*
X93920982Y-123264952D01*
X94843600Y-122342332D01*
X94904921Y-122308849D01*
X94950673Y-122307542D01*
X95168646Y-122342066D01*
X95168647Y-122342066D01*
X95397353Y-122342066D01*
X95397354Y-122342066D01*
X95623245Y-122306288D01*
X95623248Y-122306287D01*
X95623249Y-122306287D01*
X95840755Y-122235615D01*
X95840755Y-122235614D01*
X95840758Y-122235614D01*
X96044538Y-122131783D01*
X96071613Y-122112111D01*
X96137418Y-122088630D01*
X96205472Y-122104454D01*
X96254168Y-122154559D01*
X96268500Y-122212428D01*
X96268500Y-140338000D01*
X96248815Y-140405039D01*
X96196011Y-140450794D01*
X96144500Y-140462000D01*
X20769244Y-140462000D01*
X20707244Y-140445387D01*
X20637359Y-140405039D01*
X20543749Y-140350993D01*
X20477332Y-140312647D01*
X20466447Y-140305578D01*
X20184614Y-140100814D01*
X20174527Y-140092646D01*
X19915637Y-139859540D01*
X19906459Y-139850362D01*
X19673353Y-139591472D01*
X19665185Y-139581385D01*
X19460421Y-139299552D01*
X19453352Y-139288667D01*
X19320613Y-139058755D01*
X19304000Y-138996755D01*
X19304000Y-137292711D01*
X20501500Y-137292711D01*
X20501500Y-137535288D01*
X20533161Y-137775785D01*
X20595947Y-138010104D01*
X20642636Y-138122821D01*
X20688776Y-138234212D01*
X20810064Y-138444289D01*
X20810066Y-138444292D01*
X20810067Y-138444293D01*
X20957733Y-138636736D01*
X20957739Y-138636743D01*
X21129256Y-138808260D01*
X21129262Y-138808265D01*
X21321711Y-138955936D01*
X21531788Y-139077224D01*
X21755900Y-139170054D01*
X21990211Y-139232838D01*
X22126307Y-139250755D01*
X22230711Y-139264500D01*
X22230712Y-139264500D01*
X22473289Y-139264500D01*
X22521388Y-139258167D01*
X22713789Y-139232838D01*
X22948100Y-139170054D01*
X23172212Y-139077224D01*
X23382289Y-138955936D01*
X23574738Y-138808265D01*
X23746265Y-138636738D01*
X23893936Y-138444289D01*
X24015224Y-138234212D01*
X24108054Y-138010100D01*
X24170838Y-137775789D01*
X24202500Y-137535288D01*
X24202500Y-137292712D01*
X24170838Y-137052211D01*
X24108054Y-136817900D01*
X24015224Y-136593788D01*
X23893936Y-136383711D01*
X23791332Y-136249994D01*
X23746266Y-136191263D01*
X23746260Y-136191256D01*
X23574743Y-136019739D01*
X23574736Y-136019733D01*
X23549012Y-135999994D01*
X30744357Y-135999994D01*
X30744357Y-136000005D01*
X30764890Y-136247812D01*
X30764892Y-136247824D01*
X30825936Y-136488881D01*
X30925826Y-136716606D01*
X31061833Y-136924782D01*
X31061836Y-136924785D01*
X31230256Y-137107738D01*
X31426491Y-137260474D01*
X31645190Y-137378828D01*
X31880386Y-137459571D01*
X32125665Y-137500500D01*
X32374335Y-137500500D01*
X32619614Y-137459571D01*
X32854810Y-137378828D01*
X33073509Y-137260474D01*
X33269744Y-137107738D01*
X33438164Y-136924785D01*
X33574173Y-136716607D01*
X33674063Y-136488881D01*
X33734558Y-136249994D01*
X49494357Y-136249994D01*
X49494357Y-136250005D01*
X49514890Y-136497812D01*
X49514892Y-136497824D01*
X49575936Y-136738881D01*
X49675826Y-136966606D01*
X49811833Y-137174782D01*
X49811836Y-137174785D01*
X49980256Y-137357738D01*
X50176491Y-137510474D01*
X50222343Y-137535288D01*
X50304675Y-137579844D01*
X50395190Y-137628828D01*
X50630386Y-137709571D01*
X50875665Y-137750500D01*
X51124335Y-137750500D01*
X51369614Y-137709571D01*
X51604810Y-137628828D01*
X51823509Y-137510474D01*
X52019744Y-137357738D01*
X52188164Y-137174785D01*
X52324173Y-136966607D01*
X52424063Y-136738881D01*
X52485108Y-136497821D01*
X52485849Y-136488881D01*
X52503904Y-136270994D01*
X59244357Y-136270994D01*
X59244357Y-136271005D01*
X59264890Y-136518812D01*
X59264892Y-136518824D01*
X59325936Y-136759881D01*
X59425826Y-136987606D01*
X59561833Y-137195782D01*
X59561836Y-137195785D01*
X59730256Y-137378738D01*
X59926491Y-137531474D01*
X59926493Y-137531475D01*
X60106383Y-137628827D01*
X60145190Y-137649828D01*
X60380386Y-137730571D01*
X60625665Y-137771500D01*
X60874335Y-137771500D01*
X61119614Y-137730571D01*
X61354810Y-137649828D01*
X61555908Y-137540999D01*
X72374785Y-137540999D01*
X72374785Y-137541000D01*
X72393602Y-137744082D01*
X72449417Y-137940247D01*
X72449422Y-137940260D01*
X72540327Y-138122821D01*
X72663237Y-138285581D01*
X72813958Y-138422980D01*
X72813960Y-138422982D01*
X72848379Y-138444293D01*
X72987363Y-138530348D01*
X73177544Y-138604024D01*
X73378024Y-138641500D01*
X73378026Y-138641500D01*
X73581974Y-138641500D01*
X73581976Y-138641500D01*
X73782456Y-138604024D01*
X73972637Y-138530348D01*
X74146041Y-138422981D01*
X74296764Y-138285579D01*
X74419673Y-138122821D01*
X74510582Y-137940250D01*
X74566397Y-137744083D01*
X74585215Y-137541000D01*
X74566397Y-137337917D01*
X74510582Y-137141750D01*
X74419673Y-136959179D01*
X74312984Y-136817900D01*
X74296762Y-136796418D01*
X74146041Y-136659019D01*
X74146039Y-136659017D01*
X73972642Y-136551655D01*
X73972635Y-136551651D01*
X73810605Y-136488881D01*
X73782456Y-136477976D01*
X73581976Y-136440500D01*
X73378024Y-136440500D01*
X73177544Y-136477976D01*
X73177541Y-136477976D01*
X73177541Y-136477977D01*
X72987364Y-136551651D01*
X72987357Y-136551655D01*
X72813960Y-136659017D01*
X72813958Y-136659019D01*
X72663237Y-136796418D01*
X72540327Y-136959178D01*
X72449422Y-137141739D01*
X72449417Y-137141752D01*
X72393602Y-137337917D01*
X72374785Y-137540999D01*
X61555908Y-137540999D01*
X61573509Y-137531474D01*
X61769744Y-137378738D01*
X61938164Y-137195785D01*
X62074173Y-136987607D01*
X62174063Y-136759881D01*
X62235108Y-136518821D01*
X62237589Y-136488881D01*
X62255643Y-136271005D01*
X62255643Y-136270994D01*
X62235109Y-136023187D01*
X62235107Y-136023175D01*
X62174063Y-135782118D01*
X62074173Y-135554393D01*
X61938166Y-135346217D01*
X61880332Y-135283393D01*
X61769744Y-135163262D01*
X61573509Y-135010526D01*
X61573507Y-135010525D01*
X61573506Y-135010524D01*
X61354811Y-134892172D01*
X61354802Y-134892169D01*
X61119616Y-134811429D01*
X60874335Y-134770500D01*
X60625665Y-134770500D01*
X60380383Y-134811429D01*
X60145197Y-134892169D01*
X60145188Y-134892172D01*
X59926493Y-135010524D01*
X59730257Y-135163261D01*
X59561833Y-135346217D01*
X59425826Y-135554393D01*
X59325936Y-135782118D01*
X59264892Y-136023175D01*
X59264890Y-136023187D01*
X59244357Y-136270994D01*
X52503904Y-136270994D01*
X52505643Y-136250005D01*
X52505643Y-136249994D01*
X52485109Y-136002187D01*
X52485107Y-136002175D01*
X52424063Y-135761118D01*
X52324173Y-135533393D01*
X52188166Y-135325217D01*
X52149664Y-135283393D01*
X52019744Y-135142262D01*
X51823509Y-134989526D01*
X51823507Y-134989525D01*
X51823506Y-134989524D01*
X51604811Y-134871172D01*
X51604802Y-134871169D01*
X51369616Y-134790429D01*
X51124335Y-134749500D01*
X50875665Y-134749500D01*
X50630383Y-134790429D01*
X50395197Y-134871169D01*
X50395188Y-134871172D01*
X50176493Y-134989524D01*
X49980257Y-135142261D01*
X49811833Y-135325217D01*
X49675826Y-135533393D01*
X49575936Y-135761118D01*
X49514892Y-136002175D01*
X49514890Y-136002187D01*
X49494357Y-136249994D01*
X33734558Y-136249994D01*
X33735108Y-136247821D01*
X33753722Y-136023187D01*
X33755643Y-136000005D01*
X33755643Y-135999994D01*
X33735109Y-135752187D01*
X33735107Y-135752175D01*
X33674063Y-135511118D01*
X33574173Y-135283393D01*
X33438166Y-135075217D01*
X33416557Y-135051744D01*
X33269744Y-134892262D01*
X33073509Y-134739526D01*
X33073507Y-134739525D01*
X33073506Y-134739524D01*
X32854811Y-134621172D01*
X32854802Y-134621169D01*
X32619616Y-134540429D01*
X32374335Y-134499500D01*
X32125665Y-134499500D01*
X31880383Y-134540429D01*
X31645197Y-134621169D01*
X31645188Y-134621172D01*
X31426493Y-134739524D01*
X31230257Y-134892261D01*
X31061833Y-135075217D01*
X30925826Y-135283393D01*
X30825936Y-135511118D01*
X30764892Y-135752175D01*
X30764890Y-135752187D01*
X30744357Y-135999994D01*
X23549012Y-135999994D01*
X23382293Y-135872067D01*
X23382292Y-135872066D01*
X23382289Y-135872064D01*
X23172212Y-135750776D01*
X23172205Y-135750773D01*
X22948104Y-135657947D01*
X22713785Y-135595161D01*
X22473289Y-135563500D01*
X22473288Y-135563500D01*
X22230712Y-135563500D01*
X22230711Y-135563500D01*
X21990214Y-135595161D01*
X21755895Y-135657947D01*
X21531794Y-135750773D01*
X21531785Y-135750777D01*
X21321706Y-135872067D01*
X21129263Y-136019733D01*
X21129256Y-136019739D01*
X20957739Y-136191256D01*
X20957733Y-136191263D01*
X20810067Y-136383706D01*
X20688777Y-136593785D01*
X20688773Y-136593794D01*
X20595947Y-136817895D01*
X20533161Y-137052214D01*
X20501500Y-137292711D01*
X19304000Y-137292711D01*
X19304000Y-133499999D01*
X72374785Y-133499999D01*
X72374785Y-133500000D01*
X72393602Y-133703082D01*
X72449417Y-133899247D01*
X72449422Y-133899260D01*
X72540327Y-134081821D01*
X72663237Y-134244581D01*
X72813958Y-134381980D01*
X72813960Y-134381982D01*
X72913141Y-134443392D01*
X72987363Y-134489348D01*
X73177544Y-134563024D01*
X73378024Y-134600500D01*
X73378026Y-134600500D01*
X73581974Y-134600500D01*
X73581976Y-134600500D01*
X73782456Y-134563024D01*
X73972637Y-134489348D01*
X74146041Y-134381981D01*
X74296764Y-134244579D01*
X74419673Y-134081821D01*
X74510582Y-133899250D01*
X74566397Y-133703083D01*
X74585215Y-133500000D01*
X74566397Y-133296917D01*
X74510582Y-133100750D01*
X74419673Y-132918179D01*
X74296764Y-132755421D01*
X74296762Y-132755418D01*
X74146041Y-132618019D01*
X74146039Y-132618017D01*
X73972642Y-132510655D01*
X73972635Y-132510651D01*
X73877546Y-132473814D01*
X73782456Y-132436976D01*
X73581976Y-132399500D01*
X73378024Y-132399500D01*
X73177544Y-132436976D01*
X73177541Y-132436976D01*
X73177541Y-132436977D01*
X72987364Y-132510651D01*
X72987357Y-132510655D01*
X72813960Y-132618017D01*
X72813958Y-132618019D01*
X72663237Y-132755418D01*
X72540327Y-132918178D01*
X72449422Y-133100739D01*
X72449417Y-133100752D01*
X72393602Y-133296917D01*
X72374785Y-133499999D01*
X19304000Y-133499999D01*
X19304000Y-129499999D01*
X72374785Y-129499999D01*
X72374785Y-129500000D01*
X72393602Y-129703082D01*
X72449417Y-129899247D01*
X72449422Y-129899260D01*
X72540327Y-130081821D01*
X72663237Y-130244581D01*
X72813958Y-130381980D01*
X72813960Y-130381982D01*
X72913141Y-130443392D01*
X72987363Y-130489348D01*
X73177544Y-130563024D01*
X73378024Y-130600500D01*
X73378026Y-130600500D01*
X73581974Y-130600500D01*
X73581976Y-130600500D01*
X73782456Y-130563024D01*
X73972637Y-130489348D01*
X74146041Y-130381981D01*
X74296764Y-130244579D01*
X74419673Y-130081821D01*
X74510582Y-129899250D01*
X74566397Y-129703083D01*
X74585215Y-129500000D01*
X74566397Y-129296917D01*
X74510582Y-129100750D01*
X74419673Y-128918179D01*
X74296764Y-128755421D01*
X74296762Y-128755418D01*
X74146041Y-128618019D01*
X74146039Y-128618017D01*
X73972642Y-128510655D01*
X73972635Y-128510651D01*
X73877546Y-128473814D01*
X73782456Y-128436976D01*
X73581976Y-128399500D01*
X73378024Y-128399500D01*
X73177544Y-128436976D01*
X73177541Y-128436976D01*
X73177541Y-128436977D01*
X72987364Y-128510651D01*
X72987357Y-128510655D01*
X72813960Y-128618017D01*
X72813958Y-128618019D01*
X72663237Y-128755418D01*
X72540327Y-128918178D01*
X72449422Y-129100739D01*
X72449417Y-129100752D01*
X72393602Y-129296917D01*
X72374785Y-129499999D01*
X19304000Y-129499999D01*
X19304000Y-125663997D01*
X69385709Y-125663997D01*
X69385709Y-125664002D01*
X69390126Y-125714496D01*
X69404840Y-125882674D01*
X69461654Y-126094703D01*
X69461655Y-126094706D01*
X69461656Y-126094708D01*
X69554420Y-126293642D01*
X69554424Y-126293650D01*
X69680323Y-126473452D01*
X69680328Y-126473458D01*
X69835541Y-126628671D01*
X69835547Y-126628676D01*
X70015349Y-126754575D01*
X70015351Y-126754576D01*
X70015354Y-126754578D01*
X70214297Y-126847346D01*
X70426326Y-126904160D01*
X70582521Y-126917825D01*
X70644998Y-126923291D01*
X70645000Y-126923291D01*
X70645002Y-126923291D01*
X70699668Y-126918508D01*
X70863674Y-126904160D01*
X71075703Y-126847346D01*
X71274646Y-126754578D01*
X71454457Y-126628673D01*
X71609673Y-126473457D01*
X71735578Y-126293646D01*
X71828346Y-126094703D01*
X71885160Y-125882674D01*
X71904291Y-125664000D01*
X71885160Y-125445326D01*
X71828346Y-125233297D01*
X71735578Y-125034355D01*
X71609673Y-124854543D01*
X71454457Y-124699327D01*
X71454453Y-124699324D01*
X71454452Y-124699323D01*
X71274650Y-124573424D01*
X71274642Y-124573420D01*
X71075708Y-124480656D01*
X71075706Y-124480655D01*
X71075703Y-124480654D01*
X70924885Y-124440241D01*
X70863675Y-124423840D01*
X70863668Y-124423839D01*
X70645002Y-124404709D01*
X70644998Y-124404709D01*
X70426331Y-124423839D01*
X70426324Y-124423840D01*
X70214293Y-124480655D01*
X70015356Y-124573421D01*
X70015354Y-124573422D01*
X69835540Y-124699328D01*
X69680328Y-124854540D01*
X69554422Y-125034354D01*
X69554421Y-125034356D01*
X69461655Y-125233293D01*
X69404840Y-125445324D01*
X69404839Y-125445331D01*
X69385709Y-125663997D01*
X19304000Y-125663997D01*
X19304000Y-120974000D01*
X48177474Y-120974000D01*
X48197547Y-121229064D01*
X48197547Y-121229067D01*
X48197548Y-121229070D01*
X48237015Y-121393458D01*
X48257279Y-121477864D01*
X48355188Y-121714239D01*
X48355190Y-121714242D01*
X48488875Y-121932396D01*
X48488878Y-121932401D01*
X48564200Y-122020591D01*
X48655044Y-122126956D01*
X48710126Y-122174000D01*
X48849598Y-122293121D01*
X48849600Y-122293122D01*
X48849601Y-122293123D01*
X48929469Y-122342066D01*
X49067757Y-122426809D01*
X49067760Y-122426811D01*
X49304135Y-122524720D01*
X49304140Y-122524722D01*
X49552930Y-122584452D01*
X49808000Y-122604526D01*
X50063070Y-122584452D01*
X50311860Y-122524722D01*
X50430051Y-122475765D01*
X50548239Y-122426811D01*
X50548240Y-122426810D01*
X50548243Y-122426809D01*
X50766399Y-122293123D01*
X50905876Y-122173999D01*
X51502571Y-122173999D01*
X51502571Y-122174000D01*
X51522244Y-122386310D01*
X51580596Y-122591392D01*
X51580596Y-122591394D01*
X51675632Y-122782253D01*
X51804127Y-122952406D01*
X51804128Y-122952407D01*
X51961698Y-123096052D01*
X52142981Y-123208298D01*
X52341802Y-123285321D01*
X52551390Y-123324500D01*
X52551392Y-123324500D01*
X52764608Y-123324500D01*
X52764610Y-123324500D01*
X52974198Y-123285321D01*
X53173019Y-123208298D01*
X53354302Y-123096052D01*
X53511872Y-122952407D01*
X53640366Y-122782255D01*
X53640367Y-122782253D01*
X53735403Y-122591394D01*
X53735403Y-122591393D01*
X53735405Y-122591389D01*
X53788734Y-122403959D01*
X53826014Y-122344867D01*
X53889323Y-122315310D01*
X53958563Y-122324672D01*
X54011749Y-122369982D01*
X54027266Y-122403960D01*
X54080596Y-122591392D01*
X54080596Y-122591394D01*
X54175632Y-122782253D01*
X54304127Y-122952406D01*
X54304128Y-122952407D01*
X54461698Y-123096052D01*
X54642981Y-123208298D01*
X54841802Y-123285321D01*
X55051390Y-123324500D01*
X55051392Y-123324500D01*
X55264608Y-123324500D01*
X55264610Y-123324500D01*
X55474198Y-123285321D01*
X55673019Y-123208298D01*
X55854302Y-123096052D01*
X56011872Y-122952407D01*
X56140366Y-122782255D01*
X56140367Y-122782253D01*
X56235403Y-122591394D01*
X56235403Y-122591393D01*
X56235405Y-122591389D01*
X56288734Y-122403959D01*
X56326014Y-122344867D01*
X56389323Y-122315310D01*
X56458563Y-122324672D01*
X56511749Y-122369982D01*
X56527266Y-122403960D01*
X56580596Y-122591392D01*
X56580596Y-122591394D01*
X56675632Y-122782253D01*
X56804127Y-122952406D01*
X56804128Y-122952407D01*
X56961698Y-123096052D01*
X57142981Y-123208298D01*
X57341802Y-123285321D01*
X57551390Y-123324500D01*
X57551392Y-123324500D01*
X57764608Y-123324500D01*
X57764610Y-123324500D01*
X57974198Y-123285321D01*
X58173019Y-123208298D01*
X58354302Y-123096052D01*
X58511872Y-122952407D01*
X58640366Y-122782255D01*
X58640367Y-122782253D01*
X58735403Y-122591394D01*
X58735403Y-122591393D01*
X58735405Y-122591389D01*
X58793756Y-122386310D01*
X58813429Y-122174000D01*
X58793756Y-121961690D01*
X58735405Y-121756611D01*
X58735403Y-121756606D01*
X58735403Y-121756605D01*
X58640367Y-121565746D01*
X58511872Y-121395593D01*
X58509523Y-121393452D01*
X58354302Y-121251948D01*
X58354299Y-121251946D01*
X58354298Y-121251945D01*
X58195991Y-121153926D01*
X58149355Y-121101898D01*
X58138251Y-121032917D01*
X58166204Y-120968882D01*
X58224339Y-120930126D01*
X58261267Y-120924499D01*
X58355872Y-120924499D01*
X58415483Y-120918091D01*
X58550331Y-120867796D01*
X58665546Y-120781546D01*
X58665548Y-120781542D01*
X58671817Y-120775275D01*
X58673630Y-120777088D01*
X58718751Y-120743300D01*
X58788442Y-120738305D01*
X58849771Y-120771780D01*
X58883265Y-120833098D01*
X58885721Y-120869203D01*
X58878047Y-120966713D01*
X58877474Y-120974000D01*
X58879283Y-120996986D01*
X58897547Y-121229064D01*
X58897547Y-121229067D01*
X58897548Y-121229070D01*
X58937015Y-121393458D01*
X58957279Y-121477864D01*
X59055188Y-121714239D01*
X59055190Y-121714242D01*
X59188875Y-121932396D01*
X59188878Y-121932401D01*
X59264200Y-122020591D01*
X59355044Y-122126956D01*
X59410126Y-122174000D01*
X59549598Y-122293121D01*
X59549600Y-122293122D01*
X59549601Y-122293123D01*
X59629469Y-122342066D01*
X59767757Y-122426809D01*
X59767760Y-122426811D01*
X60004135Y-122524720D01*
X60004140Y-122524722D01*
X60252930Y-122584452D01*
X60508000Y-122604526D01*
X60763070Y-122584452D01*
X61011860Y-122524722D01*
X61130051Y-122475765D01*
X61248239Y-122426811D01*
X61248240Y-122426810D01*
X61248243Y-122426809D01*
X61466399Y-122293123D01*
X61660956Y-122126956D01*
X61827123Y-121932399D01*
X61960809Y-121714243D01*
X61977239Y-121674579D01*
X62058720Y-121477864D01*
X62058722Y-121477860D01*
X62118452Y-121229070D01*
X62138526Y-120974000D01*
X62118452Y-120718930D01*
X62058722Y-120470140D01*
X62058720Y-120470135D01*
X61960811Y-120233760D01*
X61960809Y-120233757D01*
X61934848Y-120191392D01*
X61827123Y-120015601D01*
X61827122Y-120015600D01*
X61827121Y-120015598D01*
X61767319Y-119945579D01*
X61660956Y-119821044D01*
X61548168Y-119724714D01*
X61466401Y-119654878D01*
X61466396Y-119654875D01*
X61248242Y-119521190D01*
X61248239Y-119521188D01*
X61011864Y-119423279D01*
X61011860Y-119423278D01*
X60763070Y-119363548D01*
X60763067Y-119363547D01*
X60763064Y-119363547D01*
X60508000Y-119343474D01*
X60252935Y-119363547D01*
X60252931Y-119363547D01*
X60252930Y-119363548D01*
X60128535Y-119393413D01*
X60004135Y-119423279D01*
X59767760Y-119521188D01*
X59767757Y-119521190D01*
X59549603Y-119654875D01*
X59549598Y-119654878D01*
X59355044Y-119821044D01*
X59188878Y-120015598D01*
X59188875Y-120015603D01*
X59055190Y-120233756D01*
X59047059Y-120253387D01*
X59003216Y-120307789D01*
X58936921Y-120329852D01*
X58869222Y-120312571D01*
X58821613Y-120261432D01*
X58808499Y-120205934D01*
X58808499Y-119076128D01*
X58802091Y-119016517D01*
X58799166Y-119008676D01*
X58751797Y-118881671D01*
X58751793Y-118881664D01*
X58665547Y-118766455D01*
X58665544Y-118766452D01*
X58550335Y-118680206D01*
X58550328Y-118680202D01*
X58415482Y-118629908D01*
X58415483Y-118629908D01*
X58355883Y-118623501D01*
X58355881Y-118623500D01*
X58355873Y-118623500D01*
X58355864Y-118623500D01*
X56960129Y-118623500D01*
X56960123Y-118623501D01*
X56900516Y-118629908D01*
X56765671Y-118680202D01*
X56765664Y-118680206D01*
X56650455Y-118766452D01*
X56650452Y-118766455D01*
X56564206Y-118881664D01*
X56564202Y-118881671D01*
X56513908Y-119016517D01*
X56507501Y-119076116D01*
X56507501Y-119076123D01*
X56507500Y-119076135D01*
X56507500Y-119423999D01*
X56487815Y-119491038D01*
X56435011Y-119536793D01*
X56365853Y-119546737D01*
X56302297Y-119517712D01*
X56264523Y-119458934D01*
X56264234Y-119457934D01*
X56235405Y-119356611D01*
X56235403Y-119356606D01*
X56235403Y-119356605D01*
X56140367Y-119165746D01*
X56011872Y-118995593D01*
X55886906Y-118881671D01*
X55854302Y-118851948D01*
X55673019Y-118739702D01*
X55673017Y-118739701D01*
X55573608Y-118701190D01*
X55474198Y-118662679D01*
X55264610Y-118623500D01*
X55051390Y-118623500D01*
X54841802Y-118662679D01*
X54841799Y-118662679D01*
X54841799Y-118662680D01*
X54642982Y-118739701D01*
X54642980Y-118739702D01*
X54461699Y-118851947D01*
X54304127Y-118995593D01*
X54175632Y-119165746D01*
X54080596Y-119356605D01*
X54080596Y-119356607D01*
X54022244Y-119561689D01*
X54002571Y-119773999D01*
X54002571Y-119774000D01*
X54022244Y-119986310D01*
X54080596Y-120191392D01*
X54080596Y-120191394D01*
X54175632Y-120382253D01*
X54242002Y-120470140D01*
X54304128Y-120552407D01*
X54461698Y-120696052D01*
X54642981Y-120808298D01*
X54706998Y-120833098D01*
X54772240Y-120858373D01*
X54827642Y-120900946D01*
X54851232Y-120966713D01*
X54835521Y-121034793D01*
X54785497Y-121083572D01*
X54772240Y-121089627D01*
X54642982Y-121139701D01*
X54642980Y-121139702D01*
X54461699Y-121251947D01*
X54304127Y-121395593D01*
X54175632Y-121565746D01*
X54080596Y-121756605D01*
X54080596Y-121756607D01*
X54027266Y-121944039D01*
X53989986Y-122003132D01*
X53926676Y-122032689D01*
X53857437Y-122023327D01*
X53804251Y-121978017D01*
X53788734Y-121944039D01*
X53755537Y-121827368D01*
X53735405Y-121756611D01*
X53735403Y-121756606D01*
X53735403Y-121756605D01*
X53640367Y-121565746D01*
X53511872Y-121395593D01*
X53509523Y-121393452D01*
X53354302Y-121251948D01*
X53173019Y-121139702D01*
X53173017Y-121139701D01*
X53043759Y-121089627D01*
X52974198Y-121062679D01*
X52764610Y-121023500D01*
X52551390Y-121023500D01*
X52341802Y-121062679D01*
X52341799Y-121062679D01*
X52341799Y-121062680D01*
X52142982Y-121139701D01*
X52142980Y-121139702D01*
X51961699Y-121251947D01*
X51804127Y-121395593D01*
X51675632Y-121565746D01*
X51580596Y-121756605D01*
X51580596Y-121756607D01*
X51522244Y-121961689D01*
X51502571Y-122173999D01*
X50905876Y-122173999D01*
X50960956Y-122126956D01*
X51127123Y-121932399D01*
X51260809Y-121714243D01*
X51277239Y-121674579D01*
X51358720Y-121477864D01*
X51358722Y-121477860D01*
X51418452Y-121229070D01*
X51438526Y-120974000D01*
X51418452Y-120718930D01*
X51358722Y-120470140D01*
X51358720Y-120470135D01*
X51260811Y-120233760D01*
X51260809Y-120233757D01*
X51234848Y-120191392D01*
X51127123Y-120015601D01*
X51127122Y-120015600D01*
X51127121Y-120015598D01*
X51067319Y-119945579D01*
X50960956Y-119821044D01*
X50848168Y-119724714D01*
X50766401Y-119654878D01*
X50766396Y-119654875D01*
X50548242Y-119521190D01*
X50548239Y-119521188D01*
X50311864Y-119423279D01*
X50311860Y-119423278D01*
X50063070Y-119363548D01*
X50063067Y-119363547D01*
X50063064Y-119363547D01*
X49808000Y-119343474D01*
X49552935Y-119363547D01*
X49552931Y-119363547D01*
X49552930Y-119363548D01*
X49428535Y-119393413D01*
X49304135Y-119423279D01*
X49067760Y-119521188D01*
X49067757Y-119521190D01*
X48849603Y-119654875D01*
X48849598Y-119654878D01*
X48655044Y-119821044D01*
X48488878Y-120015598D01*
X48488875Y-120015603D01*
X48355190Y-120233757D01*
X48355188Y-120233760D01*
X48257279Y-120470135D01*
X48197547Y-120718935D01*
X48177474Y-120974000D01*
X19304000Y-120974000D01*
X19304000Y-117221000D01*
X59292540Y-117221000D01*
X59312326Y-117409256D01*
X59312327Y-117409259D01*
X59370818Y-117589277D01*
X59370821Y-117589284D01*
X59465467Y-117753216D01*
X59530400Y-117825331D01*
X59592129Y-117893888D01*
X59745265Y-118005148D01*
X59745270Y-118005151D01*
X59918192Y-118082142D01*
X59918197Y-118082144D01*
X60103354Y-118121500D01*
X60103355Y-118121500D01*
X60292644Y-118121500D01*
X60292646Y-118121500D01*
X60477803Y-118082144D01*
X60650730Y-118005151D01*
X60803871Y-117893888D01*
X60930533Y-117753216D01*
X61025179Y-117589284D01*
X61083674Y-117409256D01*
X61103460Y-117221000D01*
X61083674Y-117032744D01*
X61025179Y-116852716D01*
X60930533Y-116688784D01*
X60803871Y-116548112D01*
X60803870Y-116548111D01*
X60650734Y-116436851D01*
X60650729Y-116436848D01*
X60477807Y-116359857D01*
X60477802Y-116359855D01*
X60332001Y-116328865D01*
X60292646Y-116320500D01*
X60103354Y-116320500D01*
X60070897Y-116327398D01*
X59918197Y-116359855D01*
X59918192Y-116359857D01*
X59745270Y-116436848D01*
X59745265Y-116436851D01*
X59592129Y-116548111D01*
X59465466Y-116688785D01*
X59370821Y-116852715D01*
X59370818Y-116852722D01*
X59324392Y-116995608D01*
X59312326Y-117032744D01*
X59292540Y-117221000D01*
X19304000Y-117221000D01*
X19304000Y-107539135D01*
X20104500Y-107539135D01*
X20104500Y-109884870D01*
X20104501Y-109884876D01*
X20110908Y-109944483D01*
X20161202Y-110079328D01*
X20161206Y-110079335D01*
X20247452Y-110194544D01*
X20247455Y-110194547D01*
X20362664Y-110280793D01*
X20362671Y-110280797D01*
X20497517Y-110331091D01*
X20497516Y-110331091D01*
X20504444Y-110331835D01*
X20557127Y-110337500D01*
X22902872Y-110337499D01*
X22962483Y-110331091D01*
X23097331Y-110280796D01*
X23212546Y-110194546D01*
X23298796Y-110079331D01*
X23349091Y-109944483D01*
X23355500Y-109884873D01*
X23355499Y-108712000D01*
X37599474Y-108712000D01*
X37619547Y-108967064D01*
X37619547Y-108967067D01*
X37619548Y-108967070D01*
X37631603Y-109017282D01*
X37679279Y-109215864D01*
X37777188Y-109452239D01*
X37777190Y-109452242D01*
X37910875Y-109670396D01*
X37910878Y-109670401D01*
X37986200Y-109758591D01*
X38077044Y-109864956D01*
X38182065Y-109954652D01*
X38271598Y-110031121D01*
X38271600Y-110031122D01*
X38271601Y-110031123D01*
X38350276Y-110079335D01*
X38489757Y-110164809D01*
X38489760Y-110164811D01*
X38726135Y-110262720D01*
X38726140Y-110262722D01*
X38974930Y-110322452D01*
X39230000Y-110342526D01*
X39485070Y-110322452D01*
X39727141Y-110264335D01*
X58437700Y-110264335D01*
X58437700Y-111731670D01*
X58437701Y-111731676D01*
X58444108Y-111791283D01*
X58494402Y-111926128D01*
X58494406Y-111926135D01*
X58580652Y-112041344D01*
X58580655Y-112041347D01*
X58695864Y-112127593D01*
X58695871Y-112127597D01*
X58830717Y-112177891D01*
X58830716Y-112177891D01*
X58837644Y-112178635D01*
X58890327Y-112184300D01*
X60357672Y-112184299D01*
X60417283Y-112177891D01*
X60552131Y-112127596D01*
X60667346Y-112041346D01*
X60753596Y-111926131D01*
X60803891Y-111791283D01*
X60810300Y-111731673D01*
X60810299Y-110998000D01*
X63512618Y-110998000D01*
X63532903Y-111216913D01*
X63593069Y-111428379D01*
X63691063Y-111625176D01*
X63691068Y-111625184D01*
X63734949Y-111683291D01*
X63823558Y-111800629D01*
X63986032Y-111948743D01*
X64073001Y-112002592D01*
X64135587Y-112041344D01*
X64172955Y-112064481D01*
X64377963Y-112143902D01*
X64594073Y-112184300D01*
X64594075Y-112184300D01*
X64813925Y-112184300D01*
X64813927Y-112184300D01*
X65030037Y-112143902D01*
X65235045Y-112064481D01*
X65421968Y-111948743D01*
X65584442Y-111800629D01*
X65716933Y-111625182D01*
X65814931Y-111428377D01*
X65875096Y-111216916D01*
X65895382Y-110998000D01*
X65875096Y-110779084D01*
X65814931Y-110567623D01*
X65787080Y-110511691D01*
X65743414Y-110423997D01*
X69385709Y-110423997D01*
X69385709Y-110424002D01*
X69404839Y-110642668D01*
X69404840Y-110642674D01*
X69461654Y-110854703D01*
X69461655Y-110854706D01*
X69461656Y-110854708D01*
X69554420Y-111053642D01*
X69554424Y-111053650D01*
X69680323Y-111233452D01*
X69680328Y-111233458D01*
X69835541Y-111388671D01*
X69835547Y-111388676D01*
X70015349Y-111514575D01*
X70015351Y-111514576D01*
X70015354Y-111514578D01*
X70092313Y-111550464D01*
X70159122Y-111581618D01*
X70211562Y-111627790D01*
X70230714Y-111694984D01*
X70210498Y-111761865D01*
X70159123Y-111806382D01*
X70015356Y-111873421D01*
X70015354Y-111873422D01*
X69835540Y-111999328D01*
X69680328Y-112154540D01*
X69554422Y-112334354D01*
X69554421Y-112334356D01*
X69461655Y-112533293D01*
X69404840Y-112745324D01*
X69404839Y-112745331D01*
X69385709Y-112963997D01*
X69385709Y-112964000D01*
X69404840Y-113182674D01*
X69461654Y-113394703D01*
X69461655Y-113394706D01*
X69461656Y-113394708D01*
X69554420Y-113593642D01*
X69554424Y-113593650D01*
X69680323Y-113773452D01*
X69680328Y-113773458D01*
X69835541Y-113928671D01*
X69835547Y-113928676D01*
X70015349Y-114054575D01*
X70015351Y-114054576D01*
X70015354Y-114054578D01*
X70092313Y-114090464D01*
X70159122Y-114121618D01*
X70211562Y-114167790D01*
X70230714Y-114234984D01*
X70210498Y-114301865D01*
X70159123Y-114346382D01*
X70015356Y-114413421D01*
X70015354Y-114413422D01*
X69835540Y-114539328D01*
X69680328Y-114694540D01*
X69554422Y-114874354D01*
X69554421Y-114874356D01*
X69461655Y-115073293D01*
X69404840Y-115285324D01*
X69404839Y-115285331D01*
X69385709Y-115503997D01*
X69385709Y-115504000D01*
X69404840Y-115722674D01*
X69461654Y-115934703D01*
X69461655Y-115934706D01*
X69461656Y-115934708D01*
X69554420Y-116133642D01*
X69554424Y-116133650D01*
X69680323Y-116313452D01*
X69680328Y-116313458D01*
X69835541Y-116468671D01*
X69835547Y-116468676D01*
X70015349Y-116594575D01*
X70015351Y-116594576D01*
X70015354Y-116594578D01*
X70092313Y-116630464D01*
X70159122Y-116661618D01*
X70211562Y-116707790D01*
X70230714Y-116774984D01*
X70210498Y-116841865D01*
X70159123Y-116886382D01*
X70015356Y-116953421D01*
X70015354Y-116953422D01*
X69835540Y-117079328D01*
X69680328Y-117234540D01*
X69554422Y-117414354D01*
X69554421Y-117414356D01*
X69461655Y-117613293D01*
X69404840Y-117825324D01*
X69404839Y-117825331D01*
X69385709Y-118043997D01*
X69385709Y-118044002D01*
X69403483Y-118247171D01*
X69404840Y-118262674D01*
X69461654Y-118474703D01*
X69461655Y-118474706D01*
X69461656Y-118474708D01*
X69554420Y-118673642D01*
X69554424Y-118673650D01*
X69680323Y-118853452D01*
X69680328Y-118853458D01*
X69835541Y-119008671D01*
X69835547Y-119008676D01*
X70015349Y-119134575D01*
X70015351Y-119134576D01*
X70015354Y-119134578D01*
X70092313Y-119170464D01*
X70159122Y-119201618D01*
X70211562Y-119247790D01*
X70230714Y-119314984D01*
X70210498Y-119381865D01*
X70159123Y-119426382D01*
X70015356Y-119493421D01*
X70015354Y-119493422D01*
X69835540Y-119619328D01*
X69680328Y-119774540D01*
X69554422Y-119954354D01*
X69554421Y-119954356D01*
X69461655Y-120153293D01*
X69404840Y-120365324D01*
X69404839Y-120365331D01*
X69385709Y-120583997D01*
X69385709Y-120584002D01*
X69404839Y-120802668D01*
X69404840Y-120802675D01*
X69406347Y-120808298D01*
X69461654Y-121014703D01*
X69461655Y-121014706D01*
X69461656Y-121014708D01*
X69554420Y-121213642D01*
X69554424Y-121213650D01*
X69680323Y-121393452D01*
X69680328Y-121393458D01*
X69835541Y-121548671D01*
X69835547Y-121548676D01*
X70015349Y-121674575D01*
X70015351Y-121674576D01*
X70015354Y-121674578D01*
X70214297Y-121767346D01*
X70426326Y-121824160D01*
X70582521Y-121837825D01*
X70644998Y-121843291D01*
X70645000Y-121843291D01*
X70645002Y-121843291D01*
X70699668Y-121838508D01*
X70863674Y-121824160D01*
X71075703Y-121767346D01*
X71274646Y-121674578D01*
X71454457Y-121548673D01*
X71609673Y-121393457D01*
X71735578Y-121213646D01*
X71828346Y-121014703D01*
X71885160Y-120802674D01*
X71904291Y-120584000D01*
X71899696Y-120531483D01*
X71886641Y-120382255D01*
X71885160Y-120365326D01*
X71828346Y-120153297D01*
X71735578Y-119954355D01*
X71609673Y-119774543D01*
X71454457Y-119619327D01*
X71454453Y-119619324D01*
X71454452Y-119619323D01*
X71274650Y-119493424D01*
X71274642Y-119493420D01*
X71176204Y-119447518D01*
X71130876Y-119426381D01*
X71078437Y-119380210D01*
X71059285Y-119313017D01*
X71079500Y-119246136D01*
X71130877Y-119201618D01*
X71274646Y-119134578D01*
X71454457Y-119008673D01*
X71609673Y-118853457D01*
X71735578Y-118673646D01*
X71828346Y-118474703D01*
X71885160Y-118262674D01*
X71900954Y-118082142D01*
X71904291Y-118044002D01*
X71904291Y-118043997D01*
X71885160Y-117825331D01*
X71885160Y-117825326D01*
X71874759Y-117786509D01*
X71876422Y-117716659D01*
X71906851Y-117666737D01*
X72153729Y-117419860D01*
X72153733Y-117419858D01*
X72240858Y-117332733D01*
X72306467Y-117234543D01*
X72309312Y-117230286D01*
X72356463Y-117116451D01*
X72380500Y-116995607D01*
X72380500Y-116872393D01*
X72380500Y-114991451D01*
X72400185Y-114924412D01*
X72416814Y-114903775D01*
X73622888Y-113697701D01*
X93893500Y-113697701D01*
X93893500Y-115793436D01*
X93893501Y-115793442D01*
X93899908Y-115853049D01*
X93950202Y-115987894D01*
X93950206Y-115987901D01*
X94036452Y-116103110D01*
X94036455Y-116103113D01*
X94151664Y-116189359D01*
X94151671Y-116189363D01*
X94286517Y-116239657D01*
X94286516Y-116239657D01*
X94293444Y-116240401D01*
X94346127Y-116246066D01*
X96346872Y-116246065D01*
X96406483Y-116239657D01*
X96541331Y-116189362D01*
X96656546Y-116103112D01*
X96742796Y-115987897D01*
X96753190Y-115960026D01*
X96795060Y-115904093D01*
X96860523Y-115879674D01*
X96928797Y-115894524D01*
X96942246Y-115903031D01*
X97124962Y-116035783D01*
X97257099Y-116103110D01*
X97328744Y-116139615D01*
X97546251Y-116210287D01*
X97546252Y-116210287D01*
X97546255Y-116210288D01*
X97772146Y-116246066D01*
X97772147Y-116246066D01*
X98000853Y-116246066D01*
X98000854Y-116246066D01*
X98226745Y-116210288D01*
X98226748Y-116210287D01*
X98226749Y-116210287D01*
X98444255Y-116139615D01*
X98444255Y-116139614D01*
X98444258Y-116139614D01*
X98648038Y-116035783D01*
X98833066Y-115901352D01*
X98994786Y-115739632D01*
X99129217Y-115554604D01*
X99233048Y-115350824D01*
X99303722Y-115133311D01*
X99339500Y-114907420D01*
X99339500Y-114583712D01*
X99303722Y-114357821D01*
X99303721Y-114357817D01*
X99303721Y-114357816D01*
X99233049Y-114140310D01*
X99129216Y-113936527D01*
X99123510Y-113928673D01*
X98994786Y-113751500D01*
X98833066Y-113589780D01*
X98648038Y-113455349D01*
X98532040Y-113396245D01*
X98444255Y-113351516D01*
X98226748Y-113280844D01*
X98041312Y-113251474D01*
X98000854Y-113245066D01*
X97772146Y-113245066D01*
X97731688Y-113251474D01*
X97546253Y-113280844D01*
X97546250Y-113280844D01*
X97328744Y-113351516D01*
X97124961Y-113455349D01*
X96942259Y-113588091D01*
X96876452Y-113611571D01*
X96808398Y-113595746D01*
X96759703Y-113545640D01*
X96753190Y-113531104D01*
X96742796Y-113503235D01*
X96742793Y-113503230D01*
X96656547Y-113388021D01*
X96656544Y-113388018D01*
X96541335Y-113301772D01*
X96541328Y-113301768D01*
X96406482Y-113251474D01*
X96406483Y-113251474D01*
X96346883Y-113245067D01*
X96346881Y-113245066D01*
X96346873Y-113245066D01*
X96346864Y-113245066D01*
X94346129Y-113245066D01*
X94346123Y-113245067D01*
X94286516Y-113251474D01*
X94151671Y-113301768D01*
X94151664Y-113301772D01*
X94036455Y-113388018D01*
X94036452Y-113388021D01*
X93950206Y-113503230D01*
X93950202Y-113503237D01*
X93899908Y-113638083D01*
X93893501Y-113697682D01*
X93893500Y-113697701D01*
X73622888Y-113697701D01*
X76808899Y-110511689D01*
X76870220Y-110478206D01*
X76939912Y-110483190D01*
X76995845Y-110525062D01*
X77020106Y-110588564D01*
X77024839Y-110642669D01*
X77024840Y-110642674D01*
X77081654Y-110854703D01*
X77081655Y-110854706D01*
X77081656Y-110854708D01*
X77174420Y-111053642D01*
X77174424Y-111053650D01*
X77300323Y-111233452D01*
X77300328Y-111233458D01*
X77455541Y-111388671D01*
X77455547Y-111388676D01*
X77635349Y-111514575D01*
X77635351Y-111514576D01*
X77635354Y-111514578D01*
X77834297Y-111607346D01*
X78046326Y-111664160D01*
X78202521Y-111677825D01*
X78264998Y-111683291D01*
X78265000Y-111683291D01*
X78265002Y-111683291D01*
X78319668Y-111678508D01*
X78483674Y-111664160D01*
X78695703Y-111607346D01*
X78894646Y-111514578D01*
X79074457Y-111388673D01*
X79229673Y-111233457D01*
X79355578Y-111053646D01*
X79448346Y-110854703D01*
X79505160Y-110642674D01*
X79524291Y-110424000D01*
X79505160Y-110205326D01*
X79448346Y-109993297D01*
X79355578Y-109794355D01*
X79268784Y-109670399D01*
X79229674Y-109614544D01*
X79188431Y-109573301D01*
X79074457Y-109459327D01*
X79074453Y-109459324D01*
X79074452Y-109459323D01*
X78894650Y-109333424D01*
X78894642Y-109333420D01*
X78695708Y-109240656D01*
X78695706Y-109240655D01*
X78695703Y-109240654D01*
X78544885Y-109200241D01*
X78483675Y-109183840D01*
X78483669Y-109183839D01*
X78429565Y-109179106D01*
X78364497Y-109153653D01*
X78323518Y-109097062D01*
X78319640Y-109027300D01*
X78352692Y-108967897D01*
X78453633Y-108866957D01*
X78610205Y-108710385D01*
X78671528Y-108676900D01*
X78697886Y-108674066D01*
X83189659Y-108674066D01*
X83256698Y-108693751D01*
X83302453Y-108746555D01*
X83312397Y-108815713D01*
X83292761Y-108866957D01*
X83189931Y-109020852D01*
X83056562Y-109291297D01*
X83056553Y-109291318D01*
X82959622Y-109576867D01*
X82959618Y-109576882D01*
X82900788Y-109872635D01*
X82900787Y-109872645D01*
X82900787Y-109872646D01*
X82881064Y-110173566D01*
X82891808Y-110337498D01*
X82900787Y-110474484D01*
X82900788Y-110474496D01*
X82959618Y-110770249D01*
X82959622Y-110770264D01*
X83056553Y-111055813D01*
X83056562Y-111055834D01*
X83189931Y-111326279D01*
X83189935Y-111326286D01*
X83357473Y-111577025D01*
X83556310Y-111803755D01*
X83783040Y-112002592D01*
X84033779Y-112170130D01*
X84033786Y-112170134D01*
X84304231Y-112303503D01*
X84304236Y-112303505D01*
X84304248Y-112303511D01*
X84589809Y-112400446D01*
X84789751Y-112440217D01*
X84885569Y-112459277D01*
X84885570Y-112459277D01*
X84885580Y-112459279D01*
X85186500Y-112479002D01*
X85487420Y-112459279D01*
X85783191Y-112400446D01*
X86068752Y-112303511D01*
X86339218Y-112170132D01*
X86589961Y-112002591D01*
X86816689Y-111803755D01*
X87015525Y-111577027D01*
X87183066Y-111326284D01*
X87316445Y-111055818D01*
X87413380Y-110770257D01*
X87472213Y-110474486D01*
X87491936Y-110173566D01*
X87491702Y-110170000D01*
X108217564Y-110170000D01*
X108223746Y-110264328D01*
X108237287Y-110470918D01*
X108237288Y-110470930D01*
X108296118Y-110766683D01*
X108296122Y-110766698D01*
X108393053Y-111052247D01*
X108393062Y-111052268D01*
X108526431Y-111322713D01*
X108526435Y-111322720D01*
X108693973Y-111573459D01*
X108892810Y-111800189D01*
X109119540Y-111999026D01*
X109370279Y-112166564D01*
X109370286Y-112166568D01*
X109640731Y-112299937D01*
X109640736Y-112299939D01*
X109640748Y-112299945D01*
X109926309Y-112396880D01*
X110126251Y-112436651D01*
X110222069Y-112455711D01*
X110222070Y-112455711D01*
X110222080Y-112455713D01*
X110523000Y-112475436D01*
X110823920Y-112455713D01*
X111119691Y-112396880D01*
X111405252Y-112299945D01*
X111506533Y-112249999D01*
X148854785Y-112249999D01*
X148854785Y-112250000D01*
X148873602Y-112453082D01*
X148929417Y-112649247D01*
X148929422Y-112649260D01*
X149020327Y-112831821D01*
X149143237Y-112994581D01*
X149293958Y-113131980D01*
X149293960Y-113131982D01*
X149375821Y-113182668D01*
X149467363Y-113239348D01*
X149657544Y-113313024D01*
X149858024Y-113350500D01*
X149858026Y-113350500D01*
X150061974Y-113350500D01*
X150061976Y-113350500D01*
X150262456Y-113313024D01*
X150452637Y-113239348D01*
X150626041Y-113131981D01*
X150776764Y-112994579D01*
X150899673Y-112831821D01*
X150990582Y-112649250D01*
X151046397Y-112453083D01*
X151065215Y-112250000D01*
X151057814Y-112170134D01*
X151046397Y-112046917D01*
X151033785Y-112002591D01*
X150990582Y-111850750D01*
X150968489Y-111806382D01*
X150931294Y-111731683D01*
X150899673Y-111668179D01*
X150776764Y-111505421D01*
X150776762Y-111505418D01*
X150626041Y-111368019D01*
X150626039Y-111368017D01*
X150452642Y-111260655D01*
X150452635Y-111260651D01*
X150357546Y-111223814D01*
X150262456Y-111186976D01*
X150061976Y-111149500D01*
X149858024Y-111149500D01*
X149657544Y-111186976D01*
X149657541Y-111186976D01*
X149657541Y-111186977D01*
X149467364Y-111260651D01*
X149467357Y-111260655D01*
X149293960Y-111368017D01*
X149293958Y-111368019D01*
X149143237Y-111505418D01*
X149020327Y-111668178D01*
X148929422Y-111850739D01*
X148929417Y-111850752D01*
X148873602Y-112046917D01*
X148854785Y-112249999D01*
X111506533Y-112249999D01*
X111675718Y-112166566D01*
X111926461Y-111999025D01*
X112153189Y-111800189D01*
X112352025Y-111573461D01*
X112519566Y-111322718D01*
X112652945Y-111052252D01*
X112749880Y-110766691D01*
X112808713Y-110470920D01*
X112828436Y-110170000D01*
X112808713Y-109869080D01*
X112807892Y-109864955D01*
X112769193Y-109670401D01*
X112749880Y-109573309D01*
X112652945Y-109287748D01*
X112629721Y-109240655D01*
X112519568Y-109017286D01*
X112519564Y-109017279D01*
X112352026Y-108766540D01*
X112153189Y-108539810D01*
X111926459Y-108340973D01*
X111675720Y-108173435D01*
X111675713Y-108173431D01*
X111405268Y-108040062D01*
X111405247Y-108040053D01*
X111119698Y-107943122D01*
X111119692Y-107943120D01*
X111119691Y-107943120D01*
X111119689Y-107943119D01*
X111119683Y-107943118D01*
X110823930Y-107884288D01*
X110823921Y-107884287D01*
X110823920Y-107884287D01*
X110523000Y-107864564D01*
X110222080Y-107884287D01*
X110222079Y-107884287D01*
X110222069Y-107884288D01*
X109926316Y-107943118D01*
X109926301Y-107943122D01*
X109640752Y-108040053D01*
X109640731Y-108040062D01*
X109370286Y-108173431D01*
X109370279Y-108173435D01*
X109119540Y-108340973D01*
X108892810Y-108539810D01*
X108693973Y-108766540D01*
X108526435Y-109017279D01*
X108526431Y-109017286D01*
X108393062Y-109287731D01*
X108393053Y-109287752D01*
X108296122Y-109573301D01*
X108296118Y-109573316D01*
X108237288Y-109869069D01*
X108237287Y-109869079D01*
X108237287Y-109869080D01*
X108217564Y-110170000D01*
X87491702Y-110170000D01*
X87472213Y-109872646D01*
X87471501Y-109869069D01*
X87453151Y-109776817D01*
X87413380Y-109576875D01*
X87316445Y-109291314D01*
X87314688Y-109287752D01*
X87183068Y-109020852D01*
X87183067Y-109020851D01*
X87183066Y-109020848D01*
X87080238Y-108866955D01*
X87059361Y-108800279D01*
X87077846Y-108732899D01*
X87129825Y-108686209D01*
X87183341Y-108674066D01*
X87390214Y-108674066D01*
X87450636Y-108662047D01*
X87511059Y-108650029D01*
X87511062Y-108650027D01*
X87511065Y-108650027D01*
X87544394Y-108636220D01*
X87544393Y-108636220D01*
X87544399Y-108636218D01*
X87624893Y-108602878D01*
X87676116Y-108568650D01*
X87727340Y-108534424D01*
X87814465Y-108447299D01*
X87814466Y-108447297D01*
X87821532Y-108440231D01*
X87821535Y-108440227D01*
X91861762Y-104400000D01*
X95794564Y-104400000D01*
X95811278Y-104655017D01*
X95814287Y-104700918D01*
X95814288Y-104700930D01*
X95873118Y-104996683D01*
X95873122Y-104996698D01*
X95970053Y-105282247D01*
X95970062Y-105282268D01*
X96103431Y-105552713D01*
X96103435Y-105552720D01*
X96270973Y-105803459D01*
X96469810Y-106030189D01*
X96696540Y-106229026D01*
X96947279Y-106396564D01*
X96947286Y-106396568D01*
X97217731Y-106529937D01*
X97217736Y-106529939D01*
X97217748Y-106529945D01*
X97503309Y-106626880D01*
X97703251Y-106666651D01*
X97799069Y-106685711D01*
X97799070Y-106685711D01*
X97799080Y-106685713D01*
X98100000Y-106705436D01*
X98400920Y-106685713D01*
X98696691Y-106626880D01*
X98982252Y-106529945D01*
X99252718Y-106396566D01*
X99503461Y-106229025D01*
X99730189Y-106030189D01*
X99929025Y-105803461D01*
X100096566Y-105552718D01*
X100229945Y-105282252D01*
X100326880Y-104996691D01*
X100385713Y-104700920D01*
X100405436Y-104400000D01*
X100385713Y-104099080D01*
X100326880Y-103803309D01*
X100229945Y-103517748D01*
X100221439Y-103500500D01*
X100096568Y-103247286D01*
X100096564Y-103247279D01*
X99929026Y-102996540D01*
X99730189Y-102769810D01*
X99503459Y-102570973D01*
X99252720Y-102403435D01*
X99252713Y-102403431D01*
X98982268Y-102270062D01*
X98982247Y-102270053D01*
X98696698Y-102173122D01*
X98696692Y-102173120D01*
X98696691Y-102173120D01*
X98696689Y-102173119D01*
X98696683Y-102173118D01*
X98400930Y-102114288D01*
X98400921Y-102114287D01*
X98400920Y-102114287D01*
X98100000Y-102094564D01*
X97799080Y-102114287D01*
X97799079Y-102114287D01*
X97799069Y-102114288D01*
X97503316Y-102173118D01*
X97503301Y-102173122D01*
X97217752Y-102270053D01*
X97217731Y-102270062D01*
X96947286Y-102403431D01*
X96947279Y-102403435D01*
X96696540Y-102570973D01*
X96469810Y-102769810D01*
X96270973Y-102996540D01*
X96103435Y-103247279D01*
X96103431Y-103247286D01*
X95970062Y-103517731D01*
X95970053Y-103517752D01*
X95873122Y-103803301D01*
X95873118Y-103803316D01*
X95814288Y-104099069D01*
X95814287Y-104099079D01*
X95814287Y-104099080D01*
X95794564Y-104400000D01*
X91861762Y-104400000D01*
X95511763Y-100749999D01*
X101104785Y-100749999D01*
X101104785Y-100750000D01*
X101123602Y-100953082D01*
X101179417Y-101149247D01*
X101179422Y-101149260D01*
X101270327Y-101331821D01*
X101393237Y-101494581D01*
X101543958Y-101631980D01*
X101543960Y-101631982D01*
X101643141Y-101693392D01*
X101717363Y-101739348D01*
X101907544Y-101813024D01*
X102108024Y-101850500D01*
X102108026Y-101850500D01*
X102311974Y-101850500D01*
X102311976Y-101850500D01*
X102512456Y-101813024D01*
X102702637Y-101739348D01*
X102876041Y-101631981D01*
X103026764Y-101494579D01*
X103149673Y-101331821D01*
X103240582Y-101149250D01*
X103296397Y-100953083D01*
X103315215Y-100750000D01*
X103296397Y-100546917D01*
X103240582Y-100350750D01*
X103149673Y-100168179D01*
X103026764Y-100005421D01*
X103026762Y-100005418D01*
X102876041Y-99868019D01*
X102876039Y-99868017D01*
X102702642Y-99760655D01*
X102702635Y-99760651D01*
X102554033Y-99703083D01*
X102512456Y-99686976D01*
X102311976Y-99649500D01*
X102108024Y-99649500D01*
X101907544Y-99686976D01*
X101907541Y-99686976D01*
X101907541Y-99686977D01*
X101717364Y-99760651D01*
X101717357Y-99760655D01*
X101543960Y-99868017D01*
X101543958Y-99868019D01*
X101393237Y-100005418D01*
X101270327Y-100168178D01*
X101179422Y-100350739D01*
X101179417Y-100350752D01*
X101123602Y-100546917D01*
X101104785Y-100749999D01*
X95511763Y-100749999D01*
X96761763Y-99499999D01*
X125624785Y-99499999D01*
X125624785Y-99500000D01*
X125643602Y-99703082D01*
X125699417Y-99899247D01*
X125699422Y-99899260D01*
X125790327Y-100081821D01*
X125913237Y-100244581D01*
X126063958Y-100381980D01*
X126063960Y-100381982D01*
X126163141Y-100443392D01*
X126237363Y-100489348D01*
X126427544Y-100563024D01*
X126628024Y-100600500D01*
X126628026Y-100600500D01*
X126831974Y-100600500D01*
X126831976Y-100600500D01*
X127032456Y-100563024D01*
X127222637Y-100489348D01*
X127396041Y-100381981D01*
X127546764Y-100244579D01*
X127669673Y-100081821D01*
X127760582Y-99899250D01*
X127816397Y-99703083D01*
X127835215Y-99500000D01*
X127816397Y-99296917D01*
X127760582Y-99100750D01*
X127669673Y-98918179D01*
X127546764Y-98755421D01*
X127546762Y-98755418D01*
X127396041Y-98618019D01*
X127396039Y-98618017D01*
X127222642Y-98510655D01*
X127222635Y-98510651D01*
X127127546Y-98473814D01*
X127032456Y-98436976D01*
X126831976Y-98399500D01*
X126628024Y-98399500D01*
X126427544Y-98436976D01*
X126427541Y-98436976D01*
X126427541Y-98436977D01*
X126237364Y-98510651D01*
X126237357Y-98510655D01*
X126063960Y-98618017D01*
X126063958Y-98618019D01*
X125913237Y-98755418D01*
X125790327Y-98918178D01*
X125699422Y-99100739D01*
X125699417Y-99100752D01*
X125643602Y-99296917D01*
X125624785Y-99499999D01*
X96761763Y-99499999D01*
X129100902Y-67160860D01*
X129100906Y-67160858D01*
X129188031Y-67073733D01*
X129233711Y-67005365D01*
X129249123Y-66986587D01*
X130168894Y-66066819D01*
X130230217Y-66033334D01*
X130256575Y-66030500D01*
X134297252Y-66030500D01*
X134364291Y-66050185D01*
X134389400Y-66071526D01*
X134395126Y-66077885D01*
X134395130Y-66077889D01*
X134548265Y-66189148D01*
X134548270Y-66189151D01*
X134721192Y-66266142D01*
X134721197Y-66266144D01*
X134906354Y-66305500D01*
X134906355Y-66305500D01*
X135095644Y-66305500D01*
X135095646Y-66305500D01*
X135280803Y-66266144D01*
X135453730Y-66189151D01*
X135606871Y-66077888D01*
X135733533Y-65937216D01*
X135828179Y-65773284D01*
X135886674Y-65593256D01*
X135906460Y-65405000D01*
X135886674Y-65216744D01*
X135828179Y-65036716D01*
X135733533Y-64872784D01*
X135606871Y-64732112D01*
X135606870Y-64732111D01*
X135453734Y-64620851D01*
X135453729Y-64620848D01*
X135280807Y-64543857D01*
X135280802Y-64543855D01*
X135135001Y-64512865D01*
X135095646Y-64504500D01*
X134906354Y-64504500D01*
X134873897Y-64511398D01*
X134721197Y-64543855D01*
X134721192Y-64543857D01*
X134548270Y-64620848D01*
X134548265Y-64620851D01*
X134395130Y-64732110D01*
X134395126Y-64732114D01*
X134389400Y-64738474D01*
X134329913Y-64775121D01*
X134297252Y-64779500D01*
X131119179Y-64779500D01*
X131052140Y-64759815D01*
X131006385Y-64707011D01*
X130996441Y-64637853D01*
X131025466Y-64574297D01*
X131031498Y-64567819D01*
X142234498Y-53364819D01*
X142295821Y-53331334D01*
X142322179Y-53328500D01*
X142322299Y-53328500D01*
X142389338Y-53348185D01*
X142423873Y-53381376D01*
X142471505Y-53449401D01*
X142638597Y-53616493D01*
X142638603Y-53616498D01*
X142824158Y-53746425D01*
X142867783Y-53801002D01*
X142874977Y-53870500D01*
X142843454Y-53932855D01*
X142824158Y-53949575D01*
X142638597Y-54079505D01*
X142471505Y-54246597D01*
X142335965Y-54440169D01*
X142335964Y-54440171D01*
X142236098Y-54654335D01*
X142236094Y-54654344D01*
X142174938Y-54882586D01*
X142174936Y-54882596D01*
X142154341Y-55117999D01*
X142154341Y-55118000D01*
X142174936Y-55353403D01*
X142174938Y-55353413D01*
X142236094Y-55581655D01*
X142236096Y-55581659D01*
X142236097Y-55581663D01*
X142240000Y-55590032D01*
X142335965Y-55795830D01*
X142335967Y-55795834D01*
X142444281Y-55950521D01*
X142471501Y-55989396D01*
X142471506Y-55989402D01*
X142638597Y-56156493D01*
X142638603Y-56156498D01*
X142824158Y-56286425D01*
X142867783Y-56341002D01*
X142874977Y-56410500D01*
X142843454Y-56472855D01*
X142824158Y-56489575D01*
X142638597Y-56619505D01*
X142471505Y-56786597D01*
X142335965Y-56980169D01*
X142335964Y-56980171D01*
X142236098Y-57194335D01*
X142236094Y-57194344D01*
X142174938Y-57422586D01*
X142174936Y-57422596D01*
X142154341Y-57657999D01*
X142154341Y-57658000D01*
X142174936Y-57893403D01*
X142174938Y-57893413D01*
X142236094Y-58121655D01*
X142236096Y-58121659D01*
X142236097Y-58121663D01*
X142295802Y-58249700D01*
X142335965Y-58335830D01*
X142335967Y-58335834D01*
X142364709Y-58376881D01*
X142471501Y-58529396D01*
X142471506Y-58529402D01*
X142638597Y-58696493D01*
X142638603Y-58696498D01*
X142824158Y-58826425D01*
X142867783Y-58881002D01*
X142874977Y-58950500D01*
X142843454Y-59012855D01*
X142824158Y-59029575D01*
X142638597Y-59159505D01*
X142471505Y-59326597D01*
X142335965Y-59520169D01*
X142335964Y-59520171D01*
X142236098Y-59734335D01*
X142236094Y-59734344D01*
X142174938Y-59962586D01*
X142174936Y-59962596D01*
X142154341Y-60197999D01*
X142154341Y-60198000D01*
X142174936Y-60433403D01*
X142174938Y-60433413D01*
X142236094Y-60661655D01*
X142236096Y-60661659D01*
X142236097Y-60661663D01*
X142240000Y-60670032D01*
X142335965Y-60875830D01*
X142335967Y-60875834D01*
X142444281Y-61030521D01*
X142471501Y-61069396D01*
X142471506Y-61069402D01*
X142638597Y-61236493D01*
X142638603Y-61236498D01*
X142824158Y-61366425D01*
X142867783Y-61421002D01*
X142874977Y-61490500D01*
X142843454Y-61552855D01*
X142824158Y-61569575D01*
X142638597Y-61699505D01*
X142471505Y-61866597D01*
X142335965Y-62060169D01*
X142335964Y-62060171D01*
X142236098Y-62274335D01*
X142236094Y-62274344D01*
X142174938Y-62502586D01*
X142174936Y-62502596D01*
X142154341Y-62737999D01*
X142154341Y-62738000D01*
X142174936Y-62973403D01*
X142174938Y-62973413D01*
X142236094Y-63201655D01*
X142236096Y-63201659D01*
X142236097Y-63201663D01*
X142240000Y-63210032D01*
X142335965Y-63415830D01*
X142335967Y-63415834D01*
X142444281Y-63570521D01*
X142471501Y-63609396D01*
X142471506Y-63609402D01*
X142638597Y-63776493D01*
X142638603Y-63776498D01*
X142824158Y-63906425D01*
X142867783Y-63961002D01*
X142874977Y-64030500D01*
X142843454Y-64092855D01*
X142824158Y-64109575D01*
X142638597Y-64239505D01*
X142471505Y-64406597D01*
X142335965Y-64600169D01*
X142335964Y-64600171D01*
X142236098Y-64814335D01*
X142236094Y-64814344D01*
X142174938Y-65042586D01*
X142174936Y-65042596D01*
X142154341Y-65277999D01*
X142154341Y-65278000D01*
X142174936Y-65513403D01*
X142174938Y-65513413D01*
X142236094Y-65741655D01*
X142236096Y-65741659D01*
X142236097Y-65741663D01*
X142316004Y-65913023D01*
X142335965Y-65955830D01*
X142335967Y-65955834D01*
X142390234Y-66033334D01*
X142471501Y-66149396D01*
X142471506Y-66149402D01*
X142638597Y-66316493D01*
X142638603Y-66316498D01*
X142824158Y-66446425D01*
X142867783Y-66501002D01*
X142874977Y-66570500D01*
X142843454Y-66632855D01*
X142824158Y-66649575D01*
X142638597Y-66779505D01*
X142471505Y-66946597D01*
X142335965Y-67140169D01*
X142335964Y-67140171D01*
X142236098Y-67354335D01*
X142236094Y-67354344D01*
X142174938Y-67582586D01*
X142174936Y-67582596D01*
X142154341Y-67817999D01*
X142154341Y-67818000D01*
X142174936Y-68053403D01*
X142174938Y-68053413D01*
X142236094Y-68281655D01*
X142236096Y-68281659D01*
X142236097Y-68281663D01*
X142240000Y-68290032D01*
X142335965Y-68495830D01*
X142335967Y-68495834D01*
X142444281Y-68650521D01*
X142471501Y-68689396D01*
X142471506Y-68689402D01*
X142638597Y-68856493D01*
X142638603Y-68856498D01*
X142824158Y-68986425D01*
X142867783Y-69041002D01*
X142874977Y-69110500D01*
X142843454Y-69172855D01*
X142824158Y-69189575D01*
X142638597Y-69319505D01*
X142471505Y-69486597D01*
X142335965Y-69680169D01*
X142335964Y-69680171D01*
X142236098Y-69894335D01*
X142236094Y-69894344D01*
X142174938Y-70122586D01*
X142174936Y-70122596D01*
X142154341Y-70357999D01*
X142154341Y-70358000D01*
X142174936Y-70593403D01*
X142174938Y-70593413D01*
X142236094Y-70821655D01*
X142236096Y-70821659D01*
X142236097Y-70821663D01*
X142240000Y-70830032D01*
X142335965Y-71035830D01*
X142335967Y-71035834D01*
X142444281Y-71190521D01*
X142471501Y-71229396D01*
X142471506Y-71229402D01*
X142638597Y-71396493D01*
X142638603Y-71396498D01*
X142824158Y-71526425D01*
X142867783Y-71581002D01*
X142874977Y-71650500D01*
X142843454Y-71712855D01*
X142824158Y-71729575D01*
X142638597Y-71859505D01*
X142471505Y-72026597D01*
X142335965Y-72220169D01*
X142335964Y-72220171D01*
X142236098Y-72434335D01*
X142236094Y-72434344D01*
X142174938Y-72662586D01*
X142174936Y-72662596D01*
X142154341Y-72897999D01*
X142154341Y-72898000D01*
X142174936Y-73133403D01*
X142174938Y-73133413D01*
X142236094Y-73361655D01*
X142236096Y-73361659D01*
X142236097Y-73361663D01*
X142308898Y-73517784D01*
X142335965Y-73575830D01*
X142335967Y-73575834D01*
X142410107Y-73681716D01*
X142471505Y-73769401D01*
X142638599Y-73936495D01*
X142735384Y-74004265D01*
X142832165Y-74072032D01*
X142832167Y-74072033D01*
X142832170Y-74072035D01*
X143046337Y-74171903D01*
X143274592Y-74233063D01*
X143462918Y-74249539D01*
X143509999Y-74253659D01*
X143510000Y-74253659D01*
X143510001Y-74253659D01*
X143549234Y-74250226D01*
X143745408Y-74233063D01*
X143973663Y-74171903D01*
X144187830Y-74072035D01*
X144381401Y-73936495D01*
X144548495Y-73769401D01*
X144678425Y-73583842D01*
X144733002Y-73540217D01*
X144802500Y-73533023D01*
X144864855Y-73564546D01*
X144881575Y-73583842D01*
X145011500Y-73769395D01*
X145011505Y-73769401D01*
X145178599Y-73936495D01*
X145275384Y-74004265D01*
X145372165Y-74072032D01*
X145372167Y-74072033D01*
X145372170Y-74072035D01*
X145586337Y-74171903D01*
X145814592Y-74233063D01*
X146002918Y-74249539D01*
X146049999Y-74253659D01*
X146050000Y-74253659D01*
X146050001Y-74253659D01*
X146089234Y-74250226D01*
X146285408Y-74233063D01*
X146513663Y-74171903D01*
X146727830Y-74072035D01*
X146921401Y-73936495D01*
X147088495Y-73769401D01*
X147224035Y-73575830D01*
X147323903Y-73361663D01*
X147385063Y-73133408D01*
X147405659Y-72898000D01*
X147385063Y-72662592D01*
X147323903Y-72434337D01*
X147224035Y-72220171D01*
X147218425Y-72212158D01*
X147088494Y-72026597D01*
X146921402Y-71859506D01*
X146921396Y-71859501D01*
X146735842Y-71729575D01*
X146692217Y-71674998D01*
X146685023Y-71605500D01*
X146716546Y-71543145D01*
X146735842Y-71526425D01*
X146758026Y-71510891D01*
X146921401Y-71396495D01*
X147088495Y-71229401D01*
X147224035Y-71035830D01*
X147323903Y-70821663D01*
X147385063Y-70593408D01*
X147405659Y-70358000D01*
X147385063Y-70122592D01*
X147323903Y-69894337D01*
X147224035Y-69680171D01*
X147218425Y-69672158D01*
X147088494Y-69486597D01*
X146921402Y-69319506D01*
X146921396Y-69319501D01*
X146735842Y-69189575D01*
X146692217Y-69134998D01*
X146685023Y-69065500D01*
X146716546Y-69003145D01*
X146735842Y-68986425D01*
X146758026Y-68970891D01*
X146921401Y-68856495D01*
X147088495Y-68689401D01*
X147224035Y-68495830D01*
X147323903Y-68281663D01*
X147385063Y-68053408D01*
X147405659Y-67818000D01*
X147385063Y-67582592D01*
X147323903Y-67354337D01*
X147224035Y-67140171D01*
X147218425Y-67132158D01*
X147088494Y-66946597D01*
X146921402Y-66779506D01*
X146921396Y-66779501D01*
X146735842Y-66649575D01*
X146692217Y-66594998D01*
X146685023Y-66525500D01*
X146716546Y-66463145D01*
X146735842Y-66446425D01*
X146758026Y-66430891D01*
X146921401Y-66316495D01*
X147088495Y-66149401D01*
X147224035Y-65955830D01*
X147323903Y-65741663D01*
X147385063Y-65513408D01*
X147405659Y-65278000D01*
X147385063Y-65042592D01*
X147323903Y-64814337D01*
X147224035Y-64600171D01*
X147218425Y-64592158D01*
X147088494Y-64406597D01*
X146921402Y-64239506D01*
X146921396Y-64239501D01*
X146735842Y-64109575D01*
X146692217Y-64054998D01*
X146685023Y-63985500D01*
X146716546Y-63923145D01*
X146735842Y-63906425D01*
X146771476Y-63881474D01*
X146921401Y-63776495D01*
X147088495Y-63609401D01*
X147224035Y-63415830D01*
X147323903Y-63201663D01*
X147385063Y-62973408D01*
X147405659Y-62738000D01*
X147385063Y-62502592D01*
X147323903Y-62274337D01*
X147224035Y-62060171D01*
X147218425Y-62052158D01*
X147088494Y-61866597D01*
X146921402Y-61699506D01*
X146921396Y-61699501D01*
X146735842Y-61569575D01*
X146692217Y-61514998D01*
X146685023Y-61445500D01*
X146716546Y-61383145D01*
X146735842Y-61366425D01*
X146758026Y-61350891D01*
X146921401Y-61236495D01*
X147088495Y-61069401D01*
X147224035Y-60875830D01*
X147323903Y-60661663D01*
X147385063Y-60433408D01*
X147405659Y-60198000D01*
X147385063Y-59962592D01*
X147323903Y-59734337D01*
X147224035Y-59520171D01*
X147218425Y-59512158D01*
X147088494Y-59326597D01*
X146921402Y-59159506D01*
X146921396Y-59159501D01*
X146735842Y-59029575D01*
X146692217Y-58974998D01*
X146685023Y-58905500D01*
X146716546Y-58843145D01*
X146735842Y-58826425D01*
X146760992Y-58808815D01*
X146921401Y-58696495D01*
X147088495Y-58529401D01*
X147224035Y-58335830D01*
X147323903Y-58121663D01*
X147385063Y-57893408D01*
X147405659Y-57658000D01*
X147385063Y-57422592D01*
X147323903Y-57194337D01*
X147224035Y-56980171D01*
X147218425Y-56972158D01*
X147088494Y-56786597D01*
X146921402Y-56619506D01*
X146921396Y-56619501D01*
X146735842Y-56489575D01*
X146692217Y-56434998D01*
X146685023Y-56365500D01*
X146716546Y-56303145D01*
X146735842Y-56286425D01*
X146758026Y-56270891D01*
X146921401Y-56156495D01*
X147088495Y-55989401D01*
X147224035Y-55795830D01*
X147323903Y-55581663D01*
X147385063Y-55353408D01*
X147405659Y-55118000D01*
X147385063Y-54882592D01*
X147323903Y-54654337D01*
X147224035Y-54440171D01*
X147218425Y-54432158D01*
X147088494Y-54246597D01*
X146921402Y-54079506D01*
X146921396Y-54079501D01*
X146735842Y-53949575D01*
X146692217Y-53894998D01*
X146685023Y-53825500D01*
X146716546Y-53763145D01*
X146735842Y-53746425D01*
X146758026Y-53730891D01*
X146921401Y-53616495D01*
X147088495Y-53449401D01*
X147224035Y-53255830D01*
X147323903Y-53041663D01*
X147385063Y-52813408D01*
X147405659Y-52578000D01*
X147385063Y-52342592D01*
X147323903Y-52114337D01*
X147224035Y-51900171D01*
X147218425Y-51892158D01*
X147088494Y-51706597D01*
X146921402Y-51539506D01*
X146921395Y-51539501D01*
X146727834Y-51403967D01*
X146727830Y-51403965D01*
X146678174Y-51380810D01*
X146513663Y-51304097D01*
X146513659Y-51304096D01*
X146513655Y-51304094D01*
X146285413Y-51242938D01*
X146285403Y-51242936D01*
X146050001Y-51222341D01*
X146049999Y-51222341D01*
X145814596Y-51242936D01*
X145814586Y-51242938D01*
X145586344Y-51304094D01*
X145586335Y-51304098D01*
X145372171Y-51403964D01*
X145372169Y-51403965D01*
X145178597Y-51539505D01*
X145011505Y-51706597D01*
X144881575Y-51892158D01*
X144826998Y-51935783D01*
X144757500Y-51942977D01*
X144695145Y-51911454D01*
X144678425Y-51892158D01*
X144548496Y-51706600D01*
X144548493Y-51706597D01*
X144426567Y-51584671D01*
X144393084Y-51523351D01*
X144398068Y-51453659D01*
X144439939Y-51397725D01*
X144470915Y-51380810D01*
X144602331Y-51331796D01*
X144717546Y-51245546D01*
X144803796Y-51130331D01*
X144854091Y-50995483D01*
X144860500Y-50935873D01*
X144860499Y-49140128D01*
X144854091Y-49080517D01*
X144852809Y-49077081D01*
X144803797Y-48945671D01*
X144803793Y-48945664D01*
X144717547Y-48830455D01*
X144717544Y-48830452D01*
X144602335Y-48744206D01*
X144602328Y-48744202D01*
X144467482Y-48693908D01*
X144467483Y-48693908D01*
X144407883Y-48687501D01*
X144407881Y-48687500D01*
X144407873Y-48687500D01*
X144407864Y-48687500D01*
X142612129Y-48687500D01*
X142612123Y-48687501D01*
X142552516Y-48693908D01*
X142417671Y-48744202D01*
X142417664Y-48744206D01*
X142302455Y-48830452D01*
X142302452Y-48830455D01*
X142216206Y-48945664D01*
X142216202Y-48945671D01*
X142165908Y-49080517D01*
X142161510Y-49121430D01*
X142159501Y-49140123D01*
X142159500Y-49140135D01*
X142159500Y-50275769D01*
X142139815Y-50342808D01*
X142123181Y-50363450D01*
X95875050Y-96611580D01*
X95875044Y-96611588D01*
X95829378Y-96679933D01*
X95813957Y-96698724D01*
X90549501Y-101963181D01*
X90488178Y-101996666D01*
X90461820Y-101999500D01*
X75695080Y-101999500D01*
X75550092Y-102028340D01*
X75550082Y-102028343D01*
X75413511Y-102084912D01*
X75413498Y-102084919D01*
X75290584Y-102167048D01*
X75290580Y-102167051D01*
X73057451Y-104400181D01*
X72996128Y-104433666D01*
X72969770Y-104436500D01*
X72880024Y-104436500D01*
X72679544Y-104473976D01*
X72679541Y-104473976D01*
X72679541Y-104473977D01*
X72489364Y-104547651D01*
X72489357Y-104547655D01*
X72315960Y-104655017D01*
X72315958Y-104655019D01*
X72165237Y-104792418D01*
X72042327Y-104955178D01*
X71951422Y-105137739D01*
X71951417Y-105137752D01*
X71895602Y-105333917D01*
X71876785Y-105536999D01*
X71876785Y-105537000D01*
X71895602Y-105740082D01*
X71951417Y-105936247D01*
X71951422Y-105936260D01*
X72042327Y-106118821D01*
X72165237Y-106281581D01*
X72315958Y-106418980D01*
X72315960Y-106418982D01*
X72385432Y-106461997D01*
X72489363Y-106526348D01*
X72679544Y-106600024D01*
X72880024Y-106637500D01*
X72880026Y-106637500D01*
X73083974Y-106637500D01*
X73083976Y-106637500D01*
X73284456Y-106600024D01*
X73474637Y-106526348D01*
X73648041Y-106418981D01*
X73798764Y-106281579D01*
X73921673Y-106118821D01*
X74012582Y-105936250D01*
X74068397Y-105740083D01*
X74087215Y-105537000D01*
X74087214Y-105536999D01*
X74087562Y-105533254D01*
X74113348Y-105468317D01*
X74123344Y-105457022D01*
X74410823Y-105169543D01*
X74472144Y-105136060D01*
X74541836Y-105141044D01*
X74597769Y-105182916D01*
X74622186Y-105248380D01*
X74617769Y-105291160D01*
X74605602Y-105333921D01*
X74586785Y-105536999D01*
X74586785Y-105537000D01*
X74605602Y-105740082D01*
X74661417Y-105936247D01*
X74661422Y-105936260D01*
X74752327Y-106118821D01*
X74875237Y-106281581D01*
X75025958Y-106418980D01*
X75025960Y-106418982D01*
X75095432Y-106461997D01*
X75199363Y-106526348D01*
X75389544Y-106600024D01*
X75590024Y-106637500D01*
X75590026Y-106637500D01*
X75793974Y-106637500D01*
X75793976Y-106637500D01*
X75994456Y-106600024D01*
X76184637Y-106526348D01*
X76358041Y-106418981D01*
X76508764Y-106281579D01*
X76631673Y-106118821D01*
X76722582Y-105936250D01*
X76778397Y-105740083D01*
X76797215Y-105537000D01*
X76797214Y-105536999D01*
X76797562Y-105533254D01*
X76823348Y-105468317D01*
X76833344Y-105457022D01*
X77753548Y-104536819D01*
X77814871Y-104503334D01*
X77841229Y-104500500D01*
X89692721Y-104500500D01*
X89759760Y-104520185D01*
X89805515Y-104572989D01*
X89815459Y-104642147D01*
X89786434Y-104705703D01*
X89780402Y-104712181D01*
X87105836Y-107386747D01*
X87044513Y-107420232D01*
X87018155Y-107423066D01*
X78325823Y-107423066D01*
X78265405Y-107435084D01*
X78227693Y-107442585D01*
X78204984Y-107447102D01*
X78204982Y-107447103D01*
X78171641Y-107460913D01*
X78091153Y-107494250D01*
X78091139Y-107494258D01*
X77988706Y-107562704D01*
X77988698Y-107562710D01*
X77901573Y-107649836D01*
X72035387Y-113516021D01*
X71974064Y-113549506D01*
X71904372Y-113544522D01*
X71848439Y-113502650D01*
X71824022Y-113437186D01*
X71827931Y-113396245D01*
X71828341Y-113394712D01*
X71828346Y-113394703D01*
X71885160Y-113182674D01*
X71904291Y-112964000D01*
X71885160Y-112745326D01*
X71828346Y-112533297D01*
X71735578Y-112334355D01*
X71630508Y-112184298D01*
X71609674Y-112154544D01*
X71582723Y-112127593D01*
X71454457Y-111999327D01*
X71454453Y-111999324D01*
X71454452Y-111999323D01*
X71274650Y-111873424D01*
X71274642Y-111873420D01*
X71130877Y-111806382D01*
X71078437Y-111760210D01*
X71059285Y-111693017D01*
X71079500Y-111626136D01*
X71130877Y-111581618D01*
X71274646Y-111514578D01*
X71454457Y-111388673D01*
X71609673Y-111233457D01*
X71735578Y-111053646D01*
X71828346Y-110854703D01*
X71885160Y-110642674D01*
X71904291Y-110424000D01*
X71885160Y-110205326D01*
X71828346Y-109993297D01*
X71735578Y-109794355D01*
X71648784Y-109670399D01*
X71609674Y-109614544D01*
X71568431Y-109573301D01*
X71454457Y-109459327D01*
X71454453Y-109459324D01*
X71454452Y-109459323D01*
X71274650Y-109333424D01*
X71274642Y-109333420D01*
X71075708Y-109240656D01*
X71075706Y-109240655D01*
X71075703Y-109240654D01*
X70924885Y-109200241D01*
X70863675Y-109183840D01*
X70863668Y-109183839D01*
X70645002Y-109164709D01*
X70644998Y-109164709D01*
X70426331Y-109183839D01*
X70426324Y-109183840D01*
X70214293Y-109240655D01*
X70015356Y-109333421D01*
X70015354Y-109333422D01*
X69835540Y-109459328D01*
X69680328Y-109614540D01*
X69554422Y-109794354D01*
X69554421Y-109794356D01*
X69461655Y-109993293D01*
X69404840Y-110205324D01*
X69404839Y-110205331D01*
X69385709Y-110423997D01*
X65743414Y-110423997D01*
X65716936Y-110370823D01*
X65716931Y-110370815D01*
X65666791Y-110304419D01*
X65584442Y-110195371D01*
X65421968Y-110047257D01*
X65334820Y-109993297D01*
X65235046Y-109931519D01*
X65235044Y-109931518D01*
X65164282Y-109904105D01*
X65030037Y-109852098D01*
X64813927Y-109811700D01*
X64594073Y-109811700D01*
X64377963Y-109852098D01*
X64334156Y-109869069D01*
X64172955Y-109931518D01*
X64172953Y-109931519D01*
X63986036Y-110047254D01*
X63986034Y-110047255D01*
X63986032Y-110047257D01*
X63857083Y-110164809D01*
X63823557Y-110195372D01*
X63691068Y-110370815D01*
X63691063Y-110370823D01*
X63593069Y-110567620D01*
X63532903Y-110779086D01*
X63512618Y-110998000D01*
X60810299Y-110998000D01*
X60810299Y-110264328D01*
X60803957Y-110205331D01*
X60803891Y-110204716D01*
X60753597Y-110069871D01*
X60753593Y-110069864D01*
X60667347Y-109954655D01*
X60667344Y-109954652D01*
X60552135Y-109868406D01*
X60552128Y-109868402D01*
X60417282Y-109818108D01*
X60417283Y-109818108D01*
X60357683Y-109811701D01*
X60357681Y-109811700D01*
X60357673Y-109811700D01*
X60357664Y-109811700D01*
X58890329Y-109811700D01*
X58890323Y-109811701D01*
X58830716Y-109818108D01*
X58695871Y-109868402D01*
X58695864Y-109868406D01*
X58580655Y-109954652D01*
X58580652Y-109954655D01*
X58494406Y-110069864D01*
X58494402Y-110069871D01*
X58444108Y-110204717D01*
X58437701Y-110264316D01*
X58437701Y-110264323D01*
X58437700Y-110264335D01*
X39727141Y-110264335D01*
X39733860Y-110262722D01*
X39873899Y-110204716D01*
X39970239Y-110164811D01*
X39970240Y-110164810D01*
X39970243Y-110164809D01*
X40188399Y-110031123D01*
X40382956Y-109864956D01*
X40549123Y-109670399D01*
X40682809Y-109452243D01*
X40780722Y-109215860D01*
X40840452Y-108967070D01*
X40860526Y-108712000D01*
X40840452Y-108456930D01*
X40780722Y-108208140D01*
X40711102Y-108040062D01*
X40682811Y-107971760D01*
X40682809Y-107971757D01*
X40549124Y-107753603D01*
X40549121Y-107753598D01*
X40469006Y-107659796D01*
X40382956Y-107559044D01*
X40265036Y-107458331D01*
X40188401Y-107392878D01*
X40188396Y-107392875D01*
X39970242Y-107259190D01*
X39970239Y-107259188D01*
X39733864Y-107161279D01*
X39733860Y-107161278D01*
X39485070Y-107101548D01*
X39485067Y-107101547D01*
X39485064Y-107101547D01*
X39230000Y-107081474D01*
X38974935Y-107101547D01*
X38974931Y-107101547D01*
X38974930Y-107101548D01*
X38850535Y-107131413D01*
X38726135Y-107161279D01*
X38489760Y-107259188D01*
X38489757Y-107259190D01*
X38271603Y-107392875D01*
X38271598Y-107392878D01*
X38077044Y-107559044D01*
X37910878Y-107753598D01*
X37910875Y-107753603D01*
X37777190Y-107971757D01*
X37777188Y-107971760D01*
X37679279Y-108208135D01*
X37619547Y-108456935D01*
X37599474Y-108712000D01*
X23355499Y-108712000D01*
X23355499Y-107539128D01*
X23349091Y-107479517D01*
X23342152Y-107460913D01*
X23298797Y-107344671D01*
X23298793Y-107344664D01*
X23212547Y-107229455D01*
X23212544Y-107229452D01*
X23097335Y-107143206D01*
X23097328Y-107143202D01*
X22962482Y-107092908D01*
X22962483Y-107092908D01*
X22902883Y-107086501D01*
X22902881Y-107086500D01*
X22902873Y-107086500D01*
X22902864Y-107086500D01*
X20557129Y-107086500D01*
X20557123Y-107086501D01*
X20497516Y-107092908D01*
X20362671Y-107143202D01*
X20362664Y-107143206D01*
X20247455Y-107229452D01*
X20247452Y-107229455D01*
X20161206Y-107344664D01*
X20161202Y-107344671D01*
X20110908Y-107479517D01*
X20104501Y-107539116D01*
X20104501Y-107539123D01*
X20104500Y-107539135D01*
X19304000Y-107539135D01*
X19304000Y-106461997D01*
X45664708Y-106461997D01*
X45664708Y-106462002D01*
X45683838Y-106680668D01*
X45683839Y-106680675D01*
X45685189Y-106685712D01*
X45740653Y-106892703D01*
X45740654Y-106892706D01*
X45740655Y-106892708D01*
X45833419Y-107091642D01*
X45833423Y-107091650D01*
X45959322Y-107271452D01*
X45959327Y-107271458D01*
X46114541Y-107426672D01*
X46114547Y-107426677D01*
X46294349Y-107552576D01*
X46294351Y-107552577D01*
X46294354Y-107552579D01*
X46493297Y-107645347D01*
X46705326Y-107702161D01*
X46861521Y-107715826D01*
X46923998Y-107721292D01*
X46924000Y-107721292D01*
X46924002Y-107721292D01*
X46978797Y-107716498D01*
X47142674Y-107702161D01*
X47354703Y-107645347D01*
X47553646Y-107552579D01*
X47733457Y-107426674D01*
X47888674Y-107271457D01*
X48014579Y-107091646D01*
X48107347Y-106892703D01*
X48164161Y-106680674D01*
X48183292Y-106462000D01*
X48179528Y-106418981D01*
X48176117Y-106379997D01*
X48164161Y-106243326D01*
X48107347Y-106031297D01*
X48014579Y-105832354D01*
X48014577Y-105832351D01*
X48014576Y-105832349D01*
X47893990Y-105660135D01*
X50749500Y-105660135D01*
X50749500Y-107263870D01*
X50749501Y-107263876D01*
X50755908Y-107323483D01*
X50806202Y-107458328D01*
X50806206Y-107458335D01*
X50892452Y-107573544D01*
X50892455Y-107573547D01*
X51007664Y-107659793D01*
X51007671Y-107659797D01*
X51142517Y-107710091D01*
X51142516Y-107710091D01*
X51149444Y-107710835D01*
X51202127Y-107716500D01*
X52805872Y-107716499D01*
X52865483Y-107710091D01*
X53000331Y-107659796D01*
X53115546Y-107573546D01*
X53201796Y-107458331D01*
X53252091Y-107323483D01*
X53258500Y-107263873D01*
X53258499Y-105660128D01*
X53252091Y-105600517D01*
X53234261Y-105552713D01*
X53201797Y-105465671D01*
X53201793Y-105465664D01*
X53115547Y-105350455D01*
X53115544Y-105350452D01*
X53000335Y-105264206D01*
X53000328Y-105264202D01*
X52865482Y-105213908D01*
X52865483Y-105213908D01*
X52805883Y-105207501D01*
X52805881Y-105207500D01*
X52805873Y-105207500D01*
X52805864Y-105207500D01*
X51202129Y-105207500D01*
X51202123Y-105207501D01*
X51142516Y-105213908D01*
X51007671Y-105264202D01*
X51007664Y-105264206D01*
X50892455Y-105350452D01*
X50892452Y-105350455D01*
X50806206Y-105465664D01*
X50806202Y-105465671D01*
X50755908Y-105600517D01*
X50750315Y-105652543D01*
X50749501Y-105660123D01*
X50749500Y-105660135D01*
X47893990Y-105660135D01*
X47888677Y-105652547D01*
X47888672Y-105652541D01*
X47733458Y-105497327D01*
X47733452Y-105497322D01*
X47553650Y-105371423D01*
X47553642Y-105371419D01*
X47354708Y-105278655D01*
X47354706Y-105278654D01*
X47354703Y-105278653D01*
X47203885Y-105238240D01*
X47142675Y-105221839D01*
X47142668Y-105221838D01*
X46924002Y-105202708D01*
X46923998Y-105202708D01*
X46705331Y-105221838D01*
X46705324Y-105221839D01*
X46606275Y-105248380D01*
X46493297Y-105278653D01*
X46493295Y-105278653D01*
X46493291Y-105278655D01*
X46294357Y-105371419D01*
X46294349Y-105371423D01*
X46114547Y-105497322D01*
X46114541Y-105497327D01*
X45959327Y-105652541D01*
X45959322Y-105652547D01*
X45833423Y-105832349D01*
X45833419Y-105832357D01*
X45740655Y-106031291D01*
X45683839Y-106243324D01*
X45683838Y-106243331D01*
X45664708Y-106461997D01*
X19304000Y-106461997D01*
X19304000Y-101112000D01*
X25293474Y-101112000D01*
X25313547Y-101367064D01*
X25373279Y-101615864D01*
X25471188Y-101852239D01*
X25471190Y-101852242D01*
X25604875Y-102070396D01*
X25604878Y-102070401D01*
X25680200Y-102158591D01*
X25771044Y-102264956D01*
X25895579Y-102371319D01*
X25965598Y-102431121D01*
X25965603Y-102431124D01*
X26183757Y-102564809D01*
X26183760Y-102564811D01*
X26420135Y-102662720D01*
X26420140Y-102662722D01*
X26668930Y-102722452D01*
X26924000Y-102742526D01*
X27179070Y-102722452D01*
X27427860Y-102662722D01*
X27546051Y-102613765D01*
X27664239Y-102564811D01*
X27664240Y-102564810D01*
X27664243Y-102564809D01*
X27882399Y-102431123D01*
X28076956Y-102264956D01*
X28243123Y-102070399D01*
X28376809Y-101852243D01*
X28474722Y-101615860D01*
X28534452Y-101367070D01*
X28554526Y-101112000D01*
X28534452Y-100856930D01*
X28474722Y-100608140D01*
X28474720Y-100608135D01*
X28376811Y-100371760D01*
X28376809Y-100371757D01*
X28363929Y-100350739D01*
X28243123Y-100153601D01*
X28243122Y-100153600D01*
X28243121Y-100153598D01*
X28181817Y-100081821D01*
X28076956Y-99959044D01*
X27970377Y-99868017D01*
X27882401Y-99792878D01*
X27882396Y-99792875D01*
X27664242Y-99659190D01*
X27664239Y-99659188D01*
X27427864Y-99561279D01*
X27427860Y-99561278D01*
X27179070Y-99501548D01*
X27179067Y-99501547D01*
X27179064Y-99501547D01*
X26924000Y-99481474D01*
X26668935Y-99501547D01*
X26668931Y-99501547D01*
X26668930Y-99501548D01*
X26544535Y-99531413D01*
X26420135Y-99561279D01*
X26183760Y-99659188D01*
X26183757Y-99659190D01*
X25965603Y-99792875D01*
X25965598Y-99792878D01*
X25771044Y-99959044D01*
X25604878Y-100153598D01*
X25604875Y-100153603D01*
X25471190Y-100371757D01*
X25471188Y-100371760D01*
X25373279Y-100608135D01*
X25313547Y-100856935D01*
X25293474Y-101112000D01*
X19304000Y-101112000D01*
X19304000Y-75692000D01*
X37702540Y-75692000D01*
X37722326Y-75880256D01*
X37722327Y-75880259D01*
X37780818Y-76060277D01*
X37780821Y-76060284D01*
X37875467Y-76224216D01*
X38002129Y-76364888D01*
X38155265Y-76476148D01*
X38155270Y-76476151D01*
X38328192Y-76553142D01*
X38328197Y-76553144D01*
X38513354Y-76592500D01*
X38513355Y-76592500D01*
X38702644Y-76592500D01*
X38702646Y-76592500D01*
X38887803Y-76553144D01*
X39060730Y-76476151D01*
X39213871Y-76364888D01*
X39340533Y-76224216D01*
X39435179Y-76060284D01*
X39493674Y-75880256D01*
X39513460Y-75692000D01*
X39493674Y-75503744D01*
X39435179Y-75323716D01*
X39340533Y-75159784D01*
X39213871Y-75019112D01*
X39213870Y-75019111D01*
X39060734Y-74907851D01*
X39060729Y-74907848D01*
X38887807Y-74830857D01*
X38887802Y-74830855D01*
X38742001Y-74799865D01*
X38702646Y-74791500D01*
X38513354Y-74791500D01*
X38480897Y-74798398D01*
X38328197Y-74830855D01*
X38328192Y-74830857D01*
X38155270Y-74907848D01*
X38155265Y-74907851D01*
X38002129Y-75019111D01*
X37875466Y-75159785D01*
X37780821Y-75323715D01*
X37780818Y-75323722D01*
X37722327Y-75503740D01*
X37722326Y-75503744D01*
X37702540Y-75692000D01*
X19304000Y-75692000D01*
X19304000Y-65512000D01*
X25293474Y-65512000D01*
X25313547Y-65767064D01*
X25313547Y-65767067D01*
X25313548Y-65767070D01*
X25373278Y-66015860D01*
X25373279Y-66015864D01*
X25471188Y-66252239D01*
X25471190Y-66252242D01*
X25604875Y-66470396D01*
X25604878Y-66470401D01*
X25671154Y-66548000D01*
X25771044Y-66664956D01*
X25895579Y-66771319D01*
X25965598Y-66831121D01*
X25965603Y-66831124D01*
X26183757Y-66964809D01*
X26183760Y-66964811D01*
X26420135Y-67062720D01*
X26420140Y-67062722D01*
X26668930Y-67122452D01*
X26924000Y-67142526D01*
X27179070Y-67122452D01*
X27427860Y-67062722D01*
X27566313Y-67005373D01*
X27664239Y-66964811D01*
X27664240Y-66964810D01*
X27664243Y-66964809D01*
X27882399Y-66831123D01*
X28076956Y-66664956D01*
X28243123Y-66470399D01*
X28376809Y-66252243D01*
X28474722Y-66015860D01*
X28534452Y-65767070D01*
X28554526Y-65512000D01*
X28534452Y-65256930D01*
X28474722Y-65008140D01*
X28474720Y-65008135D01*
X28376811Y-64771760D01*
X28376809Y-64771757D01*
X28337133Y-64707011D01*
X28243123Y-64553601D01*
X28243122Y-64553600D01*
X28243121Y-64553598D01*
X28183319Y-64483579D01*
X28076956Y-64359044D01*
X27936995Y-64239506D01*
X27882401Y-64192878D01*
X27882396Y-64192875D01*
X27664242Y-64059190D01*
X27664239Y-64059188D01*
X27427864Y-63961279D01*
X27426710Y-63961002D01*
X27179070Y-63901548D01*
X27179067Y-63901547D01*
X27179064Y-63901547D01*
X26924000Y-63881474D01*
X26668935Y-63901547D01*
X26668931Y-63901547D01*
X26668930Y-63901548D01*
X26578973Y-63923145D01*
X26420135Y-63961279D01*
X26183760Y-64059188D01*
X26183757Y-64059190D01*
X25965603Y-64192875D01*
X25965598Y-64192878D01*
X25771044Y-64359044D01*
X25604878Y-64553598D01*
X25604875Y-64553603D01*
X25471190Y-64771757D01*
X25471188Y-64771760D01*
X25373279Y-65008135D01*
X25313547Y-65256935D01*
X25293474Y-65512000D01*
X19304000Y-65512000D01*
X19304000Y-59436000D01*
X24462618Y-59436000D01*
X24482903Y-59654913D01*
X24543069Y-59866379D01*
X24641063Y-60063176D01*
X24641068Y-60063184D01*
X24707312Y-60150905D01*
X24773558Y-60238629D01*
X24936032Y-60386743D01*
X25122955Y-60502481D01*
X25327963Y-60581902D01*
X25544073Y-60622300D01*
X25544075Y-60622300D01*
X25763925Y-60622300D01*
X25763927Y-60622300D01*
X25980037Y-60581902D01*
X26185045Y-60502481D01*
X26371968Y-60386743D01*
X26534442Y-60238629D01*
X26666933Y-60063182D01*
X26764931Y-59866377D01*
X26825096Y-59654916D01*
X26845382Y-59436000D01*
X26825096Y-59217084D01*
X26764931Y-59005623D01*
X26764930Y-59005620D01*
X26666936Y-58808823D01*
X26666931Y-58808815D01*
X26582113Y-58696498D01*
X26534442Y-58633371D01*
X26371968Y-58485257D01*
X26291952Y-58435713D01*
X26185046Y-58369519D01*
X26185044Y-58369518D01*
X26114282Y-58342105D01*
X25980037Y-58290098D01*
X25763927Y-58249700D01*
X25544073Y-58249700D01*
X25327963Y-58290098D01*
X25270719Y-58312274D01*
X25122955Y-58369518D01*
X25122953Y-58369519D01*
X24936036Y-58485254D01*
X24936034Y-58485255D01*
X24936032Y-58485257D01*
X24773558Y-58633371D01*
X24773557Y-58633372D01*
X24641068Y-58808815D01*
X24641063Y-58808823D01*
X24543069Y-59005620D01*
X24482903Y-59217086D01*
X24462618Y-59436000D01*
X19304000Y-59436000D01*
X19304000Y-56150000D01*
X33744564Y-56150000D01*
X33763243Y-56434998D01*
X33764287Y-56450918D01*
X33764288Y-56450930D01*
X33823118Y-56746683D01*
X33823122Y-56746698D01*
X33920053Y-57032247D01*
X33920062Y-57032268D01*
X34053431Y-57302713D01*
X34053435Y-57302720D01*
X34220973Y-57553459D01*
X34419810Y-57780189D01*
X34646540Y-57979026D01*
X34897279Y-58146564D01*
X34897286Y-58146568D01*
X35167731Y-58279937D01*
X35167736Y-58279939D01*
X35167748Y-58279945D01*
X35453309Y-58376880D01*
X35653251Y-58416651D01*
X35749069Y-58435711D01*
X35749070Y-58435711D01*
X35749080Y-58435713D01*
X36050000Y-58455436D01*
X36350920Y-58435713D01*
X36646691Y-58376880D01*
X36932252Y-58279945D01*
X37202718Y-58146566D01*
X37453461Y-57979025D01*
X37680189Y-57780189D01*
X37879025Y-57553461D01*
X38046566Y-57302718D01*
X38179945Y-57032252D01*
X38276880Y-56746691D01*
X38335713Y-56450920D01*
X38355436Y-56150000D01*
X38335713Y-55849080D01*
X38276880Y-55553309D01*
X38179945Y-55267748D01*
X38106097Y-55118000D01*
X38046568Y-54997286D01*
X38046564Y-54997279D01*
X37879026Y-54746540D01*
X37680189Y-54519810D01*
X37453459Y-54320973D01*
X37202720Y-54153435D01*
X37202713Y-54153431D01*
X36932268Y-54020062D01*
X36932247Y-54020053D01*
X36646698Y-53923122D01*
X36646692Y-53923120D01*
X36646691Y-53923120D01*
X36646689Y-53923119D01*
X36646683Y-53923118D01*
X36350930Y-53864288D01*
X36350921Y-53864287D01*
X36350920Y-53864287D01*
X36050000Y-53844564D01*
X35749080Y-53864287D01*
X35749079Y-53864287D01*
X35749069Y-53864288D01*
X35453316Y-53923118D01*
X35453301Y-53923122D01*
X35167752Y-54020053D01*
X35167731Y-54020062D01*
X34897286Y-54153431D01*
X34897279Y-54153435D01*
X34646540Y-54320973D01*
X34419810Y-54519810D01*
X34220973Y-54746540D01*
X34053435Y-54997279D01*
X34053431Y-54997286D01*
X33920062Y-55267731D01*
X33920053Y-55267752D01*
X33823122Y-55553301D01*
X33823118Y-55553316D01*
X33764288Y-55849069D01*
X33764287Y-55849079D01*
X33764287Y-55849080D01*
X33744564Y-56150000D01*
X19304000Y-56150000D01*
X19304000Y-47498001D01*
X41782999Y-47498001D01*
X41998530Y-75947969D01*
X41979354Y-76015155D01*
X41926898Y-76061309D01*
X41920254Y-76062771D01*
X41910000Y-76073000D01*
X41910000Y-98171000D01*
X80641006Y-98171000D01*
X81574543Y-98155589D01*
X91000000Y-98000000D01*
X90932000Y-76200000D01*
X90931450Y-76199998D01*
X90856512Y-76199804D01*
X90789524Y-76179945D01*
X90743906Y-76127022D01*
X90732834Y-76075491D01*
X90732873Y-76060284D01*
X90792172Y-52577999D01*
X98974341Y-52577999D01*
X98974341Y-52578000D01*
X98994936Y-52813403D01*
X98994938Y-52813413D01*
X99056094Y-53041655D01*
X99056096Y-53041659D01*
X99056097Y-53041663D01*
X99060000Y-53050032D01*
X99155965Y-53255830D01*
X99155967Y-53255834D01*
X99232280Y-53364819D01*
X99291501Y-53449396D01*
X99291506Y-53449402D01*
X99458597Y-53616493D01*
X99458603Y-53616498D01*
X99644158Y-53746425D01*
X99687783Y-53801002D01*
X99694977Y-53870500D01*
X99663454Y-53932855D01*
X99644158Y-53949575D01*
X99458597Y-54079505D01*
X99291505Y-54246597D01*
X99155965Y-54440169D01*
X99155964Y-54440171D01*
X99056098Y-54654335D01*
X99056094Y-54654344D01*
X98994938Y-54882586D01*
X98994936Y-54882596D01*
X98974341Y-55117999D01*
X98974341Y-55118000D01*
X98994936Y-55353403D01*
X98994938Y-55353413D01*
X99056094Y-55581655D01*
X99056096Y-55581659D01*
X99056097Y-55581663D01*
X99060000Y-55590032D01*
X99155965Y-55795830D01*
X99155967Y-55795834D01*
X99264281Y-55950521D01*
X99291501Y-55989396D01*
X99291506Y-55989402D01*
X99458597Y-56156493D01*
X99458603Y-56156498D01*
X99644158Y-56286425D01*
X99687783Y-56341002D01*
X99694977Y-56410500D01*
X99663454Y-56472855D01*
X99644158Y-56489575D01*
X99458597Y-56619505D01*
X99291505Y-56786597D01*
X99155965Y-56980169D01*
X99155964Y-56980171D01*
X99056098Y-57194335D01*
X99056094Y-57194344D01*
X98994938Y-57422586D01*
X98994936Y-57422596D01*
X98974341Y-57657999D01*
X98974341Y-57658000D01*
X98994936Y-57893403D01*
X98994938Y-57893413D01*
X99056094Y-58121655D01*
X99056096Y-58121659D01*
X99056097Y-58121663D01*
X99115802Y-58249700D01*
X99155965Y-58335830D01*
X99155967Y-58335834D01*
X99184709Y-58376881D01*
X99291501Y-58529396D01*
X99291506Y-58529402D01*
X99458597Y-58696493D01*
X99458603Y-58696498D01*
X99644158Y-58826425D01*
X99687783Y-58881002D01*
X99694977Y-58950500D01*
X99663454Y-59012855D01*
X99644158Y-59029575D01*
X99458597Y-59159505D01*
X99291505Y-59326597D01*
X99155965Y-59520169D01*
X99155964Y-59520171D01*
X99056098Y-59734335D01*
X99056094Y-59734344D01*
X98994938Y-59962586D01*
X98994936Y-59962596D01*
X98974341Y-60197999D01*
X98974341Y-60198000D01*
X98994936Y-60433403D01*
X98994938Y-60433413D01*
X99056094Y-60661655D01*
X99056096Y-60661659D01*
X99056097Y-60661663D01*
X99060000Y-60670032D01*
X99155965Y-60875830D01*
X99155967Y-60875834D01*
X99264281Y-61030521D01*
X99291501Y-61069396D01*
X99291506Y-61069402D01*
X99458597Y-61236493D01*
X99458603Y-61236498D01*
X99644158Y-61366425D01*
X99687783Y-61421002D01*
X99694977Y-61490500D01*
X99663454Y-61552855D01*
X99644158Y-61569575D01*
X99458597Y-61699505D01*
X99291505Y-61866597D01*
X99155965Y-62060169D01*
X99155964Y-62060171D01*
X99056098Y-62274335D01*
X99056094Y-62274344D01*
X98994938Y-62502586D01*
X98994936Y-62502596D01*
X98974341Y-62737999D01*
X98974341Y-62738000D01*
X98994936Y-62973403D01*
X98994938Y-62973413D01*
X99056094Y-63201655D01*
X99056096Y-63201659D01*
X99056097Y-63201663D01*
X99060000Y-63210032D01*
X99155965Y-63415830D01*
X99155967Y-63415834D01*
X99264281Y-63570521D01*
X99291501Y-63609396D01*
X99291506Y-63609402D01*
X99458597Y-63776493D01*
X99458603Y-63776498D01*
X99644158Y-63906425D01*
X99687783Y-63961002D01*
X99694977Y-64030500D01*
X99663454Y-64092855D01*
X99644158Y-64109575D01*
X99458597Y-64239505D01*
X99291505Y-64406597D01*
X99155965Y-64600169D01*
X99155964Y-64600171D01*
X99056098Y-64814335D01*
X99056094Y-64814344D01*
X98994938Y-65042586D01*
X98994936Y-65042596D01*
X98974341Y-65277999D01*
X98974341Y-65278000D01*
X98994936Y-65513403D01*
X98994938Y-65513413D01*
X99056094Y-65741655D01*
X99056096Y-65741659D01*
X99056097Y-65741663D01*
X99136004Y-65913023D01*
X99155965Y-65955830D01*
X99155967Y-65955834D01*
X99210234Y-66033334D01*
X99291501Y-66149396D01*
X99291506Y-66149402D01*
X99458597Y-66316493D01*
X99458603Y-66316498D01*
X99644158Y-66446425D01*
X99687783Y-66501002D01*
X99694977Y-66570500D01*
X99663454Y-66632855D01*
X99644158Y-66649575D01*
X99458597Y-66779505D01*
X99291505Y-66946597D01*
X99155965Y-67140169D01*
X99155964Y-67140171D01*
X99056098Y-67354335D01*
X99056094Y-67354344D01*
X98994938Y-67582586D01*
X98994936Y-67582596D01*
X98974341Y-67817999D01*
X98974341Y-67818000D01*
X98994936Y-68053403D01*
X98994938Y-68053413D01*
X99056094Y-68281655D01*
X99056096Y-68281659D01*
X99056097Y-68281663D01*
X99060000Y-68290032D01*
X99155965Y-68495830D01*
X99155967Y-68495834D01*
X99264281Y-68650521D01*
X99291501Y-68689396D01*
X99291506Y-68689402D01*
X99458597Y-68856493D01*
X99458603Y-68856498D01*
X99644158Y-68986425D01*
X99687783Y-69041002D01*
X99694977Y-69110500D01*
X99663454Y-69172855D01*
X99644158Y-69189575D01*
X99458597Y-69319505D01*
X99291505Y-69486597D01*
X99155965Y-69680169D01*
X99155964Y-69680171D01*
X99056098Y-69894335D01*
X99056094Y-69894344D01*
X98994938Y-70122586D01*
X98994936Y-70122596D01*
X98974341Y-70357999D01*
X98974341Y-70358000D01*
X98994936Y-70593403D01*
X98994938Y-70593413D01*
X99056094Y-70821655D01*
X99056096Y-70821659D01*
X99056097Y-70821663D01*
X99060000Y-70830032D01*
X99155965Y-71035830D01*
X99155967Y-71035834D01*
X99264281Y-71190521D01*
X99291501Y-71229396D01*
X99291506Y-71229402D01*
X99458597Y-71396493D01*
X99458603Y-71396498D01*
X99644158Y-71526425D01*
X99687783Y-71581002D01*
X99694977Y-71650500D01*
X99663454Y-71712855D01*
X99644158Y-71729575D01*
X99458597Y-71859505D01*
X99291505Y-72026597D01*
X99155965Y-72220169D01*
X99155964Y-72220171D01*
X99056098Y-72434335D01*
X99056094Y-72434344D01*
X98994938Y-72662586D01*
X98994936Y-72662596D01*
X98974341Y-72897999D01*
X98974341Y-72898000D01*
X98994936Y-73133403D01*
X98994938Y-73133413D01*
X99056094Y-73361655D01*
X99056096Y-73361659D01*
X99056097Y-73361663D01*
X99128898Y-73517784D01*
X99155965Y-73575830D01*
X99155967Y-73575834D01*
X99230107Y-73681716D01*
X99291505Y-73769401D01*
X99458599Y-73936495D01*
X99555384Y-74004265D01*
X99652165Y-74072032D01*
X99652167Y-74072033D01*
X99652170Y-74072035D01*
X99866337Y-74171903D01*
X100094592Y-74233063D01*
X100282918Y-74249539D01*
X100329999Y-74253659D01*
X100330000Y-74253659D01*
X100330001Y-74253659D01*
X100369234Y-74250226D01*
X100565408Y-74233063D01*
X100793663Y-74171903D01*
X101007830Y-74072035D01*
X101201401Y-73936495D01*
X101368495Y-73769401D01*
X101498425Y-73583842D01*
X101553002Y-73540217D01*
X101622500Y-73533023D01*
X101684855Y-73564546D01*
X101701575Y-73583842D01*
X101831500Y-73769395D01*
X101831505Y-73769401D01*
X101998599Y-73936495D01*
X102095384Y-74004265D01*
X102192165Y-74072032D01*
X102192167Y-74072033D01*
X102192170Y-74072035D01*
X102406337Y-74171903D01*
X102634592Y-74233063D01*
X102822918Y-74249539D01*
X102869999Y-74253659D01*
X102870000Y-74253659D01*
X102870001Y-74253659D01*
X102909234Y-74250226D01*
X103105408Y-74233063D01*
X103333663Y-74171903D01*
X103547830Y-74072035D01*
X103579299Y-74050000D01*
X107694540Y-74050000D01*
X107714326Y-74238256D01*
X107714327Y-74238259D01*
X107772818Y-74418277D01*
X107772821Y-74418284D01*
X107867467Y-74582216D01*
X107994129Y-74722888D01*
X108147265Y-74834148D01*
X108147270Y-74834151D01*
X108320192Y-74911142D01*
X108320197Y-74911144D01*
X108505354Y-74950500D01*
X108505355Y-74950500D01*
X108694644Y-74950500D01*
X108694646Y-74950500D01*
X108879803Y-74911144D01*
X109052730Y-74834151D01*
X109205871Y-74722888D01*
X109332533Y-74582216D01*
X109427179Y-74418284D01*
X109485674Y-74238256D01*
X109505460Y-74050000D01*
X109485674Y-73861744D01*
X109427179Y-73681716D01*
X109332533Y-73517784D01*
X109205871Y-73377112D01*
X109205870Y-73377111D01*
X109052734Y-73265851D01*
X109052729Y-73265848D01*
X108879807Y-73188857D01*
X108879802Y-73188855D01*
X108734001Y-73157865D01*
X108694646Y-73149500D01*
X108505354Y-73149500D01*
X108472897Y-73156398D01*
X108320197Y-73188855D01*
X108320192Y-73188857D01*
X108147270Y-73265848D01*
X108147265Y-73265851D01*
X107994129Y-73377111D01*
X107867466Y-73517785D01*
X107772821Y-73681715D01*
X107772818Y-73681722D01*
X107714327Y-73861740D01*
X107714326Y-73861744D01*
X107694540Y-74050000D01*
X103579299Y-74050000D01*
X103741401Y-73936495D01*
X103908495Y-73769401D01*
X104044035Y-73575830D01*
X104143903Y-73361663D01*
X104205063Y-73133408D01*
X104225659Y-72898000D01*
X104205063Y-72662592D01*
X104143903Y-72434337D01*
X104044035Y-72220171D01*
X104038425Y-72212158D01*
X103908494Y-72026597D01*
X103741402Y-71859506D01*
X103741396Y-71859501D01*
X103555842Y-71729575D01*
X103512217Y-71674998D01*
X103505023Y-71605500D01*
X103536546Y-71543145D01*
X103555842Y-71526425D01*
X103578026Y-71510891D01*
X103741401Y-71396495D01*
X103908495Y-71229401D01*
X104044035Y-71035830D01*
X104143903Y-70821663D01*
X104205063Y-70593408D01*
X104225659Y-70358000D01*
X104205063Y-70122592D01*
X104143903Y-69894337D01*
X104044035Y-69680171D01*
X104038425Y-69672158D01*
X103908494Y-69486597D01*
X103741402Y-69319506D01*
X103741396Y-69319501D01*
X103555842Y-69189575D01*
X103512217Y-69134998D01*
X103505023Y-69065500D01*
X103536546Y-69003145D01*
X103555842Y-68986425D01*
X103578026Y-68970891D01*
X103741401Y-68856495D01*
X103908495Y-68689401D01*
X104044035Y-68495830D01*
X104143903Y-68281663D01*
X104205063Y-68053408D01*
X104225659Y-67818000D01*
X104205063Y-67582592D01*
X104143903Y-67354337D01*
X104044035Y-67140171D01*
X104038425Y-67132158D01*
X103908494Y-66946597D01*
X103741402Y-66779506D01*
X103741396Y-66779501D01*
X103555842Y-66649575D01*
X103512217Y-66594998D01*
X103505023Y-66525500D01*
X103536546Y-66463145D01*
X103555842Y-66446425D01*
X103578026Y-66430891D01*
X103741401Y-66316495D01*
X103908495Y-66149401D01*
X104044035Y-65955830D01*
X104143903Y-65741663D01*
X104205063Y-65513408D01*
X104225659Y-65278000D01*
X104205063Y-65042592D01*
X104143903Y-64814337D01*
X104044035Y-64600171D01*
X104038425Y-64592158D01*
X103908494Y-64406597D01*
X103741402Y-64239506D01*
X103741396Y-64239501D01*
X103555842Y-64109575D01*
X103512217Y-64054998D01*
X103505023Y-63985500D01*
X103536546Y-63923145D01*
X103555842Y-63906425D01*
X103591476Y-63881474D01*
X103741401Y-63776495D01*
X103908495Y-63609401D01*
X104044035Y-63415830D01*
X104143903Y-63201663D01*
X104205063Y-62973408D01*
X104225659Y-62738000D01*
X104205063Y-62502592D01*
X104143903Y-62274337D01*
X104044035Y-62060171D01*
X104038425Y-62052158D01*
X103908494Y-61866597D01*
X103741402Y-61699506D01*
X103741396Y-61699501D01*
X103555842Y-61569575D01*
X103512217Y-61514998D01*
X103505023Y-61445500D01*
X103536546Y-61383145D01*
X103555842Y-61366425D01*
X103578026Y-61350891D01*
X103741401Y-61236495D01*
X103908495Y-61069401D01*
X104044035Y-60875830D01*
X104143903Y-60661663D01*
X104205063Y-60433408D01*
X104225659Y-60198000D01*
X104205063Y-59962592D01*
X104143903Y-59734337D01*
X104044035Y-59520171D01*
X104038425Y-59512158D01*
X103908494Y-59326597D01*
X103741402Y-59159506D01*
X103741396Y-59159501D01*
X103555842Y-59029575D01*
X103512217Y-58974998D01*
X103505023Y-58905500D01*
X103536546Y-58843145D01*
X103555842Y-58826425D01*
X103580992Y-58808815D01*
X103741401Y-58696495D01*
X103908495Y-58529401D01*
X104044035Y-58335830D01*
X104143903Y-58121663D01*
X104205063Y-57893408D01*
X104225659Y-57658000D01*
X104205063Y-57422592D01*
X104143903Y-57194337D01*
X104044035Y-56980171D01*
X104038425Y-56972158D01*
X103908494Y-56786597D01*
X103741402Y-56619506D01*
X103741396Y-56619501D01*
X103555842Y-56489575D01*
X103512217Y-56434998D01*
X103505023Y-56365500D01*
X103536546Y-56303145D01*
X103555842Y-56286425D01*
X103578026Y-56270891D01*
X103741401Y-56156495D01*
X103908495Y-55989401D01*
X104044035Y-55795830D01*
X104143903Y-55581663D01*
X104205063Y-55353408D01*
X104225659Y-55118000D01*
X104205063Y-54882592D01*
X104143903Y-54654337D01*
X104044035Y-54440171D01*
X104038425Y-54432158D01*
X103908494Y-54246597D01*
X103741402Y-54079506D01*
X103741395Y-54079501D01*
X103547834Y-53943967D01*
X103547830Y-53943965D01*
X103547828Y-53943964D01*
X103333663Y-53844097D01*
X103333659Y-53844096D01*
X103333655Y-53844094D01*
X103105413Y-53782938D01*
X103105403Y-53782936D01*
X102870001Y-53762341D01*
X102869999Y-53762341D01*
X102634596Y-53782936D01*
X102634586Y-53782938D01*
X102406344Y-53844094D01*
X102406335Y-53844098D01*
X102192171Y-53943964D01*
X102192169Y-53943965D01*
X101998597Y-54079505D01*
X101831505Y-54246597D01*
X101701575Y-54432158D01*
X101646998Y-54475783D01*
X101577500Y-54482977D01*
X101515145Y-54451454D01*
X101498425Y-54432158D01*
X101368494Y-54246597D01*
X101201402Y-54079506D01*
X101201396Y-54079501D01*
X101015842Y-53949575D01*
X100972217Y-53894998D01*
X100965023Y-53825500D01*
X100996546Y-53763145D01*
X101015842Y-53746425D01*
X101038026Y-53730891D01*
X101201401Y-53616495D01*
X101368495Y-53449401D01*
X101504035Y-53255830D01*
X101603903Y-53041663D01*
X101665063Y-52813408D01*
X101685659Y-52578000D01*
X101665063Y-52342592D01*
X101603903Y-52114337D01*
X101504035Y-51900171D01*
X101498424Y-51892158D01*
X101368496Y-51706600D01*
X101368493Y-51706597D01*
X101246567Y-51584671D01*
X101213084Y-51523351D01*
X101218068Y-51453659D01*
X101259939Y-51397725D01*
X101290915Y-51380810D01*
X101422331Y-51331796D01*
X101537546Y-51245546D01*
X101623796Y-51130331D01*
X101672810Y-50998916D01*
X101714681Y-50942984D01*
X101780145Y-50918566D01*
X101848418Y-50933417D01*
X101876673Y-50954569D01*
X101998599Y-51076495D01*
X102095384Y-51144265D01*
X102192165Y-51212032D01*
X102192167Y-51212033D01*
X102192170Y-51212035D01*
X102406337Y-51311903D01*
X102634592Y-51373063D01*
X102811034Y-51388500D01*
X102869999Y-51393659D01*
X102870000Y-51393659D01*
X102870001Y-51393659D01*
X102928966Y-51388500D01*
X103105408Y-51373063D01*
X103333663Y-51311903D01*
X103547830Y-51212035D01*
X103741401Y-51076495D01*
X103908495Y-50909401D01*
X104044035Y-50715830D01*
X104143903Y-50501663D01*
X104205063Y-50273408D01*
X104225659Y-50038000D01*
X104205063Y-49802592D01*
X104143903Y-49574337D01*
X104044035Y-49360171D01*
X103908495Y-49166599D01*
X103908494Y-49166597D01*
X103741402Y-48999506D01*
X103741395Y-48999501D01*
X103547834Y-48863967D01*
X103547830Y-48863965D01*
X103547828Y-48863964D01*
X103333663Y-48764097D01*
X103333659Y-48764096D01*
X103333655Y-48764094D01*
X103105413Y-48702938D01*
X103105403Y-48702936D01*
X102870001Y-48682341D01*
X102869999Y-48682341D01*
X102634596Y-48702936D01*
X102634586Y-48702938D01*
X102406344Y-48764094D01*
X102406335Y-48764098D01*
X102192171Y-48863964D01*
X102192169Y-48863965D01*
X101998600Y-48999503D01*
X101876673Y-49121430D01*
X101815350Y-49154914D01*
X101745658Y-49149930D01*
X101689725Y-49108058D01*
X101672810Y-49077081D01*
X101623797Y-48945671D01*
X101623793Y-48945664D01*
X101537547Y-48830455D01*
X101537544Y-48830452D01*
X101422335Y-48744206D01*
X101422328Y-48744202D01*
X101287482Y-48693908D01*
X101287483Y-48693908D01*
X101227883Y-48687501D01*
X101227881Y-48687500D01*
X101227873Y-48687500D01*
X101227864Y-48687500D01*
X99432129Y-48687500D01*
X99432123Y-48687501D01*
X99372516Y-48693908D01*
X99237671Y-48744202D01*
X99237664Y-48744206D01*
X99122455Y-48830452D01*
X99122452Y-48830455D01*
X99036206Y-48945664D01*
X99036202Y-48945671D01*
X98985908Y-49080517D01*
X98981510Y-49121430D01*
X98979501Y-49140123D01*
X98979500Y-49140135D01*
X98979500Y-50935870D01*
X98979501Y-50935876D01*
X98985908Y-50995483D01*
X99036202Y-51130328D01*
X99036206Y-51130335D01*
X99122452Y-51245544D01*
X99122455Y-51245547D01*
X99237664Y-51331793D01*
X99237671Y-51331797D01*
X99369081Y-51380810D01*
X99425015Y-51422681D01*
X99449432Y-51488145D01*
X99434580Y-51556418D01*
X99413430Y-51584673D01*
X99291503Y-51706600D01*
X99155965Y-51900169D01*
X99155964Y-51900171D01*
X99056098Y-52114335D01*
X99056094Y-52114344D01*
X98994938Y-52342586D01*
X98994936Y-52342596D01*
X98974341Y-52577999D01*
X90792172Y-52577999D01*
X90805000Y-47498000D01*
X41783000Y-47498000D01*
X41782999Y-47498001D01*
X19304000Y-47498001D01*
X19304000Y-45973999D01*
X30914785Y-45973999D01*
X30914785Y-45974000D01*
X30933602Y-46177082D01*
X30989417Y-46373247D01*
X30989422Y-46373260D01*
X31080327Y-46555821D01*
X31203237Y-46718581D01*
X31353958Y-46855980D01*
X31353960Y-46855982D01*
X31453141Y-46917392D01*
X31527363Y-46963348D01*
X31717544Y-47037024D01*
X31918024Y-47074500D01*
X31918026Y-47074500D01*
X32121974Y-47074500D01*
X32121976Y-47074500D01*
X32322456Y-47037024D01*
X32512637Y-46963348D01*
X32686041Y-46855981D01*
X32836764Y-46718579D01*
X32959673Y-46555821D01*
X33050582Y-46373250D01*
X33106397Y-46177083D01*
X33125215Y-45974000D01*
X33106397Y-45770917D01*
X33050582Y-45574750D01*
X32959673Y-45392179D01*
X32836764Y-45229421D01*
X32836762Y-45229418D01*
X32686041Y-45092019D01*
X32686039Y-45092017D01*
X32512642Y-44984655D01*
X32512635Y-44984651D01*
X32417546Y-44947814D01*
X32322456Y-44910976D01*
X32121976Y-44873500D01*
X31918024Y-44873500D01*
X31717544Y-44910976D01*
X31717541Y-44910976D01*
X31717541Y-44910977D01*
X31527364Y-44984651D01*
X31527357Y-44984655D01*
X31353960Y-45092017D01*
X31353958Y-45092019D01*
X31203237Y-45229418D01*
X31080327Y-45392178D01*
X30989422Y-45574739D01*
X30989417Y-45574752D01*
X30933602Y-45770917D01*
X30914785Y-45973999D01*
X19304000Y-45973999D01*
X19304000Y-43312708D01*
X20501500Y-43312708D01*
X20501500Y-43555288D01*
X20533161Y-43795785D01*
X20595947Y-44030104D01*
X20661757Y-44188982D01*
X20688776Y-44254212D01*
X20810064Y-44464289D01*
X20810066Y-44464292D01*
X20810067Y-44464293D01*
X20957733Y-44656736D01*
X20957739Y-44656743D01*
X21129256Y-44828260D01*
X21129263Y-44828266D01*
X21237053Y-44910976D01*
X21321711Y-44975936D01*
X21531788Y-45097224D01*
X21755900Y-45190054D01*
X21990211Y-45252838D01*
X22170586Y-45276584D01*
X22230711Y-45284500D01*
X22230712Y-45284500D01*
X22473289Y-45284500D01*
X22521388Y-45278167D01*
X22713789Y-45252838D01*
X22948100Y-45190054D01*
X23172212Y-45097224D01*
X23382289Y-44975936D01*
X23574738Y-44828265D01*
X23746265Y-44656738D01*
X23893936Y-44464289D01*
X24015224Y-44254212D01*
X24108054Y-44030100D01*
X24170838Y-43795789D01*
X24202500Y-43555288D01*
X24202500Y-43312712D01*
X24202500Y-43312708D01*
X24201748Y-43306999D01*
X47789785Y-43306999D01*
X47789785Y-43307000D01*
X47808602Y-43510082D01*
X47864417Y-43706247D01*
X47864422Y-43706260D01*
X47955327Y-43888821D01*
X48078237Y-44051581D01*
X48228958Y-44188980D01*
X48228960Y-44188982D01*
X48328141Y-44250392D01*
X48402363Y-44296348D01*
X48592544Y-44370024D01*
X48793024Y-44407500D01*
X48793026Y-44407500D01*
X48996974Y-44407500D01*
X48996976Y-44407500D01*
X49197456Y-44370024D01*
X49387637Y-44296348D01*
X49561041Y-44188981D01*
X49711764Y-44051579D01*
X49834673Y-43888821D01*
X49925582Y-43706250D01*
X49981397Y-43510083D01*
X49999686Y-43312708D01*
X150549500Y-43312708D01*
X150549500Y-43555288D01*
X150581161Y-43795785D01*
X150643947Y-44030104D01*
X150709757Y-44188982D01*
X150736776Y-44254212D01*
X150858064Y-44464289D01*
X150858066Y-44464292D01*
X150858067Y-44464293D01*
X151005733Y-44656736D01*
X151005739Y-44656743D01*
X151177256Y-44828260D01*
X151177263Y-44828266D01*
X151285053Y-44910976D01*
X151369711Y-44975936D01*
X151579788Y-45097224D01*
X151803900Y-45190054D01*
X152038211Y-45252838D01*
X152218586Y-45276584D01*
X152278711Y-45284500D01*
X152278712Y-45284500D01*
X152521289Y-45284500D01*
X152569388Y-45278167D01*
X152761789Y-45252838D01*
X152996100Y-45190054D01*
X153220212Y-45097224D01*
X153430289Y-44975936D01*
X153622738Y-44828265D01*
X153794265Y-44656738D01*
X153941936Y-44464289D01*
X154063224Y-44254212D01*
X154156054Y-44030100D01*
X154218838Y-43795789D01*
X154250500Y-43555288D01*
X154250500Y-43312712D01*
X154250500Y-43312708D01*
X154218838Y-43072214D01*
X154218838Y-43072211D01*
X154156054Y-42837900D01*
X154063224Y-42613788D01*
X153941936Y-42403711D01*
X153794265Y-42211262D01*
X153794260Y-42211256D01*
X153622743Y-42039739D01*
X153622736Y-42039733D01*
X153430293Y-41892067D01*
X153430292Y-41892066D01*
X153430289Y-41892064D01*
X153220212Y-41770776D01*
X153220205Y-41770773D01*
X152996104Y-41677947D01*
X152761785Y-41615161D01*
X152521289Y-41583500D01*
X152521288Y-41583500D01*
X152278712Y-41583500D01*
X152278711Y-41583500D01*
X152038214Y-41615161D01*
X151803895Y-41677947D01*
X151579794Y-41770773D01*
X151579785Y-41770777D01*
X151369706Y-41892067D01*
X151177263Y-42039733D01*
X151177256Y-42039739D01*
X151005739Y-42211256D01*
X151005733Y-42211263D01*
X150858067Y-42403706D01*
X150736777Y-42613785D01*
X150736773Y-42613794D01*
X150643947Y-42837895D01*
X150581161Y-43072214D01*
X150549500Y-43312708D01*
X49999686Y-43312708D01*
X50000215Y-43307000D01*
X49981397Y-43103917D01*
X49925582Y-42907750D01*
X49834673Y-42725179D01*
X49711764Y-42562421D01*
X49711762Y-42562418D01*
X49561041Y-42425019D01*
X49561039Y-42425017D01*
X49387642Y-42317655D01*
X49387635Y-42317651D01*
X49292546Y-42280814D01*
X49197456Y-42243976D01*
X48996976Y-42206500D01*
X48793024Y-42206500D01*
X48592544Y-42243976D01*
X48592541Y-42243976D01*
X48592541Y-42243977D01*
X48402364Y-42317651D01*
X48402357Y-42317655D01*
X48228960Y-42425017D01*
X48228958Y-42425019D01*
X48078237Y-42562418D01*
X47955327Y-42725178D01*
X47864422Y-42907739D01*
X47864417Y-42907752D01*
X47808602Y-43103917D01*
X47789785Y-43306999D01*
X24201748Y-43306999D01*
X24170838Y-43072214D01*
X24170838Y-43072211D01*
X24108054Y-42837900D01*
X24015224Y-42613788D01*
X23893936Y-42403711D01*
X23746265Y-42211262D01*
X23746260Y-42211256D01*
X23574743Y-42039739D01*
X23574736Y-42039733D01*
X23382293Y-41892067D01*
X23382292Y-41892066D01*
X23382289Y-41892064D01*
X23172212Y-41770776D01*
X23172205Y-41770773D01*
X22948104Y-41677947D01*
X22713785Y-41615161D01*
X22473289Y-41583500D01*
X22473288Y-41583500D01*
X22230712Y-41583500D01*
X22230711Y-41583500D01*
X21990214Y-41615161D01*
X21755895Y-41677947D01*
X21531794Y-41770773D01*
X21531785Y-41770777D01*
X21321706Y-41892067D01*
X21129263Y-42039733D01*
X21129256Y-42039739D01*
X20957739Y-42211256D01*
X20957733Y-42211263D01*
X20810067Y-42403706D01*
X20688777Y-42613785D01*
X20688773Y-42613794D01*
X20595947Y-42837895D01*
X20533161Y-43072214D01*
X20501500Y-43312708D01*
X19304000Y-43312708D01*
X19304000Y-41851243D01*
X19320613Y-41789243D01*
X19453359Y-41559320D01*
X19460413Y-41548458D01*
X19665195Y-41266600D01*
X19673342Y-41256539D01*
X19906468Y-40997627D01*
X19915627Y-40988468D01*
X20174539Y-40755342D01*
X20184600Y-40747195D01*
X20466458Y-40542413D01*
X20477320Y-40535359D01*
X20707244Y-40402612D01*
X20769244Y-40386000D01*
X153982756Y-40386000D01*
X154044756Y-40402613D01*
G37*
%TD.AperFunction*%
%TD*%
%TA.AperFunction,Conductor*%
%TO.N,Vout*%
G36*
X155391039Y-118637685D02*
G01*
X155436794Y-118690489D01*
X155448000Y-118742000D01*
X155448000Y-139250755D01*
X155431387Y-139312755D01*
X155298647Y-139542667D01*
X155291578Y-139553552D01*
X155086814Y-139835385D01*
X155078646Y-139845472D01*
X154845540Y-140104362D01*
X154836362Y-140113540D01*
X154577472Y-140346646D01*
X154567385Y-140354814D01*
X154285552Y-140559578D01*
X154274667Y-140566647D01*
X154099686Y-140667672D01*
X154050077Y-140696315D01*
X154044756Y-140699387D01*
X153982756Y-140716000D01*
X96898000Y-140716000D01*
X96830961Y-140696315D01*
X96785206Y-140643511D01*
X96774000Y-140592000D01*
X96774000Y-137546711D01*
X150549500Y-137546711D01*
X150549500Y-137789288D01*
X150581161Y-138029785D01*
X150643947Y-138264104D01*
X150736773Y-138488205D01*
X150736776Y-138488212D01*
X150858064Y-138698289D01*
X150858066Y-138698292D01*
X150858067Y-138698293D01*
X151005733Y-138890736D01*
X151005739Y-138890743D01*
X151177256Y-139062260D01*
X151177262Y-139062265D01*
X151369711Y-139209936D01*
X151579788Y-139331224D01*
X151803900Y-139424054D01*
X152038211Y-139486838D01*
X152218586Y-139510584D01*
X152278711Y-139518500D01*
X152278712Y-139518500D01*
X152521289Y-139518500D01*
X152569388Y-139512167D01*
X152761789Y-139486838D01*
X152996100Y-139424054D01*
X153220212Y-139331224D01*
X153430289Y-139209936D01*
X153622738Y-139062265D01*
X153794265Y-138890738D01*
X153941936Y-138698289D01*
X154063224Y-138488212D01*
X154156054Y-138264100D01*
X154218838Y-138029789D01*
X154250500Y-137789288D01*
X154250500Y-137546712D01*
X154218838Y-137306211D01*
X154156054Y-137071900D01*
X154063224Y-136847788D01*
X153941936Y-136637711D01*
X153794265Y-136445262D01*
X153794260Y-136445256D01*
X153622743Y-136273739D01*
X153622736Y-136273733D01*
X153430293Y-136126067D01*
X153430292Y-136126066D01*
X153430289Y-136126064D01*
X153220212Y-136004776D01*
X153220205Y-136004773D01*
X152996104Y-135911947D01*
X152761785Y-135849161D01*
X152521289Y-135817500D01*
X152521288Y-135817500D01*
X152278712Y-135817500D01*
X152278711Y-135817500D01*
X152038214Y-135849161D01*
X151803895Y-135911947D01*
X151579794Y-136004773D01*
X151579785Y-136004777D01*
X151369706Y-136126067D01*
X151177263Y-136273733D01*
X151177256Y-136273739D01*
X151005739Y-136445256D01*
X151005733Y-136445263D01*
X150858067Y-136637706D01*
X150736777Y-136847785D01*
X150736773Y-136847794D01*
X150643947Y-137071895D01*
X150581161Y-137306214D01*
X150549500Y-137546711D01*
X96774000Y-137546711D01*
X96774000Y-125410000D01*
X108154064Y-125410000D01*
X108173787Y-125710918D01*
X108173788Y-125710930D01*
X108232618Y-126006683D01*
X108232622Y-126006698D01*
X108329553Y-126292247D01*
X108329562Y-126292268D01*
X108462931Y-126562713D01*
X108462935Y-126562720D01*
X108630473Y-126813459D01*
X108829310Y-127040189D01*
X109056040Y-127239026D01*
X109306779Y-127406564D01*
X109306786Y-127406568D01*
X109577231Y-127539937D01*
X109577236Y-127539939D01*
X109577248Y-127539945D01*
X109862809Y-127636880D01*
X110062751Y-127676651D01*
X110158569Y-127695711D01*
X110158570Y-127695711D01*
X110158580Y-127695713D01*
X110459500Y-127715436D01*
X110760420Y-127695713D01*
X111056191Y-127636880D01*
X111341752Y-127539945D01*
X111612218Y-127406566D01*
X111862961Y-127239025D01*
X112089689Y-127040189D01*
X112288525Y-126813461D01*
X112456066Y-126562718D01*
X112589445Y-126292252D01*
X112686380Y-126006691D01*
X112745213Y-125710920D01*
X112764936Y-125410000D01*
X112745213Y-125109080D01*
X112686380Y-124813309D01*
X112589445Y-124527748D01*
X112456066Y-124257282D01*
X112288525Y-124006539D01*
X112089689Y-123779810D01*
X111862959Y-123580973D01*
X111612220Y-123413435D01*
X111612213Y-123413431D01*
X111341768Y-123280062D01*
X111341747Y-123280053D01*
X111056198Y-123183122D01*
X111056192Y-123183120D01*
X111056191Y-123183120D01*
X111056189Y-123183119D01*
X111056183Y-123183118D01*
X110760430Y-123124288D01*
X110760421Y-123124287D01*
X110760420Y-123124287D01*
X110459500Y-123104564D01*
X110158580Y-123124287D01*
X110158579Y-123124287D01*
X110158569Y-123124288D01*
X109862816Y-123183118D01*
X109862801Y-123183122D01*
X109577252Y-123280053D01*
X109577231Y-123280062D01*
X109306786Y-123413431D01*
X109306779Y-123413435D01*
X109056040Y-123580973D01*
X108829310Y-123779810D01*
X108630473Y-124006540D01*
X108462935Y-124257279D01*
X108462931Y-124257286D01*
X108329562Y-124527731D01*
X108329553Y-124527752D01*
X108232622Y-124813301D01*
X108232618Y-124813316D01*
X108173788Y-125109069D01*
X108173787Y-125109081D01*
X108154064Y-125410000D01*
X96774000Y-125410000D01*
X96774000Y-119793701D01*
X98910000Y-119793701D01*
X98910000Y-121889436D01*
X98910001Y-121889442D01*
X98916408Y-121949049D01*
X98966702Y-122083894D01*
X98966706Y-122083901D01*
X99052952Y-122199110D01*
X99052955Y-122199113D01*
X99168164Y-122285359D01*
X99168171Y-122285363D01*
X99303017Y-122335657D01*
X99303016Y-122335657D01*
X99309944Y-122336401D01*
X99362627Y-122342066D01*
X101363372Y-122342065D01*
X101422983Y-122335657D01*
X101557831Y-122285362D01*
X101673046Y-122199112D01*
X101759296Y-122083897D01*
X101809591Y-121949049D01*
X101816000Y-121889439D01*
X101815999Y-119793694D01*
X101809591Y-119734083D01*
X101759296Y-119599235D01*
X101759295Y-119599234D01*
X101759293Y-119599230D01*
X101673047Y-119484021D01*
X101673044Y-119484018D01*
X101557835Y-119397772D01*
X101557828Y-119397768D01*
X101422982Y-119347474D01*
X101422983Y-119347474D01*
X101363383Y-119341067D01*
X101363381Y-119341066D01*
X101363373Y-119341066D01*
X101363364Y-119341066D01*
X99362629Y-119341066D01*
X99362623Y-119341067D01*
X99303016Y-119347474D01*
X99168171Y-119397768D01*
X99168164Y-119397772D01*
X99052955Y-119484018D01*
X99052952Y-119484021D01*
X98966706Y-119599230D01*
X98966702Y-119599237D01*
X98916408Y-119734083D01*
X98910001Y-119793682D01*
X98910001Y-119793689D01*
X98910000Y-119793701D01*
X96774000Y-119793701D01*
X96774000Y-118742000D01*
X96793685Y-118674961D01*
X96846489Y-118629206D01*
X96898000Y-118618000D01*
X155324000Y-118618000D01*
X155391039Y-118637685D01*
G37*
%TD.AperFunction*%
%TD*%
M02*
