%TF.GenerationSoftware,KiCad,Pcbnew,8.0.4*%
%TF.CreationDate,2024-09-20T12:27:38-05:00*%
%TF.ProjectId,Boost_9_8,426f6f73-745f-4395-9f38-2e6b69636164,rev?*%
%TF.SameCoordinates,Original*%
%TF.FileFunction,Copper,L4,Bot*%
%TF.FilePolarity,Positive*%
%FSLAX46Y46*%
G04 Gerber Fmt 4.6, Leading zero omitted, Abs format (unit mm)*
G04 Created by KiCad (PCBNEW 8.0.4) date 2024-09-20 12:27:38*
%MOMM*%
%LPD*%
G01*
G04 APERTURE LIST*
G04 Aperture macros list*
%AMRoundRect*
0 Rectangle with rounded corners*
0 $1 Rounding radius*
0 $2 $3 $4 $5 $6 $7 $8 $9 X,Y pos of 4 corners*
0 Add a 4 corners polygon primitive as box body*
4,1,4,$2,$3,$4,$5,$6,$7,$8,$9,$2,$3,0*
0 Add four circle primitives for the rounded corners*
1,1,$1+$1,$2,$3*
1,1,$1+$1,$4,$5*
1,1,$1+$1,$6,$7*
1,1,$1+$1,$8,$9*
0 Add four rect primitives between the rounded corners*
20,1,$1+$1,$2,$3,$4,$5,0*
20,1,$1+$1,$4,$5,$6,$7,0*
20,1,$1+$1,$6,$7,$8,$9,0*
20,1,$1+$1,$8,$9,$2,$3,0*%
G04 Aperture macros list end*
%TA.AperFunction,SMDPad,CuDef*%
%ADD10RoundRect,0.250000X0.262500X0.450000X-0.262500X0.450000X-0.262500X-0.450000X0.262500X-0.450000X0*%
%TD*%
%TA.AperFunction,SMDPad,CuDef*%
%ADD11RoundRect,0.250000X0.475000X-0.250000X0.475000X0.250000X-0.475000X0.250000X-0.475000X-0.250000X0*%
%TD*%
%TA.AperFunction,ComponentPad*%
%ADD12C,2.300000*%
%TD*%
%TA.AperFunction,ComponentPad*%
%ADD13C,1.200000*%
%TD*%
%TA.AperFunction,ComponentPad*%
%ADD14C,2.000000*%
%TD*%
%TA.AperFunction,ComponentPad*%
%ADD15R,2.250000X2.250000*%
%TD*%
%TA.AperFunction,ComponentPad*%
%ADD16C,2.250000*%
%TD*%
%TA.AperFunction,ComponentPad*%
%ADD17C,1.371600*%
%TD*%
%TA.AperFunction,ComponentPad*%
%ADD18R,1.371600X1.371600*%
%TD*%
%TA.AperFunction,ComponentPad*%
%ADD19R,1.905000X2.000000*%
%TD*%
%TA.AperFunction,ComponentPad*%
%ADD20O,1.905000X2.000000*%
%TD*%
%TA.AperFunction,ComponentPad*%
%ADD21R,1.300000X1.300000*%
%TD*%
%TA.AperFunction,ComponentPad*%
%ADD22C,1.300000*%
%TD*%
%TA.AperFunction,ComponentPad*%
%ADD23R,1.700000X1.700000*%
%TD*%
%TA.AperFunction,ComponentPad*%
%ADD24O,1.700000X1.700000*%
%TD*%
%TA.AperFunction,ComponentPad*%
%ADD25C,2.800000*%
%TD*%
%TA.AperFunction,ComponentPad*%
%ADD26C,2.600000*%
%TD*%
%TA.AperFunction,ComponentPad*%
%ADD27O,2.600000X4.200000*%
%TD*%
%TA.AperFunction,ComponentPad*%
%ADD28C,3.600000*%
%TD*%
%TA.AperFunction,ComponentPad*%
%ADD29R,1.508000X1.508000*%
%TD*%
%TA.AperFunction,ComponentPad*%
%ADD30C,1.508000*%
%TD*%
%TA.AperFunction,SMDPad,CuDef*%
%ADD31RoundRect,0.250000X0.450000X-0.262500X0.450000X0.262500X-0.450000X0.262500X-0.450000X-0.262500X0*%
%TD*%
%TA.AperFunction,SMDPad,CuDef*%
%ADD32RoundRect,0.250000X0.250000X0.475000X-0.250000X0.475000X-0.250000X-0.475000X0.250000X-0.475000X0*%
%TD*%
%TA.AperFunction,SMDPad,CuDef*%
%ADD33RoundRect,0.250000X-0.475000X0.250000X-0.475000X-0.250000X0.475000X-0.250000X0.475000X0.250000X0*%
%TD*%
%TA.AperFunction,SMDPad,CuDef*%
%ADD34RoundRect,0.250000X-0.450000X0.262500X-0.450000X-0.262500X0.450000X-0.262500X0.450000X0.262500X0*%
%TD*%
%TA.AperFunction,SMDPad,CuDef*%
%ADD35RoundRect,0.250000X-0.262500X-0.450000X0.262500X-0.450000X0.262500X0.450000X-0.262500X0.450000X0*%
%TD*%
%TA.AperFunction,ComponentPad*%
%ADD36R,1.625600X1.625600*%
%TD*%
%TA.AperFunction,ComponentPad*%
%ADD37C,1.625600*%
%TD*%
%TA.AperFunction,ComponentPad*%
%ADD38C,1.507998*%
%TD*%
%TA.AperFunction,SMDPad,CuDef*%
%ADD39RoundRect,0.250000X-0.250000X-0.475000X0.250000X-0.475000X0.250000X0.475000X-0.250000X0.475000X0*%
%TD*%
%TA.AperFunction,SMDPad,CuDef*%
%ADD40RoundRect,0.150000X-0.825000X-0.150000X0.825000X-0.150000X0.825000X0.150000X-0.825000X0.150000X0*%
%TD*%
%TA.AperFunction,ComponentPad*%
%ADD41R,1.828800X1.828800*%
%TD*%
%TA.AperFunction,ComponentPad*%
%ADD42C,1.828800*%
%TD*%
%TA.AperFunction,ViaPad*%
%ADD43C,0.800000*%
%TD*%
%TA.AperFunction,Conductor*%
%ADD44C,0.250000*%
%TD*%
%TA.AperFunction,Conductor*%
%ADD45C,0.500000*%
%TD*%
G04 APERTURE END LIST*
D10*
%TO.P,R12,1*%
%TO.N,SD*%
X58824500Y-116713000D03*
%TO.P,R12,2*%
%TO.N,+3.3V*%
X56999500Y-116713000D03*
%TD*%
D11*
%TO.P,C21,1*%
%TO.N,+3.3V*%
X95311000Y-48382000D03*
%TO.P,C21,2*%
%TO.N,GND*%
X95311000Y-46482000D03*
%TD*%
%TO.P,C20,1*%
%TO.N,+3.3V*%
X97409000Y-48382000D03*
%TO.P,C20,2*%
%TO.N,GND*%
X97409000Y-46482000D03*
%TD*%
%TO.P,C19,1*%
%TO.N,+3.3V*%
X67945000Y-112903000D03*
%TO.P,C19,2*%
%TO.N,GND*%
X67945000Y-111003000D03*
%TD*%
D12*
%TO.P,J10,1,Pin_1*%
%TO.N,GND*%
X104750000Y-100750000D03*
D13*
%TO.P,J10,2,Pin_2*%
%TO.N,Vsw*%
X102210000Y-100750000D03*
%TD*%
D14*
%TO.P,TP13,1,1*%
%TO.N,GND*%
X87630000Y-136017000D03*
%TD*%
D15*
%TO.P,J1,1,Pin_1*%
%TO.N,+24V*%
X21730000Y-108712000D03*
D16*
X39230000Y-108712000D03*
%TD*%
D12*
%TO.P,J14,1,Pin_1*%
%TO.N,GND*%
X29480000Y-45974000D03*
D13*
%TO.P,J14,2,Pin_2*%
%TO.N,Vin_sens*%
X32020000Y-45974000D03*
%TD*%
D14*
%TO.P,TP7,1,1*%
%TO.N,GND*%
X40640000Y-43180000D03*
%TD*%
D17*
%TO.P,C6,1*%
%TO.N,Vin*%
X25654000Y-59436000D03*
%TO.P,C6,2*%
%TO.N,GND*%
X25654000Y-54436000D03*
%TD*%
D12*
%TO.P,J11,1,Pin_1*%
%TO.N,GND*%
X78232000Y-105537000D03*
D13*
%TO.P,J11,2,Pin_2*%
%TO.N,C2000 D'*%
X75692000Y-105537000D03*
%TD*%
D14*
%TO.P,TP5,1,1*%
%TO.N,+3.3V*%
X51000000Y-136250000D03*
%TD*%
D12*
%TO.P,J12,1,Pin_1*%
%TO.N,GND*%
X76020000Y-137541000D03*
D13*
%TO.P,J12,2,Pin_2*%
%TO.N,Vboot*%
X73480000Y-137541000D03*
%TD*%
D18*
%TO.P,PS2,1,VIN*%
%TO.N,+24V*%
X59624000Y-110998000D03*
D17*
%TO.P,PS2,2,GND*%
%TO.N,GND*%
X62164000Y-110998000D03*
%TO.P,PS2,3,VOUT*%
%TO.N,+12V*%
X64704000Y-110998000D03*
%TD*%
D19*
%TO.P,Q2,1,G*%
%TO.N,D'*%
X100363000Y-120841566D03*
D20*
%TO.P,Q2,2,D*%
%TO.N,Vout*%
X97823000Y-120841566D03*
%TO.P,Q2,3,S*%
%TO.N,Vsw*%
X95283000Y-120841566D03*
%TD*%
D16*
%TO.P,F1,1*%
%TO.N,+24V*%
X26924000Y-101112000D03*
%TO.P,F1,2*%
%TO.N,Vin*%
X26924000Y-65512000D03*
%TD*%
D12*
%TO.P,J8,1,Pin_1*%
%TO.N,GND*%
X76020000Y-129500000D03*
D13*
%TO.P,J8,2,Pin_2*%
%TO.N,D'*%
X73480000Y-129500000D03*
%TD*%
D15*
%TO.P,J2,1,Pin_1*%
%TO.N,GND*%
X21730000Y-127762000D03*
D16*
X39230000Y-127762000D03*
%TD*%
%TO.P,SW1,*%
%TO.N,*%
X60508000Y-120974000D03*
X49808000Y-120974000D03*
D21*
%TO.P,SW1,1,A*%
%TO.N,+3.3V*%
X57658000Y-119774000D03*
D22*
%TO.P,SW1,2,B*%
%TO.N,SD*%
X55158000Y-119774000D03*
%TO.P,SW1,3,C*%
%TO.N,GND*%
X52658000Y-119774000D03*
%TO.P,SW1,4,A*%
%TO.N,Net-(D3-A)*%
X52658000Y-122174000D03*
%TO.P,SW1,5,B*%
%TO.N,+3.3V*%
X55158000Y-122174000D03*
%TO.P,SW1,6,C*%
%TO.N,Net-(D4-A)*%
X57658000Y-122174000D03*
%TD*%
D14*
%TO.P,TP1,1,1*%
%TO.N,+24V*%
X32250000Y-136000000D03*
%TD*%
D12*
%TO.P,J16,1,Pin_1*%
%TO.N,GND*%
X51435000Y-43307000D03*
D13*
%TO.P,J16,2,Pin_2*%
%TO.N,I_L*%
X48895000Y-43307000D03*
%TD*%
D12*
%TO.P,J13,1,Pin_1*%
%TO.N,GND*%
X152500000Y-112250000D03*
D13*
%TO.P,J13,2,Pin_2*%
%TO.N,Vout*%
X149960000Y-112250000D03*
%TD*%
D23*
%TO.P,U3,41*%
%TO.N,+3.3V*%
X100330000Y-50038000D03*
D24*
%TO.P,U3,42*%
%TO.N,unconnected-(U3-Pad42)*%
X100330000Y-52578000D03*
%TO.P,U3,43*%
%TO.N,unconnected-(U3-Pad43)*%
X100330000Y-55118000D03*
%TO.P,U3,44*%
%TO.N,unconnected-(U3-Pad44)*%
X100330000Y-57658000D03*
%TO.P,U3,45*%
%TO.N,unconnected-(U3-Pad45)*%
X100330000Y-60198000D03*
%TO.P,U3,46*%
%TO.N,unconnected-(U3-Pad46)*%
X100330000Y-62738000D03*
%TO.P,U3,47*%
%TO.N,unconnected-(U3-Pad47)*%
X100330000Y-65278000D03*
%TO.P,U3,48*%
%TO.N,Net-(C8-Pad1)*%
X100330000Y-67818000D03*
%TO.P,U3,49*%
%TO.N,unconnected-(U3-Pad49)*%
X100330000Y-70358000D03*
%TO.P,U3,50*%
%TO.N,unconnected-(U3-Pad50)*%
X100330000Y-72898000D03*
%TO.P,U3,51*%
%TO.N,unconnected-(U3-Pad51)*%
X146050000Y-72898000D03*
%TO.P,U3,52*%
%TO.N,unconnected-(U3-Pad52)*%
X146050000Y-70358000D03*
%TO.P,U3,53*%
%TO.N,unconnected-(U3-Pad53)*%
X146050000Y-67818000D03*
%TO.P,U3,54*%
%TO.N,unconnected-(U3-Pad54)*%
X146050000Y-65278000D03*
%TO.P,U3,55*%
%TO.N,unconnected-(U3-Pad55)*%
X146050000Y-62738000D03*
%TO.P,U3,56*%
%TO.N,unconnected-(U3-Pad56)*%
X146050000Y-60198000D03*
%TO.P,U3,57*%
%TO.N,unconnected-(U3-Pad57)*%
X146050000Y-57658000D03*
%TO.P,U3,58*%
%TO.N,unconnected-(U3-Pad58)*%
X146050000Y-55118000D03*
%TO.P,U3,59*%
%TO.N,unconnected-(U3-Pad59)*%
X146050000Y-52578000D03*
%TO.P,U3,60*%
%TO.N,GND*%
X146050000Y-50038000D03*
%TO.P,U3,61*%
%TO.N,unconnected-(U3-Pad61)*%
X102870000Y-50038000D03*
%TO.P,U3,62*%
%TO.N,GND*%
X102870000Y-52578000D03*
%TO.P,U3,63*%
%TO.N,unconnected-(U3-Pad63)*%
X102870000Y-55118000D03*
%TO.P,U3,64*%
%TO.N,unconnected-(U3-Pad64)*%
X102870000Y-57658000D03*
%TO.P,U3,65*%
%TO.N,unconnected-(U3-Pad65)*%
X102870000Y-60198000D03*
%TO.P,U3,66*%
%TO.N,unconnected-(U3-Pad66)*%
X102870000Y-62738000D03*
%TO.P,U3,67*%
%TO.N,unconnected-(U3-Pad67)*%
X102870000Y-65278000D03*
%TO.P,U3,68*%
%TO.N,unconnected-(U3-Pad68)*%
X102870000Y-67818000D03*
%TO.P,U3,69*%
%TO.N,Net-(C14-Pad1)*%
X102870000Y-70358000D03*
%TO.P,U3,70*%
%TO.N,Net-(C11-Pad1)*%
X102870000Y-72898000D03*
%TO.P,U3,71*%
%TO.N,unconnected-(U3-Pad71)*%
X143510000Y-72898000D03*
%TO.P,U3,72*%
%TO.N,unconnected-(U3-Pad72)*%
X143510000Y-70358000D03*
%TO.P,U3,73*%
%TO.N,unconnected-(U3-Pad73)*%
X143510000Y-67818000D03*
%TO.P,U3,74*%
%TO.N,Net-(JP1-A)*%
X143510000Y-65278000D03*
%TO.P,U3,75*%
%TO.N,unconnected-(U3-Pad75)*%
X143510000Y-62738000D03*
%TO.P,U3,76*%
%TO.N,unconnected-(U3-Pad76)*%
X143510000Y-60198000D03*
%TO.P,U3,77*%
%TO.N,unconnected-(U3-Pad77)*%
X143510000Y-57658000D03*
%TO.P,U3,78*%
%TO.N,unconnected-(U3-Pad78)*%
X143510000Y-55118000D03*
%TO.P,U3,79*%
%TO.N,C2000 D'*%
X143510000Y-52578000D03*
D23*
%TO.P,U3,80*%
%TO.N,C2000 D *%
X143510000Y-50038000D03*
%TD*%
D25*
%TO.P,L1,1,1*%
%TO.N,unconnected-(L1-Pad1)_23*%
X45974000Y-54864000D03*
%TO.N,unconnected-(L1-Pad1)_21*%
X48514000Y-57404000D03*
%TO.N,unconnected-(L1-Pad1)_15*%
X51054000Y-54864000D03*
D26*
%TO.N,unconnected-(L1-Pad1)_3*%
X51054000Y-59944000D03*
D25*
%TO.N,unconnected-(L1-Pad1)_4*%
X53594000Y-57404000D03*
%TO.N,unconnected-(L1-Pad1)_2*%
X56134000Y-54864000D03*
D27*
%TO.N,unconnected-(L1-Pad1)_22*%
X56134000Y-60706000D03*
D25*
%TO.N,unconnected-(L1-Pad1)_14*%
X58674000Y-57404000D03*
%TO.N,unconnected-(L1-Pad1)_9*%
X61214000Y-54864000D03*
D27*
%TO.N,unconnected-(L1-Pad1)_11*%
X61214000Y-60706000D03*
D25*
%TO.N,unconnected-(L1-Pad1)_20*%
X63754000Y-57404000D03*
%TO.N,unconnected-(L1-Pad1)_7*%
X66294000Y-54864000D03*
D27*
%TO.N,unconnected-(L1-Pad1)_6*%
X66294000Y-60706000D03*
D25*
%TO.N,unconnected-(L1-Pad1)_18*%
X68834000Y-57404000D03*
%TO.N,unconnected-(L1-Pad1)_17*%
X71374000Y-54864000D03*
D27*
%TO.N,unconnected-(L1-Pad1)_10*%
X71374000Y-60706000D03*
D25*
%TO.N,unconnected-(L1-Pad1)_19*%
X73914000Y-57404000D03*
%TO.N,unconnected-(L1-Pad1)*%
X76454000Y-54864000D03*
D27*
%TO.N,unconnected-(L1-Pad1)_13*%
X76454000Y-60706000D03*
D25*
%TO.N,unconnected-(L1-Pad1)_16*%
X78994000Y-57404000D03*
%TO.N,unconnected-(L1-Pad1)_1*%
X81534000Y-54864000D03*
D26*
%TO.N,unconnected-(L1-Pad1)_8*%
X81534000Y-59944000D03*
D25*
%TO.N,unconnected-(L1-Pad1)_12*%
X84074000Y-57404000D03*
%TO.N,unconnected-(L1-Pad1)_5*%
X86614000Y-54864000D03*
%TO.P,L1,2,2*%
%TO.N,unconnected-(L1-Pad2)_20*%
X45974000Y-90424000D03*
%TO.N,unconnected-(L1-Pad2)_12*%
X48514000Y-87884000D03*
D26*
%TO.N,unconnected-(L1-Pad2)_18*%
X51054000Y-85344000D03*
D25*
%TO.N,unconnected-(L1-Pad2)_7*%
X51054000Y-90424000D03*
%TO.N,unconnected-(L1-Pad2)_14*%
X53594000Y-87884000D03*
D27*
%TO.N,unconnected-(L1-Pad2)_2*%
X56134000Y-84582000D03*
D25*
%TO.N,unconnected-(L1-Pad2)_23*%
X56134000Y-90424000D03*
%TO.N,unconnected-(L1-Pad2)_5*%
X58674000Y-87884000D03*
D27*
%TO.N,unconnected-(L1-Pad2)_17*%
X61214000Y-84582000D03*
D25*
%TO.N,unconnected-(L1-Pad2)_21*%
X61214000Y-90424000D03*
%TO.N,unconnected-(L1-Pad2)_13*%
X63754000Y-87884000D03*
D27*
%TO.N,unconnected-(L1-Pad2)_11*%
X66294000Y-84582000D03*
D25*
%TO.N,unconnected-(L1-Pad2)*%
X66294000Y-90424000D03*
%TO.N,unconnected-(L1-Pad2)_6*%
X68834000Y-87884000D03*
D27*
%TO.N,unconnected-(L1-Pad2)_8*%
X71374000Y-84582000D03*
D25*
%TO.N,unconnected-(L1-Pad2)_4*%
X71374000Y-90424000D03*
%TO.N,unconnected-(L1-Pad2)_10*%
X73914000Y-87884000D03*
D27*
%TO.N,unconnected-(L1-Pad2)_3*%
X76454000Y-84582000D03*
D25*
%TO.N,unconnected-(L1-Pad2)_9*%
X76454000Y-90424000D03*
%TO.N,unconnected-(L1-Pad2)_1*%
X78994000Y-87884000D03*
D26*
%TO.N,unconnected-(L1-Pad2)_15*%
X81534000Y-85344000D03*
D25*
%TO.N,unconnected-(L1-Pad2)_19*%
X81534000Y-90424000D03*
%TO.N,unconnected-(L1-Pad2)_22*%
X84074000Y-87884000D03*
%TO.N,unconnected-(L1-Pad2)_16*%
X86614000Y-90424000D03*
%TD*%
D14*
%TO.P,TP11,1,1*%
%TO.N,GND*%
X60960000Y-43180000D03*
%TD*%
D28*
%TO.P,J5,1,Pin_1*%
%TO.N,Vsw*%
X98100000Y-104400000D03*
%TD*%
D14*
%TO.P,TP2,1,1*%
%TO.N,GND*%
X41402000Y-136250000D03*
%TD*%
%TO.P,TP3,1,1*%
%TO.N,+12V*%
X60750000Y-136271000D03*
%TD*%
D29*
%TO.P,PS1,1,VIN*%
%TO.N,+24V*%
X52004000Y-106462000D03*
D30*
%TO.P,PS1,2,GND*%
%TO.N,GND*%
X49464000Y-106462000D03*
%TO.P,PS1,3,VOUT*%
%TO.N,+3.3V*%
X46924000Y-106462000D03*
%TD*%
D15*
%TO.P,J4,1,Pin_1*%
%TO.N,GND*%
X152768000Y-102870000D03*
D16*
X135268000Y-102870000D03*
%TD*%
D15*
%TO.P,J3,1,Pin_1*%
%TO.N,Vout*%
X152768000Y-121920000D03*
D16*
X135268000Y-121920000D03*
%TD*%
D12*
%TO.P,J15,1,Pin_1*%
%TO.N,GND*%
X129270000Y-99500000D03*
D13*
%TO.P,J15,2,Pin_2*%
%TO.N,Vout_sens*%
X126730000Y-99500000D03*
%TD*%
D28*
%TO.P,J6,1,Pin_1*%
%TO.N,/L_in*%
X36050000Y-56150000D03*
%TD*%
%TO.P,HS2,*%
%TO.N,*%
X85123000Y-125413566D03*
X110459500Y-125410000D03*
%TD*%
D17*
%TO.P,C16,1*%
%TO.N,Vout*%
X126750000Y-120583250D03*
%TO.P,C16,2*%
%TO.N,GND*%
X126750000Y-115583250D03*
%TD*%
D19*
%TO.P,Q1,1,G*%
%TO.N,D*%
X95346500Y-114745566D03*
D20*
%TO.P,Q1,2,D*%
%TO.N,Vsw*%
X97886500Y-114745566D03*
%TO.P,Q1,3,S*%
%TO.N,GND*%
X100426500Y-114745566D03*
%TD*%
D12*
%TO.P,J9,1,Pin_1*%
%TO.N,GND*%
X76020000Y-133500000D03*
D13*
%TO.P,J9,2,Pin_2*%
%TO.N,D*%
X73480000Y-133500000D03*
%TD*%
D28*
%TO.P,HS1,*%
%TO.N,*%
X85186500Y-110173566D03*
X110523000Y-110170000D03*
%TD*%
D12*
%TO.P,J7,1,Pin_1*%
%TO.N,GND*%
X70442000Y-105537000D03*
D13*
%TO.P,J7,2,Pin_2*%
%TO.N,C2000 D *%
X72982000Y-105537000D03*
%TD*%
D31*
%TO.P,R3,1*%
%TO.N,Net-(U1-HO)*%
X81059000Y-125560500D03*
%TO.P,R3,2*%
%TO.N,D'*%
X81059000Y-123735500D03*
%TD*%
D32*
%TO.P,C7,1*%
%TO.N,+24V*%
X52126000Y-108458000D03*
%TO.P,C7,2*%
%TO.N,GND*%
X50226000Y-108458000D03*
%TD*%
%TO.P,C2,1*%
%TO.N,+3.3V*%
X36764000Y-68072000D03*
%TO.P,C2,2*%
%TO.N,GND*%
X34864000Y-68072000D03*
%TD*%
D33*
%TO.P,C11,1*%
%TO.N,Net-(C11-Pad1)*%
X100838000Y-76012000D03*
%TO.P,C11,2*%
%TO.N,GND*%
X100838000Y-77912000D03*
%TD*%
D32*
%TO.P,C17,1*%
%TO.N,+12V*%
X64892000Y-108966000D03*
%TO.P,C17,2*%
%TO.N,GND*%
X62992000Y-108966000D03*
%TD*%
D34*
%TO.P,R4,1*%
%TO.N,Net-(U1-LO)*%
X81059000Y-110424000D03*
%TO.P,R4,2*%
%TO.N,D*%
X81059000Y-112249000D03*
%TD*%
D11*
%TO.P,C18,1*%
%TO.N,Net-(U2-FILTER)*%
X39116000Y-63500000D03*
%TO.P,C18,2*%
%TO.N,GND*%
X39116000Y-61600000D03*
%TD*%
D35*
%TO.P,R2,1*%
%TO.N,Vout_sens*%
X133453500Y-113538000D03*
%TO.P,R2,2*%
%TO.N,GND*%
X135278500Y-113538000D03*
%TD*%
D36*
%TO.P,RV1,1*%
%TO.N,Vout*%
X121250000Y-121238000D03*
D37*
%TO.P,RV1,2*%
%TO.N,GND*%
X118750000Y-113738000D03*
%TD*%
D11*
%TO.P,C9,1*%
%TO.N,Vout*%
X99855000Y-118743566D03*
%TO.P,C9,2*%
%TO.N,GND*%
X99855000Y-116843566D03*
%TD*%
D38*
%TO.P,U1,1,LO*%
%TO.N,Net-(U1-LO)*%
X78265000Y-110424000D03*
%TO.P,U1,2,COM*%
%TO.N,GND*%
X78265000Y-112964000D03*
%TO.P,U1,3,VCC*%
%TO.N,+12V*%
X78265000Y-115504000D03*
%TO.P,U1,4,NC*%
%TO.N,unconnected-(U1-NC-Pad4)*%
X78265000Y-118044000D03*
%TO.P,U1,5,VS*%
%TO.N,Vsw*%
X78265000Y-120584000D03*
%TO.P,U1,6,VB*%
%TO.N,Vboot*%
X78265000Y-123124000D03*
%TO.P,U1,7,HO*%
%TO.N,Net-(U1-HO)*%
X78265000Y-125664000D03*
%TO.P,U1,8,NC*%
%TO.N,unconnected-(U1-NC-Pad8)*%
X70645000Y-110424000D03*
%TO.P,U1,9,VDD*%
%TO.N,+3.3V*%
X70645000Y-112964000D03*
%TO.P,U1,10,HIN*%
%TO.N,C2000 D'*%
X70645000Y-115504000D03*
%TO.P,U1,11,SD*%
%TO.N,SD*%
X70645000Y-118044000D03*
%TO.P,U1,12,LIN*%
%TO.N,C2000 D *%
X70645000Y-120584000D03*
%TO.P,U1,13,VSS*%
%TO.N,GND*%
X70645000Y-123124000D03*
%TO.P,U1,14,NC*%
%TO.N,unconnected-(U1-NC-Pad14)*%
X70645000Y-125664000D03*
%TD*%
D39*
%TO.P,C13,1*%
%TO.N,+24V*%
X59436000Y-108966000D03*
%TO.P,C13,2*%
%TO.N,GND*%
X61336000Y-108966000D03*
%TD*%
D10*
%TO.P,R6,1*%
%TO.N,Vin_sens*%
X37234500Y-75692000D03*
%TO.P,R6,2*%
%TO.N,GND*%
X35409500Y-75692000D03*
%TD*%
D11*
%TO.P,C12,1*%
%TO.N,Vout*%
X101887000Y-118743566D03*
%TO.P,C12,2*%
%TO.N,GND*%
X101887000Y-116843566D03*
%TD*%
D39*
%TO.P,C10,1*%
%TO.N,+3.3V*%
X46736000Y-108458000D03*
%TO.P,C10,2*%
%TO.N,GND*%
X48636000Y-108458000D03*
%TD*%
D40*
%TO.P,U2,1,IP+*%
%TO.N,Vin*%
X31815000Y-66167000D03*
%TO.P,U2,2,IP+*%
X31815000Y-64897000D03*
%TO.P,U2,3,IP-*%
%TO.N,/L_in*%
X31815000Y-63627000D03*
%TO.P,U2,4,IP-*%
X31815000Y-62357000D03*
%TO.P,U2,5,GND*%
%TO.N,GND*%
X36765000Y-62357000D03*
%TO.P,U2,6,FILTER*%
%TO.N,Net-(U2-FILTER)*%
X36765000Y-63627000D03*
%TO.P,U2,7,OUT*%
%TO.N,I_L*%
X36765000Y-64897000D03*
%TO.P,U2,8,VCC*%
%TO.N,+3.3V*%
X36765000Y-66167000D03*
%TD*%
D35*
%TO.P,R5,1*%
%TO.N,Vin*%
X35409500Y-71628000D03*
%TO.P,R5,2*%
%TO.N,Vin_sens*%
X37234500Y-71628000D03*
%TD*%
D32*
%TO.P,C5,1*%
%TO.N,Vin_sens*%
X37272000Y-73660000D03*
%TO.P,C5,2*%
%TO.N,GND*%
X35372000Y-73660000D03*
%TD*%
D39*
%TO.P,C1,1*%
%TO.N,Vout_sens*%
X133416000Y-111506000D03*
%TO.P,C1,2*%
%TO.N,GND*%
X135316000Y-111506000D03*
%TD*%
D34*
%TO.P,R8,1*%
%TO.N,Net-(C11-Pad1)*%
X102870000Y-76049500D03*
%TO.P,R8,2*%
%TO.N,Vout_sens*%
X102870000Y-77874500D03*
%TD*%
D41*
%TO.P,D1,1,K*%
%TO.N,Vout*%
X126750000Y-126809400D03*
D42*
%TO.P,D1,2,A*%
%TO.N,GND*%
X126750000Y-108750000D03*
%TD*%
D11*
%TO.P,C15,1*%
%TO.N,Vout*%
X103919000Y-118743566D03*
%TO.P,C15,2*%
%TO.N,GND*%
X103919000Y-116843566D03*
%TD*%
D10*
%TO.P,R1,1*%
%TO.N,Vout*%
X135278500Y-115570000D03*
%TO.P,R1,2*%
%TO.N,Vout_sens*%
X133453500Y-115570000D03*
%TD*%
D43*
%TO.N,SD*%
X60198000Y-117221000D03*
X135001000Y-65405000D03*
%TO.N,GND*%
X34036000Y-73660000D03*
X34250000Y-65800000D03*
X99380000Y-77912000D03*
X36900000Y-61200000D03*
%TO.N,Vin_sens*%
X108600000Y-74050000D03*
X38608000Y-75692000D03*
%TD*%
D44*
%TO.N,+3.3V*%
X95311000Y-49972000D02*
X95377000Y-50038000D01*
D45*
X95311000Y-48382000D02*
X95311000Y-49972000D01*
X95377000Y-50038000D02*
X97409000Y-50038000D01*
X43688000Y-50038000D02*
X95377000Y-50038000D01*
X97409000Y-48382000D02*
X97409000Y-50038000D01*
X97409000Y-50038000D02*
X100330000Y-50038000D01*
D44*
%TO.N,SD*%
X59332500Y-117221000D02*
X58824500Y-116713000D01*
X60198000Y-117221000D02*
X59332500Y-117221000D01*
%TO.N,+3.3V*%
X54991000Y-116713000D02*
X54927500Y-116649500D01*
X56999500Y-116713000D02*
X54991000Y-116713000D01*
D45*
X54927500Y-116649500D02*
X50863500Y-112585500D01*
X57658000Y-119380000D02*
X54927500Y-116649500D01*
X66548000Y-112964000D02*
X51242000Y-112964000D01*
X70645000Y-112964000D02*
X66548000Y-112964000D01*
D44*
%TO.N,Vout*%
X149960000Y-112250000D02*
X152768000Y-115058000D01*
D45*
X135268000Y-115580500D02*
X135278500Y-115570000D01*
D44*
X152768000Y-115058000D02*
X152768000Y-121920000D01*
D45*
X135268000Y-121920000D02*
X135268000Y-115580500D01*
D44*
%TO.N,GND*%
X34864000Y-63283001D02*
X34864000Y-68072000D01*
X38359000Y-62357000D02*
X39116000Y-61600000D01*
X135316000Y-111064000D02*
X135316000Y-111506000D01*
X135278500Y-111543500D02*
X135316000Y-111506000D01*
D45*
X99380000Y-77912000D02*
X100838000Y-77912000D01*
X135316000Y-111506000D02*
X135268000Y-111458000D01*
X35372000Y-73660000D02*
X34036000Y-73660000D01*
X135268000Y-111458000D02*
X135268000Y-102870000D01*
X35409500Y-75692000D02*
X35409500Y-73697500D01*
X135278500Y-113538000D02*
X135278500Y-111543500D01*
D44*
X36765000Y-62357000D02*
X38359000Y-62357000D01*
X35790001Y-62357000D02*
X34864000Y-63283001D01*
D45*
%TO.N,+24V*%
X52004000Y-108336000D02*
X52126000Y-108458000D01*
X59624000Y-110998000D02*
X59624000Y-109154000D01*
X52004000Y-106462000D02*
X52004000Y-108336000D01*
X59624000Y-109154000D02*
X59436000Y-108966000D01*
%TO.N,D*%
X81059000Y-112249000D02*
X83555566Y-114745566D01*
D44*
X77831003Y-116582999D02*
X78711937Y-116582999D01*
X73480000Y-133500000D02*
X72155000Y-132175000D01*
X72155000Y-122259002D02*
X77831003Y-116582999D01*
X72155000Y-132175000D02*
X72155000Y-122259002D01*
X81059000Y-114235936D02*
X81059000Y-112249000D01*
D45*
X83555566Y-114745566D02*
X95346500Y-114745566D01*
D44*
X78711937Y-116582999D02*
X81059000Y-114235936D01*
%TO.N,D'*%
X73480000Y-128651472D02*
X77881472Y-124250000D01*
D45*
X82112500Y-122682000D02*
X81059000Y-123735500D01*
X82112500Y-122682000D02*
X99314000Y-122682000D01*
D44*
X73480000Y-129500000D02*
X73480000Y-128651472D01*
X77881472Y-124250000D02*
X80544500Y-124250000D01*
D45*
X100363000Y-121633000D02*
X100363000Y-120841566D01*
D44*
X80544500Y-124250000D02*
X81059000Y-123735500D01*
D45*
X99314000Y-122682000D02*
X100363000Y-121633000D01*
D44*
%TO.N,Vout_sens*%
X126730000Y-99500000D02*
X125628400Y-100601600D01*
X133416000Y-110048000D02*
X133416000Y-111506000D01*
X125628400Y-100601600D02*
X125628400Y-102260400D01*
X125730000Y-102362000D02*
X125628400Y-102260400D01*
X125730000Y-102362000D02*
X133416000Y-110048000D01*
X102870000Y-79502000D02*
X125730000Y-102362000D01*
X102870000Y-77874500D02*
X102870000Y-79502000D01*
D45*
%TO.N,+3.3V*%
X39878000Y-70678000D02*
X39878000Y-66345173D01*
X46924000Y-106462000D02*
X39878000Y-99416000D01*
X39878000Y-66345173D02*
X41919000Y-64304173D01*
X46736000Y-108458000D02*
X46736000Y-106650000D01*
X39878000Y-70678000D02*
X37272000Y-68072000D01*
X46736000Y-106650000D02*
X46924000Y-106462000D01*
X41919000Y-64304173D02*
X41919000Y-51807000D01*
X50863500Y-112585500D02*
X46736000Y-108458000D01*
X57658000Y-119774000D02*
X57658000Y-119380000D01*
X41919000Y-51807000D02*
X43688000Y-50038000D01*
X39878000Y-99416000D02*
X39878000Y-70678000D01*
X37272000Y-68072000D02*
X36764000Y-68072000D01*
X51242000Y-112964000D02*
X50863500Y-112585500D01*
%TO.N,+12V*%
X64892000Y-109342000D02*
X64704000Y-109154000D01*
X64892000Y-110810000D02*
X64892000Y-109342000D01*
X64704000Y-110998000D02*
X64892000Y-110810000D01*
%TO.N,Net-(C11-Pad1)*%
X102870000Y-76049500D02*
X102870000Y-72898000D01*
X102832500Y-76012000D02*
X102870000Y-76049500D01*
X100838000Y-76012000D02*
X102832500Y-76012000D01*
D44*
%TO.N,Net-(U1-HO)*%
X78368500Y-125560500D02*
X78265000Y-125664000D01*
D45*
X81059000Y-125560500D02*
X78368500Y-125560500D01*
%TO.N,Net-(U1-LO)*%
X78265000Y-110424000D02*
X81059000Y-110424000D01*
%TO.N,C2000 D *%
X72982000Y-118247000D02*
X70645000Y-120584000D01*
X72982000Y-105537000D02*
X72982000Y-118247000D01*
D44*
%TO.N,Vin_sens*%
X35814000Y-67056000D02*
X35465000Y-66707000D01*
X35814000Y-70207500D02*
X35814000Y-67056000D01*
X33274000Y-45974000D02*
X32020000Y-45974000D01*
D45*
X37234500Y-75692000D02*
X37234500Y-71628000D01*
D44*
X40894000Y-53594000D02*
X33274000Y-45974000D01*
X35465000Y-64546092D02*
X35739092Y-64272000D01*
X35465000Y-66707000D02*
X35465000Y-64546092D01*
X37790908Y-64272000D02*
X37965908Y-64447000D01*
X40326604Y-64447000D02*
X40894000Y-63879604D01*
X37234500Y-71628000D02*
X35814000Y-70207500D01*
X37965908Y-64447000D02*
X40326604Y-64447000D01*
X40894000Y-63879604D02*
X40894000Y-53594000D01*
X38608000Y-75692000D02*
X37234500Y-75692000D01*
D45*
X37234500Y-71628000D02*
X37272000Y-71665500D01*
D44*
X35739092Y-64272000D02*
X37790908Y-64272000D01*
%TO.N,I_L*%
X41344000Y-64066000D02*
X41344000Y-46413000D01*
X40513000Y-64897000D02*
X41344000Y-64066000D01*
X44450000Y-43307000D02*
X48895000Y-43307000D01*
X36765000Y-64897000D02*
X40513000Y-64897000D01*
X41344000Y-46413000D02*
X44450000Y-43307000D01*
D45*
%TO.N,Net-(U2-FILTER)*%
X38989000Y-63627000D02*
X39116000Y-63500000D01*
X36765000Y-63627000D02*
X38989000Y-63627000D01*
%TD*%
%TA.AperFunction,Conductor*%
%TO.N,GND*%
G36*
X98922540Y-50808185D02*
G01*
X98968295Y-50860989D01*
X98979501Y-50912500D01*
X98979501Y-50935876D01*
X98985908Y-50995483D01*
X99036202Y-51130328D01*
X99036206Y-51130335D01*
X99122452Y-51245544D01*
X99122455Y-51245547D01*
X99237664Y-51331793D01*
X99237671Y-51331797D01*
X99369081Y-51380810D01*
X99425015Y-51422681D01*
X99449432Y-51488145D01*
X99434580Y-51556418D01*
X99413430Y-51584673D01*
X99291503Y-51706600D01*
X99155965Y-51900169D01*
X99155964Y-51900171D01*
X99056098Y-52114335D01*
X99056094Y-52114344D01*
X98994938Y-52342586D01*
X98994936Y-52342596D01*
X98974341Y-52577999D01*
X98974341Y-52578000D01*
X98994936Y-52813403D01*
X98994938Y-52813413D01*
X99056094Y-53041655D01*
X99056096Y-53041659D01*
X99056097Y-53041663D01*
X99060000Y-53050032D01*
X99155965Y-53255830D01*
X99155967Y-53255834D01*
X99264281Y-53410521D01*
X99291501Y-53449396D01*
X99291506Y-53449402D01*
X99458597Y-53616493D01*
X99458603Y-53616498D01*
X99644158Y-53746425D01*
X99687783Y-53801002D01*
X99694977Y-53870500D01*
X99663454Y-53932855D01*
X99644158Y-53949575D01*
X99458597Y-54079505D01*
X99291505Y-54246597D01*
X99155965Y-54440169D01*
X99155964Y-54440171D01*
X99056098Y-54654335D01*
X99056094Y-54654344D01*
X98994938Y-54882586D01*
X98994936Y-54882596D01*
X98974341Y-55117999D01*
X98974341Y-55118000D01*
X98994936Y-55353403D01*
X98994938Y-55353413D01*
X99056094Y-55581655D01*
X99056096Y-55581659D01*
X99056097Y-55581663D01*
X99060000Y-55590032D01*
X99155965Y-55795830D01*
X99155967Y-55795834D01*
X99264281Y-55950521D01*
X99291501Y-55989396D01*
X99291506Y-55989402D01*
X99458597Y-56156493D01*
X99458603Y-56156498D01*
X99644158Y-56286425D01*
X99687783Y-56341002D01*
X99694977Y-56410500D01*
X99663454Y-56472855D01*
X99644158Y-56489575D01*
X99458597Y-56619505D01*
X99291505Y-56786597D01*
X99155965Y-56980169D01*
X99155964Y-56980171D01*
X99056098Y-57194335D01*
X99056094Y-57194344D01*
X98994938Y-57422586D01*
X98994936Y-57422596D01*
X98974341Y-57657999D01*
X98974341Y-57658000D01*
X98994936Y-57893403D01*
X98994938Y-57893413D01*
X99056094Y-58121655D01*
X99056096Y-58121659D01*
X99056097Y-58121663D01*
X99060000Y-58130032D01*
X99155965Y-58335830D01*
X99155967Y-58335834D01*
X99264281Y-58490521D01*
X99291501Y-58529396D01*
X99291506Y-58529402D01*
X99458597Y-58696493D01*
X99458603Y-58696498D01*
X99644158Y-58826425D01*
X99687783Y-58881002D01*
X99694977Y-58950500D01*
X99663454Y-59012855D01*
X99644158Y-59029575D01*
X99458597Y-59159505D01*
X99291505Y-59326597D01*
X99155965Y-59520169D01*
X99155964Y-59520171D01*
X99056098Y-59734335D01*
X99056094Y-59734344D01*
X98994938Y-59962586D01*
X98994936Y-59962596D01*
X98974341Y-60197999D01*
X98974341Y-60198000D01*
X98994936Y-60433403D01*
X98994938Y-60433413D01*
X99056094Y-60661655D01*
X99056096Y-60661659D01*
X99056097Y-60661663D01*
X99109408Y-60775989D01*
X99155965Y-60875830D01*
X99155967Y-60875834D01*
X99264281Y-61030521D01*
X99291501Y-61069396D01*
X99291506Y-61069402D01*
X99458597Y-61236493D01*
X99458603Y-61236498D01*
X99644158Y-61366425D01*
X99687783Y-61421002D01*
X99694977Y-61490500D01*
X99663454Y-61552855D01*
X99644158Y-61569575D01*
X99458597Y-61699505D01*
X99291505Y-61866597D01*
X99155965Y-62060169D01*
X99155964Y-62060171D01*
X99056098Y-62274335D01*
X99056094Y-62274344D01*
X98994938Y-62502586D01*
X98994936Y-62502596D01*
X98974341Y-62737999D01*
X98974341Y-62738000D01*
X98994936Y-62973403D01*
X98994938Y-62973413D01*
X99056094Y-63201655D01*
X99056096Y-63201659D01*
X99056097Y-63201663D01*
X99088512Y-63271176D01*
X99155965Y-63415830D01*
X99155967Y-63415834D01*
X99264281Y-63570521D01*
X99291501Y-63609396D01*
X99291506Y-63609402D01*
X99458597Y-63776493D01*
X99458603Y-63776498D01*
X99644158Y-63906425D01*
X99687783Y-63961002D01*
X99694977Y-64030500D01*
X99663454Y-64092855D01*
X99644158Y-64109575D01*
X99458597Y-64239505D01*
X99291505Y-64406597D01*
X99155965Y-64600169D01*
X99155964Y-64600171D01*
X99056098Y-64814335D01*
X99056094Y-64814344D01*
X98994938Y-65042586D01*
X98994936Y-65042596D01*
X98974341Y-65277999D01*
X98974341Y-65278000D01*
X98994936Y-65513403D01*
X98994938Y-65513413D01*
X99056094Y-65741655D01*
X99056096Y-65741659D01*
X99056097Y-65741663D01*
X99134594Y-65910000D01*
X99155965Y-65955830D01*
X99155967Y-65955834D01*
X99241431Y-66077888D01*
X99291501Y-66149396D01*
X99291506Y-66149402D01*
X99458597Y-66316493D01*
X99458603Y-66316498D01*
X99644158Y-66446425D01*
X99687783Y-66501002D01*
X99694977Y-66570500D01*
X99663454Y-66632855D01*
X99644158Y-66649575D01*
X99458597Y-66779505D01*
X99291505Y-66946597D01*
X99155965Y-67140169D01*
X99155964Y-67140171D01*
X99056098Y-67354335D01*
X99056094Y-67354344D01*
X98994938Y-67582586D01*
X98994936Y-67582596D01*
X98974341Y-67817999D01*
X98974341Y-67818000D01*
X98994936Y-68053403D01*
X98994938Y-68053413D01*
X99056094Y-68281655D01*
X99056096Y-68281659D01*
X99056097Y-68281663D01*
X99085227Y-68344132D01*
X99155965Y-68495830D01*
X99155967Y-68495834D01*
X99252579Y-68633809D01*
X99291501Y-68689396D01*
X99291506Y-68689402D01*
X99458597Y-68856493D01*
X99458603Y-68856498D01*
X99644158Y-68986425D01*
X99687783Y-69041002D01*
X99694977Y-69110500D01*
X99663454Y-69172855D01*
X99644158Y-69189575D01*
X99458597Y-69319505D01*
X99291505Y-69486597D01*
X99155965Y-69680169D01*
X99155964Y-69680171D01*
X99056098Y-69894335D01*
X99056094Y-69894344D01*
X98994938Y-70122586D01*
X98994936Y-70122596D01*
X98974341Y-70357999D01*
X98974341Y-70358000D01*
X98994936Y-70593403D01*
X98994938Y-70593413D01*
X99056094Y-70821655D01*
X99056096Y-70821659D01*
X99056097Y-70821663D01*
X99060000Y-70830032D01*
X99155965Y-71035830D01*
X99155967Y-71035834D01*
X99264281Y-71190521D01*
X99291501Y-71229396D01*
X99291506Y-71229402D01*
X99458597Y-71396493D01*
X99458603Y-71396498D01*
X99644158Y-71526425D01*
X99687783Y-71581002D01*
X99694977Y-71650500D01*
X99663454Y-71712855D01*
X99644158Y-71729575D01*
X99458597Y-71859505D01*
X99291505Y-72026597D01*
X99155965Y-72220169D01*
X99155964Y-72220171D01*
X99056098Y-72434335D01*
X99056094Y-72434344D01*
X98994938Y-72662586D01*
X98994936Y-72662596D01*
X98974341Y-72897999D01*
X98974341Y-72898000D01*
X98994936Y-73133403D01*
X98994938Y-73133413D01*
X99056094Y-73361655D01*
X99056096Y-73361659D01*
X99056097Y-73361663D01*
X99114622Y-73487169D01*
X99155965Y-73575830D01*
X99155967Y-73575834D01*
X99230107Y-73681716D01*
X99291505Y-73769401D01*
X99458599Y-73936495D01*
X99496195Y-73962820D01*
X99652165Y-74072032D01*
X99652167Y-74072033D01*
X99652170Y-74072035D01*
X99866337Y-74171903D01*
X100094592Y-74233063D01*
X100282918Y-74249539D01*
X100329999Y-74253659D01*
X100330000Y-74253659D01*
X100330001Y-74253659D01*
X100369234Y-74250226D01*
X100565408Y-74233063D01*
X100793663Y-74171903D01*
X101007830Y-74072035D01*
X101201401Y-73936495D01*
X101368495Y-73769401D01*
X101498425Y-73583842D01*
X101553002Y-73540217D01*
X101622500Y-73533023D01*
X101684855Y-73564546D01*
X101701575Y-73583842D01*
X101831501Y-73769396D01*
X101831506Y-73769402D01*
X101998595Y-73936492D01*
X101998598Y-73936494D01*
X101998599Y-73936495D01*
X102066623Y-73984125D01*
X102110248Y-74038701D01*
X102119500Y-74085700D01*
X102119500Y-75021362D01*
X102099815Y-75088401D01*
X102060596Y-75126901D01*
X101945301Y-75198014D01*
X101877908Y-75216454D01*
X101811245Y-75195531D01*
X101792524Y-75180156D01*
X101781657Y-75169289D01*
X101781656Y-75169288D01*
X101672866Y-75102186D01*
X101632336Y-75077187D01*
X101632331Y-75077185D01*
X101625595Y-75074953D01*
X101465797Y-75022001D01*
X101465795Y-75022000D01*
X101363010Y-75011500D01*
X100312998Y-75011500D01*
X100312980Y-75011501D01*
X100210203Y-75022000D01*
X100210200Y-75022001D01*
X100043668Y-75077185D01*
X100043663Y-75077187D01*
X99894342Y-75169289D01*
X99770289Y-75293342D01*
X99678187Y-75442663D01*
X99678186Y-75442666D01*
X99623001Y-75609203D01*
X99623001Y-75609204D01*
X99623000Y-75609204D01*
X99612500Y-75711983D01*
X99612500Y-76312001D01*
X99612501Y-76312019D01*
X99623000Y-76414796D01*
X99623001Y-76414799D01*
X99639569Y-76464797D01*
X99678186Y-76581334D01*
X99770288Y-76730656D01*
X99894344Y-76854712D01*
X100043666Y-76946814D01*
X100210203Y-77001999D01*
X100312991Y-77012500D01*
X101363008Y-77012499D01*
X101363016Y-77012498D01*
X101363019Y-77012498D01*
X101419302Y-77006748D01*
X101465797Y-77001999D01*
X101632334Y-76946814D01*
X101751037Y-76873597D01*
X101818428Y-76855157D01*
X101885092Y-76876079D01*
X101929862Y-76929721D01*
X101938523Y-76999052D01*
X101908327Y-77062059D01*
X101903815Y-77066817D01*
X101827287Y-77143345D01*
X101735187Y-77292663D01*
X101735186Y-77292666D01*
X101680001Y-77459203D01*
X101680001Y-77459204D01*
X101680000Y-77459204D01*
X101669500Y-77561983D01*
X101669500Y-78187001D01*
X101669501Y-78187019D01*
X101680000Y-78289796D01*
X101680001Y-78289799D01*
X101735185Y-78456331D01*
X101735186Y-78456334D01*
X101827288Y-78605656D01*
X101951344Y-78729712D01*
X102100666Y-78821814D01*
X102100668Y-78821815D01*
X102121110Y-78828588D01*
X102159502Y-78841310D01*
X102216947Y-78881081D01*
X102243772Y-78945596D01*
X102244500Y-78959016D01*
X102244500Y-79563611D01*
X102268535Y-79684444D01*
X102268540Y-79684461D01*
X102315685Y-79798280D01*
X102315690Y-79798289D01*
X102349914Y-79849507D01*
X102349915Y-79849509D01*
X102384141Y-79900733D01*
X102475586Y-79992178D01*
X102475608Y-79992198D01*
X125139416Y-102656006D01*
X125139445Y-102656037D01*
X125233986Y-102750578D01*
X125234008Y-102750598D01*
X125244143Y-102760733D01*
X132385596Y-109902187D01*
X132419081Y-109963510D01*
X132414097Y-110033202D01*
X132372225Y-110089135D01*
X132364957Y-110094182D01*
X132329460Y-110116995D01*
X132329451Y-110117002D01*
X132276659Y-110162746D01*
X132182433Y-110271487D01*
X132182430Y-110271491D01*
X132122664Y-110402357D01*
X132102976Y-110469405D01*
X132102244Y-110474496D01*
X132082500Y-110611823D01*
X132082500Y-116462000D01*
X132082501Y-116462009D01*
X132094052Y-116569450D01*
X132094054Y-116569462D01*
X132105260Y-116620972D01*
X132139383Y-116723497D01*
X132139386Y-116723503D01*
X132217171Y-116844537D01*
X132217179Y-116844548D01*
X132262923Y-116897340D01*
X132262926Y-116897343D01*
X132262930Y-116897347D01*
X132371664Y-116991567D01*
X132371667Y-116991568D01*
X132371668Y-116991569D01*
X132473245Y-117037959D01*
X132502541Y-117051338D01*
X132569580Y-117071023D01*
X132569584Y-117071024D01*
X132712000Y-117091500D01*
X132712003Y-117091500D01*
X133987990Y-117091500D01*
X133988000Y-117091500D01*
X134095456Y-117079947D01*
X134146967Y-117068741D01*
X134181197Y-117057347D01*
X134249497Y-117034616D01*
X134249501Y-117034613D01*
X134249504Y-117034613D01*
X134326460Y-116985156D01*
X134393500Y-116965471D01*
X134460539Y-116985155D01*
X134506294Y-117037959D01*
X134517500Y-117089471D01*
X134517500Y-117988500D01*
X134497815Y-118055539D01*
X134445011Y-118101294D01*
X134393500Y-118112500D01*
X105109945Y-118112500D01*
X105042906Y-118092815D01*
X105004407Y-118053597D01*
X104986714Y-118024913D01*
X104986711Y-118024909D01*
X104862657Y-117900855D01*
X104862656Y-117900854D01*
X104740213Y-117825331D01*
X104713336Y-117808753D01*
X104713331Y-117808751D01*
X104711862Y-117808264D01*
X104546797Y-117753567D01*
X104546795Y-117753566D01*
X104444010Y-117743066D01*
X103393998Y-117743066D01*
X103393980Y-117743067D01*
X103291203Y-117753566D01*
X103291200Y-117753567D01*
X103124668Y-117808751D01*
X103124663Y-117808753D01*
X103063466Y-117846500D01*
X102975344Y-117900854D01*
X102975342Y-117900855D01*
X102969197Y-117904646D01*
X102967680Y-117902187D01*
X102915060Y-117923388D01*
X102846424Y-117910317D01*
X102837029Y-117904279D01*
X102836803Y-117904646D01*
X102830657Y-117900855D01*
X102830656Y-117900854D01*
X102708213Y-117825331D01*
X102681336Y-117808753D01*
X102681331Y-117808751D01*
X102679862Y-117808264D01*
X102514797Y-117753567D01*
X102514795Y-117753566D01*
X102412010Y-117743066D01*
X101361998Y-117743066D01*
X101361980Y-117743067D01*
X101259203Y-117753566D01*
X101259200Y-117753567D01*
X101092668Y-117808751D01*
X101092663Y-117808753D01*
X101031466Y-117846500D01*
X100943344Y-117900854D01*
X100943342Y-117900855D01*
X100937197Y-117904646D01*
X100935680Y-117902187D01*
X100883060Y-117923388D01*
X100814424Y-117910317D01*
X100805029Y-117904279D01*
X100804803Y-117904646D01*
X100798657Y-117900855D01*
X100798656Y-117900854D01*
X100676213Y-117825331D01*
X100649336Y-117808753D01*
X100649331Y-117808751D01*
X100647862Y-117808264D01*
X100482797Y-117753567D01*
X100482795Y-117753566D01*
X100380010Y-117743066D01*
X99329998Y-117743066D01*
X99329980Y-117743067D01*
X99227203Y-117753566D01*
X99227200Y-117753567D01*
X99060668Y-117808751D01*
X99060663Y-117808753D01*
X98911342Y-117900855D01*
X98787288Y-118024909D01*
X98787285Y-118024913D01*
X98769593Y-118053597D01*
X98717645Y-118100322D01*
X98664055Y-118112500D01*
X96806997Y-118112500D01*
X96735059Y-118117644D01*
X96597005Y-118158182D01*
X96475970Y-118235967D01*
X96475965Y-118235971D01*
X96451605Y-118264084D01*
X96435079Y-118274703D01*
X96400079Y-118318139D01*
X96368429Y-118362031D01*
X96308664Y-118492896D01*
X96288976Y-118559944D01*
X96285060Y-118587181D01*
X96268501Y-118702359D01*
X96268500Y-118702364D01*
X96268500Y-119470703D01*
X96248815Y-119537742D01*
X96196011Y-119583497D01*
X96126853Y-119593441D01*
X96071614Y-119571021D01*
X96044538Y-119551349D01*
X95840755Y-119447516D01*
X95623248Y-119376844D01*
X95453826Y-119350010D01*
X95397354Y-119341066D01*
X95168646Y-119341066D01*
X95093349Y-119352992D01*
X94942753Y-119376844D01*
X94942750Y-119376844D01*
X94725244Y-119447516D01*
X94521461Y-119551349D01*
X94427897Y-119619328D01*
X94336434Y-119685780D01*
X94336432Y-119685782D01*
X94336431Y-119685782D01*
X94174716Y-119847497D01*
X94174716Y-119847498D01*
X94174714Y-119847500D01*
X94116980Y-119926962D01*
X94040283Y-120032527D01*
X93936450Y-120236310D01*
X93865778Y-120453816D01*
X93865778Y-120453819D01*
X93845159Y-120584000D01*
X93830000Y-120679712D01*
X93830000Y-121003420D01*
X93834672Y-121032917D01*
X93865778Y-121229312D01*
X93865778Y-121229315D01*
X93936450Y-121446821D01*
X94040285Y-121650607D01*
X94101320Y-121734615D01*
X94124800Y-121800421D01*
X94108975Y-121868475D01*
X94058869Y-121917170D01*
X94001002Y-121931500D01*
X82038580Y-121931500D01*
X81893592Y-121960340D01*
X81893582Y-121960343D01*
X81757011Y-122016912D01*
X81756999Y-122016919D01*
X81732303Y-122033421D01*
X81732302Y-122033421D01*
X81634085Y-122099046D01*
X81634078Y-122099052D01*
X81046949Y-122686181D01*
X80985626Y-122719666D01*
X80959268Y-122722500D01*
X80558998Y-122722500D01*
X80558980Y-122722501D01*
X80456203Y-122733000D01*
X80456200Y-122733001D01*
X80289668Y-122788185D01*
X80289663Y-122788187D01*
X80140342Y-122880289D01*
X80016289Y-123004342D01*
X79924187Y-123153663D01*
X79924186Y-123153666D01*
X79869001Y-123320203D01*
X79869001Y-123320204D01*
X79869000Y-123320204D01*
X79858500Y-123422983D01*
X79858500Y-123500500D01*
X79838815Y-123567539D01*
X79786011Y-123613294D01*
X79734500Y-123624500D01*
X79591244Y-123624500D01*
X79524205Y-123604815D01*
X79478450Y-123552011D01*
X79468506Y-123482853D01*
X79471466Y-123468415D01*
X79505160Y-123342674D01*
X79519508Y-123178668D01*
X79524291Y-123124002D01*
X79524291Y-123123997D01*
X79513823Y-123004344D01*
X79505160Y-122905326D01*
X79448346Y-122693297D01*
X79355578Y-122494355D01*
X79250906Y-122344867D01*
X79229674Y-122314544D01*
X79208251Y-122293121D01*
X79074457Y-122159327D01*
X79074453Y-122159324D01*
X79074452Y-122159323D01*
X78894650Y-122033424D01*
X78894642Y-122033420D01*
X78750877Y-121966382D01*
X78698437Y-121920210D01*
X78679285Y-121853017D01*
X78699500Y-121786136D01*
X78750877Y-121741618D01*
X78765895Y-121734615D01*
X78894646Y-121674578D01*
X79074457Y-121548673D01*
X79229673Y-121393457D01*
X79355578Y-121213646D01*
X79448346Y-121014703D01*
X79505160Y-120802674D01*
X79524291Y-120584000D01*
X79519696Y-120531483D01*
X79506641Y-120382255D01*
X79505160Y-120365326D01*
X79448346Y-120153297D01*
X79355578Y-119954355D01*
X79229673Y-119774543D01*
X79074457Y-119619327D01*
X79074453Y-119619324D01*
X79074452Y-119619323D01*
X78894650Y-119493424D01*
X78894642Y-119493420D01*
X78796204Y-119447518D01*
X78750876Y-119426381D01*
X78698437Y-119380210D01*
X78679285Y-119313017D01*
X78699500Y-119246136D01*
X78750877Y-119201618D01*
X78894646Y-119134578D01*
X79074457Y-119008673D01*
X79229673Y-118853457D01*
X79355578Y-118673646D01*
X79448346Y-118474703D01*
X79505160Y-118262674D01*
X79523096Y-118057662D01*
X79524291Y-118044002D01*
X79524291Y-118043997D01*
X79512874Y-117913498D01*
X79505160Y-117825326D01*
X79448346Y-117613297D01*
X79355578Y-117414355D01*
X79229673Y-117234543D01*
X79229672Y-117234541D01*
X79175010Y-117179880D01*
X79141524Y-117118557D01*
X79146508Y-117048865D01*
X79175006Y-117004520D01*
X79197795Y-116981732D01*
X79197796Y-116981729D01*
X81544857Y-114634670D01*
X81553635Y-114621534D01*
X81613311Y-114532222D01*
X81660463Y-114418388D01*
X81684500Y-114297542D01*
X81684500Y-114235229D01*
X81704185Y-114168190D01*
X81756989Y-114122435D01*
X81826147Y-114112491D01*
X81889703Y-114141516D01*
X81896181Y-114147548D01*
X82972614Y-115223981D01*
X82972615Y-115223982D01*
X83029404Y-115280771D01*
X83077151Y-115328518D01*
X83200064Y-115410646D01*
X83200077Y-115410653D01*
X83336648Y-115467222D01*
X83336653Y-115467224D01*
X83336657Y-115467224D01*
X83336658Y-115467225D01*
X83481645Y-115496066D01*
X83481648Y-115496066D01*
X93769501Y-115496066D01*
X93836540Y-115515751D01*
X93882295Y-115568555D01*
X93893501Y-115620066D01*
X93893501Y-115793442D01*
X93899908Y-115853049D01*
X93950202Y-115987894D01*
X93950206Y-115987901D01*
X94036452Y-116103110D01*
X94036455Y-116103113D01*
X94151664Y-116189359D01*
X94151671Y-116189363D01*
X94286517Y-116239657D01*
X94286516Y-116239657D01*
X94293444Y-116240401D01*
X94346127Y-116246066D01*
X96346872Y-116246065D01*
X96406483Y-116239657D01*
X96541331Y-116189362D01*
X96656546Y-116103112D01*
X96742796Y-115987897D01*
X96753190Y-115960026D01*
X96795060Y-115904093D01*
X96860523Y-115879674D01*
X96928797Y-115894524D01*
X96942246Y-115903031D01*
X97124962Y-116035783D01*
X97257099Y-116103110D01*
X97328744Y-116139615D01*
X97546251Y-116210287D01*
X97546252Y-116210287D01*
X97546255Y-116210288D01*
X97772146Y-116246066D01*
X97772147Y-116246066D01*
X98000853Y-116246066D01*
X98000854Y-116246066D01*
X98226745Y-116210288D01*
X98226748Y-116210287D01*
X98226749Y-116210287D01*
X98444255Y-116139615D01*
X98444255Y-116139614D01*
X98444258Y-116139614D01*
X98648038Y-116035783D01*
X98833066Y-115901352D01*
X98994786Y-115739632D01*
X99129217Y-115554604D01*
X99233048Y-115350824D01*
X99303722Y-115133311D01*
X99314000Y-115068418D01*
X99314000Y-115824000D01*
X99060000Y-116332000D01*
X99060000Y-117348000D01*
X104648000Y-117348000D01*
X104648000Y-113792000D01*
X99314000Y-113792000D01*
X99314000Y-114422713D01*
X99303722Y-114357821D01*
X99303721Y-114357817D01*
X99303721Y-114357816D01*
X99233049Y-114140310D01*
X99223525Y-114121618D01*
X99129217Y-113936528D01*
X98994786Y-113751500D01*
X98833066Y-113589780D01*
X98648038Y-113455349D01*
X98444255Y-113351516D01*
X98226748Y-113280844D01*
X98041312Y-113251474D01*
X98000854Y-113245066D01*
X97772146Y-113245066D01*
X97731688Y-113251474D01*
X97546253Y-113280844D01*
X97546250Y-113280844D01*
X97328744Y-113351516D01*
X97124961Y-113455349D01*
X96942259Y-113588091D01*
X96876452Y-113611571D01*
X96808398Y-113595746D01*
X96759703Y-113545640D01*
X96753190Y-113531104D01*
X96742796Y-113503235D01*
X96742793Y-113503230D01*
X96656547Y-113388021D01*
X96656544Y-113388018D01*
X96541335Y-113301772D01*
X96541328Y-113301768D01*
X96406482Y-113251474D01*
X96406483Y-113251474D01*
X96346883Y-113245067D01*
X96346881Y-113245066D01*
X96346873Y-113245066D01*
X96346864Y-113245066D01*
X94346129Y-113245066D01*
X94346123Y-113245067D01*
X94286516Y-113251474D01*
X94151671Y-113301768D01*
X94151664Y-113301772D01*
X94036455Y-113388018D01*
X94036452Y-113388021D01*
X93950206Y-113503230D01*
X93950202Y-113503237D01*
X93899908Y-113638083D01*
X93893501Y-113697682D01*
X93893500Y-113697701D01*
X93893500Y-113871066D01*
X93873815Y-113938105D01*
X93821011Y-113983860D01*
X93769500Y-113995066D01*
X83917795Y-113995066D01*
X83850756Y-113975381D01*
X83830114Y-113958747D01*
X82295818Y-112424451D01*
X82262333Y-112363128D01*
X82259499Y-112336770D01*
X82259499Y-111936498D01*
X82259498Y-111936481D01*
X82248999Y-111833703D01*
X82248998Y-111833700D01*
X82238039Y-111800627D01*
X82193814Y-111667166D01*
X82101712Y-111517844D01*
X82008049Y-111424181D01*
X81974564Y-111362858D01*
X81979548Y-111293166D01*
X82008049Y-111248819D01*
X82046049Y-111210819D01*
X82101712Y-111155156D01*
X82193814Y-111005834D01*
X82248999Y-110839297D01*
X82259500Y-110736509D01*
X82259499Y-110173566D01*
X82881064Y-110173566D01*
X82896059Y-110402357D01*
X82900787Y-110474484D01*
X82900788Y-110474496D01*
X82959618Y-110770249D01*
X82959622Y-110770264D01*
X83056553Y-111055813D01*
X83056562Y-111055834D01*
X83189931Y-111326279D01*
X83189935Y-111326286D01*
X83357473Y-111577025D01*
X83556310Y-111803755D01*
X83783040Y-112002592D01*
X84033779Y-112170130D01*
X84033786Y-112170134D01*
X84304231Y-112303503D01*
X84304236Y-112303505D01*
X84304248Y-112303511D01*
X84589809Y-112400446D01*
X84747189Y-112431751D01*
X84885569Y-112459277D01*
X84885570Y-112459277D01*
X84885580Y-112459279D01*
X85186500Y-112479002D01*
X85487420Y-112459279D01*
X85783191Y-112400446D01*
X86068752Y-112303511D01*
X86339218Y-112170132D01*
X86589961Y-112002591D01*
X86816689Y-111803755D01*
X87015525Y-111577027D01*
X87183066Y-111326284D01*
X87316445Y-111055818D01*
X87413380Y-110770257D01*
X87472213Y-110474486D01*
X87491936Y-110173566D01*
X87491702Y-110170000D01*
X108217564Y-110170000D01*
X108234204Y-110423889D01*
X108237287Y-110470918D01*
X108237288Y-110470930D01*
X108296118Y-110766683D01*
X108296122Y-110766698D01*
X108393053Y-111052247D01*
X108393062Y-111052268D01*
X108526431Y-111322713D01*
X108526435Y-111322720D01*
X108693973Y-111573459D01*
X108892810Y-111800189D01*
X109119540Y-111999026D01*
X109370279Y-112166564D01*
X109370286Y-112166568D01*
X109640731Y-112299937D01*
X109640736Y-112299939D01*
X109640748Y-112299945D01*
X109926309Y-112396880D01*
X110064917Y-112424451D01*
X110222069Y-112455711D01*
X110222070Y-112455711D01*
X110222080Y-112455713D01*
X110523000Y-112475436D01*
X110823920Y-112455713D01*
X111119691Y-112396880D01*
X111405252Y-112299945D01*
X111675718Y-112166566D01*
X111926461Y-111999025D01*
X112153189Y-111800189D01*
X112352025Y-111573461D01*
X112519566Y-111322718D01*
X112652945Y-111052252D01*
X112749880Y-110766691D01*
X112808713Y-110470920D01*
X112828436Y-110170000D01*
X112808713Y-109869080D01*
X112808010Y-109865548D01*
X112773657Y-109692842D01*
X112749880Y-109573309D01*
X112652945Y-109287748D01*
X112635479Y-109252331D01*
X112519568Y-109017286D01*
X112519564Y-109017279D01*
X112352026Y-108766540D01*
X112153189Y-108539810D01*
X111926459Y-108340973D01*
X111675720Y-108173435D01*
X111675713Y-108173431D01*
X111405268Y-108040062D01*
X111405247Y-108040053D01*
X111119698Y-107943122D01*
X111119692Y-107943120D01*
X111119691Y-107943120D01*
X111119689Y-107943119D01*
X111119683Y-107943118D01*
X110823930Y-107884288D01*
X110823921Y-107884287D01*
X110823920Y-107884287D01*
X110523000Y-107864564D01*
X110222080Y-107884287D01*
X110222079Y-107884287D01*
X110222069Y-107884288D01*
X109926316Y-107943118D01*
X109926301Y-107943122D01*
X109640752Y-108040053D01*
X109640731Y-108040062D01*
X109370286Y-108173431D01*
X109370279Y-108173435D01*
X109119540Y-108340973D01*
X108892810Y-108539810D01*
X108693973Y-108766540D01*
X108526435Y-109017279D01*
X108526431Y-109017286D01*
X108393062Y-109287731D01*
X108393053Y-109287752D01*
X108296122Y-109573301D01*
X108296118Y-109573316D01*
X108237288Y-109869069D01*
X108237287Y-109869079D01*
X108237287Y-109869080D01*
X108217564Y-110170000D01*
X87491702Y-110170000D01*
X87472213Y-109872646D01*
X87471501Y-109869069D01*
X87448158Y-109751714D01*
X87413380Y-109576875D01*
X87316445Y-109291314D01*
X87314688Y-109287752D01*
X87183068Y-109020852D01*
X87183064Y-109020845D01*
X87015526Y-108770106D01*
X86816689Y-108543376D01*
X86589959Y-108344539D01*
X86339220Y-108177001D01*
X86339213Y-108176997D01*
X86068768Y-108043628D01*
X86068747Y-108043619D01*
X85783198Y-107946688D01*
X85783192Y-107946686D01*
X85783191Y-107946686D01*
X85783189Y-107946685D01*
X85783183Y-107946684D01*
X85487430Y-107887854D01*
X85487421Y-107887853D01*
X85487420Y-107887853D01*
X85186500Y-107868130D01*
X84885580Y-107887853D01*
X84885579Y-107887853D01*
X84885569Y-107887854D01*
X84589816Y-107946684D01*
X84589801Y-107946688D01*
X84304252Y-108043619D01*
X84304231Y-108043628D01*
X84033786Y-108176997D01*
X84033779Y-108177001D01*
X83783040Y-108344539D01*
X83556310Y-108543376D01*
X83357473Y-108770106D01*
X83189935Y-109020845D01*
X83189931Y-109020852D01*
X83056562Y-109291297D01*
X83056553Y-109291318D01*
X82959622Y-109576867D01*
X82959618Y-109576882D01*
X82900788Y-109872635D01*
X82900787Y-109872645D01*
X82900787Y-109872646D01*
X82881064Y-110173566D01*
X82259499Y-110173566D01*
X82259499Y-110111492D01*
X82256213Y-110079328D01*
X82248999Y-110008703D01*
X82248998Y-110008700D01*
X82238359Y-109976593D01*
X82193814Y-109842166D01*
X82101712Y-109692844D01*
X81977656Y-109568788D01*
X81851567Y-109491016D01*
X81828336Y-109476687D01*
X81828331Y-109476685D01*
X81775951Y-109459328D01*
X81661797Y-109421501D01*
X81661795Y-109421500D01*
X81559010Y-109411000D01*
X80558998Y-109411000D01*
X80558980Y-109411001D01*
X80456203Y-109421500D01*
X80456200Y-109421501D01*
X80289668Y-109476685D01*
X80289663Y-109476687D01*
X80140342Y-109568789D01*
X80071951Y-109637181D01*
X80010628Y-109670666D01*
X79984270Y-109673500D01*
X79335506Y-109673500D01*
X79268467Y-109653815D01*
X79233933Y-109620626D01*
X79229674Y-109614544D01*
X79177271Y-109562141D01*
X79074457Y-109459327D01*
X79074453Y-109459324D01*
X79074452Y-109459323D01*
X78894650Y-109333424D01*
X78894642Y-109333420D01*
X78695708Y-109240656D01*
X78695706Y-109240655D01*
X78695703Y-109240654D01*
X78544885Y-109200241D01*
X78483675Y-109183840D01*
X78483668Y-109183839D01*
X78265002Y-109164709D01*
X78264998Y-109164709D01*
X78046331Y-109183839D01*
X78046324Y-109183840D01*
X77834293Y-109240655D01*
X77635356Y-109333421D01*
X77635354Y-109333422D01*
X77455540Y-109459328D01*
X77300328Y-109614540D01*
X77174422Y-109794354D01*
X77174421Y-109794356D01*
X77081655Y-109993293D01*
X77024840Y-110205324D01*
X77024839Y-110205331D01*
X77005709Y-110423997D01*
X77005709Y-110424002D01*
X77020163Y-110589221D01*
X77024840Y-110642674D01*
X77081654Y-110854703D01*
X77081655Y-110854706D01*
X77081656Y-110854708D01*
X77174420Y-111053642D01*
X77174424Y-111053650D01*
X77300323Y-111233452D01*
X77300328Y-111233458D01*
X77455541Y-111388671D01*
X77455547Y-111388676D01*
X77635349Y-111514575D01*
X77635351Y-111514576D01*
X77635354Y-111514578D01*
X77834297Y-111607346D01*
X78046326Y-111664160D01*
X78202521Y-111677825D01*
X78264998Y-111683291D01*
X78265000Y-111683291D01*
X78265002Y-111683291D01*
X78319668Y-111678508D01*
X78483674Y-111664160D01*
X78695703Y-111607346D01*
X78894646Y-111514578D01*
X79074457Y-111388673D01*
X79229673Y-111233457D01*
X79231295Y-111231140D01*
X79233933Y-111227374D01*
X79288510Y-111183751D01*
X79335506Y-111174500D01*
X79984270Y-111174500D01*
X80051309Y-111194185D01*
X80071951Y-111210819D01*
X80109951Y-111248819D01*
X80143436Y-111310142D01*
X80138452Y-111379834D01*
X80109951Y-111424181D01*
X80016289Y-111517842D01*
X79924187Y-111667163D01*
X79924185Y-111667168D01*
X79915620Y-111693017D01*
X79869001Y-111833703D01*
X79869001Y-111833704D01*
X79869000Y-111833704D01*
X79858500Y-111936483D01*
X79858500Y-112561501D01*
X79858501Y-112561519D01*
X79869000Y-112664296D01*
X79869001Y-112664299D01*
X79895851Y-112745326D01*
X79924186Y-112830834D01*
X80016288Y-112980156D01*
X80140344Y-113104212D01*
X80267552Y-113182674D01*
X80289668Y-113196315D01*
X80310110Y-113203088D01*
X80348502Y-113215810D01*
X80405947Y-113255581D01*
X80432772Y-113320096D01*
X80433500Y-113333516D01*
X80433500Y-113925482D01*
X80413815Y-113992521D01*
X80397181Y-114013163D01*
X79534372Y-114875972D01*
X79473049Y-114909457D01*
X79403357Y-114904473D01*
X79347424Y-114862601D01*
X79345116Y-114859414D01*
X79229674Y-114694544D01*
X79156664Y-114621534D01*
X79074457Y-114539327D01*
X79074453Y-114539324D01*
X79074452Y-114539323D01*
X78894650Y-114413424D01*
X78894642Y-114413420D01*
X78695708Y-114320656D01*
X78695706Y-114320655D01*
X78695703Y-114320654D01*
X78544885Y-114280241D01*
X78483675Y-114263840D01*
X78483668Y-114263839D01*
X78265002Y-114244709D01*
X78264998Y-114244709D01*
X78046331Y-114263839D01*
X78046324Y-114263840D01*
X77834293Y-114320655D01*
X77635356Y-114413421D01*
X77635354Y-114413422D01*
X77455540Y-114539328D01*
X77300328Y-114694540D01*
X77174422Y-114874354D01*
X77174421Y-114874356D01*
X77081655Y-115073293D01*
X77024840Y-115285324D01*
X77024839Y-115285331D01*
X77005709Y-115503997D01*
X77005709Y-115504002D01*
X77011356Y-115568555D01*
X77024840Y-115722674D01*
X77081654Y-115934703D01*
X77081655Y-115934706D01*
X77081656Y-115934708D01*
X77174420Y-116133642D01*
X77174421Y-116133644D01*
X77205899Y-116178599D01*
X77228226Y-116244805D01*
X77211216Y-116312573D01*
X77192005Y-116337404D01*
X73075595Y-120453816D01*
X71756269Y-121773142D01*
X71756267Y-121773144D01*
X71728990Y-121800421D01*
X71669140Y-121860270D01*
X71647898Y-121892063D01*
X71647896Y-121892066D01*
X71600690Y-121962712D01*
X71600685Y-121962721D01*
X71553540Y-122076540D01*
X71553537Y-122076548D01*
X71549062Y-122099048D01*
X71530963Y-122190043D01*
X71529500Y-122197396D01*
X71529500Y-122197399D01*
X71529500Y-124513670D01*
X71509815Y-124580709D01*
X71457011Y-124626464D01*
X71387853Y-124636408D01*
X71334377Y-124615245D01*
X71274650Y-124573425D01*
X71274646Y-124573422D01*
X71274642Y-124573420D01*
X71075708Y-124480656D01*
X71075706Y-124480655D01*
X71075703Y-124480654D01*
X70924885Y-124440241D01*
X70863675Y-124423840D01*
X70863668Y-124423839D01*
X70645002Y-124404709D01*
X70644998Y-124404709D01*
X70426331Y-124423839D01*
X70426324Y-124423840D01*
X70214293Y-124480655D01*
X70015356Y-124573421D01*
X70015354Y-124573422D01*
X69835540Y-124699328D01*
X69680328Y-124854540D01*
X69554422Y-125034354D01*
X69554421Y-125034356D01*
X69461655Y-125233293D01*
X69404840Y-125445324D01*
X69404839Y-125445331D01*
X69385709Y-125663997D01*
X69385709Y-125664002D01*
X69390126Y-125714496D01*
X69404840Y-125882674D01*
X69461654Y-126094703D01*
X69461655Y-126094706D01*
X69461656Y-126094708D01*
X69554420Y-126293642D01*
X69554424Y-126293650D01*
X69680323Y-126473452D01*
X69680328Y-126473458D01*
X69835541Y-126628671D01*
X69835547Y-126628676D01*
X70015349Y-126754575D01*
X70015351Y-126754576D01*
X70015354Y-126754578D01*
X70214297Y-126847346D01*
X70426326Y-126904160D01*
X70582521Y-126917825D01*
X70644998Y-126923291D01*
X70645000Y-126923291D01*
X70645002Y-126923291D01*
X70699668Y-126918508D01*
X70863674Y-126904160D01*
X71075703Y-126847346D01*
X71274646Y-126754578D01*
X71334377Y-126712753D01*
X71400582Y-126690427D01*
X71468350Y-126707437D01*
X71516163Y-126758385D01*
X71529500Y-126814329D01*
X71529500Y-132236611D01*
X71553535Y-132357444D01*
X71553540Y-132357461D01*
X71600685Y-132471280D01*
X71600690Y-132471289D01*
X71634914Y-132522507D01*
X71634915Y-132522509D01*
X71669141Y-132573733D01*
X71760586Y-132665178D01*
X71760608Y-132665198D01*
X72352333Y-133256923D01*
X72385818Y-133318246D01*
X72388123Y-133356044D01*
X72374785Y-133499998D01*
X72374785Y-133500000D01*
X72393602Y-133703082D01*
X72449417Y-133899247D01*
X72449422Y-133899260D01*
X72540327Y-134081821D01*
X72663237Y-134244581D01*
X72813958Y-134381980D01*
X72813960Y-134381982D01*
X72913141Y-134443392D01*
X72987363Y-134489348D01*
X73177544Y-134563024D01*
X73378024Y-134600500D01*
X73378026Y-134600500D01*
X73581974Y-134600500D01*
X73581976Y-134600500D01*
X73782456Y-134563024D01*
X73972637Y-134489348D01*
X74146041Y-134381981D01*
X74296764Y-134244579D01*
X74419673Y-134081821D01*
X74510582Y-133899250D01*
X74566397Y-133703083D01*
X74585215Y-133500000D01*
X74566397Y-133296917D01*
X74510582Y-133100750D01*
X74419673Y-132918179D01*
X74296764Y-132755421D01*
X74296762Y-132755418D01*
X74146041Y-132618019D01*
X74146039Y-132618017D01*
X73972642Y-132510655D01*
X73972635Y-132510651D01*
X73871005Y-132471280D01*
X73782456Y-132436976D01*
X73581976Y-132399500D01*
X73378024Y-132399500D01*
X73378017Y-132399500D01*
X73346277Y-132405433D01*
X73276762Y-132398400D01*
X73235815Y-132371225D01*
X72816819Y-131952229D01*
X72783334Y-131890906D01*
X72780500Y-131864548D01*
X72780500Y-130583886D01*
X72800185Y-130516847D01*
X72852989Y-130471092D01*
X72922147Y-130461148D01*
X72969777Y-130478459D01*
X72987363Y-130489348D01*
X73177544Y-130563024D01*
X73378024Y-130600500D01*
X73378026Y-130600500D01*
X73581974Y-130600500D01*
X73581976Y-130600500D01*
X73782456Y-130563024D01*
X73972637Y-130489348D01*
X74146041Y-130381981D01*
X74296764Y-130244579D01*
X74419673Y-130081821D01*
X74510582Y-129899250D01*
X74566397Y-129703083D01*
X74585215Y-129500000D01*
X74566397Y-129296917D01*
X74510582Y-129100750D01*
X74419673Y-128918179D01*
X74346246Y-128820946D01*
X74321555Y-128755587D01*
X74336120Y-128687252D01*
X74357516Y-128658544D01*
X76905458Y-126110603D01*
X76966779Y-126077120D01*
X77036471Y-126082104D01*
X77092404Y-126123976D01*
X77105519Y-126145882D01*
X77174420Y-126293642D01*
X77174424Y-126293650D01*
X77300323Y-126473452D01*
X77300328Y-126473458D01*
X77455541Y-126628671D01*
X77455547Y-126628676D01*
X77635349Y-126754575D01*
X77635351Y-126754576D01*
X77635354Y-126754578D01*
X77834297Y-126847346D01*
X78046326Y-126904160D01*
X78202521Y-126917825D01*
X78264998Y-126923291D01*
X78265000Y-126923291D01*
X78265002Y-126923291D01*
X78319668Y-126918508D01*
X78483674Y-126904160D01*
X78695703Y-126847346D01*
X78894646Y-126754578D01*
X79074457Y-126628673D01*
X79229673Y-126473457D01*
X79306403Y-126363874D01*
X79360980Y-126320251D01*
X79407977Y-126311000D01*
X79984270Y-126311000D01*
X80051309Y-126330685D01*
X80071951Y-126347319D01*
X80140344Y-126415712D01*
X80289666Y-126507814D01*
X80456203Y-126562999D01*
X80558991Y-126573500D01*
X81559008Y-126573499D01*
X81559016Y-126573498D01*
X81559019Y-126573498D01*
X81629619Y-126566286D01*
X81661797Y-126562999D01*
X81828334Y-126507814D01*
X81977656Y-126415712D01*
X82101712Y-126291656D01*
X82193814Y-126142334D01*
X82248999Y-125975797D01*
X82259500Y-125873009D01*
X82259499Y-125247992D01*
X82257997Y-125233293D01*
X82248999Y-125145203D01*
X82248998Y-125145200D01*
X82238207Y-125112635D01*
X82193814Y-124978666D01*
X82101712Y-124829344D01*
X82008049Y-124735681D01*
X81974564Y-124674358D01*
X81979548Y-124604666D01*
X82008049Y-124560319D01*
X82054698Y-124513670D01*
X82101712Y-124466656D01*
X82193814Y-124317334D01*
X82248999Y-124150797D01*
X82259500Y-124048009D01*
X82259499Y-123647730D01*
X82279183Y-123580692D01*
X82295818Y-123560049D01*
X82387050Y-123468818D01*
X82448374Y-123435334D01*
X82474731Y-123432500D01*
X83563448Y-123432500D01*
X83630487Y-123452185D01*
X83676242Y-123504989D01*
X83686186Y-123574147D01*
X83657161Y-123637703D01*
X83645207Y-123649728D01*
X83492810Y-123783376D01*
X83293973Y-124010106D01*
X83126435Y-124260845D01*
X83126431Y-124260852D01*
X82993062Y-124531297D01*
X82993053Y-124531318D01*
X82896122Y-124816867D01*
X82896118Y-124816882D01*
X82837288Y-125112635D01*
X82837287Y-125112645D01*
X82837287Y-125112646D01*
X82817564Y-125413566D01*
X82819645Y-125445324D01*
X82837287Y-125714484D01*
X82837288Y-125714496D01*
X82896118Y-126010249D01*
X82896122Y-126010264D01*
X82993053Y-126295813D01*
X82993062Y-126295834D01*
X83126431Y-126566279D01*
X83126435Y-126566286D01*
X83293973Y-126817025D01*
X83492810Y-127043755D01*
X83719540Y-127242592D01*
X83970279Y-127410130D01*
X83970286Y-127410134D01*
X84240731Y-127543503D01*
X84240736Y-127543505D01*
X84240748Y-127543511D01*
X84526309Y-127640446D01*
X84726251Y-127680217D01*
X84822069Y-127699277D01*
X84822070Y-127699277D01*
X84822080Y-127699279D01*
X85123000Y-127719002D01*
X85423920Y-127699279D01*
X85719691Y-127640446D01*
X86005252Y-127543511D01*
X86275718Y-127410132D01*
X86526461Y-127242591D01*
X86753189Y-127043755D01*
X86952025Y-126817027D01*
X87119566Y-126566284D01*
X87252945Y-126295818D01*
X87349880Y-126010257D01*
X87408713Y-125714486D01*
X87428436Y-125413566D01*
X87408713Y-125112646D01*
X87349880Y-124816875D01*
X87252945Y-124531314D01*
X87227963Y-124480656D01*
X87119568Y-124260852D01*
X87119564Y-124260845D01*
X86952026Y-124010106D01*
X86753189Y-123783376D01*
X86600793Y-123649728D01*
X86563369Y-123590726D01*
X86563785Y-123520858D01*
X86601909Y-123462305D01*
X86665636Y-123433659D01*
X86682552Y-123432500D01*
X96144500Y-123432500D01*
X96211539Y-123452185D01*
X96257294Y-123504989D01*
X96268500Y-123556500D01*
X96268500Y-140338000D01*
X96248815Y-140405039D01*
X96196011Y-140450794D01*
X96144500Y-140462000D01*
X20769244Y-140462000D01*
X20707244Y-140445387D01*
X20637359Y-140405039D01*
X20543749Y-140350993D01*
X20477332Y-140312647D01*
X20466447Y-140305578D01*
X20184614Y-140100814D01*
X20174527Y-140092646D01*
X19915637Y-139859540D01*
X19906459Y-139850362D01*
X19673353Y-139591472D01*
X19665185Y-139581385D01*
X19460421Y-139299552D01*
X19453352Y-139288667D01*
X19320613Y-139058755D01*
X19304000Y-138996755D01*
X19304000Y-137292711D01*
X20501500Y-137292711D01*
X20501500Y-137535288D01*
X20533161Y-137775785D01*
X20595947Y-138010104D01*
X20642636Y-138122821D01*
X20688776Y-138234212D01*
X20810064Y-138444289D01*
X20810066Y-138444292D01*
X20810067Y-138444293D01*
X20957733Y-138636736D01*
X20957739Y-138636743D01*
X21129256Y-138808260D01*
X21129262Y-138808265D01*
X21321711Y-138955936D01*
X21531788Y-139077224D01*
X21755900Y-139170054D01*
X21990211Y-139232838D01*
X22126307Y-139250755D01*
X22230711Y-139264500D01*
X22230712Y-139264500D01*
X22473289Y-139264500D01*
X22521388Y-139258167D01*
X22713789Y-139232838D01*
X22948100Y-139170054D01*
X23172212Y-139077224D01*
X23382289Y-138955936D01*
X23574738Y-138808265D01*
X23746265Y-138636738D01*
X23893936Y-138444289D01*
X24015224Y-138234212D01*
X24108054Y-138010100D01*
X24170838Y-137775789D01*
X24202500Y-137535288D01*
X24202500Y-137292712D01*
X24170838Y-137052211D01*
X24108054Y-136817900D01*
X24015224Y-136593788D01*
X23893936Y-136383711D01*
X23791332Y-136249994D01*
X23746266Y-136191263D01*
X23746260Y-136191256D01*
X23574743Y-136019739D01*
X23574736Y-136019733D01*
X23549012Y-135999994D01*
X30744357Y-135999994D01*
X30744357Y-136000005D01*
X30764890Y-136247812D01*
X30764892Y-136247824D01*
X30825936Y-136488881D01*
X30925826Y-136716606D01*
X31061833Y-136924782D01*
X31061836Y-136924785D01*
X31230256Y-137107738D01*
X31426491Y-137260474D01*
X31645190Y-137378828D01*
X31880386Y-137459571D01*
X32125665Y-137500500D01*
X32374335Y-137500500D01*
X32619614Y-137459571D01*
X32854810Y-137378828D01*
X33073509Y-137260474D01*
X33269744Y-137107738D01*
X33438164Y-136924785D01*
X33574173Y-136716607D01*
X33674063Y-136488881D01*
X33734558Y-136249994D01*
X49494357Y-136249994D01*
X49494357Y-136250005D01*
X49514890Y-136497812D01*
X49514892Y-136497824D01*
X49575936Y-136738881D01*
X49675826Y-136966606D01*
X49811833Y-137174782D01*
X49811836Y-137174785D01*
X49980256Y-137357738D01*
X50176491Y-137510474D01*
X50222343Y-137535288D01*
X50304675Y-137579844D01*
X50395190Y-137628828D01*
X50630386Y-137709571D01*
X50875665Y-137750500D01*
X51124335Y-137750500D01*
X51369614Y-137709571D01*
X51604810Y-137628828D01*
X51823509Y-137510474D01*
X52019744Y-137357738D01*
X52188164Y-137174785D01*
X52324173Y-136966607D01*
X52424063Y-136738881D01*
X52485108Y-136497821D01*
X52485849Y-136488881D01*
X52503904Y-136270994D01*
X59244357Y-136270994D01*
X59244357Y-136271005D01*
X59264890Y-136518812D01*
X59264892Y-136518824D01*
X59325936Y-136759881D01*
X59425826Y-136987606D01*
X59561833Y-137195782D01*
X59561836Y-137195785D01*
X59730256Y-137378738D01*
X59926491Y-137531474D01*
X59926493Y-137531475D01*
X60106383Y-137628827D01*
X60145190Y-137649828D01*
X60380386Y-137730571D01*
X60625665Y-137771500D01*
X60874335Y-137771500D01*
X61119614Y-137730571D01*
X61354810Y-137649828D01*
X61555908Y-137540999D01*
X72374785Y-137540999D01*
X72374785Y-137541000D01*
X72393602Y-137744082D01*
X72449417Y-137940247D01*
X72449422Y-137940260D01*
X72540327Y-138122821D01*
X72663237Y-138285581D01*
X72813958Y-138422980D01*
X72813960Y-138422982D01*
X72848379Y-138444293D01*
X72987363Y-138530348D01*
X73177544Y-138604024D01*
X73378024Y-138641500D01*
X73378026Y-138641500D01*
X73581974Y-138641500D01*
X73581976Y-138641500D01*
X73782456Y-138604024D01*
X73972637Y-138530348D01*
X74146041Y-138422981D01*
X74296764Y-138285579D01*
X74419673Y-138122821D01*
X74510582Y-137940250D01*
X74566397Y-137744083D01*
X74585215Y-137541000D01*
X74566397Y-137337917D01*
X74510582Y-137141750D01*
X74419673Y-136959179D01*
X74312984Y-136817900D01*
X74296762Y-136796418D01*
X74146041Y-136659019D01*
X74146039Y-136659017D01*
X73972642Y-136551655D01*
X73972635Y-136551651D01*
X73810605Y-136488881D01*
X73782456Y-136477976D01*
X73581976Y-136440500D01*
X73378024Y-136440500D01*
X73177544Y-136477976D01*
X73177541Y-136477976D01*
X73177541Y-136477977D01*
X72987364Y-136551651D01*
X72987357Y-136551655D01*
X72813960Y-136659017D01*
X72813958Y-136659019D01*
X72663237Y-136796418D01*
X72540327Y-136959178D01*
X72449422Y-137141739D01*
X72449417Y-137141752D01*
X72393602Y-137337917D01*
X72374785Y-137540999D01*
X61555908Y-137540999D01*
X61573509Y-137531474D01*
X61769744Y-137378738D01*
X61938164Y-137195785D01*
X62074173Y-136987607D01*
X62174063Y-136759881D01*
X62235108Y-136518821D01*
X62237589Y-136488881D01*
X62255643Y-136271005D01*
X62255643Y-136270994D01*
X62235109Y-136023187D01*
X62235107Y-136023175D01*
X62174063Y-135782118D01*
X62074173Y-135554393D01*
X61938166Y-135346217D01*
X61880332Y-135283393D01*
X61769744Y-135163262D01*
X61573509Y-135010526D01*
X61573507Y-135010525D01*
X61573506Y-135010524D01*
X61354811Y-134892172D01*
X61354802Y-134892169D01*
X61119616Y-134811429D01*
X60874335Y-134770500D01*
X60625665Y-134770500D01*
X60380383Y-134811429D01*
X60145197Y-134892169D01*
X60145188Y-134892172D01*
X59926493Y-135010524D01*
X59730257Y-135163261D01*
X59561833Y-135346217D01*
X59425826Y-135554393D01*
X59325936Y-135782118D01*
X59264892Y-136023175D01*
X59264890Y-136023187D01*
X59244357Y-136270994D01*
X52503904Y-136270994D01*
X52505643Y-136250005D01*
X52505643Y-136249994D01*
X52485109Y-136002187D01*
X52485107Y-136002175D01*
X52424063Y-135761118D01*
X52324173Y-135533393D01*
X52188166Y-135325217D01*
X52149664Y-135283393D01*
X52019744Y-135142262D01*
X51823509Y-134989526D01*
X51823507Y-134989525D01*
X51823506Y-134989524D01*
X51604811Y-134871172D01*
X51604802Y-134871169D01*
X51369616Y-134790429D01*
X51124335Y-134749500D01*
X50875665Y-134749500D01*
X50630383Y-134790429D01*
X50395197Y-134871169D01*
X50395188Y-134871172D01*
X50176493Y-134989524D01*
X49980257Y-135142261D01*
X49811833Y-135325217D01*
X49675826Y-135533393D01*
X49575936Y-135761118D01*
X49514892Y-136002175D01*
X49514890Y-136002187D01*
X49494357Y-136249994D01*
X33734558Y-136249994D01*
X33735108Y-136247821D01*
X33753722Y-136023187D01*
X33755643Y-136000005D01*
X33755643Y-135999994D01*
X33735109Y-135752187D01*
X33735107Y-135752175D01*
X33674063Y-135511118D01*
X33574173Y-135283393D01*
X33438166Y-135075217D01*
X33416557Y-135051744D01*
X33269744Y-134892262D01*
X33073509Y-134739526D01*
X33073507Y-134739525D01*
X33073506Y-134739524D01*
X32854811Y-134621172D01*
X32854802Y-134621169D01*
X32619616Y-134540429D01*
X32374335Y-134499500D01*
X32125665Y-134499500D01*
X31880383Y-134540429D01*
X31645197Y-134621169D01*
X31645188Y-134621172D01*
X31426493Y-134739524D01*
X31230257Y-134892261D01*
X31061833Y-135075217D01*
X30925826Y-135283393D01*
X30825936Y-135511118D01*
X30764892Y-135752175D01*
X30764890Y-135752187D01*
X30744357Y-135999994D01*
X23549012Y-135999994D01*
X23382293Y-135872067D01*
X23382292Y-135872066D01*
X23382289Y-135872064D01*
X23172212Y-135750776D01*
X23172205Y-135750773D01*
X22948104Y-135657947D01*
X22713785Y-135595161D01*
X22473289Y-135563500D01*
X22473288Y-135563500D01*
X22230712Y-135563500D01*
X22230711Y-135563500D01*
X21990214Y-135595161D01*
X21755895Y-135657947D01*
X21531794Y-135750773D01*
X21531785Y-135750777D01*
X21321706Y-135872067D01*
X21129263Y-136019733D01*
X21129256Y-136019739D01*
X20957739Y-136191256D01*
X20957733Y-136191263D01*
X20810067Y-136383706D01*
X20688777Y-136593785D01*
X20688773Y-136593794D01*
X20595947Y-136817895D01*
X20533161Y-137052214D01*
X20501500Y-137292711D01*
X19304000Y-137292711D01*
X19304000Y-120974000D01*
X48177474Y-120974000D01*
X48197547Y-121229064D01*
X48197547Y-121229067D01*
X48197548Y-121229070D01*
X48237015Y-121393458D01*
X48257279Y-121477864D01*
X48355188Y-121714239D01*
X48355190Y-121714242D01*
X48488875Y-121932396D01*
X48488878Y-121932401D01*
X48561058Y-122016912D01*
X48655044Y-122126956D01*
X48779579Y-122233319D01*
X48849598Y-122293121D01*
X48849600Y-122293122D01*
X48849601Y-122293123D01*
X48934040Y-122344867D01*
X49067757Y-122426809D01*
X49067760Y-122426811D01*
X49304135Y-122524720D01*
X49304140Y-122524722D01*
X49552930Y-122584452D01*
X49808000Y-122604526D01*
X50063070Y-122584452D01*
X50311860Y-122524722D01*
X50430051Y-122475765D01*
X50548239Y-122426811D01*
X50548240Y-122426810D01*
X50548243Y-122426809D01*
X50766399Y-122293123D01*
X50960956Y-122126956D01*
X51127123Y-121932399D01*
X51260809Y-121714243D01*
X51277239Y-121674579D01*
X51358720Y-121477864D01*
X51358722Y-121477860D01*
X51418452Y-121229070D01*
X51438526Y-120974000D01*
X51418452Y-120718930D01*
X51358722Y-120470140D01*
X51354357Y-120459601D01*
X51260811Y-120233760D01*
X51260809Y-120233757D01*
X51234848Y-120191392D01*
X51127123Y-120015601D01*
X51127122Y-120015600D01*
X51127121Y-120015598D01*
X51067319Y-119945579D01*
X50960956Y-119821044D01*
X50848168Y-119724714D01*
X50766401Y-119654878D01*
X50766396Y-119654875D01*
X50548242Y-119521190D01*
X50548239Y-119521188D01*
X50311864Y-119423279D01*
X50311860Y-119423278D01*
X50063070Y-119363548D01*
X50063067Y-119363547D01*
X50063064Y-119363547D01*
X49808000Y-119343474D01*
X49552935Y-119363547D01*
X49552931Y-119363547D01*
X49552930Y-119363548D01*
X49428535Y-119393413D01*
X49304135Y-119423279D01*
X49067760Y-119521188D01*
X49067757Y-119521190D01*
X48849603Y-119654875D01*
X48849598Y-119654878D01*
X48655044Y-119821044D01*
X48488878Y-120015598D01*
X48488875Y-120015603D01*
X48355190Y-120233757D01*
X48355188Y-120233760D01*
X48257279Y-120470135D01*
X48197547Y-120718935D01*
X48177474Y-120974000D01*
X19304000Y-120974000D01*
X19304000Y-107539135D01*
X20104500Y-107539135D01*
X20104500Y-109884870D01*
X20104501Y-109884876D01*
X20110908Y-109944483D01*
X20161202Y-110079328D01*
X20161206Y-110079335D01*
X20247452Y-110194544D01*
X20247455Y-110194547D01*
X20362664Y-110280793D01*
X20362671Y-110280797D01*
X20497517Y-110331091D01*
X20497516Y-110331091D01*
X20504444Y-110331835D01*
X20557127Y-110337500D01*
X22902872Y-110337499D01*
X22962483Y-110331091D01*
X23097331Y-110280796D01*
X23212546Y-110194546D01*
X23298796Y-110079331D01*
X23349091Y-109944483D01*
X23355500Y-109884873D01*
X23355499Y-108712000D01*
X37599474Y-108712000D01*
X37619547Y-108967064D01*
X37619547Y-108967067D01*
X37619548Y-108967070D01*
X37632459Y-109020848D01*
X37679279Y-109215864D01*
X37777188Y-109452239D01*
X37777190Y-109452242D01*
X37910875Y-109670396D01*
X37910878Y-109670401D01*
X37962422Y-109730751D01*
X38077044Y-109864956D01*
X38182065Y-109954652D01*
X38271598Y-110031121D01*
X38271600Y-110031122D01*
X38271601Y-110031123D01*
X38411743Y-110117002D01*
X38489757Y-110164809D01*
X38489760Y-110164811D01*
X38671424Y-110240058D01*
X38726140Y-110262722D01*
X38974930Y-110322452D01*
X39230000Y-110342526D01*
X39485070Y-110322452D01*
X39733860Y-110262722D01*
X39873899Y-110204716D01*
X39970239Y-110164811D01*
X39970240Y-110164810D01*
X39970243Y-110164809D01*
X40188399Y-110031123D01*
X40382956Y-109864956D01*
X40549123Y-109670399D01*
X40682809Y-109452243D01*
X40699893Y-109411000D01*
X40770451Y-109240656D01*
X40780722Y-109215860D01*
X40840452Y-108967070D01*
X40860526Y-108712000D01*
X40840452Y-108456930D01*
X40780722Y-108208140D01*
X40767824Y-108177001D01*
X40682811Y-107971760D01*
X40682809Y-107971757D01*
X40592006Y-107823580D01*
X40549123Y-107753601D01*
X40549122Y-107753600D01*
X40549121Y-107753598D01*
X40469006Y-107659796D01*
X40382956Y-107559044D01*
X40268964Y-107461686D01*
X40188401Y-107392878D01*
X40188396Y-107392875D01*
X39970242Y-107259190D01*
X39970239Y-107259188D01*
X39733864Y-107161279D01*
X39733860Y-107161278D01*
X39485070Y-107101548D01*
X39485067Y-107101547D01*
X39485064Y-107101547D01*
X39230000Y-107081474D01*
X38974935Y-107101547D01*
X38974931Y-107101547D01*
X38974930Y-107101548D01*
X38850535Y-107131413D01*
X38726135Y-107161279D01*
X38489760Y-107259188D01*
X38489757Y-107259190D01*
X38271603Y-107392875D01*
X38271598Y-107392878D01*
X38077044Y-107559044D01*
X37910878Y-107753598D01*
X37910875Y-107753603D01*
X37777190Y-107971757D01*
X37777188Y-107971760D01*
X37679279Y-108208135D01*
X37679278Y-108208140D01*
X37623375Y-108440992D01*
X37619547Y-108456935D01*
X37599474Y-108712000D01*
X23355499Y-108712000D01*
X23355499Y-107539128D01*
X23349091Y-107479517D01*
X23342440Y-107461686D01*
X23298797Y-107344671D01*
X23298793Y-107344664D01*
X23212547Y-107229455D01*
X23212544Y-107229452D01*
X23097335Y-107143206D01*
X23097328Y-107143202D01*
X22962482Y-107092908D01*
X22962483Y-107092908D01*
X22902883Y-107086501D01*
X22902881Y-107086500D01*
X22902873Y-107086500D01*
X22902864Y-107086500D01*
X20557129Y-107086500D01*
X20557123Y-107086501D01*
X20497516Y-107092908D01*
X20362671Y-107143202D01*
X20362664Y-107143206D01*
X20247455Y-107229452D01*
X20247452Y-107229455D01*
X20161206Y-107344664D01*
X20161202Y-107344671D01*
X20110908Y-107479517D01*
X20104501Y-107539116D01*
X20104501Y-107539123D01*
X20104500Y-107539135D01*
X19304000Y-107539135D01*
X19304000Y-101112000D01*
X25293474Y-101112000D01*
X25313547Y-101367064D01*
X25373279Y-101615864D01*
X25471188Y-101852239D01*
X25471190Y-101852242D01*
X25604875Y-102070396D01*
X25604878Y-102070401D01*
X25680200Y-102158591D01*
X25771044Y-102264956D01*
X25895579Y-102371319D01*
X25965598Y-102431121D01*
X25965603Y-102431124D01*
X26183757Y-102564809D01*
X26183760Y-102564811D01*
X26411475Y-102659133D01*
X26420140Y-102662722D01*
X26668930Y-102722452D01*
X26924000Y-102742526D01*
X27179070Y-102722452D01*
X27427860Y-102662722D01*
X27546051Y-102613765D01*
X27664239Y-102564811D01*
X27664240Y-102564810D01*
X27664243Y-102564809D01*
X27882399Y-102431123D01*
X28076956Y-102264956D01*
X28243123Y-102070399D01*
X28376809Y-101852243D01*
X28474722Y-101615860D01*
X28534452Y-101367070D01*
X28554526Y-101112000D01*
X28534452Y-100856930D01*
X28474722Y-100608140D01*
X28474720Y-100608135D01*
X28376811Y-100371760D01*
X28376809Y-100371757D01*
X28336090Y-100305309D01*
X28243123Y-100153601D01*
X28243122Y-100153600D01*
X28243121Y-100153598D01*
X28181817Y-100081821D01*
X28076956Y-99959044D01*
X27970377Y-99868017D01*
X27882401Y-99792878D01*
X27882396Y-99792875D01*
X27664242Y-99659190D01*
X27664239Y-99659188D01*
X27427864Y-99561279D01*
X27427860Y-99561278D01*
X27179070Y-99501548D01*
X27179067Y-99501547D01*
X27179064Y-99501547D01*
X26924000Y-99481474D01*
X26668935Y-99501547D01*
X26668931Y-99501547D01*
X26668930Y-99501548D01*
X26544535Y-99531413D01*
X26420135Y-99561279D01*
X26183760Y-99659188D01*
X26183757Y-99659190D01*
X25965603Y-99792875D01*
X25965598Y-99792878D01*
X25771044Y-99959044D01*
X25604878Y-100153598D01*
X25604875Y-100153603D01*
X25471190Y-100371757D01*
X25471188Y-100371760D01*
X25373279Y-100608135D01*
X25313547Y-100856935D01*
X25293474Y-101112000D01*
X19304000Y-101112000D01*
X19304000Y-81909500D01*
X19323685Y-81842461D01*
X19376489Y-81796706D01*
X19428000Y-81785500D01*
X39003500Y-81785500D01*
X39070539Y-81805185D01*
X39116294Y-81857989D01*
X39127500Y-81909500D01*
X39127500Y-99489918D01*
X39127500Y-99489920D01*
X39127499Y-99489920D01*
X39156340Y-99634907D01*
X39156343Y-99634917D01*
X39212912Y-99771488D01*
X39212921Y-99771504D01*
X39227200Y-99792873D01*
X39227201Y-99792877D01*
X39227202Y-99792877D01*
X39295046Y-99894414D01*
X39295052Y-99894421D01*
X45639743Y-106239111D01*
X45673228Y-106300434D01*
X45675590Y-106337598D01*
X45664708Y-106461997D01*
X45664708Y-106462002D01*
X45683838Y-106680668D01*
X45683839Y-106680675D01*
X45685189Y-106685712D01*
X45740653Y-106892703D01*
X45740654Y-106892706D01*
X45740655Y-106892708D01*
X45833419Y-107091642D01*
X45833423Y-107091650D01*
X45962431Y-107275892D01*
X45960494Y-107277248D01*
X45984497Y-107332046D01*
X45985500Y-107347782D01*
X45985500Y-107370770D01*
X45965815Y-107437809D01*
X45949181Y-107458451D01*
X45893289Y-107514342D01*
X45801187Y-107663663D01*
X45801185Y-107663668D01*
X45775726Y-107740500D01*
X45746001Y-107830203D01*
X45746001Y-107830204D01*
X45746000Y-107830204D01*
X45735500Y-107932983D01*
X45735500Y-108983001D01*
X45735501Y-108983019D01*
X45746000Y-109085796D01*
X45746001Y-109085799D01*
X45772150Y-109164709D01*
X45801186Y-109252334D01*
X45893288Y-109401656D01*
X46017344Y-109525712D01*
X46166666Y-109617814D01*
X46333203Y-109672999D01*
X46435991Y-109683500D01*
X46848769Y-109683499D01*
X46915808Y-109703183D01*
X46936450Y-109719818D01*
X50276207Y-113059574D01*
X50276228Y-113059597D01*
X52336239Y-115119607D01*
X54344548Y-117127916D01*
X55374814Y-118158182D01*
X55719847Y-118503214D01*
X55753332Y-118564537D01*
X55748348Y-118634229D01*
X55706476Y-118690162D01*
X55641012Y-118714579D01*
X55587373Y-118706522D01*
X55474202Y-118662680D01*
X55474199Y-118662679D01*
X55474198Y-118662679D01*
X55264610Y-118623500D01*
X55051390Y-118623500D01*
X54841802Y-118662679D01*
X54841799Y-118662679D01*
X54841799Y-118662680D01*
X54642982Y-118739701D01*
X54642980Y-118739702D01*
X54461699Y-118851947D01*
X54304127Y-118995593D01*
X54175632Y-119165746D01*
X54080596Y-119356605D01*
X54080596Y-119356607D01*
X54022244Y-119561689D01*
X54002571Y-119773999D01*
X54002571Y-119774000D01*
X54022244Y-119986310D01*
X54080596Y-120191392D01*
X54080596Y-120191394D01*
X54175632Y-120382253D01*
X54242002Y-120470140D01*
X54304128Y-120552407D01*
X54461698Y-120696052D01*
X54642981Y-120808298D01*
X54706998Y-120833098D01*
X54772240Y-120858373D01*
X54827642Y-120900946D01*
X54851232Y-120966713D01*
X54835521Y-121034793D01*
X54785497Y-121083572D01*
X54772240Y-121089627D01*
X54642982Y-121139701D01*
X54642980Y-121139702D01*
X54461699Y-121251947D01*
X54304127Y-121395593D01*
X54175632Y-121565746D01*
X54080596Y-121756605D01*
X54080596Y-121756607D01*
X54027266Y-121944039D01*
X53989986Y-122003132D01*
X53926676Y-122032689D01*
X53857437Y-122023327D01*
X53804251Y-121978017D01*
X53788734Y-121944039D01*
X53771605Y-121883840D01*
X53735405Y-121756611D01*
X53735403Y-121756606D01*
X53735403Y-121756605D01*
X53640367Y-121565746D01*
X53511872Y-121395593D01*
X53509523Y-121393452D01*
X53354302Y-121251948D01*
X53173019Y-121139702D01*
X53173017Y-121139701D01*
X53043759Y-121089627D01*
X52974198Y-121062679D01*
X52764610Y-121023500D01*
X52551390Y-121023500D01*
X52341802Y-121062679D01*
X52341799Y-121062679D01*
X52341799Y-121062680D01*
X52142982Y-121139701D01*
X52142980Y-121139702D01*
X51961699Y-121251947D01*
X51804127Y-121395593D01*
X51675632Y-121565746D01*
X51580596Y-121756605D01*
X51580596Y-121756607D01*
X51522244Y-121961689D01*
X51502571Y-122173999D01*
X51502571Y-122174000D01*
X51522244Y-122386310D01*
X51580596Y-122591392D01*
X51580596Y-122591394D01*
X51675632Y-122782253D01*
X51804127Y-122952406D01*
X51804128Y-122952407D01*
X51961698Y-123096052D01*
X52142981Y-123208298D01*
X52341802Y-123285321D01*
X52551390Y-123324500D01*
X52551392Y-123324500D01*
X52764608Y-123324500D01*
X52764610Y-123324500D01*
X52974198Y-123285321D01*
X53173019Y-123208298D01*
X53354302Y-123096052D01*
X53511872Y-122952407D01*
X53640366Y-122782255D01*
X53671531Y-122719666D01*
X53735403Y-122591394D01*
X53735403Y-122591393D01*
X53735405Y-122591389D01*
X53788734Y-122403959D01*
X53826014Y-122344867D01*
X53889323Y-122315310D01*
X53958563Y-122324672D01*
X54011749Y-122369982D01*
X54027266Y-122403960D01*
X54080596Y-122591392D01*
X54080596Y-122591394D01*
X54175632Y-122782253D01*
X54304127Y-122952406D01*
X54304128Y-122952407D01*
X54461698Y-123096052D01*
X54642981Y-123208298D01*
X54841802Y-123285321D01*
X55051390Y-123324500D01*
X55051392Y-123324500D01*
X55264608Y-123324500D01*
X55264610Y-123324500D01*
X55474198Y-123285321D01*
X55673019Y-123208298D01*
X55854302Y-123096052D01*
X56011872Y-122952407D01*
X56140366Y-122782255D01*
X56171531Y-122719666D01*
X56235403Y-122591394D01*
X56235403Y-122591393D01*
X56235405Y-122591389D01*
X56288734Y-122403959D01*
X56326014Y-122344867D01*
X56389323Y-122315310D01*
X56458563Y-122324672D01*
X56511749Y-122369982D01*
X56527266Y-122403960D01*
X56580596Y-122591392D01*
X56580596Y-122591394D01*
X56675632Y-122782253D01*
X56804127Y-122952406D01*
X56804128Y-122952407D01*
X56961698Y-123096052D01*
X57142981Y-123208298D01*
X57341802Y-123285321D01*
X57551390Y-123324500D01*
X57551392Y-123324500D01*
X57764608Y-123324500D01*
X57764610Y-123324500D01*
X57974198Y-123285321D01*
X58173019Y-123208298D01*
X58354302Y-123096052D01*
X58511872Y-122952407D01*
X58640366Y-122782255D01*
X58671531Y-122719666D01*
X58735403Y-122591394D01*
X58735403Y-122591393D01*
X58735405Y-122591389D01*
X58793756Y-122386310D01*
X58813429Y-122174000D01*
X58793756Y-121961690D01*
X58735405Y-121756611D01*
X58735403Y-121756606D01*
X58735403Y-121756605D01*
X58640367Y-121565746D01*
X58511872Y-121395593D01*
X58509523Y-121393452D01*
X58354302Y-121251948D01*
X58354299Y-121251946D01*
X58354298Y-121251945D01*
X58195991Y-121153926D01*
X58149355Y-121101898D01*
X58138251Y-121032917D01*
X58166204Y-120968882D01*
X58224339Y-120930126D01*
X58261267Y-120924499D01*
X58355872Y-120924499D01*
X58415483Y-120918091D01*
X58550331Y-120867796D01*
X58665546Y-120781546D01*
X58665548Y-120781542D01*
X58671817Y-120775275D01*
X58673630Y-120777088D01*
X58718751Y-120743300D01*
X58788442Y-120738305D01*
X58849771Y-120771780D01*
X58883265Y-120833098D01*
X58885721Y-120869203D01*
X58878047Y-120966713D01*
X58877474Y-120974000D01*
X58879283Y-120996986D01*
X58897547Y-121229064D01*
X58897547Y-121229067D01*
X58897548Y-121229070D01*
X58937015Y-121393458D01*
X58957279Y-121477864D01*
X59055188Y-121714239D01*
X59055190Y-121714242D01*
X59188875Y-121932396D01*
X59188878Y-121932401D01*
X59261058Y-122016912D01*
X59355044Y-122126956D01*
X59479579Y-122233319D01*
X59549598Y-122293121D01*
X59549600Y-122293122D01*
X59549601Y-122293123D01*
X59634040Y-122344867D01*
X59767757Y-122426809D01*
X59767760Y-122426811D01*
X60004135Y-122524720D01*
X60004140Y-122524722D01*
X60252930Y-122584452D01*
X60508000Y-122604526D01*
X60763070Y-122584452D01*
X61011860Y-122524722D01*
X61130051Y-122475765D01*
X61248239Y-122426811D01*
X61248240Y-122426810D01*
X61248243Y-122426809D01*
X61466399Y-122293123D01*
X61660956Y-122126956D01*
X61827123Y-121932399D01*
X61960809Y-121714243D01*
X61977239Y-121674579D01*
X62058720Y-121477864D01*
X62058722Y-121477860D01*
X62118452Y-121229070D01*
X62138526Y-120974000D01*
X62118452Y-120718930D01*
X62058722Y-120470140D01*
X62054357Y-120459601D01*
X61960811Y-120233760D01*
X61960809Y-120233757D01*
X61934848Y-120191392D01*
X61827123Y-120015601D01*
X61827122Y-120015600D01*
X61827121Y-120015598D01*
X61767319Y-119945579D01*
X61660956Y-119821044D01*
X61548168Y-119724714D01*
X61466401Y-119654878D01*
X61466396Y-119654875D01*
X61248242Y-119521190D01*
X61248239Y-119521188D01*
X61011864Y-119423279D01*
X61011860Y-119423278D01*
X60763070Y-119363548D01*
X60763067Y-119363547D01*
X60763064Y-119363547D01*
X60508000Y-119343474D01*
X60252935Y-119363547D01*
X60252931Y-119363547D01*
X60252930Y-119363548D01*
X60128535Y-119393413D01*
X60004135Y-119423279D01*
X59767760Y-119521188D01*
X59767757Y-119521190D01*
X59549603Y-119654875D01*
X59549598Y-119654878D01*
X59355044Y-119821044D01*
X59188878Y-120015598D01*
X59188875Y-120015603D01*
X59055190Y-120233756D01*
X59047059Y-120253387D01*
X59003216Y-120307789D01*
X58936921Y-120329852D01*
X58869222Y-120312571D01*
X58821613Y-120261432D01*
X58808499Y-120205934D01*
X58808499Y-119076128D01*
X58802091Y-119016517D01*
X58799166Y-119008676D01*
X58751797Y-118881671D01*
X58751793Y-118881664D01*
X58665547Y-118766455D01*
X58665544Y-118766452D01*
X58550335Y-118680206D01*
X58550328Y-118680202D01*
X58415482Y-118629908D01*
X58415483Y-118629908D01*
X58355883Y-118623501D01*
X58355881Y-118623500D01*
X58355873Y-118623500D01*
X58355865Y-118623500D01*
X58014229Y-118623500D01*
X57947190Y-118603815D01*
X57926548Y-118587181D01*
X57427435Y-118088068D01*
X57393950Y-118026745D01*
X57398934Y-117957053D01*
X57440806Y-117901120D01*
X57476111Y-117882681D01*
X57581334Y-117847814D01*
X57730656Y-117755712D01*
X57824319Y-117662049D01*
X57885642Y-117628564D01*
X57955334Y-117633548D01*
X57999681Y-117662049D01*
X58093344Y-117755712D01*
X58242666Y-117847814D01*
X58409203Y-117902999D01*
X58511991Y-117913500D01*
X59137008Y-117913499D01*
X59137016Y-117913498D01*
X59137019Y-117913498D01*
X59193302Y-117907748D01*
X59239797Y-117902999D01*
X59350894Y-117866185D01*
X59391306Y-117852794D01*
X59430310Y-117846500D01*
X59494252Y-117846500D01*
X59561291Y-117866185D01*
X59586400Y-117887526D01*
X59592126Y-117893885D01*
X59592130Y-117893889D01*
X59745265Y-118005148D01*
X59745270Y-118005151D01*
X59918192Y-118082142D01*
X59918197Y-118082144D01*
X60103354Y-118121500D01*
X60103355Y-118121500D01*
X60292644Y-118121500D01*
X60292646Y-118121500D01*
X60477803Y-118082144D01*
X60650730Y-118005151D01*
X60803871Y-117893888D01*
X60930533Y-117753216D01*
X61025179Y-117589284D01*
X61083674Y-117409256D01*
X61103460Y-117221000D01*
X61083674Y-117032744D01*
X61025179Y-116852716D01*
X60930533Y-116688784D01*
X60803871Y-116548112D01*
X60803870Y-116548111D01*
X60650734Y-116436851D01*
X60650729Y-116436848D01*
X60477807Y-116359857D01*
X60477802Y-116359855D01*
X60332001Y-116328865D01*
X60292646Y-116320500D01*
X60103354Y-116320500D01*
X59987280Y-116345172D01*
X59917612Y-116339856D01*
X59861879Y-116297719D01*
X59837774Y-116232139D01*
X59837499Y-116223882D01*
X59837499Y-116212998D01*
X59837498Y-116212981D01*
X59826999Y-116110203D01*
X59826998Y-116110200D01*
X59807441Y-116051181D01*
X59771814Y-115943666D01*
X59679712Y-115794344D01*
X59555656Y-115670288D01*
X59406334Y-115578186D01*
X59239797Y-115523001D01*
X59239795Y-115523000D01*
X59137010Y-115512500D01*
X58511998Y-115512500D01*
X58511980Y-115512501D01*
X58409203Y-115523000D01*
X58409200Y-115523001D01*
X58242668Y-115578185D01*
X58242663Y-115578187D01*
X58093342Y-115670289D01*
X57999681Y-115763951D01*
X57938358Y-115797436D01*
X57868666Y-115792452D01*
X57824319Y-115763951D01*
X57730657Y-115670289D01*
X57730656Y-115670288D01*
X57581334Y-115578186D01*
X57414797Y-115523001D01*
X57414795Y-115523000D01*
X57312010Y-115512500D01*
X56686998Y-115512500D01*
X56686980Y-115512501D01*
X56584203Y-115523000D01*
X56584200Y-115523001D01*
X56417668Y-115578185D01*
X56417663Y-115578187D01*
X56268342Y-115670289D01*
X56144289Y-115794342D01*
X56052187Y-115943663D01*
X56052186Y-115943666D01*
X56037530Y-115987897D01*
X56032689Y-116002505D01*
X55992916Y-116059949D01*
X55928400Y-116086772D01*
X55914983Y-116087500D01*
X55478230Y-116087500D01*
X55411191Y-116067815D01*
X55390549Y-116051181D01*
X53265549Y-113926181D01*
X53232064Y-113864858D01*
X53237048Y-113795166D01*
X53278920Y-113739233D01*
X53344384Y-113714816D01*
X53353230Y-113714500D01*
X66474082Y-113714500D01*
X66918770Y-113714500D01*
X66985809Y-113734185D01*
X66995681Y-113741234D01*
X67001341Y-113745709D01*
X67001344Y-113745712D01*
X67150666Y-113837814D01*
X67317203Y-113892999D01*
X67419991Y-113903500D01*
X68470008Y-113903499D01*
X68470016Y-113903498D01*
X68470019Y-113903498D01*
X68526302Y-113897748D01*
X68572797Y-113892999D01*
X68739334Y-113837814D01*
X68888656Y-113745712D01*
X68888662Y-113745705D01*
X68894319Y-113741234D01*
X68959114Y-113715093D01*
X68971230Y-113714500D01*
X69574494Y-113714500D01*
X69641533Y-113734185D01*
X69676067Y-113767374D01*
X69680325Y-113773455D01*
X69680326Y-113773456D01*
X69680327Y-113773457D01*
X69835543Y-113928673D01*
X69835546Y-113928675D01*
X69835547Y-113928676D01*
X70015349Y-114054575D01*
X70015351Y-114054576D01*
X70015354Y-114054578D01*
X70092313Y-114090464D01*
X70159122Y-114121618D01*
X70211562Y-114167790D01*
X70230714Y-114234984D01*
X70210498Y-114301865D01*
X70159123Y-114346382D01*
X70015356Y-114413421D01*
X70015354Y-114413422D01*
X69835540Y-114539328D01*
X69680328Y-114694540D01*
X69554422Y-114874354D01*
X69554421Y-114874356D01*
X69461655Y-115073293D01*
X69404840Y-115285324D01*
X69404839Y-115285331D01*
X69385709Y-115503997D01*
X69385709Y-115504002D01*
X69391356Y-115568555D01*
X69404840Y-115722674D01*
X69461654Y-115934703D01*
X69461655Y-115934706D01*
X69461656Y-115934708D01*
X69554420Y-116133642D01*
X69554424Y-116133650D01*
X69680323Y-116313452D01*
X69680328Y-116313458D01*
X69835541Y-116468671D01*
X69835547Y-116468676D01*
X70015349Y-116594575D01*
X70015351Y-116594576D01*
X70015354Y-116594578D01*
X70035277Y-116603868D01*
X70159122Y-116661618D01*
X70211562Y-116707790D01*
X70230714Y-116774984D01*
X70210498Y-116841865D01*
X70159123Y-116886382D01*
X70015356Y-116953421D01*
X70015354Y-116953422D01*
X69835540Y-117079328D01*
X69680328Y-117234540D01*
X69554422Y-117414354D01*
X69554421Y-117414356D01*
X69461655Y-117613293D01*
X69404840Y-117825324D01*
X69404839Y-117825331D01*
X69385709Y-118043997D01*
X69385709Y-118044002D01*
X69404839Y-118262668D01*
X69404840Y-118262675D01*
X69416624Y-118306653D01*
X69461654Y-118474703D01*
X69461655Y-118474706D01*
X69461656Y-118474708D01*
X69554420Y-118673642D01*
X69554424Y-118673650D01*
X69680323Y-118853452D01*
X69680328Y-118853458D01*
X69835541Y-119008671D01*
X69835547Y-119008676D01*
X70015349Y-119134575D01*
X70015351Y-119134576D01*
X70015354Y-119134578D01*
X70092313Y-119170464D01*
X70159122Y-119201618D01*
X70211562Y-119247790D01*
X70230714Y-119314984D01*
X70210498Y-119381865D01*
X70159123Y-119426382D01*
X70015356Y-119493421D01*
X70015354Y-119493422D01*
X69835540Y-119619328D01*
X69680328Y-119774540D01*
X69554422Y-119954354D01*
X69554421Y-119954356D01*
X69461655Y-120153293D01*
X69404840Y-120365324D01*
X69404839Y-120365331D01*
X69385709Y-120583997D01*
X69385709Y-120584002D01*
X69404839Y-120802668D01*
X69404840Y-120802675D01*
X69406347Y-120808298D01*
X69461654Y-121014703D01*
X69461655Y-121014706D01*
X69461656Y-121014708D01*
X69554420Y-121213642D01*
X69554424Y-121213650D01*
X69680323Y-121393452D01*
X69680328Y-121393458D01*
X69835541Y-121548671D01*
X69835547Y-121548676D01*
X70015349Y-121674575D01*
X70015351Y-121674576D01*
X70015354Y-121674578D01*
X70214297Y-121767346D01*
X70426326Y-121824160D01*
X70582521Y-121837825D01*
X70644998Y-121843291D01*
X70645000Y-121843291D01*
X70645002Y-121843291D01*
X70699668Y-121838508D01*
X70863674Y-121824160D01*
X71075703Y-121767346D01*
X71274646Y-121674578D01*
X71454457Y-121548673D01*
X71609673Y-121393457D01*
X71735578Y-121213646D01*
X71828346Y-121014703D01*
X71885160Y-120802674D01*
X71904291Y-120584000D01*
X71893407Y-120459599D01*
X71907173Y-120391101D01*
X71929251Y-120361115D01*
X73564951Y-118725416D01*
X73580355Y-118702362D01*
X73647084Y-118602495D01*
X73703658Y-118465913D01*
X73732500Y-118320918D01*
X73732500Y-106396738D01*
X73752185Y-106329699D01*
X73772962Y-106305101D01*
X73783938Y-106295093D01*
X73798764Y-106281579D01*
X73921673Y-106118821D01*
X74012582Y-105936250D01*
X74068397Y-105740083D01*
X74087215Y-105537000D01*
X74087215Y-105536999D01*
X74586785Y-105536999D01*
X74586785Y-105537000D01*
X74605602Y-105740082D01*
X74661417Y-105936247D01*
X74661422Y-105936260D01*
X74752327Y-106118821D01*
X74875237Y-106281581D01*
X75025958Y-106418980D01*
X75025960Y-106418982D01*
X75095432Y-106461997D01*
X75199363Y-106526348D01*
X75389544Y-106600024D01*
X75590024Y-106637500D01*
X75590026Y-106637500D01*
X75793974Y-106637500D01*
X75793976Y-106637500D01*
X75994456Y-106600024D01*
X76184637Y-106526348D01*
X76358041Y-106418981D01*
X76508764Y-106281579D01*
X76631673Y-106118821D01*
X76722582Y-105936250D01*
X76778397Y-105740083D01*
X76797215Y-105537000D01*
X76778397Y-105333917D01*
X76722582Y-105137750D01*
X76631673Y-104955179D01*
X76508764Y-104792421D01*
X76508762Y-104792418D01*
X76358041Y-104655019D01*
X76358039Y-104655017D01*
X76184642Y-104547655D01*
X76184635Y-104547651D01*
X76089546Y-104510814D01*
X75994456Y-104473976D01*
X75793976Y-104436500D01*
X75590024Y-104436500D01*
X75389544Y-104473976D01*
X75389541Y-104473976D01*
X75389541Y-104473977D01*
X75199364Y-104547651D01*
X75199357Y-104547655D01*
X75025960Y-104655017D01*
X75025958Y-104655019D01*
X74875237Y-104792418D01*
X74752327Y-104955178D01*
X74661422Y-105137739D01*
X74661417Y-105137752D01*
X74605602Y-105333917D01*
X74586785Y-105536999D01*
X74087215Y-105536999D01*
X74068397Y-105333917D01*
X74012582Y-105137750D01*
X73921673Y-104955179D01*
X73798764Y-104792421D01*
X73798762Y-104792418D01*
X73648041Y-104655019D01*
X73648039Y-104655017D01*
X73474642Y-104547655D01*
X73474635Y-104547651D01*
X73379546Y-104510814D01*
X73284456Y-104473976D01*
X73083976Y-104436500D01*
X72880024Y-104436500D01*
X72679544Y-104473976D01*
X72679541Y-104473976D01*
X72679541Y-104473977D01*
X72489364Y-104547651D01*
X72489357Y-104547655D01*
X72315960Y-104655017D01*
X72315958Y-104655019D01*
X72165237Y-104792418D01*
X72042327Y-104955178D01*
X71951422Y-105137739D01*
X71951417Y-105137752D01*
X71895602Y-105333917D01*
X71876785Y-105536999D01*
X71876785Y-105537000D01*
X71895602Y-105740082D01*
X71951417Y-105936247D01*
X71951422Y-105936260D01*
X71998745Y-106031297D01*
X72042327Y-106118821D01*
X72136352Y-106243331D01*
X72165237Y-106281580D01*
X72191038Y-106305101D01*
X72227320Y-106364812D01*
X72231500Y-106396738D01*
X72231500Y-117884769D01*
X72211815Y-117951808D01*
X72195181Y-117972451D01*
X72109969Y-118057662D01*
X72048645Y-118091146D01*
X71978954Y-118086162D01*
X71923020Y-118044290D01*
X71898760Y-117980789D01*
X71885160Y-117825326D01*
X71828346Y-117613297D01*
X71735578Y-117414355D01*
X71609673Y-117234543D01*
X71454457Y-117079327D01*
X71454453Y-117079324D01*
X71454452Y-117079323D01*
X71274650Y-116953424D01*
X71274642Y-116953420D01*
X71130877Y-116886382D01*
X71078437Y-116840210D01*
X71059285Y-116773017D01*
X71079500Y-116706136D01*
X71130877Y-116661618D01*
X71144576Y-116655230D01*
X71274646Y-116594578D01*
X71454457Y-116468673D01*
X71609673Y-116313457D01*
X71735578Y-116133646D01*
X71828346Y-115934703D01*
X71885160Y-115722674D01*
X71903547Y-115512501D01*
X71904291Y-115504002D01*
X71904291Y-115503997D01*
X71890126Y-115342094D01*
X71885160Y-115285326D01*
X71828346Y-115073297D01*
X71735578Y-114874355D01*
X71609673Y-114694543D01*
X71454457Y-114539327D01*
X71454453Y-114539324D01*
X71454452Y-114539323D01*
X71274650Y-114413424D01*
X71274642Y-114413420D01*
X71130877Y-114346382D01*
X71078437Y-114300210D01*
X71059285Y-114233017D01*
X71079500Y-114166136D01*
X71130877Y-114121618D01*
X71150450Y-114112491D01*
X71274646Y-114054578D01*
X71454457Y-113928673D01*
X71609673Y-113773457D01*
X71735578Y-113593646D01*
X71828346Y-113394703D01*
X71885160Y-113182674D01*
X71901616Y-112994579D01*
X71904291Y-112964002D01*
X71904291Y-112963997D01*
X71892641Y-112830834D01*
X71885160Y-112745326D01*
X71828346Y-112533297D01*
X71735578Y-112334355D01*
X71640334Y-112198332D01*
X71609674Y-112154544D01*
X71535783Y-112080653D01*
X71454457Y-111999327D01*
X71454453Y-111999324D01*
X71454452Y-111999323D01*
X71274650Y-111873424D01*
X71274642Y-111873420D01*
X71130877Y-111806382D01*
X71078437Y-111760210D01*
X71059285Y-111693017D01*
X71079500Y-111626136D01*
X71130877Y-111581618D01*
X71274646Y-111514578D01*
X71454457Y-111388673D01*
X71609673Y-111233457D01*
X71735578Y-111053646D01*
X71828346Y-110854703D01*
X71885160Y-110642674D01*
X71904291Y-110424000D01*
X71904281Y-110423890D01*
X71893917Y-110305419D01*
X71885160Y-110205326D01*
X71828346Y-109993297D01*
X71735578Y-109794355D01*
X71650604Y-109672999D01*
X71609674Y-109614544D01*
X71557271Y-109562141D01*
X71454457Y-109459327D01*
X71454453Y-109459324D01*
X71454452Y-109459323D01*
X71274650Y-109333424D01*
X71274642Y-109333420D01*
X71075708Y-109240656D01*
X71075706Y-109240655D01*
X71075703Y-109240654D01*
X70924885Y-109200241D01*
X70863675Y-109183840D01*
X70863668Y-109183839D01*
X70645002Y-109164709D01*
X70644998Y-109164709D01*
X70426331Y-109183839D01*
X70426324Y-109183840D01*
X70214293Y-109240655D01*
X70015356Y-109333421D01*
X70015354Y-109333422D01*
X69835540Y-109459328D01*
X69680328Y-109614540D01*
X69554422Y-109794354D01*
X69554421Y-109794356D01*
X69461655Y-109993293D01*
X69404840Y-110205324D01*
X69404839Y-110205331D01*
X69385709Y-110423997D01*
X69385709Y-110424002D01*
X69400163Y-110589221D01*
X69404840Y-110642674D01*
X69461654Y-110854703D01*
X69461655Y-110854706D01*
X69461656Y-110854708D01*
X69554420Y-111053642D01*
X69554424Y-111053650D01*
X69680323Y-111233452D01*
X69680328Y-111233458D01*
X69835541Y-111388671D01*
X69835547Y-111388676D01*
X70015349Y-111514575D01*
X70015351Y-111514576D01*
X70015354Y-111514578D01*
X70092313Y-111550464D01*
X70159122Y-111581618D01*
X70211562Y-111627790D01*
X70230714Y-111694984D01*
X70210498Y-111761865D01*
X70159123Y-111806382D01*
X70015356Y-111873421D01*
X70015354Y-111873422D01*
X69835540Y-111999328D01*
X69680327Y-112154541D01*
X69676067Y-112160626D01*
X69621490Y-112204249D01*
X69574494Y-112213500D01*
X69093230Y-112213500D01*
X69026191Y-112193815D01*
X69005549Y-112177181D01*
X68888657Y-112060289D01*
X68888656Y-112060288D01*
X68739334Y-111968186D01*
X68572797Y-111913001D01*
X68572795Y-111913000D01*
X68470010Y-111902500D01*
X67419998Y-111902500D01*
X67419980Y-111902501D01*
X67317203Y-111913000D01*
X67317200Y-111913001D01*
X67150668Y-111968185D01*
X67150663Y-111968187D01*
X67001342Y-112060289D01*
X66884451Y-112177181D01*
X66823128Y-112210666D01*
X66796770Y-112213500D01*
X65430186Y-112213500D01*
X65363147Y-112193815D01*
X65317392Y-112141011D01*
X65307448Y-112071853D01*
X65336473Y-112008297D01*
X65364908Y-111984073D01*
X65421968Y-111948743D01*
X65584442Y-111800629D01*
X65716933Y-111625182D01*
X65814931Y-111428377D01*
X65875096Y-111216916D01*
X65895382Y-110998000D01*
X65875096Y-110779084D01*
X65814931Y-110567623D01*
X65770001Y-110477392D01*
X65716936Y-110370823D01*
X65716931Y-110370815D01*
X65676756Y-110317615D01*
X65667545Y-110305418D01*
X65642854Y-110240058D01*
X65642500Y-110230692D01*
X65642500Y-110053230D01*
X65662185Y-109986191D01*
X65678819Y-109965549D01*
X65701825Y-109942543D01*
X65734712Y-109909656D01*
X65826814Y-109760334D01*
X65881999Y-109593797D01*
X65892500Y-109491009D01*
X65892499Y-108440992D01*
X65881999Y-108338203D01*
X65826814Y-108171666D01*
X65734712Y-108022344D01*
X65610656Y-107898288D01*
X65500261Y-107830196D01*
X65461336Y-107806187D01*
X65461331Y-107806185D01*
X65459862Y-107805698D01*
X65294797Y-107751001D01*
X65294795Y-107751000D01*
X65192010Y-107740500D01*
X64591998Y-107740500D01*
X64591980Y-107740501D01*
X64489203Y-107751000D01*
X64489200Y-107751001D01*
X64322668Y-107806185D01*
X64322663Y-107806187D01*
X64173342Y-107898289D01*
X64049289Y-108022342D01*
X63957187Y-108171663D01*
X63957185Y-108171668D01*
X63929349Y-108255670D01*
X63902001Y-108338203D01*
X63902001Y-108338204D01*
X63902000Y-108338204D01*
X63891500Y-108440983D01*
X63891500Y-109491001D01*
X63891501Y-109491019D01*
X63902000Y-109593796D01*
X63902001Y-109593799D01*
X63957185Y-109760331D01*
X63957189Y-109760340D01*
X64028238Y-109875530D01*
X64046678Y-109942923D01*
X64025755Y-110009586D01*
X63990476Y-110043642D01*
X63990601Y-110043807D01*
X63989248Y-110044828D01*
X63987986Y-110046047D01*
X63986030Y-110047257D01*
X63986029Y-110047258D01*
X63823559Y-110195368D01*
X63691068Y-110370815D01*
X63691063Y-110370823D01*
X63593069Y-110567620D01*
X63532903Y-110779086D01*
X63512618Y-110998000D01*
X63532903Y-111216913D01*
X63593069Y-111428379D01*
X63691063Y-111625176D01*
X63691068Y-111625184D01*
X63734949Y-111683291D01*
X63823558Y-111800629D01*
X63986032Y-111948743D01*
X64043092Y-111984073D01*
X64089727Y-112036101D01*
X64100831Y-112105083D01*
X64072878Y-112169117D01*
X64014742Y-112207874D01*
X63977814Y-112213500D01*
X60786194Y-112213500D01*
X60719155Y-112193815D01*
X60673400Y-112141011D01*
X60663456Y-112071853D01*
X60686927Y-112015189D01*
X60696390Y-112002548D01*
X60753596Y-111926131D01*
X60803891Y-111791283D01*
X60804351Y-111787000D01*
X60886748Y-111787000D01*
X63426748Y-111787000D01*
X63426748Y-108231000D01*
X60886748Y-108231000D01*
X60886748Y-111787000D01*
X60804351Y-111787000D01*
X60810300Y-111731673D01*
X60810299Y-110264328D01*
X60803957Y-110205331D01*
X60803891Y-110204716D01*
X60753597Y-110069871D01*
X60753593Y-110069864D01*
X60667347Y-109954655D01*
X60667344Y-109954652D01*
X60552135Y-109868406D01*
X60552128Y-109868402D01*
X60470845Y-109838086D01*
X60414911Y-109796215D01*
X60390494Y-109730751D01*
X60396471Y-109682905D01*
X60425999Y-109593797D01*
X60436500Y-109491009D01*
X60436499Y-108440992D01*
X60425999Y-108338203D01*
X60370814Y-108171666D01*
X60278712Y-108022344D01*
X60154656Y-107898288D01*
X60044261Y-107830196D01*
X60005336Y-107806187D01*
X60005331Y-107806185D01*
X60003862Y-107805698D01*
X59838797Y-107751001D01*
X59838795Y-107751000D01*
X59736010Y-107740500D01*
X59135998Y-107740500D01*
X59135980Y-107740501D01*
X59033203Y-107751000D01*
X59033200Y-107751001D01*
X58866668Y-107806185D01*
X58866663Y-107806187D01*
X58717342Y-107898289D01*
X58593289Y-108022342D01*
X58501187Y-108171663D01*
X58501185Y-108171668D01*
X58473349Y-108255670D01*
X58446001Y-108338203D01*
X58446001Y-108338204D01*
X58446000Y-108338204D01*
X58435500Y-108440983D01*
X58435500Y-109491001D01*
X58435501Y-109491019D01*
X58446000Y-109593796D01*
X58446001Y-109593799D01*
X58501185Y-109760331D01*
X58501189Y-109760340D01*
X58558487Y-109853235D01*
X58576927Y-109920627D01*
X58556004Y-109987291D01*
X58552215Y-109992641D01*
X58494406Y-110069864D01*
X58494402Y-110069871D01*
X58444108Y-110204717D01*
X58437701Y-110264316D01*
X58437701Y-110264323D01*
X58437700Y-110264335D01*
X58437700Y-111731670D01*
X58437701Y-111731676D01*
X58444108Y-111791283D01*
X58494402Y-111926128D01*
X58494403Y-111926130D01*
X58502160Y-111936492D01*
X58548972Y-111999025D01*
X58561073Y-112015189D01*
X58585490Y-112080653D01*
X58570639Y-112148926D01*
X58521234Y-112198332D01*
X58461806Y-112213500D01*
X51604230Y-112213500D01*
X51537191Y-112193815D01*
X51516549Y-112177181D01*
X51337597Y-111998228D01*
X51337574Y-111998207D01*
X48559368Y-109220000D01*
X50734000Y-109220000D01*
X50734000Y-105664000D01*
X48194000Y-105664000D01*
X48194000Y-108854632D01*
X47772818Y-108433450D01*
X47739333Y-108372127D01*
X47736499Y-108345769D01*
X47736499Y-107932998D01*
X47736498Y-107932981D01*
X47725999Y-107830203D01*
X47725998Y-107830200D01*
X47718041Y-107806187D01*
X47670814Y-107663666D01*
X47649035Y-107628357D01*
X47630596Y-107560966D01*
X47651519Y-107494303D01*
X47683450Y-107461688D01*
X47733457Y-107426674D01*
X47888674Y-107271457D01*
X48014579Y-107091646D01*
X48107347Y-106892703D01*
X48164161Y-106680674D01*
X48183292Y-106462000D01*
X48179528Y-106418981D01*
X48172792Y-106341986D01*
X48164161Y-106243326D01*
X48107347Y-106031297D01*
X48014579Y-105832354D01*
X48014577Y-105832351D01*
X48014576Y-105832349D01*
X47893990Y-105660135D01*
X50749500Y-105660135D01*
X50749500Y-107263870D01*
X50749501Y-107263876D01*
X50755908Y-107323483D01*
X50806202Y-107458328D01*
X50806206Y-107458335D01*
X50892452Y-107573544D01*
X50892455Y-107573547D01*
X51007664Y-107659793D01*
X51007671Y-107659797D01*
X51060181Y-107679382D01*
X51116115Y-107721253D01*
X51140532Y-107786717D01*
X51135967Y-107823269D01*
X51137418Y-107823580D01*
X51136001Y-107830196D01*
X51125500Y-107932983D01*
X51125500Y-108983001D01*
X51125501Y-108983019D01*
X51136000Y-109085796D01*
X51136001Y-109085799D01*
X51162150Y-109164709D01*
X51191186Y-109252334D01*
X51283288Y-109401656D01*
X51407344Y-109525712D01*
X51556666Y-109617814D01*
X51723203Y-109672999D01*
X51825991Y-109683500D01*
X52426008Y-109683499D01*
X52426016Y-109683498D01*
X52426019Y-109683498D01*
X52523892Y-109673500D01*
X52528797Y-109672999D01*
X52695334Y-109617814D01*
X52844656Y-109525712D01*
X52968712Y-109401656D01*
X53060814Y-109252334D01*
X53115999Y-109085797D01*
X53126500Y-108983009D01*
X53126499Y-107932992D01*
X53115999Y-107830203D01*
X53075850Y-107709044D01*
X53073449Y-107639218D01*
X53109180Y-107579176D01*
X53113624Y-107575467D01*
X53115538Y-107573551D01*
X53115546Y-107573546D01*
X53201796Y-107458331D01*
X53252091Y-107323483D01*
X53258500Y-107263873D01*
X53258499Y-105660128D01*
X53252091Y-105600517D01*
X53234261Y-105552713D01*
X53201797Y-105465671D01*
X53201793Y-105465664D01*
X53115547Y-105350455D01*
X53115544Y-105350452D01*
X53000335Y-105264206D01*
X53000328Y-105264202D01*
X52865482Y-105213908D01*
X52865483Y-105213908D01*
X52805883Y-105207501D01*
X52805881Y-105207500D01*
X52805873Y-105207500D01*
X52805864Y-105207500D01*
X51202129Y-105207500D01*
X51202123Y-105207501D01*
X51142516Y-105213908D01*
X51007671Y-105264202D01*
X51007664Y-105264206D01*
X50892455Y-105350452D01*
X50892452Y-105350455D01*
X50806206Y-105465664D01*
X50806202Y-105465671D01*
X50755908Y-105600517D01*
X50750315Y-105652543D01*
X50749501Y-105660123D01*
X50749500Y-105660135D01*
X47893990Y-105660135D01*
X47888677Y-105652547D01*
X47888672Y-105652541D01*
X47733458Y-105497327D01*
X47733452Y-105497322D01*
X47553650Y-105371423D01*
X47553642Y-105371419D01*
X47354708Y-105278655D01*
X47354706Y-105278654D01*
X47354703Y-105278653D01*
X47203885Y-105238240D01*
X47142675Y-105221839D01*
X47142668Y-105221838D01*
X46924002Y-105202708D01*
X46923997Y-105202708D01*
X46799598Y-105213590D01*
X46731098Y-105199823D01*
X46701111Y-105177743D01*
X45923368Y-104400000D01*
X95794564Y-104400000D01*
X95811278Y-104655017D01*
X95814287Y-104700918D01*
X95814288Y-104700930D01*
X95873118Y-104996683D01*
X95873122Y-104996698D01*
X95970053Y-105282247D01*
X95970062Y-105282268D01*
X96103431Y-105552713D01*
X96103435Y-105552720D01*
X96270973Y-105803459D01*
X96469810Y-106030189D01*
X96696540Y-106229026D01*
X96947279Y-106396564D01*
X96947286Y-106396568D01*
X97217731Y-106529937D01*
X97217736Y-106529939D01*
X97217748Y-106529945D01*
X97503309Y-106626880D01*
X97703251Y-106666651D01*
X97799069Y-106685711D01*
X97799070Y-106685711D01*
X97799080Y-106685713D01*
X98100000Y-106705436D01*
X98400920Y-106685713D01*
X98696691Y-106626880D01*
X98982252Y-106529945D01*
X99252718Y-106396566D01*
X99503461Y-106229025D01*
X99730189Y-106030189D01*
X99929025Y-105803461D01*
X100096566Y-105552718D01*
X100229945Y-105282252D01*
X100326880Y-104996691D01*
X100385713Y-104700920D01*
X100405436Y-104400000D01*
X100385713Y-104099080D01*
X100326880Y-103803309D01*
X100229945Y-103517748D01*
X100096566Y-103247282D01*
X99929025Y-102996539D01*
X99730189Y-102769810D01*
X99503459Y-102570973D01*
X99252720Y-102403435D01*
X99252713Y-102403431D01*
X98982268Y-102270062D01*
X98982247Y-102270053D01*
X98696698Y-102173122D01*
X98696692Y-102173120D01*
X98696691Y-102173120D01*
X98696689Y-102173119D01*
X98696683Y-102173118D01*
X98400930Y-102114288D01*
X98400921Y-102114287D01*
X98400920Y-102114287D01*
X98100000Y-102094564D01*
X97799080Y-102114287D01*
X97799079Y-102114287D01*
X97799069Y-102114288D01*
X97503316Y-102173118D01*
X97503301Y-102173122D01*
X97217752Y-102270053D01*
X97217731Y-102270062D01*
X96947286Y-102403431D01*
X96947279Y-102403435D01*
X96696540Y-102570973D01*
X96469810Y-102769810D01*
X96270973Y-102996540D01*
X96103435Y-103247279D01*
X96103431Y-103247286D01*
X95970062Y-103517731D01*
X95970053Y-103517752D01*
X95873122Y-103803301D01*
X95873118Y-103803316D01*
X95814288Y-104099069D01*
X95814287Y-104099079D01*
X95814287Y-104099080D01*
X95794564Y-104400000D01*
X45923368Y-104400000D01*
X42273367Y-100749999D01*
X101104785Y-100749999D01*
X101104785Y-100750000D01*
X101123602Y-100953082D01*
X101179417Y-101149247D01*
X101179422Y-101149260D01*
X101270327Y-101331821D01*
X101393237Y-101494581D01*
X101543958Y-101631980D01*
X101543960Y-101631982D01*
X101643141Y-101693392D01*
X101717363Y-101739348D01*
X101907544Y-101813024D01*
X102108024Y-101850500D01*
X102108026Y-101850500D01*
X102311974Y-101850500D01*
X102311976Y-101850500D01*
X102512456Y-101813024D01*
X102702637Y-101739348D01*
X102876041Y-101631981D01*
X103026764Y-101494579D01*
X103149673Y-101331821D01*
X103240582Y-101149250D01*
X103296397Y-100953083D01*
X103315215Y-100750000D01*
X103296397Y-100546917D01*
X103240582Y-100350750D01*
X103149673Y-100168179D01*
X103026764Y-100005421D01*
X103026762Y-100005418D01*
X102876041Y-99868019D01*
X102876039Y-99868017D01*
X102702642Y-99760655D01*
X102702635Y-99760651D01*
X102554033Y-99703083D01*
X102512456Y-99686976D01*
X102311976Y-99649500D01*
X102108024Y-99649500D01*
X101907544Y-99686976D01*
X101907541Y-99686976D01*
X101907541Y-99686977D01*
X101717364Y-99760651D01*
X101717357Y-99760655D01*
X101543960Y-99868017D01*
X101543958Y-99868019D01*
X101393237Y-100005418D01*
X101270327Y-100168178D01*
X101179422Y-100350739D01*
X101179417Y-100350752D01*
X101123602Y-100546917D01*
X101104785Y-100749999D01*
X42273367Y-100749999D01*
X40664819Y-99141451D01*
X40631334Y-99080128D01*
X40628500Y-99053770D01*
X40628500Y-66707402D01*
X40648185Y-66640363D01*
X40664814Y-66619726D01*
X41708932Y-65575607D01*
X41770253Y-65542124D01*
X41839945Y-65547108D01*
X41895878Y-65588980D01*
X41920295Y-65654444D01*
X41920607Y-65662351D01*
X42163999Y-97789999D01*
X42164000Y-97790000D01*
X90677999Y-97790000D01*
X90678000Y-97790000D01*
X90769666Y-61490500D01*
X90796379Y-50912187D01*
X90816233Y-50845197D01*
X90869153Y-50799576D01*
X90920379Y-50788500D01*
X95303082Y-50788500D01*
X97335082Y-50788500D01*
X98855501Y-50788500D01*
X98922540Y-50808185D01*
G37*
%TD.AperFunction*%
%TA.AperFunction,Conductor*%
G36*
X154044756Y-40402613D02*
G01*
X154274667Y-40535352D01*
X154285549Y-40542419D01*
X154567389Y-40747188D01*
X154577472Y-40755353D01*
X154836362Y-40988459D01*
X154845540Y-40997637D01*
X155078642Y-41256523D01*
X155086810Y-41266609D01*
X155170318Y-41381547D01*
X155193798Y-41447352D01*
X155194000Y-41454432D01*
X155194000Y-117988500D01*
X155174315Y-118055539D01*
X155121511Y-118101294D01*
X155070000Y-118112500D01*
X153517500Y-118112500D01*
X153450461Y-118092815D01*
X153404706Y-118040011D01*
X153393500Y-117988500D01*
X153393500Y-115125741D01*
X153393501Y-115125720D01*
X153393501Y-114996391D01*
X153369464Y-114875554D01*
X153369463Y-114875553D01*
X153369463Y-114875549D01*
X153369461Y-114875544D01*
X153368965Y-114874347D01*
X153368965Y-114874346D01*
X153368953Y-114874319D01*
X153334130Y-114790247D01*
X153322312Y-114761715D01*
X153277429Y-114694544D01*
X153253858Y-114659267D01*
X153253855Y-114659263D01*
X151087665Y-112493074D01*
X151054180Y-112431751D01*
X151051875Y-112393957D01*
X151065215Y-112250000D01*
X151058467Y-112177181D01*
X151046397Y-112046917D01*
X151037369Y-112015189D01*
X150990582Y-111850750D01*
X150982094Y-111833704D01*
X150931294Y-111731683D01*
X150899673Y-111668179D01*
X150828144Y-111573459D01*
X150776762Y-111505418D01*
X150626041Y-111368019D01*
X150626039Y-111368017D01*
X150452642Y-111260655D01*
X150452635Y-111260651D01*
X150357546Y-111223814D01*
X150262456Y-111186976D01*
X150061976Y-111149500D01*
X149858024Y-111149500D01*
X149657544Y-111186976D01*
X149657541Y-111186976D01*
X149657541Y-111186977D01*
X149467364Y-111260651D01*
X149467357Y-111260655D01*
X149293960Y-111368017D01*
X149293958Y-111368019D01*
X149143237Y-111505418D01*
X149020327Y-111668178D01*
X148929422Y-111850739D01*
X148929417Y-111850752D01*
X148873602Y-112046917D01*
X148854785Y-112249999D01*
X148854785Y-112250000D01*
X148873602Y-112453082D01*
X148929417Y-112649247D01*
X148929422Y-112649260D01*
X149020327Y-112831821D01*
X149143237Y-112994581D01*
X149293958Y-113131980D01*
X149293960Y-113131982D01*
X149375821Y-113182668D01*
X149467363Y-113239348D01*
X149657544Y-113313024D01*
X149858024Y-113350500D01*
X149858026Y-113350500D01*
X150061974Y-113350500D01*
X150061976Y-113350500D01*
X150093718Y-113344566D01*
X150163233Y-113351597D01*
X150204184Y-113378774D01*
X152106181Y-115280771D01*
X152139666Y-115342094D01*
X152142500Y-115368452D01*
X152142500Y-117988500D01*
X152122815Y-118055539D01*
X152070011Y-118101294D01*
X152018500Y-118112500D01*
X136142500Y-118112500D01*
X136075461Y-118092815D01*
X136029706Y-118040011D01*
X136018500Y-117988500D01*
X136018500Y-116655230D01*
X136038185Y-116588191D01*
X136054819Y-116567549D01*
X136074257Y-116548111D01*
X136133712Y-116488656D01*
X136225814Y-116339334D01*
X136280999Y-116172797D01*
X136291500Y-116070009D01*
X136291499Y-115069992D01*
X136280999Y-114967203D01*
X136225814Y-114800666D01*
X136133712Y-114651344D01*
X136009656Y-114527288D01*
X135860334Y-114435186D01*
X135693797Y-114380001D01*
X135693795Y-114380000D01*
X135591010Y-114369500D01*
X134965998Y-114369500D01*
X134965980Y-114369501D01*
X134863203Y-114380000D01*
X134863197Y-114380002D01*
X134780503Y-114407404D01*
X134710675Y-114409806D01*
X134650633Y-114374074D01*
X134619441Y-114311553D01*
X134617500Y-114289698D01*
X134617500Y-110589225D01*
X134617500Y-110589216D01*
X134604976Y-110477391D01*
X134592840Y-110423890D01*
X134564554Y-110342526D01*
X134555894Y-110317615D01*
X134475976Y-110197972D01*
X134475973Y-110197968D01*
X134429298Y-110145992D01*
X134429292Y-110145985D01*
X134429291Y-110145984D01*
X134429284Y-110145978D01*
X134429282Y-110145976D01*
X134318903Y-110053703D01*
X134186987Y-109996260D01*
X134122829Y-109978649D01*
X134120834Y-109978043D01*
X134114451Y-109976593D01*
X134053440Y-109942543D01*
X134020523Y-109880913D01*
X134020310Y-109879864D01*
X134018874Y-109872646D01*
X134017463Y-109865548D01*
X133970311Y-109751714D01*
X133970310Y-109751713D01*
X133970307Y-109751707D01*
X133901859Y-109649268D01*
X133867131Y-109614540D01*
X133814733Y-109562142D01*
X133814732Y-109562141D01*
X126290219Y-102037628D01*
X126256734Y-101976305D01*
X126253900Y-101949947D01*
X126253900Y-100912051D01*
X126273585Y-100845012D01*
X126290215Y-100824374D01*
X126485817Y-100628771D01*
X126547138Y-100595288D01*
X126596280Y-100594566D01*
X126628024Y-100600500D01*
X126628025Y-100600500D01*
X126831974Y-100600500D01*
X126831976Y-100600500D01*
X127032456Y-100563024D01*
X127222637Y-100489348D01*
X127396041Y-100381981D01*
X127546764Y-100244579D01*
X127669673Y-100081821D01*
X127760582Y-99899250D01*
X127816397Y-99703083D01*
X127835215Y-99500000D01*
X127816397Y-99296917D01*
X127760582Y-99100750D01*
X127669673Y-98918179D01*
X127546764Y-98755421D01*
X127546762Y-98755418D01*
X127396041Y-98618019D01*
X127396039Y-98618017D01*
X127222642Y-98510655D01*
X127222635Y-98510651D01*
X127127546Y-98473814D01*
X127032456Y-98436976D01*
X126831976Y-98399500D01*
X126628024Y-98399500D01*
X126427544Y-98436976D01*
X126427541Y-98436976D01*
X126427541Y-98436977D01*
X126237364Y-98510651D01*
X126237357Y-98510655D01*
X126063960Y-98618017D01*
X126063958Y-98618019D01*
X125913237Y-98755418D01*
X125790327Y-98918178D01*
X125699422Y-99100739D01*
X125699417Y-99100752D01*
X125643602Y-99296917D01*
X125624785Y-99499999D01*
X125624785Y-99500001D01*
X125638123Y-99643953D01*
X125624708Y-99712522D01*
X125602333Y-99743074D01*
X125263588Y-100081821D01*
X125229669Y-100115740D01*
X125229667Y-100115742D01*
X125191811Y-100153598D01*
X125142542Y-100202866D01*
X125117923Y-100239712D01*
X125117922Y-100239713D01*
X125074090Y-100305309D01*
X125074085Y-100305318D01*
X125026940Y-100419138D01*
X125026935Y-100419155D01*
X125013264Y-100487886D01*
X124980879Y-100549797D01*
X124920164Y-100584371D01*
X124850394Y-100580632D01*
X124803966Y-100551376D01*
X103531819Y-79279229D01*
X103498334Y-79217906D01*
X103495500Y-79191548D01*
X103495500Y-78959016D01*
X103515185Y-78891977D01*
X103567989Y-78846222D01*
X103580488Y-78841313D01*
X103639334Y-78821814D01*
X103788656Y-78729712D01*
X103912712Y-78605656D01*
X104004814Y-78456334D01*
X104059999Y-78289797D01*
X104070500Y-78187009D01*
X104070499Y-77561992D01*
X104059999Y-77459203D01*
X104004814Y-77292666D01*
X103912712Y-77143344D01*
X103819049Y-77049681D01*
X103785564Y-76988358D01*
X103790548Y-76918666D01*
X103819049Y-76874319D01*
X103838658Y-76854710D01*
X103912712Y-76780656D01*
X104004814Y-76631334D01*
X104059999Y-76464797D01*
X104070500Y-76362009D01*
X104070499Y-75736992D01*
X104059999Y-75634203D01*
X104004814Y-75467666D01*
X103912712Y-75318344D01*
X103788656Y-75194288D01*
X103679402Y-75126900D01*
X103632679Y-75074953D01*
X103620500Y-75021362D01*
X103620500Y-74085700D01*
X103630983Y-74050000D01*
X107694540Y-74050000D01*
X107714326Y-74238256D01*
X107714327Y-74238259D01*
X107772818Y-74418277D01*
X107772821Y-74418284D01*
X107867467Y-74582216D01*
X107945277Y-74668632D01*
X107994129Y-74722888D01*
X108147265Y-74834148D01*
X108147270Y-74834151D01*
X108320192Y-74911142D01*
X108320197Y-74911144D01*
X108505354Y-74950500D01*
X108505355Y-74950500D01*
X108694644Y-74950500D01*
X108694646Y-74950500D01*
X108879803Y-74911144D01*
X109052730Y-74834151D01*
X109205871Y-74722888D01*
X109332533Y-74582216D01*
X109427179Y-74418284D01*
X109485674Y-74238256D01*
X109505460Y-74050000D01*
X109485674Y-73861744D01*
X109427179Y-73681716D01*
X109332533Y-73517784D01*
X109205871Y-73377112D01*
X109205870Y-73377111D01*
X109052734Y-73265851D01*
X109052729Y-73265848D01*
X108879807Y-73188857D01*
X108879802Y-73188855D01*
X108734001Y-73157865D01*
X108694646Y-73149500D01*
X108505354Y-73149500D01*
X108472897Y-73156398D01*
X108320197Y-73188855D01*
X108320192Y-73188857D01*
X108147270Y-73265848D01*
X108147265Y-73265851D01*
X107994129Y-73377111D01*
X107867466Y-73517785D01*
X107772821Y-73681715D01*
X107772818Y-73681722D01*
X107714327Y-73861740D01*
X107714326Y-73861744D01*
X107694540Y-74050000D01*
X103630983Y-74050000D01*
X103640185Y-74018661D01*
X103673375Y-73984126D01*
X103741401Y-73936495D01*
X103908495Y-73769401D01*
X104044035Y-73575830D01*
X104143903Y-73361663D01*
X104205063Y-73133408D01*
X104225659Y-72898000D01*
X104205063Y-72662592D01*
X104143903Y-72434337D01*
X104044035Y-72220171D01*
X104038425Y-72212158D01*
X103908494Y-72026597D01*
X103741402Y-71859506D01*
X103741396Y-71859501D01*
X103555842Y-71729575D01*
X103512217Y-71674998D01*
X103505023Y-71605500D01*
X103536546Y-71543145D01*
X103555842Y-71526425D01*
X103578026Y-71510891D01*
X103741401Y-71396495D01*
X103908495Y-71229401D01*
X104044035Y-71035830D01*
X104143903Y-70821663D01*
X104205063Y-70593408D01*
X104225659Y-70358000D01*
X104205063Y-70122592D01*
X104143903Y-69894337D01*
X104044035Y-69680171D01*
X104038425Y-69672158D01*
X103908494Y-69486597D01*
X103741402Y-69319506D01*
X103741396Y-69319501D01*
X103555842Y-69189575D01*
X103512217Y-69134998D01*
X103505023Y-69065500D01*
X103536546Y-69003145D01*
X103555842Y-68986425D01*
X103578026Y-68970891D01*
X103741401Y-68856495D01*
X103908495Y-68689401D01*
X104044035Y-68495830D01*
X104143903Y-68281663D01*
X104205063Y-68053408D01*
X104225659Y-67818000D01*
X104205063Y-67582592D01*
X104143903Y-67354337D01*
X104044035Y-67140171D01*
X104038425Y-67132158D01*
X103908494Y-66946597D01*
X103741402Y-66779506D01*
X103741396Y-66779501D01*
X103555842Y-66649575D01*
X103512217Y-66594998D01*
X103505023Y-66525500D01*
X103536546Y-66463145D01*
X103555842Y-66446425D01*
X103578026Y-66430891D01*
X103741401Y-66316495D01*
X103908495Y-66149401D01*
X104044035Y-65955830D01*
X104143903Y-65741663D01*
X104205063Y-65513408D01*
X104214548Y-65405000D01*
X134095540Y-65405000D01*
X134115326Y-65593256D01*
X134115327Y-65593259D01*
X134173818Y-65773277D01*
X134173821Y-65773284D01*
X134268467Y-65937216D01*
X134315710Y-65989684D01*
X134395129Y-66077888D01*
X134548265Y-66189148D01*
X134548270Y-66189151D01*
X134721192Y-66266142D01*
X134721197Y-66266144D01*
X134906354Y-66305500D01*
X134906355Y-66305500D01*
X135095644Y-66305500D01*
X135095646Y-66305500D01*
X135280803Y-66266144D01*
X135453730Y-66189151D01*
X135606871Y-66077888D01*
X135733533Y-65937216D01*
X135828179Y-65773284D01*
X135886674Y-65593256D01*
X135906460Y-65405000D01*
X135886674Y-65216744D01*
X135828179Y-65036716D01*
X135733533Y-64872784D01*
X135606871Y-64732112D01*
X135606870Y-64732111D01*
X135453734Y-64620851D01*
X135453729Y-64620848D01*
X135280807Y-64543857D01*
X135280802Y-64543855D01*
X135135001Y-64512865D01*
X135095646Y-64504500D01*
X134906354Y-64504500D01*
X134873897Y-64511398D01*
X134721197Y-64543855D01*
X134721192Y-64543857D01*
X134548270Y-64620848D01*
X134548265Y-64620851D01*
X134395129Y-64732111D01*
X134268466Y-64872785D01*
X134173821Y-65036715D01*
X134173818Y-65036722D01*
X134115327Y-65216740D01*
X134115326Y-65216744D01*
X134095540Y-65405000D01*
X104214548Y-65405000D01*
X104225659Y-65278000D01*
X104205063Y-65042592D01*
X104143903Y-64814337D01*
X104044035Y-64600171D01*
X104038425Y-64592158D01*
X103908494Y-64406597D01*
X103741402Y-64239506D01*
X103741396Y-64239501D01*
X103555842Y-64109575D01*
X103512217Y-64054998D01*
X103505023Y-63985500D01*
X103536546Y-63923145D01*
X103555842Y-63906425D01*
X103603121Y-63873320D01*
X103741401Y-63776495D01*
X103908495Y-63609401D01*
X104044035Y-63415830D01*
X104143903Y-63201663D01*
X104205063Y-62973408D01*
X104225659Y-62738000D01*
X104205063Y-62502592D01*
X104143903Y-62274337D01*
X104044035Y-62060171D01*
X104038425Y-62052158D01*
X103908494Y-61866597D01*
X103741402Y-61699506D01*
X103741396Y-61699501D01*
X103555842Y-61569575D01*
X103512217Y-61514998D01*
X103505023Y-61445500D01*
X103536546Y-61383145D01*
X103555842Y-61366425D01*
X103578026Y-61350891D01*
X103741401Y-61236495D01*
X103908495Y-61069401D01*
X104044035Y-60875830D01*
X104143903Y-60661663D01*
X104205063Y-60433408D01*
X104225659Y-60198000D01*
X104205063Y-59962592D01*
X104143903Y-59734337D01*
X104044035Y-59520171D01*
X104038425Y-59512158D01*
X103908494Y-59326597D01*
X103741402Y-59159506D01*
X103741396Y-59159501D01*
X103555842Y-59029575D01*
X103512217Y-58974998D01*
X103505023Y-58905500D01*
X103536546Y-58843145D01*
X103555842Y-58826425D01*
X103578026Y-58810891D01*
X103741401Y-58696495D01*
X103908495Y-58529401D01*
X104044035Y-58335830D01*
X104143903Y-58121663D01*
X104205063Y-57893408D01*
X104225659Y-57658000D01*
X104205063Y-57422592D01*
X104143903Y-57194337D01*
X104044035Y-56980171D01*
X104038425Y-56972158D01*
X103908494Y-56786597D01*
X103741402Y-56619506D01*
X103741396Y-56619501D01*
X103555842Y-56489575D01*
X103512217Y-56434998D01*
X103505023Y-56365500D01*
X103536546Y-56303145D01*
X103555842Y-56286425D01*
X103584298Y-56266500D01*
X103741401Y-56156495D01*
X103908495Y-55989401D01*
X104044035Y-55795830D01*
X104143903Y-55581663D01*
X104205063Y-55353408D01*
X104225659Y-55118000D01*
X104205063Y-54882592D01*
X104143903Y-54654337D01*
X104044035Y-54440171D01*
X104038425Y-54432158D01*
X103908494Y-54246597D01*
X103741402Y-54079506D01*
X103741395Y-54079501D01*
X103547834Y-53943967D01*
X103547830Y-53943965D01*
X103547828Y-53943964D01*
X103333663Y-53844097D01*
X103333659Y-53844096D01*
X103333655Y-53844094D01*
X103105413Y-53782938D01*
X103105403Y-53782936D01*
X102870001Y-53762341D01*
X102869999Y-53762341D01*
X102634596Y-53782936D01*
X102634586Y-53782938D01*
X102406344Y-53844094D01*
X102406335Y-53844098D01*
X102192171Y-53943964D01*
X102192169Y-53943965D01*
X101998597Y-54079505D01*
X101831505Y-54246597D01*
X101701575Y-54432158D01*
X101646998Y-54475783D01*
X101577500Y-54482977D01*
X101515145Y-54451454D01*
X101498425Y-54432158D01*
X101368494Y-54246597D01*
X101201402Y-54079506D01*
X101201396Y-54079501D01*
X101015842Y-53949575D01*
X100972217Y-53894998D01*
X100965023Y-53825500D01*
X100996546Y-53763145D01*
X101015842Y-53746425D01*
X101038026Y-53730891D01*
X101201401Y-53616495D01*
X101368495Y-53449401D01*
X101504035Y-53255830D01*
X101603903Y-53041663D01*
X101665063Y-52813408D01*
X101685659Y-52578000D01*
X101685659Y-52577999D01*
X142154341Y-52577999D01*
X142154341Y-52578000D01*
X142174936Y-52813403D01*
X142174938Y-52813413D01*
X142236094Y-53041655D01*
X142236096Y-53041659D01*
X142236097Y-53041663D01*
X142240000Y-53050032D01*
X142335965Y-53255830D01*
X142335967Y-53255834D01*
X142444281Y-53410521D01*
X142471501Y-53449396D01*
X142471506Y-53449402D01*
X142638597Y-53616493D01*
X142638603Y-53616498D01*
X142824158Y-53746425D01*
X142867783Y-53801002D01*
X142874977Y-53870500D01*
X142843454Y-53932855D01*
X142824158Y-53949575D01*
X142638597Y-54079505D01*
X142471505Y-54246597D01*
X142335965Y-54440169D01*
X142335964Y-54440171D01*
X142236098Y-54654335D01*
X142236094Y-54654344D01*
X142174938Y-54882586D01*
X142174936Y-54882596D01*
X142154341Y-55117999D01*
X142154341Y-55118000D01*
X142174936Y-55353403D01*
X142174938Y-55353413D01*
X142236094Y-55581655D01*
X142236096Y-55581659D01*
X142236097Y-55581663D01*
X142240000Y-55590032D01*
X142335965Y-55795830D01*
X142335967Y-55795834D01*
X142444281Y-55950521D01*
X142471501Y-55989396D01*
X142471506Y-55989402D01*
X142638597Y-56156493D01*
X142638603Y-56156498D01*
X142824158Y-56286425D01*
X142867783Y-56341002D01*
X142874977Y-56410500D01*
X142843454Y-56472855D01*
X142824158Y-56489575D01*
X142638597Y-56619505D01*
X142471505Y-56786597D01*
X142335965Y-56980169D01*
X142335964Y-56980171D01*
X142236098Y-57194335D01*
X142236094Y-57194344D01*
X142174938Y-57422586D01*
X142174936Y-57422596D01*
X142154341Y-57657999D01*
X142154341Y-57658000D01*
X142174936Y-57893403D01*
X142174938Y-57893413D01*
X142236094Y-58121655D01*
X142236096Y-58121659D01*
X142236097Y-58121663D01*
X142240000Y-58130032D01*
X142335965Y-58335830D01*
X142335967Y-58335834D01*
X142444281Y-58490521D01*
X142471501Y-58529396D01*
X142471506Y-58529402D01*
X142638597Y-58696493D01*
X142638603Y-58696498D01*
X142824158Y-58826425D01*
X142867783Y-58881002D01*
X142874977Y-58950500D01*
X142843454Y-59012855D01*
X142824158Y-59029575D01*
X142638597Y-59159505D01*
X142471505Y-59326597D01*
X142335965Y-59520169D01*
X142335964Y-59520171D01*
X142236098Y-59734335D01*
X142236094Y-59734344D01*
X142174938Y-59962586D01*
X142174936Y-59962596D01*
X142154341Y-60197999D01*
X142154341Y-60198000D01*
X142174936Y-60433403D01*
X142174938Y-60433413D01*
X142236094Y-60661655D01*
X142236096Y-60661659D01*
X142236097Y-60661663D01*
X142289408Y-60775989D01*
X142335965Y-60875830D01*
X142335967Y-60875834D01*
X142444281Y-61030521D01*
X142471501Y-61069396D01*
X142471506Y-61069402D01*
X142638597Y-61236493D01*
X142638603Y-61236498D01*
X142824158Y-61366425D01*
X142867783Y-61421002D01*
X142874977Y-61490500D01*
X142843454Y-61552855D01*
X142824158Y-61569575D01*
X142638597Y-61699505D01*
X142471505Y-61866597D01*
X142335965Y-62060169D01*
X142335964Y-62060171D01*
X142236098Y-62274335D01*
X142236094Y-62274344D01*
X142174938Y-62502586D01*
X142174936Y-62502596D01*
X142154341Y-62737999D01*
X142154341Y-62738000D01*
X142174936Y-62973403D01*
X142174938Y-62973413D01*
X142236094Y-63201655D01*
X142236096Y-63201659D01*
X142236097Y-63201663D01*
X142268512Y-63271176D01*
X142335965Y-63415830D01*
X142335967Y-63415834D01*
X142444281Y-63570521D01*
X142471501Y-63609396D01*
X142471506Y-63609402D01*
X142638597Y-63776493D01*
X142638603Y-63776498D01*
X142824158Y-63906425D01*
X142867783Y-63961002D01*
X142874977Y-64030500D01*
X142843454Y-64092855D01*
X142824158Y-64109575D01*
X142638597Y-64239505D01*
X142471505Y-64406597D01*
X142335965Y-64600169D01*
X142335964Y-64600171D01*
X142236098Y-64814335D01*
X142236094Y-64814344D01*
X142174938Y-65042586D01*
X142174936Y-65042596D01*
X142154341Y-65277999D01*
X142154341Y-65278000D01*
X142174936Y-65513403D01*
X142174938Y-65513413D01*
X142236094Y-65741655D01*
X142236096Y-65741659D01*
X142236097Y-65741663D01*
X142314594Y-65910000D01*
X142335965Y-65955830D01*
X142335967Y-65955834D01*
X142421431Y-66077888D01*
X142471501Y-66149396D01*
X142471506Y-66149402D01*
X142638597Y-66316493D01*
X142638603Y-66316498D01*
X142824158Y-66446425D01*
X142867783Y-66501002D01*
X142874977Y-66570500D01*
X142843454Y-66632855D01*
X142824158Y-66649575D01*
X142638597Y-66779505D01*
X142471505Y-66946597D01*
X142335965Y-67140169D01*
X142335964Y-67140171D01*
X142236098Y-67354335D01*
X142236094Y-67354344D01*
X142174938Y-67582586D01*
X142174936Y-67582596D01*
X142154341Y-67817999D01*
X142154341Y-67818000D01*
X142174936Y-68053403D01*
X142174938Y-68053413D01*
X142236094Y-68281655D01*
X142236096Y-68281659D01*
X142236097Y-68281663D01*
X142265227Y-68344132D01*
X142335965Y-68495830D01*
X142335967Y-68495834D01*
X142432579Y-68633809D01*
X142471501Y-68689396D01*
X142471506Y-68689402D01*
X142638597Y-68856493D01*
X142638603Y-68856498D01*
X142824158Y-68986425D01*
X142867783Y-69041002D01*
X142874977Y-69110500D01*
X142843454Y-69172855D01*
X142824158Y-69189575D01*
X142638597Y-69319505D01*
X142471505Y-69486597D01*
X142335965Y-69680169D01*
X142335964Y-69680171D01*
X142236098Y-69894335D01*
X142236094Y-69894344D01*
X142174938Y-70122586D01*
X142174936Y-70122596D01*
X142154341Y-70357999D01*
X142154341Y-70358000D01*
X142174936Y-70593403D01*
X142174938Y-70593413D01*
X142236094Y-70821655D01*
X142236096Y-70821659D01*
X142236097Y-70821663D01*
X142240000Y-70830032D01*
X142335965Y-71035830D01*
X142335967Y-71035834D01*
X142444281Y-71190521D01*
X142471501Y-71229396D01*
X142471506Y-71229402D01*
X142638597Y-71396493D01*
X142638603Y-71396498D01*
X142824158Y-71526425D01*
X142867783Y-71581002D01*
X142874977Y-71650500D01*
X142843454Y-71712855D01*
X142824158Y-71729575D01*
X142638597Y-71859505D01*
X142471505Y-72026597D01*
X142335965Y-72220169D01*
X142335964Y-72220171D01*
X142236098Y-72434335D01*
X142236094Y-72434344D01*
X142174938Y-72662586D01*
X142174936Y-72662596D01*
X142154341Y-72897999D01*
X142154341Y-72898000D01*
X142174936Y-73133403D01*
X142174938Y-73133413D01*
X142236094Y-73361655D01*
X142236096Y-73361659D01*
X142236097Y-73361663D01*
X142294622Y-73487169D01*
X142335965Y-73575830D01*
X142335967Y-73575834D01*
X142410107Y-73681716D01*
X142471505Y-73769401D01*
X142638599Y-73936495D01*
X142676195Y-73962820D01*
X142832165Y-74072032D01*
X142832167Y-74072033D01*
X142832170Y-74072035D01*
X143046337Y-74171903D01*
X143274592Y-74233063D01*
X143462918Y-74249539D01*
X143509999Y-74253659D01*
X143510000Y-74253659D01*
X143510001Y-74253659D01*
X143549234Y-74250226D01*
X143745408Y-74233063D01*
X143973663Y-74171903D01*
X144187830Y-74072035D01*
X144381401Y-73936495D01*
X144548495Y-73769401D01*
X144678425Y-73583842D01*
X144733002Y-73540217D01*
X144802500Y-73533023D01*
X144864855Y-73564546D01*
X144881575Y-73583842D01*
X145011500Y-73769395D01*
X145011505Y-73769401D01*
X145178599Y-73936495D01*
X145216195Y-73962820D01*
X145372165Y-74072032D01*
X145372167Y-74072033D01*
X145372170Y-74072035D01*
X145586337Y-74171903D01*
X145814592Y-74233063D01*
X146002918Y-74249539D01*
X146049999Y-74253659D01*
X146050000Y-74253659D01*
X146050001Y-74253659D01*
X146089234Y-74250226D01*
X146285408Y-74233063D01*
X146513663Y-74171903D01*
X146727830Y-74072035D01*
X146921401Y-73936495D01*
X147088495Y-73769401D01*
X147224035Y-73575830D01*
X147323903Y-73361663D01*
X147385063Y-73133408D01*
X147405659Y-72898000D01*
X147385063Y-72662592D01*
X147323903Y-72434337D01*
X147224035Y-72220171D01*
X147218425Y-72212158D01*
X147088494Y-72026597D01*
X146921402Y-71859506D01*
X146921396Y-71859501D01*
X146735842Y-71729575D01*
X146692217Y-71674998D01*
X146685023Y-71605500D01*
X146716546Y-71543145D01*
X146735842Y-71526425D01*
X146758026Y-71510891D01*
X146921401Y-71396495D01*
X147088495Y-71229401D01*
X147224035Y-71035830D01*
X147323903Y-70821663D01*
X147385063Y-70593408D01*
X147405659Y-70358000D01*
X147385063Y-70122592D01*
X147323903Y-69894337D01*
X147224035Y-69680171D01*
X147218425Y-69672158D01*
X147088494Y-69486597D01*
X146921402Y-69319506D01*
X146921396Y-69319501D01*
X146735842Y-69189575D01*
X146692217Y-69134998D01*
X146685023Y-69065500D01*
X146716546Y-69003145D01*
X146735842Y-68986425D01*
X146758026Y-68970891D01*
X146921401Y-68856495D01*
X147088495Y-68689401D01*
X147224035Y-68495830D01*
X147323903Y-68281663D01*
X147385063Y-68053408D01*
X147405659Y-67818000D01*
X147385063Y-67582592D01*
X147323903Y-67354337D01*
X147224035Y-67140171D01*
X147218425Y-67132158D01*
X147088494Y-66946597D01*
X146921402Y-66779506D01*
X146921396Y-66779501D01*
X146735842Y-66649575D01*
X146692217Y-66594998D01*
X146685023Y-66525500D01*
X146716546Y-66463145D01*
X146735842Y-66446425D01*
X146758026Y-66430891D01*
X146921401Y-66316495D01*
X147088495Y-66149401D01*
X147224035Y-65955830D01*
X147323903Y-65741663D01*
X147385063Y-65513408D01*
X147405659Y-65278000D01*
X147385063Y-65042592D01*
X147323903Y-64814337D01*
X147224035Y-64600171D01*
X147218425Y-64592158D01*
X147088494Y-64406597D01*
X146921402Y-64239506D01*
X146921396Y-64239501D01*
X146735842Y-64109575D01*
X146692217Y-64054998D01*
X146685023Y-63985500D01*
X146716546Y-63923145D01*
X146735842Y-63906425D01*
X146783121Y-63873320D01*
X146921401Y-63776495D01*
X147088495Y-63609401D01*
X147224035Y-63415830D01*
X147323903Y-63201663D01*
X147385063Y-62973408D01*
X147405659Y-62738000D01*
X147385063Y-62502592D01*
X147323903Y-62274337D01*
X147224035Y-62060171D01*
X147218425Y-62052158D01*
X147088494Y-61866597D01*
X146921402Y-61699506D01*
X146921396Y-61699501D01*
X146735842Y-61569575D01*
X146692217Y-61514998D01*
X146685023Y-61445500D01*
X146716546Y-61383145D01*
X146735842Y-61366425D01*
X146758026Y-61350891D01*
X146921401Y-61236495D01*
X147088495Y-61069401D01*
X147224035Y-60875830D01*
X147323903Y-60661663D01*
X147385063Y-60433408D01*
X147405659Y-60198000D01*
X147385063Y-59962592D01*
X147323903Y-59734337D01*
X147224035Y-59520171D01*
X147218425Y-59512158D01*
X147088494Y-59326597D01*
X146921402Y-59159506D01*
X146921396Y-59159501D01*
X146735842Y-59029575D01*
X146692217Y-58974998D01*
X146685023Y-58905500D01*
X146716546Y-58843145D01*
X146735842Y-58826425D01*
X146758026Y-58810891D01*
X146921401Y-58696495D01*
X147088495Y-58529401D01*
X147224035Y-58335830D01*
X147323903Y-58121663D01*
X147385063Y-57893408D01*
X147405659Y-57658000D01*
X147385063Y-57422592D01*
X147323903Y-57194337D01*
X147224035Y-56980171D01*
X147218425Y-56972158D01*
X147088494Y-56786597D01*
X146921402Y-56619506D01*
X146921396Y-56619501D01*
X146735842Y-56489575D01*
X146692217Y-56434998D01*
X146685023Y-56365500D01*
X146716546Y-56303145D01*
X146735842Y-56286425D01*
X146764298Y-56266500D01*
X146921401Y-56156495D01*
X147088495Y-55989401D01*
X147224035Y-55795830D01*
X147323903Y-55581663D01*
X147385063Y-55353408D01*
X147405659Y-55118000D01*
X147385063Y-54882592D01*
X147323903Y-54654337D01*
X147224035Y-54440171D01*
X147218425Y-54432158D01*
X147088494Y-54246597D01*
X146921402Y-54079506D01*
X146921396Y-54079501D01*
X146735842Y-53949575D01*
X146692217Y-53894998D01*
X146685023Y-53825500D01*
X146716546Y-53763145D01*
X146735842Y-53746425D01*
X146758026Y-53730891D01*
X146921401Y-53616495D01*
X147088495Y-53449401D01*
X147224035Y-53255830D01*
X147323903Y-53041663D01*
X147385063Y-52813408D01*
X147405659Y-52578000D01*
X147385063Y-52342592D01*
X147323903Y-52114337D01*
X147224035Y-51900171D01*
X147218425Y-51892158D01*
X147088494Y-51706597D01*
X146921402Y-51539506D01*
X146921395Y-51539501D01*
X146727834Y-51403967D01*
X146727830Y-51403965D01*
X146678174Y-51380810D01*
X146513663Y-51304097D01*
X146513659Y-51304096D01*
X146513655Y-51304094D01*
X146285413Y-51242938D01*
X146285403Y-51242936D01*
X146050001Y-51222341D01*
X146049999Y-51222341D01*
X145814596Y-51242936D01*
X145814586Y-51242938D01*
X145586344Y-51304094D01*
X145586335Y-51304098D01*
X145372171Y-51403964D01*
X145372169Y-51403965D01*
X145178597Y-51539505D01*
X145011505Y-51706597D01*
X144881575Y-51892158D01*
X144826998Y-51935783D01*
X144757500Y-51942977D01*
X144695145Y-51911454D01*
X144678425Y-51892158D01*
X144548496Y-51706600D01*
X144510038Y-51668142D01*
X144426567Y-51584671D01*
X144393084Y-51523351D01*
X144398068Y-51453659D01*
X144439939Y-51397725D01*
X144470915Y-51380810D01*
X144602331Y-51331796D01*
X144717546Y-51245546D01*
X144803796Y-51130331D01*
X144854091Y-50995483D01*
X144860500Y-50935873D01*
X144860499Y-49140128D01*
X144854091Y-49080517D01*
X144852809Y-49077081D01*
X144803797Y-48945671D01*
X144803793Y-48945664D01*
X144717547Y-48830455D01*
X144717544Y-48830452D01*
X144602335Y-48744206D01*
X144602328Y-48744202D01*
X144467482Y-48693908D01*
X144467483Y-48693908D01*
X144407883Y-48687501D01*
X144407881Y-48687500D01*
X144407873Y-48687500D01*
X144407864Y-48687500D01*
X142612129Y-48687500D01*
X142612123Y-48687501D01*
X142552516Y-48693908D01*
X142417671Y-48744202D01*
X142417664Y-48744206D01*
X142302455Y-48830452D01*
X142302452Y-48830455D01*
X142216206Y-48945664D01*
X142216202Y-48945671D01*
X142165908Y-49080517D01*
X142161510Y-49121430D01*
X142159501Y-49140123D01*
X142159500Y-49140135D01*
X142159500Y-50935870D01*
X142159501Y-50935876D01*
X142165908Y-50995483D01*
X142216202Y-51130328D01*
X142216206Y-51130335D01*
X142302452Y-51245544D01*
X142302455Y-51245547D01*
X142417664Y-51331793D01*
X142417671Y-51331797D01*
X142549081Y-51380810D01*
X142605015Y-51422681D01*
X142629432Y-51488145D01*
X142614580Y-51556418D01*
X142593430Y-51584673D01*
X142471503Y-51706600D01*
X142335965Y-51900169D01*
X142335964Y-51900171D01*
X142236098Y-52114335D01*
X142236094Y-52114344D01*
X142174938Y-52342586D01*
X142174936Y-52342596D01*
X142154341Y-52577999D01*
X101685659Y-52577999D01*
X101665063Y-52342592D01*
X101603903Y-52114337D01*
X101504035Y-51900171D01*
X101498424Y-51892158D01*
X101368496Y-51706600D01*
X101330038Y-51668142D01*
X101246567Y-51584671D01*
X101213084Y-51523351D01*
X101218068Y-51453659D01*
X101259939Y-51397725D01*
X101290915Y-51380810D01*
X101422331Y-51331796D01*
X101537546Y-51245546D01*
X101623796Y-51130331D01*
X101672810Y-50998916D01*
X101714681Y-50942984D01*
X101780145Y-50918566D01*
X101848418Y-50933417D01*
X101876673Y-50954569D01*
X101998599Y-51076495D01*
X102095384Y-51144265D01*
X102192165Y-51212032D01*
X102192167Y-51212033D01*
X102192170Y-51212035D01*
X102406337Y-51311903D01*
X102634592Y-51373063D01*
X102811034Y-51388500D01*
X102869999Y-51393659D01*
X102870000Y-51393659D01*
X102870001Y-51393659D01*
X102928966Y-51388500D01*
X103105408Y-51373063D01*
X103333663Y-51311903D01*
X103547830Y-51212035D01*
X103741401Y-51076495D01*
X103908495Y-50909401D01*
X104044035Y-50715830D01*
X104143903Y-50501663D01*
X104205063Y-50273408D01*
X104225659Y-50038000D01*
X104205063Y-49802592D01*
X104143903Y-49574337D01*
X104044035Y-49360171D01*
X103993151Y-49287500D01*
X103908494Y-49166597D01*
X103741402Y-48999506D01*
X103741395Y-48999501D01*
X103547834Y-48863967D01*
X103547830Y-48863965D01*
X103547828Y-48863964D01*
X103333663Y-48764097D01*
X103333659Y-48764096D01*
X103333655Y-48764094D01*
X103105413Y-48702938D01*
X103105403Y-48702936D01*
X102870001Y-48682341D01*
X102869999Y-48682341D01*
X102634596Y-48702936D01*
X102634586Y-48702938D01*
X102406344Y-48764094D01*
X102406335Y-48764098D01*
X102192171Y-48863964D01*
X102192169Y-48863965D01*
X101998600Y-48999503D01*
X101876673Y-49121430D01*
X101815350Y-49154914D01*
X101745658Y-49149930D01*
X101689725Y-49108058D01*
X101672810Y-49077081D01*
X101623797Y-48945671D01*
X101623793Y-48945664D01*
X101537547Y-48830455D01*
X101537544Y-48830452D01*
X101422335Y-48744206D01*
X101422328Y-48744202D01*
X101287482Y-48693908D01*
X101287483Y-48693908D01*
X101227883Y-48687501D01*
X101227881Y-48687500D01*
X101227873Y-48687500D01*
X101227864Y-48687500D01*
X99432129Y-48687500D01*
X99432123Y-48687501D01*
X99372516Y-48693908D01*
X99237671Y-48744202D01*
X99237664Y-48744206D01*
X99122455Y-48830452D01*
X99122452Y-48830455D01*
X99036206Y-48945664D01*
X99036202Y-48945671D01*
X98985908Y-49080517D01*
X98981510Y-49121430D01*
X98979501Y-49140123D01*
X98979500Y-49140135D01*
X98979500Y-49163500D01*
X98959815Y-49230539D01*
X98907011Y-49276294D01*
X98855500Y-49287500D01*
X98583640Y-49287500D01*
X98516601Y-49267815D01*
X98470846Y-49215011D01*
X98460902Y-49145853D01*
X98478100Y-49098405D01*
X98568814Y-48951334D01*
X98623999Y-48784797D01*
X98634500Y-48682009D01*
X98634499Y-48081992D01*
X98623999Y-47979203D01*
X98568814Y-47812666D01*
X98476712Y-47663344D01*
X98352656Y-47539288D01*
X98203334Y-47447186D01*
X98036797Y-47392001D01*
X98036795Y-47392000D01*
X97934010Y-47381500D01*
X96883998Y-47381500D01*
X96883980Y-47381501D01*
X96781203Y-47392000D01*
X96781200Y-47392001D01*
X96614668Y-47447185D01*
X96614663Y-47447187D01*
X96465342Y-47539289D01*
X96447681Y-47556951D01*
X96386358Y-47590436D01*
X96316666Y-47585452D01*
X96272319Y-47556951D01*
X96254657Y-47539289D01*
X96254656Y-47539288D01*
X96105334Y-47447186D01*
X95938797Y-47392001D01*
X95938795Y-47392000D01*
X95836010Y-47381500D01*
X94785998Y-47381500D01*
X94785980Y-47381501D01*
X94683203Y-47392000D01*
X94683200Y-47392001D01*
X94516668Y-47447185D01*
X94516663Y-47447187D01*
X94367342Y-47539289D01*
X94243289Y-47663342D01*
X94151187Y-47812663D01*
X94151186Y-47812666D01*
X94096001Y-47979203D01*
X94096001Y-47979204D01*
X94096000Y-47979204D01*
X94085500Y-48081983D01*
X94085500Y-48682001D01*
X94085501Y-48682019D01*
X94096000Y-48784796D01*
X94096001Y-48784799D01*
X94122235Y-48863967D01*
X94151186Y-48951334D01*
X94241899Y-49098404D01*
X94260339Y-49165796D01*
X94239416Y-49232459D01*
X94185774Y-49277229D01*
X94136360Y-49287500D01*
X90924795Y-49287500D01*
X90857756Y-49267815D01*
X90812001Y-49215011D01*
X90800795Y-49163187D01*
X90805000Y-47498000D01*
X42093500Y-47498000D01*
X42026461Y-47478315D01*
X41980706Y-47425511D01*
X41969500Y-47374000D01*
X41969500Y-46723452D01*
X41989185Y-46656413D01*
X42005819Y-46635771D01*
X44672772Y-43968819D01*
X44734095Y-43935334D01*
X44760453Y-43932500D01*
X47926567Y-43932500D01*
X47993606Y-43952185D01*
X48025521Y-43981773D01*
X48078237Y-44051581D01*
X48228958Y-44188980D01*
X48228960Y-44188982D01*
X48328141Y-44250392D01*
X48402363Y-44296348D01*
X48592544Y-44370024D01*
X48793024Y-44407500D01*
X48793026Y-44407500D01*
X48996974Y-44407500D01*
X48996976Y-44407500D01*
X49197456Y-44370024D01*
X49387637Y-44296348D01*
X49561041Y-44188981D01*
X49711764Y-44051579D01*
X49834673Y-43888821D01*
X49925582Y-43706250D01*
X49981397Y-43510083D01*
X49999686Y-43312708D01*
X150549500Y-43312708D01*
X150549500Y-43555288D01*
X150581161Y-43795785D01*
X150643947Y-44030104D01*
X150709757Y-44188982D01*
X150736776Y-44254212D01*
X150858064Y-44464289D01*
X150858066Y-44464292D01*
X150858067Y-44464293D01*
X151005733Y-44656736D01*
X151005739Y-44656743D01*
X151177256Y-44828260D01*
X151177263Y-44828266D01*
X151285053Y-44910976D01*
X151369711Y-44975936D01*
X151579788Y-45097224D01*
X151803900Y-45190054D01*
X152038211Y-45252838D01*
X152218586Y-45276584D01*
X152278711Y-45284500D01*
X152278712Y-45284500D01*
X152521289Y-45284500D01*
X152569388Y-45278167D01*
X152761789Y-45252838D01*
X152996100Y-45190054D01*
X153220212Y-45097224D01*
X153430289Y-44975936D01*
X153622738Y-44828265D01*
X153794265Y-44656738D01*
X153941936Y-44464289D01*
X154063224Y-44254212D01*
X154156054Y-44030100D01*
X154218838Y-43795789D01*
X154250500Y-43555288D01*
X154250500Y-43312712D01*
X154250500Y-43312708D01*
X154218838Y-43072214D01*
X154218838Y-43072211D01*
X154156054Y-42837900D01*
X154063224Y-42613788D01*
X153941936Y-42403711D01*
X153794265Y-42211262D01*
X153794260Y-42211256D01*
X153622743Y-42039739D01*
X153622736Y-42039733D01*
X153430293Y-41892067D01*
X153430292Y-41892066D01*
X153430289Y-41892064D01*
X153220212Y-41770776D01*
X153220205Y-41770773D01*
X152996104Y-41677947D01*
X152761785Y-41615161D01*
X152521289Y-41583500D01*
X152521288Y-41583500D01*
X152278712Y-41583500D01*
X152278711Y-41583500D01*
X152038214Y-41615161D01*
X151803895Y-41677947D01*
X151579794Y-41770773D01*
X151579785Y-41770777D01*
X151369706Y-41892067D01*
X151177263Y-42039733D01*
X151177256Y-42039739D01*
X151005739Y-42211256D01*
X151005733Y-42211263D01*
X150858067Y-42403706D01*
X150736777Y-42613785D01*
X150736773Y-42613794D01*
X150643947Y-42837895D01*
X150581161Y-43072214D01*
X150549500Y-43312708D01*
X49999686Y-43312708D01*
X50000215Y-43307000D01*
X49981397Y-43103917D01*
X49925582Y-42907750D01*
X49834673Y-42725179D01*
X49711764Y-42562421D01*
X49711762Y-42562418D01*
X49561041Y-42425019D01*
X49561039Y-42425017D01*
X49387642Y-42317655D01*
X49387635Y-42317651D01*
X49292546Y-42280814D01*
X49197456Y-42243976D01*
X48996976Y-42206500D01*
X48793024Y-42206500D01*
X48592544Y-42243976D01*
X48592541Y-42243976D01*
X48592541Y-42243977D01*
X48402364Y-42317651D01*
X48402357Y-42317655D01*
X48228960Y-42425017D01*
X48228958Y-42425019D01*
X48078237Y-42562418D01*
X48025521Y-42632227D01*
X47969412Y-42673863D01*
X47926567Y-42681500D01*
X44388389Y-42681500D01*
X44327971Y-42693518D01*
X44284743Y-42702116D01*
X44267546Y-42705537D01*
X44153716Y-42752687D01*
X44051265Y-42821142D01*
X44051262Y-42821145D01*
X41682357Y-45190052D01*
X40945269Y-45927140D01*
X40945267Y-45927142D01*
X40901704Y-45970704D01*
X40858142Y-46014266D01*
X40845211Y-46033618D01*
X40832367Y-46052842D01*
X40789690Y-46116710D01*
X40789687Y-46116716D01*
X40764682Y-46177082D01*
X40764683Y-46177083D01*
X40742536Y-46230549D01*
X40742535Y-46230555D01*
X40718500Y-46351389D01*
X40718500Y-52234547D01*
X40698815Y-52301586D01*
X40646011Y-52347341D01*
X40576853Y-52357285D01*
X40513297Y-52328260D01*
X40506819Y-52322228D01*
X33766928Y-45582338D01*
X33766925Y-45582334D01*
X33766925Y-45582335D01*
X33759858Y-45575268D01*
X33759858Y-45575267D01*
X33672733Y-45488142D01*
X33672732Y-45488141D01*
X33672731Y-45488140D01*
X33621509Y-45453915D01*
X33570287Y-45419689D01*
X33570286Y-45419688D01*
X33570283Y-45419686D01*
X33570280Y-45419685D01*
X33489792Y-45386347D01*
X33456453Y-45372537D01*
X33446427Y-45370543D01*
X33396029Y-45360518D01*
X33335610Y-45348500D01*
X33335607Y-45348500D01*
X33335606Y-45348500D01*
X32988433Y-45348500D01*
X32921394Y-45328815D01*
X32889479Y-45299227D01*
X32836762Y-45229418D01*
X32686041Y-45092019D01*
X32686039Y-45092017D01*
X32512642Y-44984655D01*
X32512635Y-44984651D01*
X32417546Y-44947814D01*
X32322456Y-44910976D01*
X32121976Y-44873500D01*
X31918024Y-44873500D01*
X31717544Y-44910976D01*
X31717541Y-44910976D01*
X31717541Y-44910977D01*
X31527364Y-44984651D01*
X31527357Y-44984655D01*
X31353960Y-45092017D01*
X31353958Y-45092019D01*
X31203237Y-45229418D01*
X31080327Y-45392178D01*
X30989422Y-45574739D01*
X30989417Y-45574752D01*
X30933602Y-45770917D01*
X30914785Y-45973999D01*
X30914785Y-45974000D01*
X30933602Y-46177082D01*
X30989417Y-46373247D01*
X30989422Y-46373260D01*
X31080327Y-46555821D01*
X31203237Y-46718581D01*
X31353958Y-46855980D01*
X31353960Y-46855982D01*
X31453141Y-46917392D01*
X31527363Y-46963348D01*
X31717544Y-47037024D01*
X31918024Y-47074500D01*
X31918026Y-47074500D01*
X32121974Y-47074500D01*
X32121976Y-47074500D01*
X32322456Y-47037024D01*
X32512637Y-46963348D01*
X32686041Y-46855981D01*
X32836764Y-46718579D01*
X32871871Y-46672090D01*
X32878772Y-46662952D01*
X32934881Y-46621315D01*
X33004593Y-46616624D01*
X33065407Y-46649997D01*
X38022228Y-51606819D01*
X38055713Y-51668142D01*
X38050729Y-51737834D01*
X38008857Y-51793767D01*
X37943393Y-51818184D01*
X37934547Y-51818500D01*
X33329674Y-51818500D01*
X33260907Y-51823200D01*
X33235171Y-51826735D01*
X33227476Y-51827792D01*
X33227473Y-51827792D01*
X33227470Y-51827793D01*
X33159988Y-51841803D01*
X33028366Y-51899911D01*
X32969125Y-51936932D01*
X32969115Y-51936939D01*
X32859193Y-52029778D01*
X28962728Y-56413300D01*
X28903477Y-56450328D01*
X28833613Y-56449445D01*
X28818537Y-56443713D01*
X28789965Y-56430664D01*
X28789960Y-56430662D01*
X28789959Y-56430662D01*
X28722920Y-56410977D01*
X28722922Y-56410977D01*
X28722917Y-56410976D01*
X28660854Y-56402053D01*
X28580500Y-56390500D01*
X19428000Y-56390500D01*
X19360961Y-56370815D01*
X19315206Y-56318011D01*
X19304000Y-56266500D01*
X19304000Y-43312708D01*
X20501500Y-43312708D01*
X20501500Y-43555288D01*
X20533161Y-43795785D01*
X20595947Y-44030104D01*
X20661757Y-44188982D01*
X20688776Y-44254212D01*
X20810064Y-44464289D01*
X20810066Y-44464292D01*
X20810067Y-44464293D01*
X20957733Y-44656736D01*
X20957739Y-44656743D01*
X21129256Y-44828260D01*
X21129263Y-44828266D01*
X21237053Y-44910976D01*
X21321711Y-44975936D01*
X21531788Y-45097224D01*
X21755900Y-45190054D01*
X21990211Y-45252838D01*
X22170586Y-45276584D01*
X22230711Y-45284500D01*
X22230712Y-45284500D01*
X22473289Y-45284500D01*
X22521388Y-45278167D01*
X22713789Y-45252838D01*
X22948100Y-45190054D01*
X23172212Y-45097224D01*
X23382289Y-44975936D01*
X23574738Y-44828265D01*
X23746265Y-44656738D01*
X23893936Y-44464289D01*
X24015224Y-44254212D01*
X24108054Y-44030100D01*
X24170838Y-43795789D01*
X24202500Y-43555288D01*
X24202500Y-43312712D01*
X24202500Y-43312708D01*
X24170838Y-43072214D01*
X24170838Y-43072211D01*
X24108054Y-42837900D01*
X24015224Y-42613788D01*
X23893936Y-42403711D01*
X23746265Y-42211262D01*
X23746260Y-42211256D01*
X23574743Y-42039739D01*
X23574736Y-42039733D01*
X23382293Y-41892067D01*
X23382292Y-41892066D01*
X23382289Y-41892064D01*
X23172212Y-41770776D01*
X23172205Y-41770773D01*
X22948104Y-41677947D01*
X22713785Y-41615161D01*
X22473289Y-41583500D01*
X22473288Y-41583500D01*
X22230712Y-41583500D01*
X22230711Y-41583500D01*
X21990214Y-41615161D01*
X21755895Y-41677947D01*
X21531794Y-41770773D01*
X21531785Y-41770777D01*
X21321706Y-41892067D01*
X21129263Y-42039733D01*
X21129256Y-42039739D01*
X20957739Y-42211256D01*
X20957733Y-42211263D01*
X20810067Y-42403706D01*
X20688777Y-42613785D01*
X20688773Y-42613794D01*
X20595947Y-42837895D01*
X20533161Y-43072214D01*
X20501500Y-43312708D01*
X19304000Y-43312708D01*
X19304000Y-41851243D01*
X19320613Y-41789243D01*
X19453359Y-41559320D01*
X19460413Y-41548458D01*
X19665195Y-41266600D01*
X19673342Y-41256539D01*
X19906468Y-40997627D01*
X19915627Y-40988468D01*
X20174539Y-40755342D01*
X20184600Y-40747195D01*
X20466458Y-40542413D01*
X20477320Y-40535359D01*
X20707244Y-40402612D01*
X20769244Y-40386000D01*
X153982756Y-40386000D01*
X154044756Y-40402613D01*
G37*
%TD.AperFunction*%
%TA.AperFunction,Conductor*%
G36*
X35652487Y-72940636D02*
G01*
X35654797Y-72940872D01*
X35681227Y-72946525D01*
X35712494Y-72956886D01*
X35738583Y-72969052D01*
X35762659Y-72983902D01*
X35785244Y-73001760D01*
X35809734Y-73026250D01*
X35819293Y-73035561D01*
X35819309Y-73035576D01*
X35824066Y-73040088D01*
X35833888Y-73049161D01*
X35953466Y-73129177D01*
X36016473Y-73159374D01*
X36016474Y-73159374D01*
X36017471Y-73159852D01*
X36021247Y-73160872D01*
X36153755Y-73202461D01*
X36162505Y-73203885D01*
X36162118Y-73206258D01*
X36216440Y-73223295D01*
X36261219Y-73276929D01*
X36271500Y-73326365D01*
X36271500Y-74185001D01*
X36271501Y-74185019D01*
X36282000Y-74287796D01*
X36282001Y-74287799D01*
X36303091Y-74351443D01*
X36337186Y-74454334D01*
X36423477Y-74594235D01*
X36441917Y-74661627D01*
X36420994Y-74728290D01*
X36405621Y-74747011D01*
X36379288Y-74773344D01*
X36287187Y-74922663D01*
X36287185Y-74922668D01*
X36272291Y-74967616D01*
X36232001Y-75089203D01*
X36232001Y-75089204D01*
X36232000Y-75089204D01*
X36221500Y-75191983D01*
X36221500Y-76015097D01*
X36201815Y-76082136D01*
X36149011Y-76127891D01*
X36140835Y-76131278D01*
X36053389Y-76163894D01*
X36053383Y-76163897D01*
X36053381Y-76163898D01*
X36049063Y-76166256D01*
X35992060Y-76197381D01*
X35876882Y-76283603D01*
X35876869Y-76283614D01*
X35835242Y-76325240D01*
X35812659Y-76343096D01*
X35788583Y-76357946D01*
X35762492Y-76370112D01*
X35731238Y-76380469D01*
X35704853Y-76386120D01*
X35702556Y-76386355D01*
X35689936Y-76386999D01*
X35129065Y-76386999D01*
X35116456Y-76386356D01*
X35114157Y-76386121D01*
X35087762Y-76380470D01*
X35056507Y-76370113D01*
X35030415Y-76357946D01*
X35006339Y-76343096D01*
X34983754Y-76325238D01*
X34963760Y-76305244D01*
X34945901Y-76282657D01*
X34931051Y-76258580D01*
X34918886Y-76232493D01*
X34908528Y-76201237D01*
X34902872Y-76174801D01*
X34902637Y-76172500D01*
X34902000Y-76159942D01*
X34902000Y-75224058D01*
X34902641Y-75211469D01*
X34902875Y-75209176D01*
X34908526Y-75182768D01*
X34918887Y-75151501D01*
X34931053Y-75125411D01*
X34988255Y-75032674D01*
X35012116Y-74989386D01*
X35022759Y-74967624D01*
X35042286Y-74922190D01*
X35072869Y-74781598D01*
X35077853Y-74711906D01*
X35067589Y-74568395D01*
X35017307Y-74433586D01*
X34983822Y-74372263D01*
X34983820Y-74372259D01*
X34968236Y-74351443D01*
X34961963Y-74342228D01*
X34954213Y-74329664D01*
X34932907Y-74295122D01*
X34932899Y-74295110D01*
X34930513Y-74291242D01*
X34930510Y-74291237D01*
X34930507Y-74291234D01*
X34928019Y-74287796D01*
X34886915Y-74230985D01*
X34863468Y-74203147D01*
X34832949Y-74171901D01*
X34811487Y-74149927D01*
X34811486Y-74149926D01*
X34692774Y-74072032D01*
X34691191Y-74070993D01*
X34629331Y-74042028D01*
X34628172Y-74041467D01*
X34627915Y-74041365D01*
X34627912Y-74041364D01*
X34627910Y-74041363D01*
X34516301Y-74007436D01*
X34490251Y-73999517D01*
X34490244Y-73999516D01*
X34349215Y-73998176D01*
X34346376Y-73998150D01*
X34346375Y-73998150D01*
X34346374Y-73998150D01*
X34277125Y-74007436D01*
X34208535Y-74026869D01*
X34200517Y-74028854D01*
X34110088Y-74048076D01*
X34090263Y-74052290D01*
X34064483Y-74055000D01*
X34007516Y-74055000D01*
X33981735Y-74052290D01*
X33926013Y-74040446D01*
X33901356Y-74032434D01*
X33849314Y-74009262D01*
X33826869Y-73996304D01*
X33780775Y-73962815D01*
X33761520Y-73945478D01*
X33723394Y-73903135D01*
X33708161Y-73882167D01*
X33679674Y-73832824D01*
X33669133Y-73809151D01*
X33651527Y-73754965D01*
X33646141Y-73729622D01*
X33640186Y-73672958D01*
X33640186Y-73647040D01*
X33646141Y-73590375D01*
X33651528Y-73565027D01*
X33669134Y-73510844D01*
X33679671Y-73487177D01*
X33708166Y-73437821D01*
X33723390Y-73416867D01*
X33761522Y-73374517D01*
X33780766Y-73357189D01*
X33826879Y-73323685D01*
X33849308Y-73310737D01*
X33901363Y-73287560D01*
X33926011Y-73279552D01*
X33950998Y-73274241D01*
X33981737Y-73267709D01*
X34007515Y-73265000D01*
X34064489Y-73265000D01*
X34090259Y-73267707D01*
X34162156Y-73282989D01*
X34178307Y-73287587D01*
X34208705Y-73298520D01*
X34243765Y-73308283D01*
X34316690Y-73322910D01*
X34460545Y-73320251D01*
X34528405Y-73309210D01*
X34529368Y-73309063D01*
X34529511Y-73309030D01*
X34529515Y-73309030D01*
X34666794Y-73265947D01*
X34786374Y-73185934D01*
X34835414Y-73141826D01*
X34837873Y-73139750D01*
X34843167Y-73133408D01*
X34920647Y-73040573D01*
X34928155Y-73032358D01*
X34958756Y-73001757D01*
X34981331Y-72983906D01*
X35005421Y-72969048D01*
X35031501Y-72956886D01*
X35062769Y-72946525D01*
X35089203Y-72940872D01*
X35091506Y-72940636D01*
X35104055Y-72940000D01*
X35639940Y-72940000D01*
X35652487Y-72940636D01*
G37*
%TD.AperFunction*%
%TA.AperFunction,Conductor*%
G36*
X35560000Y-62738000D02*
G01*
X38091631Y-62738000D01*
X38048290Y-62781341D01*
X38048288Y-62781343D01*
X38048288Y-62781344D01*
X38025926Y-62817598D01*
X37973980Y-62864321D01*
X37920389Y-62876500D01*
X37872328Y-62876500D01*
X37837733Y-62871576D01*
X37692573Y-62829402D01*
X37692567Y-62829401D01*
X37655701Y-62826500D01*
X37655694Y-62826500D01*
X35874306Y-62826500D01*
X35874298Y-62826500D01*
X35837432Y-62829401D01*
X35837426Y-62829402D01*
X35679606Y-62875254D01*
X35679603Y-62875255D01*
X35538137Y-62958917D01*
X35538129Y-62958923D01*
X35421923Y-63075129D01*
X35421917Y-63075137D01*
X35338255Y-63216603D01*
X35338254Y-63216606D01*
X35292402Y-63374426D01*
X35292401Y-63374432D01*
X35289500Y-63411298D01*
X35289500Y-63785639D01*
X35269815Y-63852678D01*
X35253181Y-63873320D01*
X35066269Y-64060232D01*
X35066267Y-64060234D01*
X35033646Y-64092855D01*
X34979142Y-64147358D01*
X34963884Y-64170193D01*
X34948728Y-64192877D01*
X34910690Y-64249802D01*
X34910688Y-64249806D01*
X34893092Y-64292289D01*
X34893091Y-64292291D01*
X34863538Y-64363637D01*
X34863535Y-64363647D01*
X34839500Y-64484481D01*
X34839500Y-66768611D01*
X34863535Y-66889444D01*
X34863540Y-66889461D01*
X34910685Y-67003281D01*
X34910690Y-67003290D01*
X34922528Y-67021006D01*
X34922529Y-67021007D01*
X34979140Y-67105731D01*
X34979141Y-67105732D01*
X34979142Y-67105733D01*
X35066267Y-67192858D01*
X35066268Y-67192858D01*
X35073335Y-67199925D01*
X35073334Y-67199925D01*
X35073338Y-67199928D01*
X35152181Y-67278771D01*
X35185666Y-67340094D01*
X35188500Y-67366452D01*
X35188500Y-68712500D01*
X35168815Y-68779539D01*
X35116011Y-68825294D01*
X35064500Y-68836500D01*
X33903500Y-68836500D01*
X33836461Y-68816815D01*
X33790706Y-68764011D01*
X33779500Y-68712500D01*
X33779500Y-64637500D01*
X33799185Y-64570461D01*
X33851989Y-64524706D01*
X33903500Y-64513500D01*
X34114490Y-64513500D01*
X34114500Y-64513500D01*
X34221956Y-64501947D01*
X34273467Y-64490741D01*
X34307697Y-64479347D01*
X34375997Y-64456616D01*
X34376001Y-64456613D01*
X34376004Y-64456613D01*
X34497043Y-64378825D01*
X34549847Y-64333070D01*
X34644067Y-64224336D01*
X34703838Y-64093459D01*
X34723523Y-64026420D01*
X34723524Y-64026416D01*
X34744000Y-63884000D01*
X34744000Y-63283387D01*
X34746381Y-63259205D01*
X34747944Y-63251344D01*
X34750899Y-63239543D01*
X34776348Y-63155655D01*
X34785787Y-63108203D01*
X34795500Y-63009583D01*
X34795500Y-62998746D01*
X34815185Y-62931707D01*
X34831819Y-62911065D01*
X35177699Y-62565185D01*
X35560000Y-62182884D01*
X35560000Y-62738000D01*
G37*
%TD.AperFunction*%
%TD*%
%TA.AperFunction,Conductor*%
%TO.N,Vout*%
G36*
X155391039Y-118637685D02*
G01*
X155436794Y-118690489D01*
X155448000Y-118742000D01*
X155448000Y-139250755D01*
X155431387Y-139312755D01*
X155298647Y-139542667D01*
X155291578Y-139553552D01*
X155086814Y-139835385D01*
X155078646Y-139845472D01*
X154845540Y-140104362D01*
X154836362Y-140113540D01*
X154577472Y-140346646D01*
X154567385Y-140354814D01*
X154285552Y-140559578D01*
X154274667Y-140566647D01*
X154099686Y-140667672D01*
X154050077Y-140696315D01*
X154044756Y-140699387D01*
X153982756Y-140716000D01*
X96898000Y-140716000D01*
X96830961Y-140696315D01*
X96785206Y-140643511D01*
X96774000Y-140592000D01*
X96774000Y-137546711D01*
X150549500Y-137546711D01*
X150549500Y-137789288D01*
X150581161Y-138029785D01*
X150643947Y-138264104D01*
X150736773Y-138488205D01*
X150736776Y-138488212D01*
X150858064Y-138698289D01*
X150858066Y-138698292D01*
X150858067Y-138698293D01*
X151005733Y-138890736D01*
X151005739Y-138890743D01*
X151177256Y-139062260D01*
X151177262Y-139062265D01*
X151369711Y-139209936D01*
X151579788Y-139331224D01*
X151803900Y-139424054D01*
X152038211Y-139486838D01*
X152218586Y-139510584D01*
X152278711Y-139518500D01*
X152278712Y-139518500D01*
X152521289Y-139518500D01*
X152569388Y-139512167D01*
X152761789Y-139486838D01*
X152996100Y-139424054D01*
X153220212Y-139331224D01*
X153430289Y-139209936D01*
X153622738Y-139062265D01*
X153794265Y-138890738D01*
X153941936Y-138698289D01*
X154063224Y-138488212D01*
X154156054Y-138264100D01*
X154218838Y-138029789D01*
X154250500Y-137789288D01*
X154250500Y-137546712D01*
X154218838Y-137306211D01*
X154156054Y-137071900D01*
X154063224Y-136847788D01*
X153941936Y-136637711D01*
X153794265Y-136445262D01*
X153794260Y-136445256D01*
X153622743Y-136273739D01*
X153622736Y-136273733D01*
X153430293Y-136126067D01*
X153430292Y-136126066D01*
X153430289Y-136126064D01*
X153220212Y-136004776D01*
X153220205Y-136004773D01*
X152996104Y-135911947D01*
X152761785Y-135849161D01*
X152521289Y-135817500D01*
X152521288Y-135817500D01*
X152278712Y-135817500D01*
X152278711Y-135817500D01*
X152038214Y-135849161D01*
X151803895Y-135911947D01*
X151579794Y-136004773D01*
X151579785Y-136004777D01*
X151369706Y-136126067D01*
X151177263Y-136273733D01*
X151177256Y-136273739D01*
X151005739Y-136445256D01*
X151005733Y-136445263D01*
X150858067Y-136637706D01*
X150736777Y-136847785D01*
X150736773Y-136847794D01*
X150643947Y-137071895D01*
X150581161Y-137306214D01*
X150549500Y-137546711D01*
X96774000Y-137546711D01*
X96774000Y-125410000D01*
X108154064Y-125410000D01*
X108173787Y-125710918D01*
X108173788Y-125710930D01*
X108232618Y-126006683D01*
X108232622Y-126006698D01*
X108329553Y-126292247D01*
X108329562Y-126292268D01*
X108462931Y-126562713D01*
X108462935Y-126562720D01*
X108630473Y-126813459D01*
X108829310Y-127040189D01*
X109056040Y-127239026D01*
X109306779Y-127406564D01*
X109306786Y-127406568D01*
X109577231Y-127539937D01*
X109577236Y-127539939D01*
X109577248Y-127539945D01*
X109862809Y-127636880D01*
X110062751Y-127676651D01*
X110158569Y-127695711D01*
X110158570Y-127695711D01*
X110158580Y-127695713D01*
X110459500Y-127715436D01*
X110760420Y-127695713D01*
X111056191Y-127636880D01*
X111341752Y-127539945D01*
X111612218Y-127406566D01*
X111862961Y-127239025D01*
X112089689Y-127040189D01*
X112288525Y-126813461D01*
X112456066Y-126562718D01*
X112589445Y-126292252D01*
X112686380Y-126006691D01*
X112745213Y-125710920D01*
X112764936Y-125410000D01*
X112745213Y-125109080D01*
X112686380Y-124813309D01*
X112589445Y-124527748D01*
X112456066Y-124257282D01*
X112288525Y-124006539D01*
X112089689Y-123779810D01*
X111862959Y-123580973D01*
X111612220Y-123413435D01*
X111612213Y-123413431D01*
X111341768Y-123280062D01*
X111341747Y-123280053D01*
X111056198Y-123183122D01*
X111056192Y-123183120D01*
X111056191Y-123183120D01*
X111056189Y-123183119D01*
X111056183Y-123183118D01*
X110760430Y-123124288D01*
X110760421Y-123124287D01*
X110760420Y-123124287D01*
X110459500Y-123104564D01*
X110158580Y-123124287D01*
X110158579Y-123124287D01*
X110158569Y-123124288D01*
X109862816Y-123183118D01*
X109862801Y-123183122D01*
X109577252Y-123280053D01*
X109577231Y-123280062D01*
X109306786Y-123413431D01*
X109306779Y-123413435D01*
X109056040Y-123580973D01*
X108829310Y-123779810D01*
X108630473Y-124006540D01*
X108462935Y-124257279D01*
X108462931Y-124257286D01*
X108329562Y-124527731D01*
X108329553Y-124527752D01*
X108232622Y-124813301D01*
X108232618Y-124813316D01*
X108173788Y-125109069D01*
X108173787Y-125109081D01*
X108154064Y-125410000D01*
X96774000Y-125410000D01*
X96774000Y-123556500D01*
X96793685Y-123489461D01*
X96846489Y-123443706D01*
X96898000Y-123432500D01*
X99387920Y-123432500D01*
X99485462Y-123413096D01*
X99532913Y-123403658D01*
X99669495Y-123347084D01*
X99718729Y-123314186D01*
X99792416Y-123264952D01*
X100678983Y-122378383D01*
X100740306Y-122344899D01*
X100766664Y-122342065D01*
X101363371Y-122342065D01*
X101363372Y-122342065D01*
X101422983Y-122335657D01*
X101557831Y-122285362D01*
X101673046Y-122199112D01*
X101759296Y-122083897D01*
X101809591Y-121949049D01*
X101816000Y-121889439D01*
X101815999Y-119793694D01*
X101809591Y-119734083D01*
X101759296Y-119599235D01*
X101759295Y-119599234D01*
X101759293Y-119599230D01*
X101673047Y-119484021D01*
X101673044Y-119484018D01*
X101557835Y-119397772D01*
X101557828Y-119397768D01*
X101422982Y-119347474D01*
X101422983Y-119347474D01*
X101363383Y-119341067D01*
X101363381Y-119341066D01*
X101363373Y-119341066D01*
X101363364Y-119341066D01*
X99362629Y-119341066D01*
X99362623Y-119341067D01*
X99303016Y-119347474D01*
X99168171Y-119397768D01*
X99168164Y-119397772D01*
X99052955Y-119484018D01*
X99052952Y-119484021D01*
X98966706Y-119599230D01*
X98966702Y-119599237D01*
X98916408Y-119734083D01*
X98910001Y-119793682D01*
X98910001Y-119793689D01*
X98910000Y-119793701D01*
X98910001Y-121807500D01*
X98890316Y-121874539D01*
X98837513Y-121920294D01*
X98786001Y-121931500D01*
X96898000Y-121931500D01*
X96830961Y-121911815D01*
X96785206Y-121859011D01*
X96774000Y-121807500D01*
X96774000Y-118702362D01*
X96793685Y-118635323D01*
X96807000Y-118618799D01*
X96807000Y-118618000D01*
X104665392Y-118618000D01*
X104665393Y-118618000D01*
X155324000Y-118618000D01*
X155391039Y-118637685D01*
G37*
%TD.AperFunction*%
%TD*%
%TA.AperFunction,Conductor*%
%TO.N,Vout_sens*%
G36*
X134053181Y-110483729D02*
G01*
X134099864Y-110535715D01*
X134112000Y-110589216D01*
X134112000Y-116462000D01*
X134092315Y-116529039D01*
X134039511Y-116574794D01*
X133988000Y-116586000D01*
X132712000Y-116586000D01*
X132644961Y-116566315D01*
X132599206Y-116513511D01*
X132588000Y-116462000D01*
X132588000Y-110611823D01*
X132607685Y-110544784D01*
X132660489Y-110499029D01*
X132709802Y-110487842D01*
X133985805Y-110465235D01*
X134053181Y-110483729D01*
G37*
%TD.AperFunction*%
%TD*%
%TA.AperFunction,Conductor*%
%TO.N,/L_in*%
G36*
X38755087Y-52343685D02*
G01*
X38775729Y-52360319D01*
X40232181Y-53816771D01*
X40265666Y-53878094D01*
X40268500Y-53904452D01*
X40268500Y-60074000D01*
X40248815Y-60141039D01*
X40196011Y-60186794D01*
X40144500Y-60198000D01*
X35306000Y-60198000D01*
X35306000Y-61670638D01*
X35286315Y-61737677D01*
X35269681Y-61758319D01*
X34290000Y-62737999D01*
X34290000Y-63009583D01*
X34280561Y-63057035D01*
X34262538Y-63100545D01*
X34262535Y-63100557D01*
X34238500Y-63221390D01*
X34238500Y-63884000D01*
X34218815Y-63951039D01*
X34166011Y-63996794D01*
X34114500Y-64008000D01*
X29334000Y-64008000D01*
X29266961Y-63988315D01*
X29221206Y-63935511D01*
X29210000Y-63884000D01*
X29210000Y-56943144D01*
X29229685Y-56876105D01*
X29241316Y-56860768D01*
X33237005Y-52365618D01*
X33296256Y-52328591D01*
X33329684Y-52324000D01*
X38688048Y-52324000D01*
X38755087Y-52343685D01*
G37*
%TD.AperFunction*%
%TD*%
%TA.AperFunction,Conductor*%
%TO.N,GND*%
G36*
X50734000Y-109220000D02*
G01*
X48559368Y-109220000D01*
X48194000Y-108854632D01*
X48194000Y-105664000D01*
X50734000Y-105664000D01*
X50734000Y-109220000D01*
G37*
%TD.AperFunction*%
%TD*%
%TA.AperFunction,Conductor*%
%TO.N,GND*%
G36*
X104648000Y-117348000D02*
G01*
X99060000Y-117348000D01*
X99060000Y-116332000D01*
X99314000Y-115824000D01*
X99314000Y-115068418D01*
X99339500Y-114907420D01*
X99339500Y-114583712D01*
X99314000Y-114422713D01*
X99314000Y-113792000D01*
X104648000Y-113792000D01*
X104648000Y-117348000D01*
G37*
%TD.AperFunction*%
%TD*%
%TA.AperFunction,Conductor*%
%TO.N,GND*%
G36*
X40211539Y-60723185D02*
G01*
X40257294Y-60775989D01*
X40268500Y-60827500D01*
X40268500Y-62566770D01*
X40248815Y-62633809D01*
X40196011Y-62679564D01*
X40126853Y-62689508D01*
X40065527Y-62661501D01*
X40065319Y-62661766D01*
X40064242Y-62660914D01*
X40063297Y-62660483D01*
X40061047Y-62658388D01*
X40059658Y-62657290D01*
X40059656Y-62657288D01*
X39910334Y-62565186D01*
X39743797Y-62510001D01*
X39743795Y-62510000D01*
X39641010Y-62499500D01*
X38590998Y-62499500D01*
X38590980Y-62499501D01*
X38488203Y-62510000D01*
X38488200Y-62510001D01*
X38321668Y-62565185D01*
X38321663Y-62565187D01*
X38172342Y-62657289D01*
X38091631Y-62738000D01*
X35560000Y-62738000D01*
X35560000Y-62182884D01*
X35627123Y-62115762D01*
X35663288Y-62075500D01*
X35679922Y-62054858D01*
X35711567Y-62010974D01*
X35771338Y-61880097D01*
X35791023Y-61813058D01*
X35791024Y-61813054D01*
X35811500Y-61670638D01*
X35811500Y-60827500D01*
X35831185Y-60760461D01*
X35883989Y-60714706D01*
X35935500Y-60703500D01*
X40144500Y-60703500D01*
X40211539Y-60723185D01*
G37*
%TD.AperFunction*%
%TD*%
%TA.AperFunction,Conductor*%
%TO.N,GND*%
G36*
X63426748Y-111787000D02*
G01*
X60886748Y-111787000D01*
X60886748Y-108231000D01*
X63426748Y-108231000D01*
X63426748Y-111787000D01*
G37*
%TD.AperFunction*%
%TD*%
%TA.AperFunction,Conductor*%
%TO.N,+3.3V*%
G36*
X38043039Y-65805685D02*
G01*
X38088794Y-65858489D01*
X38100000Y-65910000D01*
X38100000Y-68710000D01*
X38080315Y-68777039D01*
X38027511Y-68822794D01*
X37976000Y-68834000D01*
X36563500Y-68834000D01*
X36496461Y-68814315D01*
X36450706Y-68761511D01*
X36439500Y-68710000D01*
X36439500Y-67123741D01*
X36439501Y-67123720D01*
X36439501Y-66994391D01*
X36415464Y-66873553D01*
X36415462Y-66873547D01*
X36404270Y-66846526D01*
X36404259Y-66846501D01*
X36371995Y-66768607D01*
X36368312Y-66759715D01*
X36299858Y-66657267D01*
X36299855Y-66657263D01*
X36126819Y-66484227D01*
X36093334Y-66422904D01*
X36090500Y-66396546D01*
X36090500Y-65910000D01*
X36110185Y-65842961D01*
X36162989Y-65797206D01*
X36214500Y-65786000D01*
X37976000Y-65786000D01*
X38043039Y-65805685D01*
G37*
%TD.AperFunction*%
%TD*%
%TA.AperFunction,Conductor*%
%TO.N,Vout*%
G36*
X100360499Y-118249203D02*
G01*
X100362803Y-118249438D01*
X100389236Y-118255094D01*
X100420490Y-118265451D01*
X100446579Y-118277616D01*
X100499611Y-118310326D01*
X100530044Y-118329097D01*
X100530056Y-118329105D01*
X100539429Y-118334887D01*
X100539431Y-118334888D01*
X100542607Y-118336545D01*
X100547121Y-118339021D01*
X100562316Y-118347771D01*
X100583786Y-118360135D01*
X100586781Y-118361164D01*
X100603275Y-118368254D01*
X100603689Y-118368416D01*
X100603696Y-118368420D01*
X100620233Y-118372931D01*
X100627845Y-118375274D01*
X100719856Y-118406893D01*
X100788492Y-118419964D01*
X100932223Y-118426492D01*
X100932225Y-118426492D01*
X101033764Y-118401619D01*
X101071973Y-118392261D01*
X101124593Y-118371060D01*
X101124592Y-118371059D01*
X101127138Y-118370034D01*
X101137302Y-118369040D01*
X101169407Y-118352986D01*
X101169408Y-118352988D01*
X101169410Y-118352987D01*
X101194294Y-118339126D01*
X101198698Y-118336951D01*
X101198679Y-118336914D01*
X101202588Y-118334871D01*
X101202609Y-118334863D01*
X101208754Y-118331072D01*
X101208753Y-118331071D01*
X101217291Y-118325804D01*
X101294510Y-118278176D01*
X101294524Y-118278169D01*
X101295362Y-118277652D01*
X101295778Y-118277457D01*
X101302360Y-118273723D01*
X101302385Y-118273710D01*
X101302663Y-118274245D01*
X101321511Y-118265450D01*
X101352762Y-118255094D01*
X101379195Y-118249438D01*
X101381498Y-118249203D01*
X101394055Y-118248566D01*
X102379943Y-118248566D01*
X102392499Y-118249203D01*
X102394803Y-118249438D01*
X102421236Y-118255094D01*
X102452490Y-118265451D01*
X102478579Y-118277616D01*
X102531611Y-118310326D01*
X102562044Y-118329097D01*
X102562056Y-118329105D01*
X102571429Y-118334887D01*
X102571431Y-118334888D01*
X102574607Y-118336545D01*
X102579121Y-118339021D01*
X102594316Y-118347771D01*
X102615786Y-118360135D01*
X102618781Y-118361164D01*
X102635275Y-118368254D01*
X102635689Y-118368416D01*
X102635696Y-118368420D01*
X102652233Y-118372931D01*
X102659845Y-118375274D01*
X102751856Y-118406893D01*
X102820492Y-118419964D01*
X102964223Y-118426492D01*
X102964225Y-118426492D01*
X103065764Y-118401619D01*
X103103973Y-118392261D01*
X103156593Y-118371060D01*
X103156592Y-118371059D01*
X103159138Y-118370034D01*
X103169302Y-118369040D01*
X103201407Y-118352986D01*
X103201408Y-118352988D01*
X103201410Y-118352987D01*
X103226294Y-118339126D01*
X103230698Y-118336951D01*
X103230679Y-118336914D01*
X103234588Y-118334871D01*
X103234609Y-118334863D01*
X103240754Y-118331072D01*
X103240753Y-118331071D01*
X103249291Y-118325804D01*
X103326510Y-118278176D01*
X103326524Y-118278169D01*
X103327362Y-118277652D01*
X103327778Y-118277457D01*
X103334360Y-118273723D01*
X103334385Y-118273710D01*
X103334663Y-118274245D01*
X103353511Y-118265450D01*
X103384762Y-118255094D01*
X103411195Y-118249438D01*
X103413498Y-118249203D01*
X103426055Y-118248566D01*
X104411943Y-118248566D01*
X104424499Y-118249203D01*
X104426803Y-118249438D01*
X104453236Y-118255094D01*
X104484490Y-118265451D01*
X104510576Y-118277614D01*
X104534661Y-118292469D01*
X104557244Y-118310326D01*
X104598755Y-118351837D01*
X104608696Y-118363059D01*
X104635754Y-118397606D01*
X104661594Y-118462521D01*
X104662101Y-118471284D01*
X104664837Y-118593248D01*
X104665392Y-118618000D01*
X98664055Y-118618000D01*
X98776071Y-118605433D01*
X98829661Y-118593255D01*
X98936115Y-118556174D01*
X99055694Y-118476159D01*
X99107642Y-118429434D01*
X99107645Y-118429431D01*
X99154499Y-118373288D01*
X99162009Y-118365070D01*
X99216756Y-118310323D01*
X99239331Y-118292472D01*
X99263421Y-118277614D01*
X99289501Y-118265452D01*
X99320769Y-118255091D01*
X99347203Y-118249438D01*
X99349506Y-118249202D01*
X99362055Y-118248566D01*
X100347943Y-118248566D01*
X100360499Y-118249203D01*
G37*
%TD.AperFunction*%
%TD*%
%TA.AperFunction,Conductor*%
%TO.N,Vin*%
G36*
X28647539Y-56915685D02*
G01*
X28693294Y-56968489D01*
X28704500Y-57020000D01*
X28704500Y-63884000D01*
X28704501Y-63884009D01*
X28716052Y-63991450D01*
X28716054Y-63991462D01*
X28727260Y-64042972D01*
X28761383Y-64145497D01*
X28761386Y-64145503D01*
X28839171Y-64266537D01*
X28839179Y-64266548D01*
X28884923Y-64319340D01*
X28884926Y-64319343D01*
X28884930Y-64319347D01*
X28993664Y-64413567D01*
X29124541Y-64473338D01*
X29191580Y-64493023D01*
X29191584Y-64493024D01*
X29334000Y-64513500D01*
X29334003Y-64513500D01*
X33150000Y-64513500D01*
X33217039Y-64533185D01*
X33262794Y-64585989D01*
X33274000Y-64637500D01*
X33274000Y-66548000D01*
X33274000Y-69342000D01*
X35064500Y-69342000D01*
X35131539Y-69361685D01*
X35177294Y-69414489D01*
X35188500Y-69466000D01*
X35188500Y-70269111D01*
X35212535Y-70389944D01*
X35212540Y-70389961D01*
X35259685Y-70503780D01*
X35259690Y-70503789D01*
X35293914Y-70555007D01*
X35293915Y-70555009D01*
X35328140Y-70606231D01*
X35328141Y-70606232D01*
X35328142Y-70606233D01*
X35415267Y-70693358D01*
X35415268Y-70693358D01*
X35422335Y-70700425D01*
X35422334Y-70700425D01*
X35422338Y-70700428D01*
X36185181Y-71463271D01*
X36218666Y-71524594D01*
X36221500Y-71550952D01*
X36221500Y-72128001D01*
X36221501Y-72128019D01*
X36232000Y-72230796D01*
X36232001Y-72230799D01*
X36287185Y-72397331D01*
X36287189Y-72397340D01*
X36360402Y-72516037D01*
X36378842Y-72583429D01*
X36357919Y-72650092D01*
X36304277Y-72694862D01*
X36234946Y-72703523D01*
X36171939Y-72673326D01*
X36167182Y-72668814D01*
X36090657Y-72592289D01*
X36090656Y-72592288D01*
X35941334Y-72500186D01*
X35774797Y-72445001D01*
X35774795Y-72445000D01*
X35672010Y-72434500D01*
X35071998Y-72434500D01*
X35071980Y-72434501D01*
X34969203Y-72445000D01*
X34969200Y-72445001D01*
X34802668Y-72500185D01*
X34802663Y-72500187D01*
X34653342Y-72592289D01*
X34529288Y-72716343D01*
X34529285Y-72716347D01*
X34500282Y-72763367D01*
X34448333Y-72810091D01*
X34379370Y-72821311D01*
X34344310Y-72811548D01*
X34315802Y-72798855D01*
X34170001Y-72767865D01*
X34130646Y-72759500D01*
X33941354Y-72759500D01*
X33923161Y-72763367D01*
X33756197Y-72798855D01*
X33756192Y-72798857D01*
X33583270Y-72875848D01*
X33583265Y-72875851D01*
X33430129Y-72987111D01*
X33303466Y-73127785D01*
X33208821Y-73291715D01*
X33208818Y-73291722D01*
X33150327Y-73471740D01*
X33150326Y-73471744D01*
X33130540Y-73660000D01*
X33150326Y-73848256D01*
X33150327Y-73848259D01*
X33208818Y-74028277D01*
X33208821Y-74028284D01*
X33303467Y-74192216D01*
X33389527Y-74287795D01*
X33430129Y-74332888D01*
X33583265Y-74444148D01*
X33583270Y-74444151D01*
X33756192Y-74521142D01*
X33756197Y-74521144D01*
X33941354Y-74560500D01*
X33941355Y-74560500D01*
X34130644Y-74560500D01*
X34130646Y-74560500D01*
X34315803Y-74521144D01*
X34344309Y-74508452D01*
X34413559Y-74499166D01*
X34476836Y-74528794D01*
X34500283Y-74556632D01*
X34502669Y-74560500D01*
X34529289Y-74603657D01*
X34540156Y-74614524D01*
X34573641Y-74675847D01*
X34568657Y-74745539D01*
X34558014Y-74767301D01*
X34462189Y-74922659D01*
X34462186Y-74922666D01*
X34407001Y-75089203D01*
X34407001Y-75089204D01*
X34407000Y-75089204D01*
X34396500Y-75191983D01*
X34396500Y-76192001D01*
X34396501Y-76192019D01*
X34407000Y-76294796D01*
X34407001Y-76294799D01*
X34462185Y-76461331D01*
X34462186Y-76461334D01*
X34554288Y-76610656D01*
X34678344Y-76734712D01*
X34827666Y-76826814D01*
X34994203Y-76881999D01*
X35096991Y-76892500D01*
X35722008Y-76892499D01*
X35722016Y-76892498D01*
X35722019Y-76892498D01*
X35778302Y-76886748D01*
X35824797Y-76881999D01*
X35991334Y-76826814D01*
X36140656Y-76734712D01*
X36234319Y-76641049D01*
X36295642Y-76607564D01*
X36365334Y-76612548D01*
X36409681Y-76641049D01*
X36503344Y-76734712D01*
X36652666Y-76826814D01*
X36819203Y-76881999D01*
X36921991Y-76892500D01*
X37547008Y-76892499D01*
X37547016Y-76892498D01*
X37547019Y-76892498D01*
X37603302Y-76886748D01*
X37649797Y-76881999D01*
X37816334Y-76826814D01*
X37965656Y-76734712D01*
X38089712Y-76610656D01*
X38112002Y-76574516D01*
X38163948Y-76527791D01*
X38232911Y-76516567D01*
X38267974Y-76526330D01*
X38328197Y-76553144D01*
X38513354Y-76592500D01*
X38513355Y-76592500D01*
X38702644Y-76592500D01*
X38702646Y-76592500D01*
X38887803Y-76553144D01*
X38910049Y-76543239D01*
X38953064Y-76524088D01*
X39022314Y-76514803D01*
X39085591Y-76544431D01*
X39122804Y-76603566D01*
X39127500Y-76637367D01*
X39127500Y-81156000D01*
X39107815Y-81223039D01*
X39055011Y-81268794D01*
X39003500Y-81280000D01*
X19174000Y-81280000D01*
X19106961Y-81260315D01*
X19061206Y-81207511D01*
X19050000Y-81156000D01*
X19050000Y-57020000D01*
X19069685Y-56952961D01*
X19122489Y-56907206D01*
X19174000Y-56896000D01*
X28580500Y-56896000D01*
X28647539Y-56915685D01*
G37*
%TD.AperFunction*%
%TD*%
M02*
